<?xml version="1.0" encoding="UTF-8" standalone="no"?>
<!DOCTYPE svg PUBLIC "-//W3C//DTD SVG 1.1//EN" "http://www.w3.org/Graphics/SVG/1.1/DTD/svg11.dtd">
<!-- Created with Vectornator (http://vectornator.io/) -->
<svg height="100%" stroke-miterlimit="10" style="fill-rule:nonzero;clip-rule:evenodd;stroke-linecap:round;stroke-linejoin:round;" version="1.1" viewBox="649.144 573.891 194.539 299.665" width="100%" xml:space="preserve" xmlns="http://www.w3.org/2000/svg" xmlns:vectornator="http://vectornator.io" xmlns:xlink="http://www.w3.org/1999/xlink">
<defs/>
<g id="Layer-9-copy-copy" vectornator:layerName="Layer 9 copy copy">
<path d="M712.263 653.842C712.263 673.844 713.527 696.195 710.694 716.021C709.728 722.783 709.517 729.899 709.517 736.813C709.517 739.186 709.257 741.788 709.714 744.07C709.752 744.263 709.925 747.585 710.106 747.405C711.432 746.079 708.199 738.406 707.752 736.617C706.663 732.262 699.316 700.133 695.002 700.133C694.48 700.133 694.414 703.184 694.414 703.664C694.414 710.024 693.237 716.142 693.237 722.494C693.237 723.477 693.433 725.436 693.433 725.436C693.433 725.436 698.209 708.741 693.433 710.333C691.213 711.073 693.409 726.69 693.826 728.771C694.955 734.419 698.314 741.359 701.671 745.836C703.435 748.188 707.899 750.298 708.537 753.486C709.948 760.542 709.835 767.766 710.498 775.062C712.793 800.309 709.059 826.059 713.244 851.167C714.578 859.169 712.847 875.393 725.013 872.351C725.297 872.28 725.514 872.03 725.798 871.959C728.201 871.358 727.047 870.114 726.778 868.232C725.978 862.628 722.67 857.701 721.679 851.756C720.469 844.498 720.8 836.965 719.325 829.591C718.275 824.342 720.368 818.333 719.325 813.115C715.685 794.914 717.11 769.771 719.717 751.524C720.946 742.922 717.669 734 719.129 725.24C722.082 707.519 719.505 688.85 722.463 671.103C723.492 664.928 723.64 659.301 723.64 653.058C723.64 651.935 722.308 643.561 721.482 645.212" fill="#377235" fill-rule="nonzero" opacity="1" stroke="none" vectornator:layerName="Curve 85"/>
<path d="M723.648 652.161C722.91 646.603 719.737 640.425 721.064 650.413" fill="#377235" fill-rule="nonzero" opacity="1" stroke="none" vectornator:layerName="Curve 86"/>
<path d="M687.706 787.457C683.348 786.967 677.895 781.645 674.538 779.005C657.427 765.552 651.72 752.331 650.307 731.543C650.051 727.77 654.343 707.184 658.061 705.58C658.274 705.488 659.184 706.173 659.344 706.32C664.114 710.682 666.03 717.864 670.191 722.639C680.514 734.483 686.645 752.587 688.128 767.501C688.649 772.741 691.912 778.974 688.698 783.926" fill="#377235" fill-rule="nonzero" opacity="1" stroke="none" vectornator:layerName="Curve 87"/>
<path d="M708.812 643.752C704.924 647.728 698.516 649.122 696.624 655.018C696.426 655.634 695.516 662.82 695.758 662.751C699.352 661.728 703.24 657.818 706.9 656.279C710.308 654.846 713.78 655.002 716.808 652.994C718.348 651.973 720.882 648.62 721.458 646.827C721.674 646.152 722.653 643.517 722.523 643.726" fill="#377235" fill-rule="nonzero" opacity="1" stroke="none" vectornator:layerName="Curve 88"/>
<path d="M722.633 644.042C720.606 650.357 730.524 655.428 735.155 656.915C736.11 657.221 741.566 658.57 741.978 657.77C743.996 653.852 730.424 646.262 727.924 644.194C727.509 643.85 726.445 642.672 726.059 643.877" fill="#377235" fill-rule="nonzero" opacity="1" stroke="none" vectornator:layerName="Curve 89"/>
<path d="M721.953 645.721C720.428 647.649 719.783 654.944 723.801 652.006C728.121 648.846 725.527 645.048 724.236 647.367" fill="#377235" fill-rule="nonzero" opacity="1" stroke="none" vectornator:layerName="Curve 90"/>
<path d="M761.033 845.713C749.946 836.763 744.068 823.247 741.043 809.518C740.014 804.853 736.803 800.465 735.72 795.554C732.654 781.642 734.696 766.12 735.506 752.379C736.057 743.023 735.493 728.583 739.541 719.85C740.951 716.81 741.407 713.081 742.391 709.885C742.841 708.423 742.57 704.546 743.76 705.507C746.86 708.009 749.145 735.029 749.727 740.482C750.237 745.265 753.756 749.803 754.26 754.531C755.401 765.229 755.278 776.629 758.519 786.973C760.52 793.359 761.006 806.538 761.769 813.695C761.969 815.562 760.533 817.156 761.482 819.235" fill="#377235" fill-rule="nonzero" opacity="1" stroke="none" vectornator:layerName="Curve 91"/>
<path d="M738.377 805.491C738.527 806.899 743.065 817.331 744.643 816.321C751.346 812.025 736.921 799.265 739.797 801.587" fill="#377235" fill-rule="nonzero" opacity="1" stroke="none" vectornator:layerName="Curve 92"/>
<path d="M740.762 809.508C739.628 810.978 743.907 820.808 745.544 818.78C747.199 816.729 743.877 805.469 740.762 809.508Z" fill="#377235" fill-rule="nonzero" opacity="1" stroke="none" vectornator:layerName="Curve 93"/>
<path d="M748.539 731.586C749.471 730.431 746.71 749.471 752.447 748.017C754.564 747.48 751.378 738.13 751.322 736.719C751.277 735.585 748.844 728.884 748.602 729.184" fill="#377235" fill-rule="nonzero" opacity="1" stroke="none" vectornator:layerName="Curve 94"/>
<path d="M760.408 867.626C760.489 867.092 761.394 843.504 761.976 834.876C763.484 812.52 766.247 790.082 770.261 767.258C771.537 759.999 775.374 752.372 776.268 744.865C776.841 740.054 783.491 707.354 789.677 708.442C792.249 708.894 786.205 717.516 785.942 719.722C784.712 730.047 779.137 739.578 777.86 750.292C775.921 766.569 772.522 784.23 772.914 801.042C773.135 810.556 774.557 822.993 772.445 832.367C769.827 843.981 774.012 855.839 772.601 867.675C772.092 871.953 760.047 869.994 760.408 867.626Z" fill="#377235" fill-rule="nonzero" opacity="1" stroke="none" vectornator:layerName="Curve 95"/>
<path d="M778.974 731.494C778.743 731.095 775.966 739.838 775.245 741.584C772.356 748.577 771.875 755.511 769.893 762.373C769.649 763.216 769.585 772.448 770.251 772.421C772.744 772.319 774.326 762.657 774.738 760.838C776.742 751.973 783.575 739.445 778.974 731.494Z" fill="#377235" fill-rule="nonzero" opacity="1" stroke="none" vectornator:layerName="Curve 96"/>
<path d="M769.686 767.041C768.873 776.72 765.976 786.804 764.631 796.392C764.425 797.861 762.875 804.933 764.552 805.417C767.331 806.22 772.046 781.547 772.665 778.172C772.9 776.891 773.584 765.016 772.842 765.425" fill="#377235" fill-rule="nonzero" opacity="1" stroke="none" vectornator:layerName="Curve 97"/>
<path d="M811.769 758.317C811.113 757.251 802.04 764.457 800.656 765.476C792.074 771.798 785.57 783.163 780.211 791.798C779.411 793.087 773.126 799.597 774.378 801.102C774.87 801.694 782.58 798.028 783.356 797.383C790.936 791.081 798.597 783.984 802.735 774.985C803.771 772.735 805.968 769.798 807.444 767.782C808.221 766.721 810.219 763.311 809.525 764.429" fill="#377235" fill-rule="nonzero" opacity="1" stroke="none" vectornator:layerName="Curve 98"/>
<path d="M791.226 708.447C789.226 706.884 785.476 717.504 785.088 719.364C784.944 720.051 783.74 721.067 784.383 721.349C786.054 722.082 793.139 709.941 791.226 708.447Z" fill="#377235" fill-rule="nonzero" opacity="1" stroke="none" vectornator:layerName="Curve 99"/>
<path d="M779.005 699.07C777.176 699.919 775.889 701.595 774.47 702.995C773.507 703.945 772.682 704.907 771.847 705.967C764.813 714.9 791.73 710.284 785.709 706.31C784.696 705.641 784.914 704.737 783.551 704.403" fill="#377235" fill-rule="nonzero" opacity="1" stroke="none" vectornator:layerName="Curve 100"/>
<path d="M769.93 710.275C768.115 714.153 785.91 709.58 787.037 708.443C789.303 706.156 784.74 705.079 783.671 704.088C782.489 702.992 779.036 699.929 778.938 700.044" fill="#377235" fill-rule="nonzero" opacity="1" stroke="none" vectornator:layerName="Curve 101"/>
<path d="M799.993 705.367C798.961 705.906 790.658 707.259 790.528 708.479C790.431 709.384 797.261 713.573 796.1 713.209" fill="#377235" fill-rule="nonzero" opacity="1" stroke="none" vectornator:layerName="Curve 102"/>
<path d="M793.917 712.123C800.677 715.827 803.87 706.509 801.423 705.013C795.72 701.525 794.816 719.803 800.322 712.181" fill="#377235" fill-rule="nonzero" opacity="1" stroke="none" vectornator:layerName="Curve 103"/>
<path d="M796.289 713.154C794.939 715.618 799.136 714.356 798.937 713.123" fill="#377235" fill-rule="nonzero" opacity="1" stroke="none" vectornator:layerName="Curve 104"/>
<path d="M698.352 630.88C698.352 630.88 688.012 627.24 684.652 625.028C684.652 625.028 654.901 629.08 665.877 606.139C665.877 606.139 672.127 607.925 675.717 610.021C675.717 610.021 663.264 588.397 690.415 593.422C690.415 593.422 689.079 573.769 705.554 578.151C705.554 578.151 710.772 585.175 713.42 592.577C713.42 592.577 718.895 564.55 731.617 579.079C731.617 579.079 734.246 584.533 731.83 590.46C731.83 590.46 745.103 571.676 753.715 588.385C753.715 588.385 755.122 595.09 751.566 601.003C751.566 601.003 766.855 583.155 767.999 604.146C767.999 604.146 761.387 613.338 752.832 617.888C752.832 617.888 742.931 631.225 740.148 634.24C740.148 634.24 724.079 624.428 699.126 631.202L698.352 630.88Z" fill="#ffafdf" fill-rule="nonzero" opacity="1" stroke="#000000" stroke-linecap="butt" stroke-linejoin="round" stroke-width="1.95464" vectornator:layerName="Curve 130"/>
<path d="M782.196 685.9C782.196 685.9 743.857 667.693 767.053 658.59C767.053 658.59 770.305 661.018 770.955 666.281C770.955 666.281 769.026 644.929 783.403 654.354C783.403 654.354 785.84 656.851 786.59 659.322C786.59 659.322 791.183 639.006 802.224 649.515C802.224 649.515 805.652 653.375 802.856 663.629C802.856 663.629 815.423 640.775 820.4 656.984C820.4 656.984 819.69 663.254 818.581 666.802C818.581 666.802 833.623 657.003 833.546 672.673C833.546 672.673 833.614 674.71 830.925 677.182C828.236 679.654 851.225 671.242 839.199 688.021C839.199 688.021 833.026 694.805 824.432 692.413C824.432 692.413 817.697 698.554 811.086 699.765C811.086 699.765 799.262 685.768 782.196 685.9Z" fill="#ffafdf" fill-rule="nonzero" opacity="1" stroke="#000000" stroke-linecap="butt" stroke-linejoin="round" stroke-width="1.95464" vectornator:layerName="Curve 132"/>
<path d="M707.047 642.914C707.047 642.914 698.603 641.38 697.994 631.198L684.253 625.212C684.253 625.212 666.77 614.502 677.335 609.602C677.335 609.602 682.854 606.719 697.665 619.481C697.665 619.481 677.841 589.992 701.458 589.992C705.317 589.992 706.593 593.006 709.313 599.67C709.313 599.67 710.541 601.777 711.602 605.427C712.012 606.835 712.366 607.549 712.661 609.834C712.661 609.834 718.414 580.349 729.867 588.456C729.867 588.456 737.349 593.543 732.509 614.947C732.509 614.947 753.387 585.99 754.962 608.841C754.962 608.841 754.76 612.865 752.083 619.417C752.083 619.417 734.357 642.879 728.259 643.58C728.259 643.58 708.19 644.41 706.295 642.773" fill="none" opacity="1" stroke="#000000" stroke-linecap="butt" stroke-linejoin="round" stroke-width="1.95464" vectornator:layerName="Curve 105"/>
<path d="M685.53 625.677C685.53 625.677 658.072 629.052 664.167 609.053C664.167 609.053 665.692 603.622 676.113 610.853" fill="none" opacity="1" stroke="#000000" stroke-linecap="butt" stroke-linejoin="round" stroke-width="1.95464" vectornator:layerName="Curve 106"/>
<path d="M676.492 610.406C676.492 610.406 662.363 587.839 691.055 593.878" fill="none" opacity="1" stroke="#000000" stroke-linecap="butt" stroke-linejoin="round" stroke-width="1.95464" vectornator:layerName="Curve 107"/>
<path d="M690.413 593.006C690.413 593.006 689.606 575.607 703.365 577.721C703.365 577.721 708.236 578.046 713.227 592.955C713.227 592.955 717.683 566.798 730.255 577.396C730.255 577.396 734.877 580.497 731.664 590.362" fill="none" opacity="1" stroke="#000000" stroke-linecap="butt" stroke-linejoin="round" stroke-width="1.95464" vectornator:layerName="Curve 108"/>
<path d="M732.059 590.926C732.059 590.926 744.337 571.7 752.798 587.729C752.798 587.729 755.063 591.959 751.368 601.016" fill="none" opacity="1" stroke="#000000" stroke-linecap="butt" stroke-linejoin="round" stroke-width="1.95464" vectornator:layerName="Curve 109"/>
<path d="M752.083 600.301C752.083 600.301 765.537 584.556 767.465 602.255C767.465 602.255 767.376 608.31 752.349 619.011" fill="none" opacity="1" stroke="#000000" stroke-linecap="butt" stroke-linejoin="round" stroke-width="1.95464" vectornator:layerName="Curve 110"/>
<path d="M698.903 630.945C698.903 630.945 719.542 624.128 740.66 634.394" fill="none" opacity="1" stroke="#000000" stroke-linecap="butt" stroke-linejoin="round" stroke-width="1.95464" vectornator:layerName="Curve 111"/>
<path d="M708.22 644.116C708.22 644.116 694.825 648.832 695.407 662.586C695.407 662.586 705.427 653.759 715.487 653.568C715.487 653.568 718.835 651.989 722.683 643.642C722.683 643.642 725.732 656.546 736.436 656.712C736.436 656.712 739.164 657.079 742.03 658.652C742.03 658.652 741.981 650.785 728.583 643.92" fill="none" opacity="1" stroke="#000000" stroke-linecap="butt" stroke-linejoin="round" stroke-width="1.95464" vectornator:layerName="Curve 112"/>
<path d="M713.354 654.243C713.354 654.243 703.527 799.326 715.898 869.782" fill="none" opacity="1" stroke="#000000" stroke-linecap="butt" stroke-linejoin="round" stroke-width="1.95464" vectornator:layerName="Curve 113"/>
<path d="M723.543 650.151C723.543 650.151 708.273 824.494 728.19 871.857" fill="none" opacity="1" stroke="#000000" stroke-linecap="butt" stroke-linejoin="round" stroke-width="1.95464" vectornator:layerName="Curve 114"/>
<path d="M715.341 868.698C715.341 868.698 716.316 875.459 728.071 871.134" fill="none" opacity="1" stroke="#000000" stroke-linecap="butt" stroke-linejoin="round" stroke-width="1.95464" vectornator:layerName="Curve 115"/>
<path d="M662.073 740.01C662.073 740.01 674.024 783.813 711.429 809.62" fill="none" opacity="1" stroke="#000000" stroke-linecap="butt" stroke-linejoin="round" stroke-width="1.95464" vectornator:layerName="Curve 116"/>
<path d="M690.647 789.308C690.647 789.308 628.694 762.824 657.987 704.34" fill="none" opacity="1" stroke="#000000" stroke-linecap="butt" stroke-linejoin="round" stroke-width="1.95464" vectornator:layerName="Curve 117"/>
<path d="M657.834 704.802C657.834 704.802 693.704 744.054 688.675 788.021" fill="none" opacity="1" stroke="#000000" stroke-linecap="butt" stroke-linejoin="round" stroke-width="1.95464" vectornator:layerName="Curve 118"/>
<path d="M710.218 755.025C710.218 755.025 684.298 734.081 695.471 699.849C695.471 699.849 707.896 721.33 709.763 746.042" fill="none" opacity="1" stroke="#000000" stroke-linecap="butt" stroke-linejoin="round" stroke-width="1.95464" vectornator:layerName="Curve 119"/>
<path d="M759.985 869.309C759.985 869.309 760.184 756.378 788.248 707.969" fill="none" opacity="1" stroke="#000000" stroke-linecap="butt" stroke-linejoin="round" stroke-width="1.95464" vectornator:layerName="Curve 120"/>
<path d="M759.029 868.698L764.718 869.309L771.65 869.552C771.65 869.552 766.676 747.833 791.784 710.119" fill="none" opacity="1" stroke="#000000" stroke-linecap="butt" stroke-linejoin="round" stroke-width="1.95464" vectornator:layerName="Curve 121"/>
<path d="M773.118 802.16C773.118 802.16 795.989 763.575 813.54 756.839C813.54 756.839 794.37 797.28 773.118 802.16Z" fill="none" opacity="1" stroke="#000000" stroke-linecap="butt" stroke-linejoin="round" stroke-width="1.95464" vectornator:layerName="Curve 122"/>
<path d="M759.774 845.438C759.774 845.438 715.497 811.063 744.091 702.68C744.091 702.68 762.451 782.237 760.992 841.781" fill="none" opacity="1" stroke="#000000" stroke-linecap="butt" stroke-linejoin="round" stroke-width="1.95464" vectornator:layerName="Curve 123"/>
<path d="M744.641 754.808C744.641 754.808 740.427 800.264 755.686 830.853" fill="none" opacity="1" stroke="#000000" stroke-linecap="butt" stroke-linejoin="round" stroke-width="1.95464" vectornator:layerName="Curve 124"/>
<path d="M780.537 698.266C780.537 698.266 769.928 702.518 770.148 711.717C770.148 711.717 780.485 712.073 788.954 707.407C788.954 707.407 791.141 711.31 797.813 714.631C797.813 714.631 802.341 714.264 801.374 704.866C801.374 704.866 794.983 707.212 789.475 707.491C789.475 707.491 783.906 704.032 779.833 698.628L781.617 686.424C781.617 686.424 789.064 684.812 799.052 690.221C802.682 692.187 806.647 695.08 810.712 699.315C810.712 699.315 805.096 706.495 800.67 705.28" fill="none" opacity="1" stroke="#000000" stroke-linecap="butt" stroke-linejoin="round" stroke-width="1.95464" vectornator:layerName="Curve 125"/>
<path d="M811.456 699.784C811.456 699.784 832.169 691.891 831.749 680.437C831.749 680.437 829.299 669.344 812.774 683.335C812.774 683.335 829.033 651.046 804.988 667.763C804.988 667.763 800.922 670.38 799.853 674.347C799.853 674.347 798.757 651.671 786.768 658.991C786.768 658.991 780.952 664.382 785.206 679.275C785.206 679.275 770.787 655.425 766.286 671.366C766.286 671.366 766.033 678.49 783.336 686.501C783.336 686.501 794.825 683.421 811.456 699.784Z" fill="none" opacity="1" stroke="#000000" stroke-linecap="butt" stroke-linejoin="round" stroke-width="1.95464" vectornator:layerName="Curve 126"/>
<path d="M769.59 677.182C769.59 677.182 749.817 668.57 765.271 658.574C765.271 658.574 768 656.717 770.709 664.942C770.709 664.942 769.717 647.482 781.759 653.068C781.759 653.068 786.011 655.293 785.924 659.861" fill="none" opacity="1" stroke="#000000" stroke-linecap="butt" stroke-linejoin="round" stroke-width="1.95464" vectornator:layerName="Curve 127"/>
<path d="M786.818 658.385C786.818 658.385 790.603 641.774 800.582 648.239C800.582 648.239 806.623 651.15 802.523 663.371C802.523 663.371 814.403 642.314 819.45 655.102C819.45 655.102 822.295 659.403 818.405 666.802C818.405 666.802 833.461 657.446 833.27 671.842C833.27 671.842 833.252 676.159 830.157 678.025C830.157 678.025 849.195 672.929 839.869 686.928C839.869 686.928 835.222 694.123 824.47 692.866" fill="none" opacity="1" stroke="#000000" stroke-linecap="butt" stroke-linejoin="round" stroke-width="1.95464" vectornator:layerName="Curve 128"/>
<path d="M698.064 631.67C698.064 631.67 722.247 624.177 740.592 634.575C740.592 634.575 735.834 639.146 730.389 642.815C730.389 642.815 717.118 644.657 706.472 643.095C706.472 643.095 698.097 639.993 698.204 631.953" fill="#ffc7e7" fill-rule="nonzero" opacity="1" stroke="#000000" stroke-linecap="butt" stroke-linejoin="round" stroke-width="1.95464" vectornator:layerName="Curve 129"/>
<path d="M782.332 685.793C782.332 685.793 800.073 685.939 810.736 699.801C810.736 699.801 805.064 708.083 788.612 707.852C788.612 707.852 781.868 702.186 780 697.586C780 697.586 780.047 688.721 782.81 685.301" fill="#ffc7e7" fill-rule="nonzero" opacity="1" stroke="#000000" stroke-linecap="butt" stroke-linejoin="round" stroke-width="1.95464" vectornator:layerName="Curve 133"/>
</g>
</svg>
