<?xml version="1.0" encoding="UTF-8" standalone="no"?>
<!DOCTYPE svg PUBLIC "-//W3C//DTD SVG 1.1//EN" "http://www.w3.org/Graphics/SVG/1.1/DTD/svg11.dtd">
<!-- Created with Vectornator (http://vectornator.io/) -->
<svg height="100%" stroke-miterlimit="10" style="fill-rule:nonzero;clip-rule:evenodd;stroke-linecap:round;stroke-linejoin:round;" version="1.1" viewBox="917.795 573.468 170.91 303.189" width="100%" xml:space="preserve" xmlns="http://www.w3.org/2000/svg" xmlns:vectornator="http://vectornator.io" xmlns:xlink="http://www.w3.org/1999/xlink">
<defs/>
<g id="Layer-10-copy-copy-copy-copy" vectornator:layerName="Layer 10 copy copy copy copy">
<path d="M981.216 769.397C981.334 769.512 970.506 765.421 968.837 765.026C961.753 763.347 949.984 753.925 946.238 747.852C944.295 744.703 942.479 740.673 942.354 736.951C942.306 735.531 939.918 732.374 940.443 733.224" fill="#377235" fill-rule="nonzero" opacity="1" stroke="none" vectornator:layerName="Curve 105"/>
<path d="M940.335 733.678C939.883 732.945 938.578 727.271 939.964 729.518" fill="#377235" fill-rule="nonzero" opacity="1" stroke="none" vectornator:layerName="Curve 106"/>
<path d="M942.115 742.004C940.96 740.132 937.674 729.263 939.731 727.466C941.252 726.139 948.34 727.746 948.283 727.097C948.1 725.054 936.563 702.887 942.403 701.031C946.556 699.711 947.888 709.422 951.755 709.076C952.297 709.028 953.074 709.84 953.361 709.377C954.002 708.342 950.982 710.153 949.769 710.043C948.262 709.906 943.832 703.568 946.897 703.294C951.628 702.871 961.101 721.991 964.626 722.826C965.024 722.921 967.727 715.338 968.693 716.444C978.586 727.773 982.148 744.321 980.455 758.118C980.254 759.762 981.415 768.241 979.819 769.225C976.391 771.34 972.271 764.378 970.246 763.124" fill="#377235" fill-rule="nonzero" opacity="1" stroke="none" vectornator:layerName="Curve 107"/>
<path d="M981.613 763.342C979.593 760.068 986.521 747.187 981.442 744.857C976.82 742.737 976.964 761.667 978.59 764.303" fill="#377235" fill-rule="nonzero" opacity="1" stroke="none" vectornator:layerName="Curve 108"/>
<path d="M940.574 707.065C940.504 709.034 945.715 733.525 950.437 729.125C952.534 727.171 946.417 709.99 943.642 708.271" fill="#377235" fill-rule="nonzero" opacity="1" stroke="none" vectornator:layerName="Curve 109"/>
<path d="M955.495 712.837C955.667 714.76 957.078 716.515 957.897 718.197C958.475 719.383 959.185 720.493 959.881 721.622C960.404 722.47 960.911 723.48 961.683 724.125C968.744 730.029 962.209 712.956 958.708 715.116" fill="#377235" fill-rule="nonzero" opacity="1" stroke="none" vectornator:layerName="Curve 110"/>
<path d="M981.208 838.021C972.894 844.487 952.237 842.943 943.988 837.443C940.49 835.111 938.679 831.315 936.188 828.113C935.046 826.645 932.882 821.954 932.652 823.799C932.255 826.974 942.668 830.947 940.025 834.91C939.865 835.15 938.282 834.106 938.006 833.944C935.25 832.332 929.041 826.353 930.394 822.294C930.942 820.65 938.662 821.167 938.633 820.777C938.612 820.488 938.228 820.359 937.994 820.187C928.07 812.929 924.412 809.275 919.723 797.627C919.482 797.029 917.766 794.408 918.256 793.877C920.95 790.954 947.474 804.242 951.413 805.766C954.702 807.04 949.888 795.61 953.871 797.515C965.416 803.037 973.031 820.287 980.581 829.995" fill="#377235" fill-rule="nonzero" opacity="1" stroke="none" vectornator:layerName="Curve 111"/>
<path d="M931.084 824.928C931.107 824.918 937.835 830.955 937.918 830.571C938.214 829.22 936.872 827.173 936.351 825.994C932.673 817.669 929.531 825.582 931.084 824.928Z" fill="#377235" fill-rule="nonzero" opacity="1" stroke="none" vectornator:layerName="Curve 112"/>
<path d="M919.033 794.993C918.527 794.341 920.128 811.229 926.419 807.634C927.165 807.208 926.921 805.478 926.883 804.737C926.395 795.034 922.003 798.816 919.033 794.993Z" fill="#377235" fill-rule="nonzero" opacity="1" stroke="none" vectornator:layerName="Curve 113"/>
<path d="M985.279 874.895C979.783 834.173 979.009 787.771 983.602 745.14C985.164 730.639 982.539 714.254 986.396 700.166C987.734 695.278 986.853 689.753 988.875 685.005C989.659 683.166 988.627 677.955 990.221 679.161C990.687 679.514 990.725 682.558 990.921 683.24C991.46 685.118 996.916 688.25 995.358 687.071C994.739 686.602 993.121 694.774 992.87 695.363C990.952 699.864 989.912 708.615 989.357 713.765C988.734 719.551 991.36 726.293 990.713 732.301C988.125 756.326 988.05 781.048 988.706 805.318C989.165 822.32 988.733 840.516 991.016 856.993C991.305 859.082 994.502 874.429 992.786 875.606C991.469 876.51 985.39 875.716 985.279 874.895Z" fill="#377235" fill-rule="nonzero" opacity="1" stroke="none" vectornator:layerName="Curve 114"/>
<path d="M990.57 696.992C989.879 696.231 989.153 697.091 988.991 697.838C988.454 700.312 985.485 723.937 989.386 722.844C989.7 722.756 990.135 722.168 990.279 721.888C991.372 719.764 994.536 695.928 991.676 694.817" fill="#377235" fill-rule="nonzero" opacity="1" stroke="none" vectornator:layerName="Curve 115"/>
<path d="M988.931 818.539C989.909 818.539 989.986 816.846 990.225 816.13C992.916 808.078 990.868 798.245 994.828 790.338C1000.02 779.981 1004.93 769.778 1008.6 758.795C1009.72 755.462 1016.89 751.55 1016.07 747.871C1015.61 745.773 1008.33 751.606 1007.55 752.272C1002.35 756.721 996.263 767.998 995.017 774.826C993.877 781.065 988.103 788.77 986.011 795.032" fill="#377235" fill-rule="nonzero" opacity="1" stroke="none" vectornator:layerName="Curve 116"/>
<path d="M994.241 789.457C993.516 791.628 993.097 794.326 992.121 796.389C991.994 796.657 989.734 805.216 991.409 804.379C997.897 801.142 995.078 784.332 996.127 782.936" fill="#377235" fill-rule="nonzero" opacity="1" stroke="none" vectornator:layerName="Curve 117"/>
<path d="M995.068 784.345C996.276 783.774 995.642 789.928 996.239 789.928C997.38 789.929 997.858 788.309 998.121 787.52C999.779 782.561 994.628 784.553 995.068 784.345Z" fill="#377235" fill-rule="nonzero" opacity="1" stroke="none" vectornator:layerName="Curve 118"/>
<path d="M1000.77 612.75C1000.77 612.75 995.662 574.341 1005.23 574.476C1005.23 574.476 1015.99 571.925 1009.34 613.423" fill="#d0453b" fill-rule="nonzero" opacity="1" stroke="#000000" stroke-linecap="butt" stroke-linejoin="round" stroke-width="1.95464" vectornator:layerName="Curve 120"/>
<path d="M1010.31 613.297C1010.31 613.297 1011.5 581.894 1021.7 583.169C1021.7 583.169 1029.54 583.373 1012.27 615.571" fill="#d0453b" fill-rule="nonzero" opacity="1" stroke="#000000" stroke-linecap="butt" stroke-linejoin="round" stroke-width="1.95464" vectornator:layerName="Curve 122"/>
<path d="M1012.14 614.771C1012.14 614.771 1027.29 583.796 1033.19 589.567C1034.48 590.821 1034.43 590.821 1034.43 590.821C1034.43 590.821 1038.42 598.393 1016.52 618.516" fill="#d0453b" fill-rule="nonzero" opacity="1" stroke="#000000" stroke-linecap="butt" stroke-linejoin="round" stroke-width="1.95464" vectornator:layerName="Curve 123"/>
<path d="M1017.09 617.742C1017.09 617.742 1040.2 593.773 1047 604.722C1047 604.722 1036.06 621.655 1020.45 623.014" fill="#d0453b" fill-rule="nonzero" opacity="1" stroke="#000000" stroke-linecap="butt" stroke-linejoin="round" stroke-width="1.95464" vectornator:layerName="Curve 125"/>
<path d="M1020.95 623.598C1020.95 623.598 1053.33 608.7 1054.73 622.022C1054.73 622.022 1040.49 630.013 1023.54 627.484" fill="#d0453b" fill-rule="nonzero" opacity="1" stroke="#000000" stroke-linecap="butt" stroke-linejoin="round" stroke-width="1.95464" vectornator:layerName="Curve 126"/>
<path d="M1023.65 627.867C1023.65 627.867 1058.99 624.269 1056.36 638.342C1056.36 638.342 1047.17 640.976 1022.69 637.635" fill="#d0453b" fill-rule="nonzero" opacity="1" stroke="#000000" stroke-linecap="butt" stroke-linejoin="round" stroke-width="1.95464" vectornator:layerName="Curve 127"/>
<path d="M1023.07 637.635C1023.07 637.635 1049.35 641.812 1051.22 652.479C1051.22 652.479 1038.37 655.37 1021.72 640.976" fill="#d0453b" fill-rule="nonzero" opacity="1" stroke="#000000" stroke-linecap="butt" stroke-linejoin="round" stroke-width="1.95464" vectornator:layerName="Curve 128"/>
<path d="M1022 641.839C1022 641.839 1045.8 659.704 1041.5 665.013C1041.5 665.013 1031.22 674.559 1017.08 649.548" fill="#d0453b" fill-rule="nonzero" opacity="1" stroke="#000000" stroke-linecap="butt" stroke-linejoin="round" stroke-width="1.95464" vectornator:layerName="Curve 129"/>
<path d="M1017.13 649.69C1017.13 649.69 1035 674.066 1026.92 675.326C1026.92 675.326 1020.18 676.566 1011.81 653.42" fill="#d0453b" fill-rule="nonzero" opacity="1" stroke="#000000" stroke-linecap="butt" stroke-linejoin="round" stroke-width="1.95464" vectornator:layerName="Curve 131"/>
<path d="M1011.85 653.846C1011.85 653.846 1021.81 682.267 1013.37 683.214C1013.37 683.214 1002.18 680.407 1002.87 655.213" fill="#d0453b" fill-rule="nonzero" opacity="1" stroke="#000000" stroke-linecap="butt" stroke-linejoin="round" stroke-width="1.95464" vectornator:layerName="Curve 132"/>
<path d="M1002.61 656.001C1002.61 656.001 1006.71 690.318 992.595 685.545C992.595 685.545 984.886 675.977 997.486 655.678" fill="#d0453b" fill-rule="nonzero" opacity="1" stroke="#000000" stroke-linecap="butt" stroke-linejoin="round" stroke-width="1.95464" vectornator:layerName="Curve 133"/>
<path d="M997.177 655.907C997.177 655.907 986.875 681.831 976.889 677.206C976.889 677.206 969.665 666.417 989.134 651.902" fill="#d0453b" fill-rule="nonzero" opacity="1" stroke="#000000" stroke-linecap="butt" stroke-linejoin="round" stroke-width="1.95464" vectornator:layerName="Curve 134"/>
<path d="M987.929 652.45C987.929 652.45 968.366 675.778 961.578 671.024C961.578 671.024 962.057 657.244 985.551 646.848" fill="#d0453b" fill-rule="nonzero" opacity="1" stroke="#000000" stroke-linecap="butt" stroke-linejoin="round" stroke-width="1.95464" vectornator:layerName="Curve 135"/>
<path d="M985.008 647.688C985.008 647.688 961.914 661.218 955.638 658.151C955.638 658.151 955.9 647.854 981.387 641.257" fill="#d0453b" fill-rule="nonzero" opacity="1" stroke="#000000" stroke-linecap="butt" stroke-linejoin="round" stroke-width="1.95464" vectornator:layerName="Curve 136"/>
<path d="M981.157 640.286C981.157 640.286 951.564 654.176 947.837 641.036C947.837 641.036 957.572 630.59 980.936 635.776" fill="#d0453b" fill-rule="nonzero" opacity="1" stroke="#000000" stroke-linecap="butt" stroke-linejoin="round" stroke-width="1.95464" vectornator:layerName="Curve 137"/>
<path d="M979.959 635.279C979.959 635.279 950.487 634.682 949.529 627.888C949.529 627.888 950.866 619.197 980.451 627.455" fill="#d0453b" fill-rule="nonzero" opacity="1" stroke="#000000" stroke-linecap="butt" stroke-linejoin="round" stroke-width="1.95464" vectornator:layerName="Curve 138"/>
<path d="M981.515 627.979C981.515 627.979 977.595 626.578 972.58 624.368C962.517 619.932 948.047 612.234 952.017 606.049C952.017 606.049 959.174 600.021 983.437 623.014" fill="#d0453b" fill-rule="nonzero" opacity="1" stroke="#000000" stroke-linecap="butt" stroke-linejoin="round" stroke-width="1.95464" vectornator:layerName="Curve 139"/>
<path d="M983.426 622.873C983.426 622.873 955.111 600.264 966.4 591.832C966.4 591.832 975.227 590.295 987.899 618.366" fill="#d0453b" fill-rule="nonzero" opacity="1" stroke="#000000" stroke-linecap="butt" stroke-linejoin="round" stroke-width="1.95464" vectornator:layerName="Curve 140"/>
<path d="M988.109 617.817C988.109 617.817 963.961 584.537 980.37 582.854C980.37 582.854 989.626 585.64 991.48 610.485C991.48 610.485 984.291 580.42 991.734 579.555C991.734 579.555 1000.35 582.377 999.565 612.436" fill="#d0453b" fill-rule="nonzero" opacity="1" stroke="#000000" stroke-linecap="butt" stroke-linejoin="round" stroke-width="1.95464" vectornator:layerName="Curve 141"/>
<path d="M990.406 670.32C990.406 670.32 971.525 800.074 985.333 875.679L992.986 875.403C992.986 875.403 981.946 777.473 994.458 686.9" fill="none" opacity="1" stroke="#000000" stroke-linecap="butt" stroke-linejoin="round" stroke-width="1.95464" vectornator:layerName="Curve 142"/>
<path d="M989.942 816.241C989.942 816.241 1002.33 755.072 1018.15 749.235" fill="none" opacity="1" stroke="#000000" stroke-linecap="butt" stroke-linejoin="round" stroke-width="1.95464" vectornator:layerName="Curve 143"/>
<path d="M989.098 790.922C989.098 790.922 1001.24 750.458 1015.64 746.767" fill="none" opacity="1" stroke="#000000" stroke-linecap="butt" stroke-linejoin="round" stroke-width="1.95464" vectornator:layerName="Curve 144"/>
<path d="M981.029 770.612C981.029 770.612 937.095 756.511 939.464 727.327C939.464 727.327 943.267 726.17 947.927 728.074C947.927 728.074 936.251 710.62 942.555 699.408C942.555 699.408 955.352 708.753 965.144 722.425C965.144 722.425 965.51 717.187 967.408 716.105C969.306 715.023 978.947 729.47 981.515 746.816" fill="none" opacity="1" stroke="#000000" stroke-linecap="butt" stroke-linejoin="round" stroke-width="1.95464" vectornator:layerName="Curve 145"/>
<path d="M955.191 723.562C955.191 723.562 973.4 753.858 981.308 770.625" fill="none" opacity="1" stroke="#000000" stroke-linecap="butt" stroke-linejoin="round" stroke-width="1.95464" vectornator:layerName="Curve 146"/>
<path d="M1032.45 707.996C1032.45 707.996 1014.11 688.449 1021.48 681.896C1021.48 681.896 1028.03 677.86 1036.58 705.709C1036.58 705.709 1026.28 676.704 1038.42 678.14C1038.42 678.14 1044.18 677.401 1042.26 704.656C1042.26 704.656 1041.83 674.911 1049.6 677.297C1049.6 677.297 1055.84 679.135 1048.31 700.611C1048.31 700.611 1053.35 677.486 1060.84 681.263C1060.84 681.263 1067.65 685.927 1051.83 706.165C1051.83 706.165 1069.07 675.325 1075.36 682.96C1075.36 682.96 1080.35 688.587 1057 710.025C1057 710.025 1077.4 689.106 1080.22 696.1C1080.22 696.1 1081.67 700.681 1060.6 714.468C1060.6 714.468 1086.44 694.715 1085.06 705.187C1085.06 705.187 1083.81 710.675 1067.61 715.361C1067.61 715.361 1087.8 711.076 1087.7 718.311C1087.7 718.311 1089.33 723.737 1065.37 723.918C1065.37 723.918 1091.28 726.048 1083.35 732.991C1083.35 732.991 1079.03 733.509 1071.78 732.767C1071.78 732.767 1083.21 738.553 1080.32 742.834C1077.44 747.116 1065.79 741.402 1057.55 732.293C1057.55 732.293 1074.45 746.664 1067.76 752.917C1067.76 752.917 1058.96 748.402 1057.64 740.818C1057.64 740.818 1062.74 757.703 1055.9 760.378C1055.9 760.378 1049.08 756.671 1048.47 749.293C1048.47 749.293 1048.66 740.218 1049.48 736.743C1049.48 736.743 1049.12 767.452 1041.16 757.457C1041.16 757.457 1038.62 753.34 1039.2 749.273C1039.2 749.273 1033.93 761.982 1030.44 758.522C1030.44 758.522 1027.17 752.375 1029.91 745.798L1033.2 741.876C1033.2 741.876 1022.49 757.291 1016.71 752.095C1016.71 752.095 1015.42 746.896 1018.86 741.655C1018.86 741.655 1022.95 738.515 1027.15 735.227C1027.15 735.227 1011.05 750.158 1008.54 738.279C1008.54 738.279 1016.23 731.501 1022.87 729.532C1029.51 727.562 1022.25 729.761 1022.25 729.761C1022.25 729.761 1003.41 737.177 1004.66 728.166C1004.66 728.166 1006.97 723.85 1018.28 723.547C1018.28 723.547 1003.24 722.373 1006.01 716.047C1006.01 716.047 1013.68 713.262 1020.68 714.83C1020.68 714.83 1003.77 711.212 1005.96 705.424C1008.14 699.636 1017.39 704.447 1030.13 713.743C1030.13 713.743 1006.77 700.243 1014.19 692.849C1014.19 692.849 1022.34 693.366 1032.45 707.996Z" fill="#d0453b" fill-rule="nonzero" opacity="1" stroke="#000000" stroke-linecap="butt" stroke-linejoin="round" stroke-width="1.95464" vectornator:layerName="Curve 147"/>
<path d="M981.367 838.895C981.367 838.895 943.615 852.565 930.09 821.714C930.09 821.714 934.841 819.058 938.531 820.526C942.22 821.994 916.916 810.389 918.882 792.514C918.882 792.514 937.071 796.324 952.399 805.967C952.399 805.967 950.843 798.973 952.991 797.78C955.14 796.586 973.023 817.074 981.149 831.445" fill="none" opacity="1" stroke="#000000" stroke-linecap="butt" stroke-linejoin="round" stroke-width="1.95464" vectornator:layerName="Curve 148"/>
<path d="M946.167 811.685C946.167 811.685 962.702 827.808 980.859 838.753" fill="none" opacity="1" stroke="#000000" stroke-linecap="butt" stroke-linejoin="round" stroke-width="1.95464" vectornator:layerName="Curve 150"/>
<path d="M1028.1 720.84C1028.1 711.982 1035.22 704.802 1044 704.802C1052.78 704.802 1059.89 711.982 1059.89 720.84C1059.89 729.697 1052.78 736.877 1044 736.877C1035.22 736.877 1028.1 729.697 1028.1 720.84Z" fill="#ebedef" fill-rule="nonzero" opacity="1" stroke="#000000" stroke-linecap="butt" stroke-linejoin="round" stroke-width="1.95464" vectornator:layerName="Oval 4"/>
<path d="M980.683 634.394C980.683 622.361 990.246 612.606 1002.04 612.606C1013.84 612.606 1023.4 622.361 1023.4 634.394C1023.4 646.426 1013.84 656.181 1002.04 656.181C990.246 656.181 980.683 646.426 980.683 634.394Z" fill="#ebedef" fill-rule="nonzero" opacity="1" stroke="#000000" stroke-linecap="butt" stroke-linejoin="round" stroke-width="1.95464" vectornator:layerName="Oval 3"/>
</g>
</svg>
