<?xml version="1.0" encoding="UTF-8" standalone="no"?>
<!DOCTYPE svg PUBLIC "-//W3C//DTD SVG 1.1//EN" "http://www.w3.org/Graphics/SVG/1.1/DTD/svg11.dtd">
<!-- Created with Vectornator (http://vectornator.io/) -->
<svg height="100%" stroke-miterlimit="10" style="fill-rule:nonzero;clip-rule:evenodd;stroke-linecap:round;stroke-linejoin:round;" version="1.1" viewBox="931.9 200.916 160.533 327.828" width="100%" xml:space="preserve" xmlns="http://www.w3.org/2000/svg" xmlns:vectornator="http://vectornator.io" xmlns:xlink="http://www.w3.org/1999/xlink">
<defs/>
<g id="Layer-6-copy-copy-copy" vectornator:layerName="Layer 6 copy copy copy">
<path d="M1005.68 317.664C1001.84 313.285 1008.62 327.183 1009.51 328.995C1013.46 337.102 1017.19 345.193 1019.61 354.455C1019.87 355.439 1021.14 366.386 1020.21 366.629C1020.06 366.668 1021.42 363.64 1021.39 363.328C1021.14 361.203 1021.03 331.632 1013.48 335.31C1009.36 337.319 1020.65 368.342 1021.72 372.457C1022.78 376.503 1021.99 378.106 1022.34 381.922C1023.59 395.64 1023.19 409.139 1023.99 422.708C1025.01 440.157 1016.1 477.351 1007.65 491.793C1003.28 499.261 1001.63 507.113 998.013 515.248C997.447 516.519 988.529 526.813 991.811 526.62C992.783 526.564 999.906 522.531 999.677 525.996C999.512 528.498 994.32 520.609 993.838 521.215C989.915 526.153 999.484 529.63 1001.58 527.792C1003.02 526.528 1002.32 522.45 1003.39 520.438C1011.81 504.542 1019.4 488.847 1021.84 472.594C1022.75 466.532 1022.22 452.796 1027.03 448.582C1027.57 448.111 1024.47 451.402 1023.97 452.249C1022.44 454.87 1018.35 464.642 1022.72 467.202C1024.24 468.09 1028.05 450.57 1028.58 449.036C1032.91 436.49 1032.2 407.771 1032.05 394.052C1031.83 374.232 1026.61 348.321 1017.93 330.518C1016.48 327.541 1013.76 316.198 1009.96 315.397C996.575 312.575 1016.76 342.19 1018.15 347.539" fill="#377235" fill-rule="nonzero" opacity="1" stroke="none" vectornator:layerName="Curve 31"/>
<path d="M1018.98 352.04C1018.47 354.988 1019.32 357.56 1019.74 360.443C1020 362.22 1019.87 364.033 1020 365.823C1020.63 374.107 1026.83 355.914 1021.58 349.925C1019.71 347.794 1019.02 351.772 1018.98 352.04Z" fill="#377235" fill-rule="nonzero" opacity="1" stroke="none" vectornator:layerName="Curve 32"/>
<path d="M993.227 524.771C993.927 529.432 999.809 530.012 1000.78 526.402C1002.68 519.324 992.522 520.071 993.227 524.771Z" fill="#ebedef" fill-rule="nonzero" opacity="1" stroke="none" vectornator:layerName="Curve 33"/>
<path d="M1069.75 430.541C1058.33 446.814 1041.65 458.092 1029.79 473.396C1028.54 475.01 1016.17 484.277 1017.81 486.837C1017.93 487.025 1018.34 486.875 1018.43 486.858C1024.11 485.863 1029.68 483.255 1034.74 480.251C1053 469.399 1061.15 453.248 1069.52 434.232" fill="#377235" fill-rule="nonzero" opacity="1" stroke="none" vectornator:layerName="Curve 34"/>
<path d="M1064.45 443.887C1064.35 443.003 1059.56 452.092 1060.8 451.762C1065.1 450.615 1064.57 444.881 1064.45 443.887Z" fill="#377235" fill-rule="nonzero" opacity="1" stroke="none" vectornator:layerName="Curve 35"/>
<path d="M985.644 384.709C982.283 388.918 985.506 397.141 984.253 401.902C980.246 417.121 983.919 442.156 990.457 456.902C993.67 464.147 997.203 472.467 1002.86 477.986C1004.31 479.395 1006.55 480.816 1008.12 481.919C1008.55 482.225 1010.46 484.192 1010.53 483.906C1011.56 479.434 1009.12 473.69 1008.51 469.369C1005.98 451.255 1002.99 434.449 997.527 416.336C996.41 412.632 987.728 382.098 985.644 384.709Z" fill="#377235" fill-rule="nonzero" opacity="1" stroke="none" vectornator:layerName="Curve 36"/>
<path d="M984.402 393.28C984.286 395.782 981.952 410.939 984.811 411.432C986.18 411.668 987.427 403.546 987.23 402.415" fill="#377235" fill-rule="nonzero" opacity="1" stroke="none" vectornator:layerName="Curve 37"/>
<path d="M1004.34 455.482C1005.7 460.747 1005.51 466.15 1006.79 471.353C1007.28 473.311 1008.43 475.045 1009.23 476.843C1009.63 477.741 1011.08 479.991 1010.16 479.638C1009.64 479.434 1009.45 477.929 1009.51 477.481C1010.37 471.482 1009 465.988 1006.49 460.334" fill="#377235" fill-rule="nonzero" opacity="1" stroke="none" vectornator:layerName="Curve 38"/>
<path d="M1003.96 457.027C1004.68 459.297 1005.56 461.532 1006.21 463.822C1008.77 472.879 1006.64 452.79 1003.57 447.88" fill="#377235" fill-rule="nonzero" opacity="1" stroke="none" vectornator:layerName="Curve 39"/>
<path d="M1003.61 453.822C1003.71 454.321 1006.84 469.456 1008.71 467.752C1011.3 465.392 1008.3 455.114 1007.34 452.932C1006.88 451.903 1003.56 450.525 1004.62 450.93" fill="#377235" fill-rule="nonzero" opacity="1" stroke="none" vectornator:layerName="Curve 40"/>
<path d="M1089.59 333.717C1082.59 331.22 1078.27 342.839 1073.28 345.56C1063.53 350.874 1055.5 360.83 1048.67 369.398C1043.99 375.258 1034.66 381.691 1031.58 388.439C1031.33 388.983 1030.69 390.241 1031.77 390.357C1033.7 390.564 1035.97 388.616 1037.78 388.221C1055.49 384.353 1070.16 368.248 1079.65 351.978C1081.35 349.067 1092.23 334.656 1089.59 333.717Z" fill="#377235" fill-rule="nonzero" opacity="1" stroke="none" vectornator:layerName="Curve 41"/>
<path d="M1076.18 342.133C1077 343.263 1070.14 345.44 1071.56 348.274C1072.58 350.312 1078.34 344.195 1078.8 342.985C1080.11 339.483 1075.34 340.968 1076.18 342.133Z" fill="#377235" fill-rule="nonzero" opacity="1" stroke="none" vectornator:layerName="Curve 42"/>
<path d="M1024.76 450.365C1024.16 456.352 1028.64 448.673 1026.55 447.738" fill="#377235" fill-rule="nonzero" opacity="1" stroke="none" vectornator:layerName="Curve 43"/>
<path d="M1020.83 467.267C1020.77 473.957 1026.04 463.952 1021.65 464.595" fill="#377235" fill-rule="nonzero" opacity="1" stroke="none" vectornator:layerName="Curve 44"/>
<path d="M993.03 525.213C991.781 526.878 993.657 528.462 994.853 526.547C995.513 525.492 995.214 522.673 993.697 524.19" fill="#377235" fill-rule="nonzero" opacity="1" stroke="none" vectornator:layerName="Curve 45"/>
<path d="M967.816 298.547C957.299 300.296 946.463 317.333 945.358 326.577C944.881 330.561 943.647 337.203 947.895 339.771C950.313 341.234 956.148 336.454 958.454 336.07C962.939 335.325 966.797 332.669 970.667 330.149C971.775 329.428 973.188 330.418 974.143 329.724C980.964 324.768 986.774 321.368 988.451 311.86C989.231 307.434 978.532 298.931 976.573 300.982" fill="#377235" fill-rule="nonzero" opacity="1" stroke="none" vectornator:layerName="Curve 46"/>
<path d="M969.548 328.924C965.165 335.055 973.152 329.747 973.16 329.773" fill="#377235" fill-rule="nonzero" opacity="1" stroke="none" vectornator:layerName="Curve 47"/>
<path d="M1059.63 292.339C1051.6 288.133 1041.07 278.704 1030.89 280.803C1026.54 281.7 1027.79 284.007 1025.68 286.28C1019.9 292.496 1015.4 291.828 1019.48 299.889C1020.09 301.096 1019.95 303.291 1021.29 304.259C1033.48 313.041 1041.59 305.532 1053.77 305.392C1055.48 305.373 1064.26 307.816 1065.43 306.366C1067.51 303.788 1060.42 293.386 1057.95 292.094" fill="#377235" fill-rule="nonzero" opacity="1" stroke="none" vectornator:layerName="Curve 48"/>
<path d="M1061.55 293.536C1061.87 292.922 1060.77 292.182 1060.34 291.926C1056.7 289.768 1049.14 281.816 1045.44 286.129C1043.57 288.31 1059.63 299.262 1061.47 299.845C1066.68 301.504 1062.9 296.638 1062.49 296.767" fill="#377235" fill-rule="nonzero" opacity="1" stroke="none" vectornator:layerName="Curve 49"/>
<path d="M1019.13 292.43C1013.82 298.395 1021.58 295.954 1020.69 293.098" fill="#377235" fill-rule="nonzero" opacity="1" stroke="none" vectornator:layerName="Curve 50"/>
<path d="M932.925 235.095C932.925 235.095 929.251 298.918 986.04 302.245C986.04 302.245 1056.61 310.102 1029.35 207.393C1029.35 207.393 1015.93 206.39 1009.79 220.672C1009.79 220.672 988.772 175.949 985.008 224.539C985.008 224.539 949.924 191.485 956.231 233.883C956.231 233.883 934.18 216.768 932.925 235.095Z" fill="#d0453b" fill-rule="nonzero" opacity="1" stroke="#000000" stroke-linecap="butt" stroke-linejoin="round" stroke-width="1.95464" vectornator:layerName="Curve 51"/>
<path d="M942.662 242.026C942.662 242.026 960.173 240.429 961.627 251.131L963.039 260.621C963.039 260.621 974.859 246.733 986.234 264.669C986.234 264.669 988.365 230.882 1010.04 251.858C1010.04 251.858 1003.94 228.96 1028.1 234.001" fill="none" opacity="1" stroke="#000000" stroke-linecap="butt" stroke-linejoin="round" stroke-width="1.95464" vectornator:layerName="Curve 52"/>
<path d="M1013.48 235.405C1013.48 235.405 987.589 217.674 960.043 246.911" fill="none" opacity="1" stroke="#000000" stroke-linecap="butt" stroke-linejoin="round" stroke-width="1.95464" vectornator:layerName="Curve 53"/>
<path d="M967.878 298.361C967.878 298.361 938.667 310.953 947.061 340.164C947.061 340.164 1005.26 323.669 982.094 301.677" fill="none" opacity="1" stroke="#000000" stroke-linecap="butt" stroke-linejoin="round" stroke-width="1.95464" vectornator:layerName="Curve 54"/>
<path d="M983.995 303.062C983.995 303.062 991.718 321.865 1010.52 314.814C1010.52 314.814 1028.15 305.245 1015.56 294.164C1015.56 294.164 1007.44 302.417 983.437 302.781" fill="#377235" fill-rule="nonzero" opacity="1" stroke="#000000" stroke-linecap="butt" stroke-linejoin="round" stroke-width="1.95464" vectornator:layerName="Curve 55"/>
<path d="M1028.15 281.909C1028.15 281.909 1063.55 278.89 1065.96 307.135" fill="none" opacity="1" stroke="#000000" stroke-linecap="butt" stroke-linejoin="round" stroke-width="1.95464" vectornator:layerName="Curve 56"/>
<path d="M1064.58 306.619C1064.58 306.619 1051.32 304.724 1046.5 306.102C1046.5 306.102 1030.87 313.142 1019.68 303.153" fill="none" opacity="1" stroke="#000000" stroke-linecap="butt" stroke-linejoin="round" stroke-width="1.95464" vectornator:layerName="Curve 57"/>
<path d="M1003.82 316.485C1003.82 316.485 1056.97 417.089 990.53 527.184L1000.18 527.7C1000.18 527.7 1064.12 416.057 1010.27 314.525" fill="none" opacity="1" stroke="#000000" stroke-linecap="butt" stroke-linejoin="round" stroke-width="1.95464" vectornator:layerName="Curve 58"/>
<path d="M1011.09 485.296C1011.09 485.296 971.584 461.43 985.728 381.922C985.728 381.922 1011.6 449.826 1011.09 485.296Z" fill="none" opacity="1" stroke="#000000" stroke-linecap="butt" stroke-linejoin="round" stroke-width="1.95464" vectornator:layerName="Curve 59"/>
<path d="M1017.01 487.414C1017.01 487.414 1060.54 476.673 1071.12 428.602C1071.12 428.602 1036.21 470.23 1019.06 482.477" fill="none" opacity="1" stroke="#000000" stroke-linecap="butt" stroke-linejoin="round" stroke-width="1.95464" vectornator:layerName="Curve 60"/>
<path d="M1031.4 388.75C1031.4 388.75 1071 339.348 1091.46 332.144C1091.46 332.144 1061.59 390.325 1031.84 389.797" fill="none" opacity="1" stroke="#000000" stroke-linecap="butt" stroke-linejoin="round" stroke-width="1.95464" vectornator:layerName="Curve 61"/>
</g>
</svg>
