<?xml version="1.0" encoding="UTF-8" standalone="no"?>
<!DOCTYPE svg PUBLIC "-//W3C//DTD SVG 1.1//EN" "http://www.w3.org/Graphics/SVG/1.1/DTD/svg11.dtd">
<!-- Created with Vectornator (http://vectornator.io/) -->
<svg height="100%" stroke-miterlimit="10" style="fill-rule:nonzero;clip-rule:evenodd;stroke-linecap:round;stroke-linejoin:round;" version="1.1" viewBox="1107.62 709.716 449.271 385.941" width="100%" xml:space="preserve" xmlns="http://www.w3.org/2000/svg" xmlns:vectornator="http://vectornator.io" xmlns:xlink="http://www.w3.org/1999/xlink">
<defs/>
<g id="Layer-8" vectornator:layerName="Layer 8">
<path d="M1309.29 935.101C1300.84 948.981 1293.82 952.116 1295.13 968.735C1295.23 970.056 1294.6 971.547 1295.19 972.806C1296.89 976.479 1301.4 975.936 1302.21 980.087C1302.86 983.436 1301.48 986.608 1301.8 989.964C1302.28 994.977 1306.84 1003.26 1309.98 1006.88C1312.81 1010.15 1315.05 1012.4 1318.73 1014.58C1326.56 1019.22 1356.32 1030.66 1363.67 1020C1366.87 1015.36 1364.96 1009.76 1366.17 1004.5C1366.8 1001.74 1370.03 998.682 1369.88 996.016C1369.71 992.843 1370.56 987.866 1371.02 984.68C1371.64 980.323 1374.5 974.191 1375.84 969.812C1376.04 969.167 1376.77 968.02 1376.18 967.806C1374.43 967.179 1370.95 967.783 1368.89 966.603C1361.81 962.556 1351.58 958.349 1343.71 956.436C1340.65 955.693 1339.31 952.629 1336.92 951.767C1332.76 950.272 1331.04 948.561 1327.63 945.797C1326.84 945.158 1324.33 946.474 1323.71 945.804C1321.41 943.317 1318.44 941.555 1316.83 938.067C1315.91 936.075 1309.84 934.196 1309.29 935.101Z" fill="#ffffff" fill-rule="nonzero" opacity="1" stroke="none" vectornator:layerName="Curve 136"/>
<path d="M1310.26 934.865C1311.75 934.479 1309.52 934.747 1309.09 934.677C1307.27 934.385 1305.88 933.099 1304.1 932.534C1300.05 931.243 1295 930.405 1291.74 927.641C1288.58 924.968 1283.73 923.582 1280.78 920.916C1279.06 919.362 1277.34 916.639 1275.64 915.507C1275.07 915.127 1274.03 913.791 1273.31 914.148C1270.32 915.639 1270.88 921.662 1268.28 923.648C1264.21 926.759 1257.44 929.085 1256.94 935.263C1256.57 939.723 1264.46 960.809 1266.01 961.204C1268.17 961.753 1271.16 960.459 1273.43 960.518C1277.25 960.617 1280.68 962.57 1284.6 962.045C1288.12 961.575 1293.7 960.661 1296.5 958.121C1297.1 957.576 1295.73 956.025 1296.39 955.578C1296.98 955.184 1299.96 955.718 1300.87 955.403C1302.72 954.762 1305.89 952.03 1306.58 950.015C1306.86 949.191 1306.36 944.652 1307.62 944.972" fill="#ffffff" fill-rule="nonzero" opacity="1" stroke="none" vectornator:layerName="Curve 137"/>
<path d="M1243.36 917.321C1233.53 923.347 1228.49 932.839 1225.37 944.985C1224.2 949.554 1223.63 961.564 1218.39 962.672C1210.74 964.288 1203.46 966.346 1195.78 967.97C1190.58 969.068 1182.79 966.911 1178.1 966.778C1161.16 966.298 1141.99 962.078 1128.64 978.002C1126.42 980.64 1122.55 986.725 1120.31 989.411C1116.98 993.407 1108.61 1001.43 1109.71 1007.58C1110.34 1011.1 1112.02 1009.68 1117.22 1010.31C1120.34 1010.69 1127.41 1013.72 1128.76 1013.65C1132.87 1013.42 1136.73 1016.83 1139.75 1016.91C1143.2 1017.01 1146.25 1018.15 1149.14 1018.23C1152.67 1018.33 1166.15 1021.61 1169.3 1025.57C1170.89 1027.57 1161.06 1035.74 1164.04 1037.57C1165.73 1038.61 1180.95 1033.83 1181.9 1039.12C1182.04 1039.91 1177.32 1039.72 1176.85 1039.66C1173.25 1039.25 1164.9 1033.7 1163.91 1034.88C1163.65 1035.19 1163.32 1035.45 1163.13 1035.82C1161.37 1039.18 1177.45 1043.68 1179.68 1043.2C1186.81 1041.7 1190.15 1047.03 1197.1 1047.83C1209.86 1049.3 1223.14 1052.73 1235.49 1056.45C1253.9 1062 1274.41 1064.25 1292.21 1073.25C1303.22 1078.81 1305.41 1075.93 1318.22 1079.8C1323.48 1081.39 1340.46 1084.78 1345.25 1084.21C1346.8 1084.03 1350.45 1085.06 1351.5 1086.39C1352.35 1087.46 1351.55 1091.14 1353.19 1090.44C1355.98 1089.26 1357.03 1079.72 1357.79 1076.76C1361.26 1063.19 1363.01 1043.63 1362.92 1030.16C1362.89 1024.73 1369.14 1018.78 1366.56 1013.83C1365.66 1012.09 1358.12 1018.08 1356.09 1017.47C1341.48 1013.06 1327.94 1013.08 1314.87 1005.04C1311.15 1002.75 1308.24 975.629 1309.31 971.463C1309.6 970.339 1311.76 968.676 1311.26 967.03C1310.83 965.602 1306.2 959.156 1305 957.461C1294.45 942.609 1275.33 957.779 1264.64 951.208C1262.82 950.085 1261.86 936.134 1260.81 933.214C1258.39 926.507 1250.13 918.789 1244.43 915.279C1233.34 908.454 1221.39 950.577 1223.07 956.106" fill="#f6ad00" fill-rule="nonzero" opacity="1" stroke="none" vectornator:layerName="Curve 138"/>
<path d="M1261.28 934.34C1262.71 938.872 1264.25 947.928 1266.87 951.655C1267.37 952.374 1268.7 952.741 1269.04 953.655C1269.2 954.08 1269.68 955.706 1269.31 956.112C1269.07 956.38 1267.45 955.732 1267.14 955.687C1259.51 954.564 1259.66 943.711 1259.31 937.726C1259.21 936.01 1258 937.113 1258.79 937.23" fill="#f6ad00" fill-rule="nonzero" opacity="1" stroke="none" vectornator:layerName="Curve 139"/>
<path d="M1311.35 967.027C1313.17 969.626 1310.57 982.428 1308.1 981.362C1304.62 979.853 1307.56 973.334 1308.59 971.244C1309.05 970.327 1308.13 968.023 1309.08 968.163" fill="#f6ad00" fill-rule="nonzero" opacity="1" stroke="none" vectornator:layerName="Curve 140"/>
<path d="M1312.75 998.742C1314.87 1001.26 1329.39 1012.42 1329.52 1014.08C1329.71 1016.61 1323.91 1015.75 1322.87 1015.46C1317.91 1014.08 1313 1009.1 1310.72 1004.13" fill="#f6ad00" fill-rule="nonzero" opacity="1" stroke="none" vectornator:layerName="Curve 141"/>
<path d="M1350.68 1016.65C1350.5 1015.94 1364.05 1013 1366.27 1013.39C1366.45 1013.43 1367.25 1013.73 1367.3 1013.95C1367.42 1014.5 1353.03 1026.39 1350.68 1016.65Z" fill="#f6ad00" fill-rule="nonzero" opacity="1" stroke="none" vectornator:layerName="Curve 142"/>
<path d="M1362.27 1026.19C1359.62 1029.03 1359.09 1034.72 1361.07 1038.16C1361.3 1038.56 1361.24 1039.49 1361.67 1039.42C1362.61 1039.27 1365.87 1027.33 1365.89 1025.59C1365.9 1024.79 1365.03 1023.34 1364.45 1022.83C1363.64 1022.11 1363.53 1023.72 1363.68 1023.45" fill="#f6ad00" fill-rule="nonzero" opacity="1" stroke="none" vectornator:layerName="Curve 143"/>
<path d="M1351.64 1084.78C1354.38 1081.89 1336.81 1079.11 1337.8 1084.03C1337.98 1084.92 1350.61 1089.27 1352.15 1088.54C1353.27 1088.01 1351.33 1085.12 1351.64 1084.78Z" fill="#f6ad00" fill-rule="nonzero" opacity="1" stroke="none" vectornator:layerName="Curve 144"/>
<path d="M1284.88 1065.72C1280.84 1064.14 1276.3 1062.03 1272.05 1061.28C1269.45 1060.81 1266.08 1059.68 1263.47 1059.89C1261.56 1060.04 1252.61 1057.46 1251.43 1059.58C1250.7 1060.9 1260.25 1063.71 1261.43 1064.23C1267.56 1066.92 1281.93 1072.58 1288.33 1069.31" fill="#f6ad00" fill-rule="nonzero" opacity="1" stroke="none" vectornator:layerName="Curve 145"/>
<path d="M1248.88 1058.96C1244.16 1056.09 1240.58 1057.66 1246.59 1060.4C1248.57 1061.31 1257.62 1062.81 1256.05 1061.48" fill="#f6ad00" fill-rule="nonzero" opacity="1" stroke="none" vectornator:layerName="Curve 146"/>
<path d="M1170.07 1021.94C1168.45 1022.55 1161.41 1033.1 1164.51 1034.73C1166.94 1036.01 1174.47 1021.87 1173.07 1023.42" fill="#f6ad00" fill-rule="nonzero" opacity="1" stroke="none" vectornator:layerName="Curve 147"/>
<path d="M1176.59 1036.34C1166.21 1038.72 1178.37 1041.24 1182.32 1040.33C1185.58 1039.58 1188.85 1033.11 1184.01 1033.16" fill="#f6ad00" fill-rule="nonzero" opacity="1" stroke="none" vectornator:layerName="Curve 148"/>
<path d="M1197.33 965.995C1192.05 968.542 1183.99 964.176 1178.69 965.151C1169.79 966.787 1161.77 964.695 1153.05 964.452C1150.78 964.389 1139.4 968.239 1139.76 971.135C1140.13 974.063 1149.14 974.677 1150.88 974.277C1161.31 971.881 1172.71 968.976 1183.36 968.099C1188.02 967.716 1193.09 969.415 1197.58 967.729C1199.24 967.106 1199.02 965.18 1197.33 965.995Z" fill="#f6ad00" fill-rule="nonzero" opacity="1" stroke="none" vectornator:layerName="Curve 149"/>
<path d="M1224.04 947.222C1219.23 952.563 1214.95 958.527 1210.69 964.25C1210.41 964.62 1208.38 966.983 1209.21 967.547C1212.36 969.702 1229.58 954.193 1225.07 948.536C1224.68 948.049 1218.67 956.274 1215.61 960.442C1215.32 960.837 1214.62 961.475 1215.16 962.048C1218.25 965.317 1225.4 958.495 1226 955.629C1226.32 954.15 1223.71 952.355 1223.03 953.87" fill="#f6ad00" fill-rule="nonzero" opacity="1" stroke="none" vectornator:layerName="Curve 150"/>
<path d="M1158.2 964.525C1156.58 963.402 1143.63 967.799 1142.49 969.76C1141.71 971.092 1136.85 969.784 1135.88 970.79C1129.65 977.228 1124.28 983.667 1119.57 991.731C1116.45 997.081 1113.14 1002.38 1110.1 1007.59C1109.91 1007.91 1109.48 1008.8 1109.87 1009.07C1112.06 1010.59 1118.43 1011.21 1120.81 1011.28C1124.19 1011.37 1126.17 1014.72 1128.98 1015.29C1135.24 1016.58 1142.42 1014.93 1148.5 1017.13C1150.9 1018.01 1166.21 1021.89 1166.99 1022.93C1167.51 1023.62 1164.96 1024.74 1165.67 1024.82C1171.59 1025.49 1180.47 1002.94 1179.39 997.654C1178.77 994.612 1178.53 989.512 1177.32 986.876C1174.98 981.769 1159.29 961.272 1154.68 966.522" fill="#ffffff" fill-rule="nonzero" opacity="1" stroke="none" vectornator:layerName="Curve 151"/>
<path d="M1160.08 963.889C1137.86 969.477 1130.74 971.513 1118.04 993.194C1115.87 996.889 1109.41 1001.35 1109.94 1006.27C1110.31 1009.75 1123.14 1009.93 1124.98 1012.56C1126.1 1014.17 1167.65 1023.74 1171.47 1022.54C1187.47 1017.52 1176.98 969.625 1161.95 971.39" fill="#ffffff" fill-rule="nonzero" opacity="1" stroke="none" vectornator:layerName="Curve 152"/>
<path d="M1205.83 996.186C1202.3 992.894 1197.98 998.576 1194.81 999.64C1188.79 1001.66 1183.62 1005.62 1179.07 1010.39C1175.27 1014.38 1171.9 1018.93 1168.85 1023.39C1167.84 1024.86 1161.5 1035.76 1163.36 1037.26C1169.36 1042.09 1169.68 1039.51 1175.44 1040.45C1177.58 1040.8 1178.35 1043.84 1180.53 1044.32C1186.79 1045.67 1195.26 1045.78 1201.4 1046.78C1205.92 1047.52 1213.92 1051.63 1218.44 1048.74C1227.21 1043.14 1225.99 1024.8 1222.9 1016.67C1221.73 1013.58 1218.54 1011.45 1217.32 1008.24C1216.85 1007.01 1217.49 1005.38 1216.39 1003.99C1213.93 1000.91 1208.31 998.495 1205.83 996.186Z" fill="#ffffff" fill-rule="nonzero" opacity="1" stroke="none" vectornator:layerName="Curve 153"/>
<path d="M1355.36 1076.05C1352.21 1073.64 1336.96 1071.47 1332.06 1069.95C1306.34 1061.95 1280.4 1055.49 1254.54 1049.21C1250.01 1048.11 1222.78 1042.61 1223.55 1038.89C1223.96 1036.93 1220.43 1041.03 1218.86 1042.11C1215.29 1044.56 1215.56 1049.14 1216.85 1051.35C1220.61 1057.78 1244.7 1058.38 1251.72 1060.83C1277.52 1069.83 1304.5 1076.34 1330.96 1082.77C1336.72 1084.17 1348.11 1091.15 1353.98 1088.7C1355.7 1087.98 1355.12 1084 1355.07 1081.91C1355.04 1080.27 1358.07 1078.75 1357.66 1077.4C1357.33 1076.33 1356.24 1077.44 1355.81 1076.84C1355.52 1076.43 1355.47 1076.14 1355.36 1076.05Z" fill="#ffffff" fill-rule="nonzero" opacity="1" stroke="none" vectornator:layerName="Curve 154"/>
<path d="M1221.03 1047.11C1215.92 1044.25 1203.18 1045.86 1214.08 1051.8C1218.39 1054.15 1227.35 1050.64 1221.03 1047.11Z" fill="#ffffff" fill-rule="nonzero" opacity="1" stroke="none" vectornator:layerName="Curve 155"/>
<path d="M1211.69 1049.07C1209.84 1048.01 1206.87 1048.59 1204.97 1047.7C1202.7 1046.65 1197.94 1043.28 1195.21 1045.33C1194.05 1046.21 1198.41 1049 1198.8 1049.11C1200.46 1049.56 1220.24 1053.99 1211.69 1049.07Z" fill="#ffffff" fill-rule="nonzero" opacity="1" stroke="none" vectornator:layerName="Curve 156"/>
<path d="M1224.49 1036.59C1222.8 1036.01 1220.2 1039.95 1221.98 1040.59C1224.4 1041.46 1226.78 1037.37 1224.49 1036.59Z" fill="#ffffff" fill-rule="nonzero" opacity="1" stroke="none" vectornator:layerName="Curve 157"/>
<path d="M1224.48 1035.16C1220.71 1036.71 1219.46 1042.16 1224.46 1040.78C1226.54 1040.21 1228.04 1035.28 1225.09 1036.67" fill="#ffffff" fill-rule="nonzero" opacity="1" stroke="none" vectornator:layerName="Curve 158"/>
<path d="M1217.86 1007.44C1217.75 1006.68 1219.3 1007.53 1218.98 1006.79C1218.15 1004.89 1214.21 1007.24 1215.57 1009.95C1217.48 1013.78 1223.01 1014.49 1219.6 1009.17" fill="#ffffff" fill-rule="nonzero" opacity="1" stroke="none" vectornator:layerName="Curve 159"/>
<path d="M1177.04 1008.84C1176.7 1012.96 1178.5 1006.59 1177.9 1003.8" fill="#ffffff" fill-rule="nonzero" opacity="1" stroke="none" vectornator:layerName="Curve 160"/>
<path d="M1538.1 1034.21C1531.85 1027.36 1522.97 1024.31 1516.51 1018.7C1514.36 1016.84 1514.1 1013.54 1512.17 1011.86C1510.74 1010.62 1509.04 1011.24 1507.64 1009.72C1506.14 1008.1 1507.59 1005.14 1505.86 1003.74C1493.63 993.788 1482.25 982.958 1469.97 972.306C1460.68 964.244 1453.98 952.418 1442.17 949.856C1435.48 948.405 1434.55 959.168 1432.7 964.181C1429.94 971.676 1425.02 977.434 1419.29 983.638C1417.12 985.993 1417.45 991.411 1415.55 993.474C1408.85 1000.73 1401.7 1010.61 1394.64 1015.71C1392.15 1017.51 1390.06 1019.99 1386.76 1019.99C1386.35 1019.99 1383.16 1020.53 1383.4 1021.06C1384.16 1022.69 1388.6 1023.99 1389.91 1025.76C1396.65 1034.9 1404.85 1042.37 1416.34 1047.35C1418.66 1048.36 1421.66 1047.87 1423.83 1049.28C1452.9 1068.19 1491.82 1084.26 1524.79 1066.38C1532.41 1062.26 1536.67 1047.95 1538.2 1039.66C1538.52 1037.95 1539.01 1035.19 1538.1 1034.21Z" fill="#627d91" fill-rule="nonzero" opacity="1" stroke="none" vectornator:layerName="Curve 161"/>
<path d="M1530.49 1027.29C1530.03 1025.79 1523.18 1021.9 1521.59 1020.61C1516.18 1016.21 1511.52 1009.94 1506.76 1004.78C1505.63 1003.55 1500.2 999.953 1499.23 1001.44C1495.21 1007.54 1513.35 1027.04 1517.82 1030.63C1519.65 1032.09 1521.84 1033.75 1523.76 1035.08C1524.15 1035.36 1527.73 1036.67 1527.29 1036.2" fill="#627d91" fill-rule="nonzero" opacity="1" stroke="none" vectornator:layerName="Curve 162"/>
<path d="M1502.42 1000.82C1494.54 992.272 1486.85 984.413 1478.12 977.312C1472.43 972.683 1467.53 964.906 1460.78 962.467C1458.84 961.767 1452.14 951.549 1449.48 954.426C1446.15 958.035 1452.99 965.236 1454.62 967.291C1459.43 973.38 1467.46 978.64 1471.27 985.353C1473.44 989.174 1477.37 998.961 1482.34 998.961" fill="#627d91" fill-rule="nonzero" opacity="1" stroke="none" vectornator:layerName="Curve 163"/>
<path d="M1462.26 962.467C1460.72 961.634 1454.2 953.393 1451.88 955.91C1450.8 957.077 1459.09 966.193 1460.66 967.044" fill="#627d91" fill-rule="nonzero" opacity="1" stroke="none" vectornator:layerName="Curve 164"/>
<path d="M1436.73 953.902C1432.62 971.151 1416.47 982.127 1409.63 997.467C1401.6 1015.49 1423.39 999.237 1427.27 995.24C1430.73 991.68 1432.99 988.588 1436.15 984.655" fill="#627d91" fill-rule="nonzero" opacity="1" stroke="none" vectornator:layerName="Curve 165"/>
<path d="M1434.13 959.919C1432.8 962.585 1424.91 973.012 1425.47 975.06C1427.22 981.462 1438.9 968.062 1438.44 965.764" fill="#627d91" fill-rule="nonzero" opacity="1" stroke="none" vectornator:layerName="Curve 166"/>
<path d="M1382.4 1021.1C1384.6 1024.46 1388.66 1028.34 1392.72 1028.46C1393.2 1028.47 1393.23 1028.07 1393.26 1027.65C1393.45 1024.55 1393.88 1024.48 1390.62 1023.19C1389.91 1022.91 1390.37 1023.15 1389.88 1022.83C1389.85 1022.81 1389.81 1022.79 1389.77 1022.76" fill="#627d91" fill-rule="nonzero" opacity="1" stroke="none" vectornator:layerName="Curve 167"/>
<path d="M1420.86 1049.13C1423.76 1050.54 1437.85 1060.82 1440.41 1055.08C1441.09 1053.56 1430.04 1044.3 1427.91 1043.33C1427.35 1043.07 1423.68 1041.56 1423.37 1043.07" fill="#627d91" fill-rule="nonzero" opacity="1" stroke="none" vectornator:layerName="Curve 168"/>
<path d="M1418.45 1049.04C1419.38 1049.27 1420.32 1049.5 1421.26 1049.73C1426.92 1051.12 1420.91 1043.42 1418.8 1045.5C1418.47 1045.82 1418.03 1046.94 1418.27 1047.36" fill="#627d91" fill-rule="nonzero" opacity="1" stroke="none" vectornator:layerName="Curve 169"/>
<path d="M1469.45 886.517C1468.23 889.875 1453.23 909.374 1452.85 909.352C1451.39 909.267 1439.15 896.524 1437.21 895.256C1422.11 885.435 1410.72 871.505 1395.26 861.452C1389.02 857.393 1379 843.47 1369.96 847.732C1365.26 849.947 1367.98 857.386 1365.88 858.966C1365.74 859.072 1357.24 859.32 1354.16 861.64C1352.72 862.727 1346.79 870.515 1346.07 872.485C1345.48 874.118 1348 873.438 1347.18 874.812C1345.91 876.94 1340.87 876.571 1339.35 878.883C1337.71 881.376 1338.42 884.815 1337.49 887.358C1336.99 888.734 1335.44 886.849 1335 886.824C1332.37 886.671 1328.95 900.149 1329.71 902.045C1331.8 907.257 1337.43 907.29 1342.82 906.317C1343.62 906.172 1351.09 907.073 1350.55 908.561C1349.71 910.858 1346.27 906.825 1344.04 906.31C1338.48 905.025 1336.48 901.325 1330.69 904.052C1327.5 905.559 1309.56 932.188 1310.67 934.96C1310.89 935.509 1312.13 936.112 1312.62 936.322C1315.37 937.495 1333.11 949.619 1333.7 949.563C1334.24 949.51 1333.37 947.539 1333.31 947.277C1332.73 945.01 1324.03 937.196 1321.84 940.525C1320.09 943.184 1339.58 954.616 1340.22 954.467C1342.68 953.892 1336.21 937.849 1331.28 946.145C1326.94 953.436 1343.11 953.581 1345.54 954.62C1345.99 954.813 1346.26 955.988 1346.26 955.988C1346.26 955.988 1349.52 952.511 1348.6 950.896C1346.97 948.025 1343.76 948.998 1341.59 950.021C1340.82 950.387 1340.32 951.509 1340.04 952.272C1337.79 958.469 1345.32 955.461 1348.2 956.023C1349.51 956.278 1348.66 959.094 1349.53 959.768C1351.15 961.019 1360.47 964.878 1362.93 965.228C1367.51 965.878 1371.22 967.709 1375.74 969.639C1376.39 969.917 1376.92 967.756 1376.92 967.756C1376.92 967.756 1376.43 969.327 1376.29 970.139C1375.16 976.979 1367.82 986.534 1369.66 993.787C1369.79 994.32 1372.45 994.186 1373.08 994.454C1374.49 995.057 1376.44 997.612 1377.91 998.636C1383.64 1002.65 1389.3 1012.05 1396.46 1013.45C1401.4 1014.41 1406.2 1003.64 1408.13 1000.16C1416.18 985.607 1427.38 976.089 1433.38 959.565C1434.21 957.279 1439.71 949.13 1438.76 946.769C1438.7 946.6 1438.48 946.983 1438.39 947.137C1436.76 949.863 1443.58 949.916 1444.86 950.166C1451.51 951.463 1456.65 951.591 1463.34 950.381C1482.47 946.924 1492.93 941.861 1503.26 923.204C1510.15 910.74 1481.43 883.263 1469.48 884.412C1465.14 884.829 1467.15 894.4 1468.74 896.541C1473.36 902.794 1495.88 927.728 1504 919.813C1516.74 907.409 1486.31 890.715 1479.83 886.183C1473.47 881.743 1468.83 892.61 1466.6 891.657" fill="#eba379" fill-rule="nonzero" opacity="1" stroke="none" vectornator:layerName="Curve 170"/>
<path d="M1353.73 865.619C1351.06 863.848 1348.7 858.54 1345.75 856.313C1344.45 855.329 1341.72 855.489 1340.76 854.476C1339.67 853.338 1338.89 850.458 1337.43 849.845C1322.52 843.589 1304.92 857.482 1295.58 867.974C1292.92 870.959 1288.8 869.755 1286.7 874.219C1282.55 883.033 1290.16 884.979 1294.8 888.665C1295.04 888.856 1297.32 890.874 1297.26 891.034C1296.83 892.056 1293.68 891.918 1292.67 892.952C1286.64 899.116 1280.58 905.739 1274.64 911.798C1274.3 912.15 1273.45 913.535 1273.76 914.059C1276.09 918.113 1281.61 918.214 1284.22 921.211C1288.24 925.839 1292.4 925.635 1297.38 927.725C1301.47 929.443 1304.48 933.451 1308.98 934.58C1315.34 936.174 1333.36 930.895 1339.48 928.646C1347.76 925.601 1361.85 924.247 1361.64 911.274C1361.51 903.5 1361.03 892.462 1358.35 885.034C1356.59 880.151 1352.71 875.54 1351.12 870.95C1350.61 869.511 1353.42 869.183 1353.52 867.901C1353.81 864.255 1346.91 856.537 1344.89 854.052C1341.12 849.426 1317.04 842.565 1317.97 853.289" fill="#eba379" fill-rule="nonzero" opacity="1" stroke="none" vectornator:layerName="Curve 171"/>
<path d="M1396.58 859.277C1391.05 852.433 1375.31 850.964 1388.14 865.341C1396.22 874.381 1404.68 869.303 1396.58 859.277Z" fill="#eba379" fill-rule="nonzero" opacity="1" stroke="none" vectornator:layerName="Curve 172"/>
<path d="M1454.36 906.999C1455.73 907.702 1451.98 904.93 1450.94 903.733C1448.92 901.402 1445.74 898.951 1443.24 897.563C1438.33 894.847 1415.65 873.701 1411.53 880.116C1409.2 883.751 1414.74 890.983 1416.62 893.516C1423.49 902.776 1433.76 913.152 1444.84 915.931C1449.09 916.996 1454.72 917.33 1457.04 912.419C1458.15 910.054 1453.09 906.35 1454.36 906.999Z" fill="#eba379" fill-rule="nonzero" opacity="1" stroke="none" vectornator:layerName="Curve 173"/>
<path d="M1475.62 941.743C1469.37 942.871 1462.92 941.022 1456.67 941.397C1454.72 941.514 1432.63 943.996 1435.32 949.507C1437.3 953.574 1442.9 951.534 1446.11 952.21C1462.21 955.605 1476.4 950.552 1489.15 939.281" fill="#eba379" fill-rule="nonzero" opacity="1" stroke="none" vectornator:layerName="Curve 174"/>
<path d="M1375.58 996.26C1376.44 994.196 1368.95 992.312 1368.77 994.263C1368.45 997.714 1378.64 998.889 1378.76 999.01" fill="#eba379" fill-rule="nonzero" opacity="1" stroke="none" vectornator:layerName="Curve 175"/>
<path d="M1347.17 951.264C1340.59 951.731 1351.02 960.566 1352.95 958.9C1357.8 954.727 1345.24 952.349 1344.98 953.257C1343.69 957.787 1352.65 959.151 1352.36 958.942" fill="#eba379" fill-rule="nonzero" opacity="1" stroke="none" vectornator:layerName="Curve 176"/>
<path d="M1301.27 926.384C1300.99 926.188 1293.37 921.833 1293.71 924.779C1294.2 928.984 1301.1 932.129 1304.59 931.961C1305.97 931.894 1306.63 926.448 1306.42 927.93" fill="#eba379" fill-rule="nonzero" opacity="1" stroke="none" vectornator:layerName="Curve 177"/>
<path d="M1299.8 890.065C1297.72 888.104 1292 891.15 1294.31 893.144C1297.81 896.161 1304.43 894.432 1299.8 890.065Z" fill="#eba379" fill-rule="nonzero" opacity="1" stroke="none" vectornator:layerName="Curve 178"/>
<path d="M1479.28 778.059C1475.86 777.781 1473.99 788.723 1470.52 785.43C1466.9 781.998 1468.69 772.118 1460.7 773.371C1453.51 774.499 1445.15 790.118 1449.83 796.564C1451.46 798.809 1454.24 802.515 1456.74 803.652C1457.55 804.019 1464.05 805.63 1464.06 805.69C1464.18 807.658 1464.84 809.933 1466.65 812.888C1473.87 824.686 1453.27 835.238 1468.46 842.136C1476.53 845.802 1487.83 835.161 1493.73 830.913C1494.88 830.087 1502.71 826.716 1502.53 825.336C1502.53 825.325 1491.23 818.945 1490.14 817.341C1486.19 811.508 1481.72 798.493 1480.73 791.053C1480.26 787.542 1488.89 781.14 1479.32 776.792C1474.04 774.394 1474.14 785.166 1472.91 786.317C1470.49 788.567 1469.36 776.342 1467.3 777.258C1464.94 778.306 1467.79 790.956 1474.33 788.05" fill="#eba379" fill-rule="nonzero" opacity="1" stroke="none" vectornator:layerName="Curve 179"/>
<path d="M1480.78 789.498C1483.61 789.292 1485.81 781.313 1477.62 788.953" fill="#eba379" fill-rule="nonzero" opacity="1" stroke="none" vectornator:layerName="Curve 180"/>
<path d="M1464.84 810.252C1464.84 811.721 1465.56 813.159 1465.56 814.729C1465.56 816.637 1465.89 817.769 1466.73 819.401C1470.76 827.272 1471.35 809.96 1466.82 809.96" fill="#eba379" fill-rule="nonzero" opacity="1" stroke="none" vectornator:layerName="Curve 181"/>
<path d="M1466.15 821.905C1460.5 827.197 1452.71 830.474 1445.6 833.295C1442.23 834.633 1438.98 838.139 1436.13 840.239C1425.34 848.176 1414.04 855.204 1406.06 867.021C1404.5 869.335 1412.08 873.698 1413.77 874.849C1421.57 880.133 1427.01 887.281 1434.75 892.734C1436.17 893.736 1439.44 898.663 1441.61 898.299C1441.73 898.278 1441.53 896.191 1441.54 896.01C1441.95 890.133 1440.6 883.487 1442.05 877.785C1443.54 871.949 1446.68 865.756 1449.08 860.154C1449.14 860.002 1449.84 858.619 1449.77 858.529C1449.7 858.426 1446.81 863.927 1446.6 864.413C1445.12 867.882 1443.23 872.143 1442.37 875.828C1438.77 891.204 1437.13 895.056 1447.81 902.968C1449.71 904.38 1450.9 906.955 1453.37 907.601C1457.26 908.619 1458.36 902.371 1460.08 899.829C1466.05 890.974 1472.71 882.262 1478.64 873.471C1480.19 871.171 1488.02 874.091 1489.7 874.379C1499.94 876.124 1510.62 889.876 1515.25 899.218C1517.3 903.351 1510.86 907.472 1508.86 910.816C1503.19 920.266 1494.19 940.977 1484.61 945.887C1479.92 948.294 1463.41 957.429 1458.97 956.266C1457.46 955.872 1454.22 953.106 1454.54 954.746C1454.91 956.618 1453.67 954.031 1453.68 954.03C1453.72 954.014 1458.04 955.057 1458.14 955.147C1458.7 955.633 1457.55 953.36 1457.15 953.518C1453.1 955.126 1462.87 959.834 1464.16 960.853C1465.4 961.841 1465.49 964.026 1466.59 964.899C1472.43 969.533 1483.5 974.235 1490.71 972.09C1506.96 967.252 1510.57 951.519 1517.1 936.264C1521.02 927.103 1525.25 920.988 1528.51 911.107C1530.77 904.253 1529.73 894.895 1528.42 888.206C1527.97 885.919 1529.54 883.307 1529.65 881.066C1529.83 877.4 1528.24 873.747 1527.87 870.014C1526.36 854.62 1510.67 837.606 1502.34 826.278C1502.1 825.952 1495.27 830.224 1494.12 830.892C1487.11 834.977 1479.01 845.404 1469.83 842.659C1467.07 841.833 1461.62 838.632 1462.69 834.412C1463.4 831.606 1468.92 819.315 1466.15 821.905Z" fill="#d36977" fill-rule="nonzero" opacity="1" stroke="none" vectornator:layerName="Curve 182"/>
<path d="M1466.28 821.757C1466.14 819.346 1452.56 828.639 1453.41 831.157C1454.03 832.983 1459.42 830.314 1460.3 829.964C1461.71 829.404 1468.11 825.998 1468.05 823.705C1468 821.914 1466.43 824.308 1466.28 821.757Z" fill="#d36977" fill-rule="nonzero" opacity="1" stroke="none" vectornator:layerName="Curve 183"/>
<path d="M1440.76 835.797C1438.7 836.616 1437.81 838.791 1436.01 839.899C1430.77 843.127 1425.34 845.191 1420.86 849.772C1420.16 850.488 1417.35 856.697 1418 857.364C1421.73 861.175 1431.6 852.057 1434.06 849.925C1435.27 848.878 1436.52 847.876 1437.73 846.83C1438.23 846.401 1439.61 844.982 1439.12 845.412C1438.65 845.819 1438.35 846.367 1437.89 846.768" fill="#d36977" fill-rule="nonzero" opacity="1" stroke="none" vectornator:layerName="Curve 184"/>
<path d="M1452.7 953.892C1454.69 957.884 1460.43 958.489 1462.83 961.986C1471.16 974.172 1484.84 982.419 1495.72 992.236C1499.33 995.499 1502.69 999.688 1505.81 1003.39C1507.42 1005.3 1511.19 1008.53 1511.19 1008.53C1511.19 1008.53 1509.65 1006.85 1510.16 1007.1C1518.4 1011.21 1524 1023.7 1531.39 1029.31C1532.39 1030.07 1538.87 1035.24 1539.71 1034.41C1539.91 1034.21 1539.66 1010.19 1539.58 1007.59C1539.51 1005.46 1541.56 1002.95 1541.64 1000.79C1541.75 998.102 1539.67 995.375 1540.05 992.597C1540.27 990.955 1541.61 989.894 1541.82 988.341C1542.28 984.991 1540.24 982.068 1540.37 978.875C1541.23 957.716 1540.28 934.823 1533.9 914.678C1531.99 908.655 1533.1 883.462 1528.62 880.056C1527.92 879.525 1527.51 880.927 1527.37 881.298C1525.49 886.108 1525.3 893.318 1522.63 897.439C1521.42 899.321 1515.35 904.924 1515.25 905.155C1512.41 911.853 1510.58 917.108 1506.04 923.251C1503.12 927.192 1499.32 931.898 1497.58 935.997C1497.35 936.545 1496.27 937.108 1496.27 937.108C1496.27 937.108 1498.99 935.271 1500.36 934.368C1502 933.288 1522.36 922.72 1513.98 917.912C1511.81 916.669 1508.36 922.001 1507.27 923.208C1500.17 931.045 1497.92 938.468 1495.2 948.394C1494.86 949.618 1491.28 956.084 1492.77 957.598C1493.76 958.603 1497.56 949.992 1497.69 949.637C1498.92 946.163 1501.22 936.728 1497.21 933.681C1495.61 932.465 1492.03 936.328 1491.62 937.805C1489.54 945.386 1482.05 944.921 1478.19 948.397C1477.44 949.074 1477.31 951.09 1476.13 951.132" fill="#d36977" fill-rule="nonzero" opacity="1" stroke="none" vectornator:layerName="Curve 185"/>
<path d="M1490.28 939.453C1489.16 940.84 1479.37 946.918 1481.64 948.26C1486.31 951.021 1497.72 945.233 1497.33 938.94C1497.24 937.477 1495.24 936.043 1494.23 937.293" fill="#d36977" fill-rule="nonzero" opacity="1" stroke="none" vectornator:layerName="Curve 186"/>
<path d="M1476.85 949.348C1476.23 948.246 1474.16 950.578 1472.88 950.671C1472.33 950.712 1469.55 949.731 1469.23 950.346C1468.81 951.133 1470.25 953.742 1470.75 954.374C1471.54 955.369 1480.03 955.027 1476.85 949.348Z" fill="#d36977" fill-rule="nonzero" opacity="1" stroke="none" vectornator:layerName="Curve 187"/>
<path d="M1527.99 1025.27C1519.79 1017.69 1510.12 1011.27 1503.97 1001.56C1503.84 1001.36 1504.58 1000.1 1504.73 999.821C1505.59 998.204 1513.1 1002.87 1514.04 1003.54C1516.05 1004.96 1518.19 1006 1520.21 1007.43C1522.99 1009.4 1523.57 1013.58 1524.61 1014.71" fill="#d36977" fill-rule="nonzero" opacity="1" stroke="none" vectornator:layerName="Curve 188"/>
<path d="M1526.96 1025.13C1521.08 1018.7 1514.62 1014.62 1509.15 1007.27C1507.92 1005.61 1504.18 1003.21 1503.91 1001.08C1503.81 1000.28 1504.63 999.725 1504.52 998.889" fill="#d36977" fill-rule="nonzero" opacity="1" stroke="none" vectornator:layerName="Curve 189"/>
<path d="M1528.94 1027.49C1527.17 1023.6 1522.61 1022.67 1519.84 1019.65C1516.72 1016.24 1515.34 1011.04 1512.31 1007.72C1510.59 1005.84 1508.29 1002.92 1507.84 1000.42C1507.72 999.714 1505.92 995.75 1506.52 997.057" fill="#d36977" fill-rule="nonzero" opacity="1" stroke="none" vectornator:layerName="Curve 190"/>
<path d="M1529.25 1027.21C1527.13 1026.44 1526.3 1024.05 1524.54 1022.77C1518.75 1018.55 1511.95 1014.91 1508.27 1008.03C1507.21 1006.06 1501.95 1000.62 1505.68 998.614C1510.99 995.762 1526.11 1011.24 1527.91 1015.37C1528.84 1017.51 1532.6 1025.52 1532.45 1025.2" fill="#d36977" fill-rule="nonzero" opacity="1" stroke="none" vectornator:layerName="Curve 191"/>
<path d="M1539.96 1033.04C1538.8 1020.14 1540.35 1006.46 1541.64 993.782C1542.06 989.693 1540.21 984.691 1542.09 980.881C1542.98 979.07 1540.15 967.741 1538.57 967.963C1535.39 968.414 1534.22 974.993 1533.88 977.645C1532.63 987.271 1533.11 997.27 1533.36 1006.95C1533.45 1010.23 1535.19 1013.96 1534.49 1017.14C1534.29 1018.07 1534.43 1023.52 1535 1021.48" fill="#d36977" fill-rule="nonzero" opacity="1" stroke="none" vectornator:layerName="Curve 192"/>
<path d="M1531.94 890.086C1533.46 896.754 1536.63 920.119 1533.09 925.542C1530.55 929.43 1525.62 912.286 1525.5 910.542" fill="#d36977" fill-rule="nonzero" opacity="1" stroke="none" vectornator:layerName="Curve 193"/>
<path d="M1469.57 885.779C1472.28 887.844 1478.52 888.719 1481.77 889.918C1487.32 891.967 1493.94 897.495 1498.71 901.429C1501.99 904.128 1504.04 906.693 1506.04 910.428C1506.58 911.424 1507.79 913.381 1507.71 914.69C1507.67 915.528 1506.61 917.7 1507.19 917.144C1511.32 913.185 1514.77 906.424 1516.55 900.76C1522.44 882.004 1495.02 866.875 1481.66 871.654C1475.85 873.732 1463.49 881.149 1469.57 885.779Z" fill="#d36977" fill-rule="nonzero" opacity="1" stroke="none" vectornator:layerName="Curve 194"/>
<path d="M1469.19 887.057C1468.31 885.513 1477.14 888.526 1478.46 888.946C1482.86 890.342 1493.73 895.911 1496.56 900.042C1499.22 903.93 1501.15 908.411 1503.94 912.023C1504.48 912.722 1506.33 917.718 1506.54 917.353C1509.77 911.656 1501.66 884.481 1497.66 883.468C1492.24 882.096 1488.1 878.51 1482.16 877.702C1477.42 877.059 1471.77 876.024 1467.11 874.734C1465.79 874.367 1462.17 870.408 1463.26 872.301" fill="#d36977" fill-rule="nonzero" opacity="1" stroke="none" vectornator:layerName="Curve 195"/>
<path d="M1395.92 1014.51C1396.26 1008.51 1383.2 1005.48 1379.4 1002.73C1378.79 1002.29 1385.15 1009.2 1387.22 1007.52C1389.11 1005.98 1379.14 1001.38 1378.84 1001.8C1376.95 1004.54 1379.18 1016.67 1380.72 1020.01C1382.55 1023.98 1395.81 1016.38 1395.92 1014.51Z" fill="#38434b" fill-rule="nonzero" opacity="1" stroke="none" vectornator:layerName="Curve 196"/>
<path d="M1487.27 811.55C1497.71 806.684 1507.7 801.152 1517.49 794.873C1518.8 794.037 1520.9 793.831 1521.92 792.495C1527.64 785.042 1520.88 770.414 1512.54 768.817C1508.48 768.04 1503.04 771.041 1499.37 770.019C1495.6 768.968 1491.74 757.689 1484.25 756.743C1478.9 756.067 1476.57 761.059 1472.57 761.457C1469.46 761.767 1472.02 757.226 1470.48 756.714C1466.46 755.368 1461.28 753.018 1456.82 753.23C1453.77 753.376 1450.95 756.549 1448.24 757.42C1445.63 758.264 1444.73 756.239 1442.36 758.652C1435.24 765.874 1437.39 775.271 1441.91 782.268C1441.99 782.393 1436.33 787.504 1436.27 789.502C1435.86 802.776 1445.45 813.421 1457.79 807.272C1458.32 807.006 1460.78 806.094 1460.71 805.834C1460.42 804.749 1456.85 804.226 1454.87 802.861C1452.39 801.147 1450.85 798.374 1449.91 796.81C1444.33 787.471 1448.51 768.907 1461.04 768.309C1465.42 768.1 1489.85 771.018 1490.11 777.471C1490.42 785.229 1486.54 778.892 1484.11 782.445C1482.45 784.869 1484.46 787.405 1482.72 789.831C1482.58 790.02 1480.73 792.163 1480.73 792.181C1481.92 796.523 1486.05 804.54 1485.9 809.426" fill="#704332" fill-rule="nonzero" opacity="1" stroke="none" vectornator:layerName="Curve 197"/>
<path d="M1448.84 789.436C1447.8 789.644 1450.91 782.797 1451.23 781.993C1453.08 777.306 1457.88 770.703 1463.63 772.662C1469.56 774.681 1466.53 782.521 1470.49 785.472C1476.74 790.139 1474.08 778.692 1477.89 777.302C1479.19 776.828 1482.78 781.321 1483.04 782.483C1483.29 783.576 1482.46 784.769 1482.72 785.903C1482.93 786.828 1483.92 786.155 1483.98 787.209C1484.11 789.619 1480.73 789.906 1481.49 792.344C1482.04 794.116 1486.66 790.13 1486.9 789.82C1489.6 786.255 1493 780.498 1491.48 775.585C1489.93 770.62 1478.82 760.029 1473.94 760.102C1472.81 760.118 1470.93 763.308 1469.57 763.837C1464.21 765.917 1457.65 765.489 1452.54 768.316C1446.87 771.448 1446.24 774.392 1445.84 780.804C1445.76 782.132 1445.79 788.129 1446.07 787.9" fill="#704332" fill-rule="nonzero" opacity="1" stroke="none" vectornator:layerName="Curve 198"/>
<path d="M1469.12 760.642C1469.53 761.452 1469.29 762.772 1470.21 763.315C1471.41 764.022 1471.22 759.833 1471 759.347C1470.76 758.792 1468.45 759.303 1469.12 760.642Z" fill="#704332" fill-rule="nonzero" opacity="1" stroke="none" vectornator:layerName="Curve 199"/>
<path d="M1470.7 759.951C1471.11 761.309 1470.18 763.481 1472.63 762.257C1473.07 762.035 1473.43 761.487 1473.26 760.928C1472.97 760.011 1469.89 757.309 1470.7 759.951Z" fill="#704332" fill-rule="nonzero" opacity="1" stroke="none" vectornator:layerName="Curve 200"/>
<path d="M1476.1 758.416C1472.85 761.898 1474.38 764.611 1477.85 761.191C1479.43 759.635 1477.45 756.966 1476.1 758.416Z" fill="#704332" fill-rule="nonzero" opacity="1" stroke="none" vectornator:layerName="Curve 201"/>
<path d="M1499.71 769.627C1501.14 767.882 1498.05 766.447 1496.85 765.3C1495.51 764.026 1495.3 761.591 1493.14 761.032C1487.7 759.628 1490.55 767.157 1493.1 768.915C1494.29 769.735 1495.18 770.971 1496.55 771.465C1499.48 772.515 1498.99 770.516 1499.71 769.627Z" fill="#704332" fill-rule="nonzero" opacity="1" stroke="none" vectornator:layerName="Curve 202"/>
<path d="M1518.36 793.321C1518.25 793.333 1518.14 793.328 1518.03 793.357C1517.45 793.513 1516.9 793.763 1516.33 793.966C1515.83 794.148 1515.29 794.281 1514.77 794.419C1514.27 794.554 1514.17 794.575 1513.69 794.726C1513.01 794.943 1502.59 799.91 1505.24 802.258C1508.02 804.718 1515.26 798.998 1517.22 796.761C1518.41 795.416 1520.29 794.947 1519.84 792.735C1519.78 792.425 1519.79 792.017 1519.44 792.145" fill="#704332" fill-rule="nonzero" opacity="1" stroke="none" vectornator:layerName="Curve 203"/>
<path d="M1435.77 794.063C1435.63 795.184 1436.53 801.963 1438.88 800.221C1442.69 797.405 1436.06 790.736 1436.56 793.989" fill="#704332" fill-rule="nonzero" opacity="1" stroke="none" vectornator:layerName="Curve 204"/>
<path d="M1488.15 810.723C1498.51 805.107 1510.31 802.99 1520.89 793.213" fill="none" opacity="1" stroke="#000000" stroke-linecap="round" stroke-linejoin="round" stroke-width="2.41099" vectornator:layerName="Curve 205"/>
<path d="M1480.07 790.655C1485.08 790.172 1484.03 778.346 1478.74 777.721C1473.27 777.073 1475.58 786.215 1473.08 786.456" fill="none" opacity="1" stroke="#000000" stroke-linecap="round" stroke-linejoin="round" stroke-width="2.41099" vectornator:layerName="Curve 206"/>
<path d="M1471.08 785.089C1471.42 785.699 1472.99 787.936 1473.24 786.245" fill="none" opacity="1" stroke="#000000" stroke-linecap="round" stroke-linejoin="round" stroke-width="2.41099" vectornator:layerName="Curve 207"/>
<path d="M1473.3 800.506C1474.31 800.506 1472.61 801.968 1470.77 803.286C1469.01 804.555 1464.42 806.169 1462.42 805.739C1454.02 803.931 1448.94 799.161 1448.5 789.353C1448.16 781.943 1457.28 769.267 1465.17 773.773C1469.61 776.306 1467.84 781.822 1471.16 785.089" fill="none" opacity="1" stroke="#000000" stroke-linecap="round" stroke-linejoin="round" stroke-width="2.41099" vectornator:layerName="Curve 208"/>
<path d="M1480.47 791.545C1481.59 793.184 1481.9 796.49 1482.49 798.439C1483.85 802.988 1486.26 807.107 1487.62 811.631C1488.3 813.912 1490.64 817.412 1490.13 818.198" fill="none" opacity="1" stroke="#000000" stroke-linecap="round" stroke-linejoin="round" stroke-width="2.41099" vectornator:layerName="Curve 209"/>
<path d="M1463.67 806.421C1466.81 813.687 1466.95 822.324 1469.19 829.789" fill="none" opacity="1" stroke="#000000" stroke-linecap="round" stroke-linejoin="round" stroke-width="2.41099" vectornator:layerName="Curve 210"/>
<path d="M1460.16 805.629C1451.23 811.716 1441.55 809.629 1436.63 798.916C1434.72 794.739 1435.71 789.072 1438.16 785.429C1439.08 784.058 1440.57 783.441 1441.87 782.552C1442.23 782.305 1443.77 782.165 1443.68 782.262C1442.69 783.386 1439.06 774.424 1438.8 773.569C1437.51 769.282 1440.26 761.259 1443.38 758.255C1445.5 756.216 1447.31 756.882 1449.76 756.827C1451.67 756.784 1454.07 754.32 1456.19 753.989C1460.32 753.345 1472.04 755.365 1472.61 761.685" fill="none" opacity="1" stroke="#000000" stroke-linecap="round" stroke-linejoin="round" stroke-width="2.41099" vectornator:layerName="Curve 211"/>
<path d="M1473.26 761.381C1478.78 754.14 1488.86 757.888 1494.44 762.31C1495.11 762.84 1501.17 768.981 1499.71 769.968" fill="none" opacity="1" stroke="#000000" stroke-linecap="round" stroke-linejoin="round" stroke-width="2.41099" vectornator:layerName="Curve 212"/>
<path d="M1500.31 769.391C1506.72 769.115 1513.98 765.735 1519.18 771.717C1524.78 778.155 1525.7 786.836 1520.78 793.213" fill="none" opacity="1" stroke="#000000" stroke-linecap="round" stroke-linejoin="round" stroke-width="2.41099" vectornator:layerName="Curve 213"/>
<path d="M1466.9 825.045C1465.83 824.599 1458.48 839.205 1467.48 842.176C1478.45 845.795 1488.52 834.119 1497.4 829.83" fill="none" opacity="1" stroke="#000000" stroke-linecap="round" stroke-linejoin="round" stroke-width="2.41099" vectornator:layerName="Curve 214"/>
<path d="M1490.09 817.461C1489.99 817.389 1492.52 818.785 1493.28 819.249C1495.97 820.894 1498.92 823.164 1501.23 825.375C1502.07 826.185 1503.01 826.867 1503.83 827.693C1504.13 827.99 1504.97 828.495 1504.71 828.513" fill="none" opacity="1" stroke="#000000" stroke-linecap="round" stroke-linejoin="round" stroke-width="2.41099" vectornator:layerName="Curve 215"/>
<path d="M1467.93 821.076C1464.8 820.853 1457.05 827.37 1454.17 828.682C1435.68 837.113 1415.51 852.039 1404.71 868.011" fill="none" opacity="1" stroke="#000000" stroke-linecap="round" stroke-linejoin="round" stroke-width="2.41099" vectornator:layerName="Curve 216"/>
<path d="M1454.87 849.303C1453.27 849.202 1450.32 856.488 1448.96 859.694C1446.7 865.015 1439.29 893.873 1441.57 897.601" fill="none" opacity="1" stroke="#000000" stroke-linecap="round" stroke-linejoin="round" stroke-width="2.41099" vectornator:layerName="Curve 217"/>
<path d="M1480.11 874.021C1479.24 872.623 1463.81 894.432 1460.41 898.974C1458.85 901.047 1456.61 903.561 1455.85 906.057C1455.58 906.933 1453.37 909.563 1454.4 908.811" fill="none" opacity="1" stroke="#000000" stroke-linecap="round" stroke-linejoin="round" stroke-width="2.41099" vectornator:layerName="Curve 218"/>
<path d="M1454.87 907.987C1456.28 909.068 1453.23 906.927 1452.81 906.545C1450.78 904.72 1446.92 901.935 1444.74 900.055C1438.67 894.829 1433.3 891.152 1428.11 886.684C1420.8 880.386 1411.97 874.377 1404.71 868.011C1396.16 860.504 1386.01 849.241 1374.5 847.327" fill="none" opacity="1" stroke="#000000" stroke-linecap="round" stroke-linejoin="round" stroke-width="2.41099" vectornator:layerName="Curve 219"/>
<path d="M1374.07 847.122C1368.7 847.856 1366.6 852.14 1367.55 857.43C1367.73 858.428 1369.13 859.271 1369.17 859.648" fill="none" opacity="1" stroke="#000000" stroke-linecap="round" stroke-linejoin="round" stroke-width="2.41099" vectornator:layerName="Curve 220"/>
<path d="M1369.61 860.201C1366.95 858.284 1351.37 855.514 1353.5 866.938" fill="none" opacity="1" stroke="#000000" stroke-linecap="round" stroke-linejoin="round" stroke-width="2.41099" vectornator:layerName="Curve 221"/>
<path d="M1363.04 868.466C1358.49 868.241 1354.24 865.267 1349.57 867.389C1347.24 868.448 1343.44 872.978 1347.7 874.869" fill="none" opacity="1" stroke="#000000" stroke-linecap="round" stroke-linejoin="round" stroke-width="2.41099" vectornator:layerName="Curve 222"/>
<path d="M1351.71 874.647C1352.26 874.013 1347.76 874.569 1347.56 874.618C1345.24 875.184 1340.47 877.102 1339.41 879.618C1339.02 880.55 1338.78 886.732 1339.49 886.6" fill="none" opacity="1" stroke="#000000" stroke-linecap="round" stroke-linejoin="round" stroke-width="2.41099" vectornator:layerName="Curve 223"/>
<path d="M1344.02 886.684C1339.46 886.82 1332.56 887.219 1331.78 893.945C1331.6 895.549 1332.1 902.046 1331.29 902.974" fill="none" opacity="1" stroke="#000000" stroke-linecap="round" stroke-linejoin="round" stroke-width="2.41099" vectornator:layerName="Curve 224"/>
<path d="M1516.96 902.48C1514.7 901.744 1505.4 918.948 1503.34 921.68C1493.59 934.626 1490.15 943.701 1475.17 949.652C1469.13 952.052 1458.51 954.159 1452.37 953.25C1444.63 952.103 1436.06 951.122 1428.15 949.052C1404.98 942.988 1383.43 924.816 1362.44 912.688C1356.26 909.111 1346.14 905.181 1339.07 904.711C1336.76 904.557 1332.75 905.956 1331.29 904.457" fill="none" opacity="1" stroke="#000000" stroke-linecap="round" stroke-linejoin="round" stroke-width="2.41099" vectornator:layerName="Curve 225"/>
<path d="M1523.31 856.295C1523.44 856.147 1527.96 866.923 1528.53 870.312C1531.59 888.295 1534.14 905.38 1536.24 923.706C1539.49 952.045 1544.6 984.317 1540.39 1013.13C1539.29 1020.66 1541.06 1028.26 1539.06 1035.77C1534.25 1053.81 1530.89 1066.3 1512.15 1070.05" fill="none" opacity="1" stroke="#000000" stroke-linecap="round" stroke-linejoin="round" stroke-width="2.41099" vectornator:layerName="Curve 226"/>
<path d="M1454.5 955.054C1454.37 954.746 1452.92 952.541 1452.49 953.728C1451.8 955.648 1455.89 955.707 1457.24 957.17C1460.14 960.342 1463.11 963.613 1466.53 966.19C1476.71 973.862 1484.68 983.966 1494.38 992.128C1497.03 994.355 1505.51 1004.13 1504.82 1002.43" fill="none" opacity="1" stroke="#000000" stroke-linecap="round" stroke-linejoin="round" stroke-width="2.41099" vectornator:layerName="Curve 227"/>
<path d="M1529.54 1027.35C1527.3 1025.32 1540.21 1035.8 1539.66 1035.29" fill="none" opacity="1" stroke="#000000" stroke-linecap="round" stroke-linejoin="round" stroke-width="2.41099" vectornator:layerName="Curve 228"/>
<path d="M1438.09 950.767C1438.46 949.755 1436.05 955.809 1435.63 956.531C1434.01 959.255 1432.51 962.592 1430.74 965.27C1420.91 980.078 1419.95 981.679 1414.87 989.588C1413.18 992.221 1407.82 1001.69 1404.71 1005.73C1397.44 1015.17 1390.51 1020.53 1383.41 1020.77C1375.66 1021.03 1378.85 1001.09 1379.37 1000.84" fill="none" opacity="1" stroke="#000000" stroke-linecap="round" stroke-linejoin="round" stroke-width="2.41099" vectornator:layerName="Curve 229"/>
<path d="M1386.92 928.096C1386.74 933.146 1383.32 939.539 1382.2 944.63C1377.44 966.223 1370.24 989.501 1366.63 1011.11" fill="none" opacity="1" stroke="#000000" stroke-linecap="round" stroke-linejoin="round" stroke-width="2.41099" vectornator:layerName="Curve 230"/>
<path d="M1331.79 904.457C1327.91 909.441 1327.59 909.966 1322 917.234C1316.98 923.759 1314.03 928.96 1310.21 933.861C1307.42 937.442 1303.79 943.048 1301.49 946.886C1300.84 947.963 1298.21 952.557 1298.62 952.165" fill="none" opacity="1" stroke="#000000" stroke-linecap="round" stroke-linejoin="round" stroke-width="2.41099" vectornator:layerName="Curve 231"/>
<path d="M1310.21 933.861C1321.83 944.503 1337.41 954.205 1351.91 959.434C1356.89 961.227 1361.59 963.089 1366.59 964.786C1368.22 965.336 1374 967.742 1372.86 967.246" fill="none" opacity="1" stroke="#000000" stroke-linecap="round" stroke-linejoin="round" stroke-width="2.41099" vectornator:layerName="Curve 232"/>
<path d="M1274.44 913.236C1276.44 918.299 1294.59 928.227 1299.98 930.56C1302.85 931.803 1305.73 932.799 1308.64 934.057C1309.48 934.422 1312.76 934.827 1311.77 935.287" fill="none" opacity="1" stroke="#000000" stroke-linecap="round" stroke-linejoin="round" stroke-width="2.41099" vectornator:layerName="Curve 233"/>
<path d="M1295.57 889.779C1296.8 889.203 1293.78 892.137 1293.07 893.09C1290.92 896.003 1287.75 898.228 1285.18 900.708C1278.16 907.485 1273.04 915.612 1266.77 923.082C1264.98 925.205 1263.14 926.962 1261.35 929.011C1260.58 929.885 1259.23 931.607 1259.79 931.347" fill="none" opacity="1" stroke="#000000" stroke-linecap="round" stroke-linejoin="round" stroke-width="2.41099" vectornator:layerName="Curve 234"/>
<path d="M1352.61 863.388C1347.85 858.475 1342.39 850.966 1335.72 848.75C1329.2 846.585 1318.93 847.421 1317.43 855.605C1316.7 859.605 1314.61 861.786 1316.63 866.127C1319.34 871.96 1323.88 879.807 1330.61 880.538C1332.72 880.767 1338.72 879.732 1339.15 876.788C1340.54 867.41 1333.24 870.224 1331.98 866.63C1331.4 864.982 1335.5 860.275 1335.71 857.993" fill="none" opacity="1" stroke="#000000" stroke-linecap="round" stroke-linejoin="round" stroke-width="2.41099" vectornator:layerName="Curve 235"/>
<path d="M1369.59 994.782C1376.54 997.739 1381.94 1003.52 1388.75 1006.41C1390.73 1007.26 1395.68 1013.21 1395.66 1013.15" fill="none" opacity="1" stroke="#000000" stroke-linecap="round" stroke-linejoin="round" stroke-width="2.41099" vectornator:layerName="Curve 236"/>
<path d="M1380.08 1018.12C1383.52 1024.34 1392.85 1028.79 1397.9 1033.5C1415.68 1050.07 1443.75 1061.71 1466.43 1069.58C1475.01 1072.56 1473.35 1071.42 1488.15 1074.25C1500.31 1076.57 1513.8 1069.65 1512.15 1070.05" fill="none" opacity="1" stroke="#000000" stroke-linecap="round" stroke-linejoin="round" stroke-width="2.41099" vectornator:layerName="Curve 237"/>
<path d="M1317.15 853.292C1317.91 853.105 1312.91 853.149 1310.92 854.383C1307.22 856.683 1304.79 861.023 1306.21 865.644C1308.38 872.735 1315.07 881.772 1321.85 884.197C1322.98 884.602 1326.22 884.519 1327.08 883.423C1327.37 883.06 1327.86 880.229 1328.17 880.631" fill="none" opacity="1" stroke="#000000" stroke-linecap="round" stroke-linejoin="round" stroke-width="2.41099" vectornator:layerName="Curve 238"/>
<path d="M1306.52 858.852C1291.26 862.587 1296.24 883.055 1307.94 888.394C1310.89 889.741 1318.76 887.909 1317.83 883.448" fill="none" opacity="1" stroke="#000000" stroke-linecap="round" stroke-linejoin="round" stroke-width="2.41099" vectornator:layerName="Curve 239"/>
<path d="M1296.55 868.222C1293.39 866.908 1291.49 870.163 1289.67 871.928C1278.09 883.137 1303.93 898.133 1304.97 886.885" fill="none" opacity="1" stroke="#000000" stroke-linecap="round" stroke-linejoin="round" stroke-width="2.41099" vectornator:layerName="Curve 240"/>
<path d="M1270.89 953.396C1271.49 953.905 1268.48 952.473 1267.89 951.884C1266.26 950.265 1264.02 945.416 1263.82 943.093C1263.06 934.132 1254.84 919.513 1246.93 916.23C1245.12 915.479 1243.11 916.127 1241.59 916.914C1239.99 917.737 1237.6 917.958 1235.79 918.891C1235.37 919.109 1234.82 921.078 1234.44 921.535C1228.15 928.991 1226.22 938.769 1224.41 948.438" fill="none" opacity="1" stroke="#000000" stroke-linecap="round" stroke-linejoin="round" stroke-width="2.41099" vectornator:layerName="Curve 241"/>
<path d="M1213.58 960.92C1219.32 956.115 1222.7 944.341 1231.24 944.366C1232.75 944.371 1235.95 942.851 1237.15 944.815C1241.03 951.158 1224.96 957.909 1221.3 961.225C1219.85 962.545 1212.94 961.456 1213.58 960.92Z" fill="none" opacity="1" stroke="#000000" stroke-linecap="round" stroke-linejoin="round" stroke-width="2.41099" vectornator:layerName="Curve 242"/>
<path d="M1226.63 972.46C1224.02 969.281 1222.75 966.36 1219.09 964.299C1217.85 963.604 1213.43 961.44 1214.4 962.261" fill="none" opacity="1" stroke="#000000" stroke-linecap="round" stroke-linejoin="round" stroke-width="2.41099" vectornator:layerName="Curve 243"/>
<path d="M1215.51 958.229C1215.42 953.02 1214.17 946.482 1211.44 942.007C1211.12 941.488 1209.43 935.84 1207.9 938.052C1205.24 941.883 1211.17 959.201 1213.88 959.15" fill="none" opacity="1" stroke="#000000" stroke-linecap="round" stroke-linejoin="round" stroke-width="2.41099" vectornator:layerName="Curve 244"/>
<path d="M1213.81 961.505C1211.79 963.426 1206.55 965.268 1203.85 965.538C1202.24 965.699 1197.47 966.561 1199.03 966.116" fill="none" opacity="1" stroke="#000000" stroke-linecap="round" stroke-linejoin="round" stroke-width="2.41099" vectornator:layerName="Curve 245"/>
<path d="M1201.29 967.067C1204.53 969.117 1218.2 982.364 1214.18 983.509" fill="none" opacity="1" stroke="#000000" stroke-linecap="round" stroke-linejoin="round" stroke-width="2.41099" vectornator:layerName="Curve 246"/>
<path d="M1200.07 965.976C1195.96 966.242 1196.41 966.252 1192.56 966.252C1190.98 966.252 1184.73 966.454 1183.19 966.242C1182.67 966.171 1180.63 966.398 1181.14 966.242" fill="none" opacity="1" stroke="#000000" stroke-linecap="round" stroke-linejoin="round" stroke-width="2.41099" vectornator:layerName="Curve 247"/>
<path d="M1181.85 967.415C1181.22 966.242 1186.11 970.313 1186.82 971.152C1190.44 975.42 1193.24 980.076 1196.16 984.941C1196.74 985.902 1198.99 993.324 1198.01 992.515" fill="none" opacity="1" stroke="#000000" stroke-linecap="round" stroke-linejoin="round" stroke-width="2.41099" vectornator:layerName="Curve 248"/>
<path d="M1182.52 966.252C1182.34 966.042 1168.64 965.193 1167.03 965.162C1165.22 965.128 1160.17 964.728 1160.32 964.73" fill="none" opacity="1" stroke="#000000" stroke-linecap="round" stroke-linejoin="round" stroke-width="2.41099" vectornator:layerName="Curve 249"/>
<path d="M1159.05 965.775C1157.17 963.695 1162.5 968.955 1163.05 969.393C1166.4 972.053 1169.18 974.452 1171.95 977.703C1179.88 987.016 1179.61 998.389 1179.42 1009.52" fill="none" opacity="1" stroke="#000000" stroke-linecap="round" stroke-linejoin="round" stroke-width="2.41099" vectornator:layerName="Curve 250"/>
<path d="M1159.82 964.396C1137.96 966.089 1131.49 971.344 1118.85 990.408C1116.53 993.898 1113.56 997.509 1111.71 1001.29C1111.07 1002.6 1110.17 1003.71 1109.56 1005.02C1109.21 1005.77 1109.18 1008.21 1108.88 1007.43C1108.7 1006.96 1109.03 1005.54 1109.63 1006.11" fill="none" opacity="1" stroke="#000000" stroke-linecap="round" stroke-linejoin="round" stroke-width="2.41099" vectornator:layerName="Curve 251"/>
<path d="M1109.32 1008.18C1109.48 1006.82 1122.45 1012.81 1124.55 1013.47C1133.7 1016.34 1139.73 1017.71 1148.91 1019.5C1152.66 1020.24 1152.24 1020.08 1154.73 1020.77C1155.51 1020.99 1163.18 1022.54 1163.59 1022.64C1164.79 1022.94 1169.18 1025.04 1167.27 1024.18" fill="none" opacity="1" stroke="#000000" stroke-linecap="round" stroke-linejoin="round" stroke-width="2.41099" vectornator:layerName="Curve 252"/>
<path d="M1251.87 988.415C1254.47 980.619 1263.25 973.34 1270.48 971.641C1271.71 971.351 1278.85 968.308 1279.4 971.319C1281.08 980.65 1265.84 983.567 1261.2 986.158C1259.67 987.015 1250.9 991.325 1251.87 988.415Z" fill="none" opacity="1" stroke="#000000" stroke-linecap="round" stroke-linejoin="round" stroke-width="2.41099" vectornator:layerName="Curve 253"/>
<path d="M1250.46 985.895C1247.27 984.145 1241.68 970.16 1242.89 966.442C1242.93 966.308 1243.97 956.964 1245.44 958.262C1249.1 961.49 1253.38 968.431 1252.78 975.259C1252.54 978.024 1252.16 986.825 1250.46 985.895Z" fill="none" opacity="1" stroke="#000000" stroke-linecap="round" stroke-linejoin="round" stroke-width="2.41099" vectornator:layerName="Curve 254"/>
<path d="M1249.59 985.429C1247.7 986.355 1246.1 989.132 1244.12 990.327C1239.03 993.4 1235.03 992.77 1226.03 993.267C1220.32 993.582 1215.86 995.209 1211.37 995.172C1200.54 995.081 1185.33 1001.29 1178.65 1010.19" fill="none" opacity="1" stroke="#000000" stroke-linecap="round" stroke-linejoin="round" stroke-width="2.41099" vectornator:layerName="Curve 255"/>
<path d="M1253.1 986.276C1258.16 988.118 1262.45 989.611 1266.65 993.104C1268.24 994.431 1269.57 996.078 1271.07 997.514C1271.09 997.53 1272.76 999.515 1271.92 998.773" fill="none" opacity="1" stroke="#000000" stroke-linecap="round" stroke-linejoin="round" stroke-width="2.41099" vectornator:layerName="Curve 256"/>
<path d="M1241.81 992.785C1241.55 992.439 1249.12 997.934 1250.31 999.051C1253.98 1002.48 1257.71 1006 1260.54 1010.31" fill="none" opacity="1" stroke="#000000" stroke-linecap="round" stroke-linejoin="round" stroke-width="2.41099" vectornator:layerName="Curve 257"/>
<path d="M1225.12 996.685C1226.85 993.563 1243.77 1009.6 1244.93 1014.65" fill="none" opacity="1" stroke="#000000" stroke-linecap="round" stroke-linejoin="round" stroke-width="2.41099" vectornator:layerName="Curve 258"/>
<path d="M1205.52 995.799C1205.4 995.169 1207.95 997.856 1208.98 998.146C1211.96 998.985 1212.86 1000.19 1215.04 1002.83C1222.14 1011.45 1224.96 1020.26 1225.61 1030.67C1225.7 1032.08 1226.63 1040.65 1225.2 1040.75" fill="none" opacity="1" stroke="#000000" stroke-linecap="round" stroke-linejoin="round" stroke-width="2.41099" vectornator:layerName="Curve 259"/>
<path d="M1179.48 1009.55C1179.66 1009.15 1175.47 1013.36 1175.47 1013.36C1175.47 1013.36 1172.5 1016.91 1169.24 1021.94C1166.77 1025.73 1166.26 1026.37 1164.92 1030.71C1164.39 1032.45 1163.59 1037 1163.59 1036.99" fill="none" opacity="1" stroke="#000000" stroke-linecap="round" stroke-linejoin="round" stroke-width="2.41099" vectornator:layerName="Curve 260"/>
<path d="M1162.32 1037.85L1318.53 1080.17L1355.18 1090.1L1367.58 1012.11" fill="none" opacity="1" stroke="#000000" stroke-linecap="butt" stroke-linejoin="round" stroke-width="2.41099" vectornator:layerName="Curve 261"/>
<path d="M1366.81 1012.66C1366.81 1012.66 1334.87 1025.21 1310.49 996.084C1310.49 996.084 1309.26 977.46 1312.25 970.13C1312.25 970.13 1308.22 942.503 1272.03 953.79C1272.03 953.79 1266.19 956.374 1262.46 964.856C1262.46 964.856 1258.81 975.628 1248.89 985.8" fill="none" opacity="1" stroke="#000000" stroke-linecap="butt" stroke-linejoin="round" stroke-width="2.41099" vectornator:layerName="Curve 262"/>
<path d="M1225.08 1041L1357.19 1076.81" fill="none" opacity="1" stroke="#000000" stroke-linecap="butt" stroke-linejoin="round" stroke-width="2.41099" vectornator:layerName="Curve 263"/>
<path d="M1483.42 1076.61L1509.32 1071.91L1555.69 1063.48" fill="none" opacity="1" stroke="#000000" stroke-linecap="butt" stroke-linejoin="round" stroke-width="2.41099" vectornator:layerName="Curve 264"/>
<path d="M1347.14 1094.45C1347.14 1094.45 1363.19 1084.63 1393.1 1079.68" fill="none" opacity="1" stroke="#000000" stroke-linecap="butt" stroke-linejoin="round" stroke-width="2.41099" vectornator:layerName="Curve 265"/>
<path d="M1365.08 1035.7L1404.59 1039.37" fill="none" opacity="1" stroke="#000000" stroke-linecap="butt" stroke-linejoin="round" stroke-width="2.41099" vectornator:layerName="Curve 266"/>
<path d="M1369.66 1049.35C1371.87 1050.85 1398.83 1038.21 1400.16 1040.58C1400.52 1041.22 1399.8 1042.12 1399.38 1042.5C1397.35 1044.31 1381.44 1053.43 1381.25 1055.64C1381.12 1057.05 1385.52 1054.6 1385.6 1054.56C1388.21 1053.19 1391.03 1052.86 1393.63 1051.59C1393.73 1051.54 1396.59 1050.06 1396.6 1050.1C1397.31 1053.47 1386.54 1059.02 1386.99 1061.12C1387.16 1061.94 1388.54 1060.89 1389.26 1060.56C1391.22 1059.65 1399.38 1055.14 1401.67 1056.18C1404.46 1057.44 1392.79 1065.6 1393.16 1065.85C1394.09 1066.48 1408.8 1061.31 1410.81 1060.81" fill="none" opacity="1" stroke="#000000" stroke-linecap="round" stroke-linejoin="round" stroke-width="2.41099" vectornator:layerName="Curve 267"/>
<path d="M1468.83 786.239C1468.83 780.024 1473.57 774.987 1479.43 774.987C1485.29 774.987 1490.04 780.024 1490.04 786.239C1490.04 792.453 1485.29 797.491 1479.43 797.491C1473.57 797.491 1468.83 792.453 1468.83 786.239Z" fill="#dbdac6" fill-rule="nonzero" opacity="1" stroke="none" vectornator:layerName="Oval 1"/>
<path d="M1461.24 753.402C1461.24 753.402 1476.34 759.656 1475.67 777.581L1480.03 776.018C1480.03 776.018 1480.47 755.069 1461.64 752.54L1459.11 752.344" fill="#dbdac6" fill-rule="nonzero" opacity="1" stroke="none" vectornator:layerName="Curve 268"/>
<path d="M1458.21 753.875C1458.21 753.875 1465.25 755.163 1469.57 760.859C1472.68 764.958 1474.46 771.555 1475.49 775.547" fill="none" opacity="1" stroke="#000000" stroke-linecap="butt" stroke-linejoin="round" stroke-width="1.73394" vectornator:layerName="Curve 269"/>
<path d="M1471.52 785.579C1471.52 780.038 1475.51 775.547 1480.42 775.547C1485.34 775.547 1489.32 780.038 1489.32 785.579C1489.32 791.119 1485.34 795.61 1480.42 795.61C1475.51 795.61 1471.52 791.119 1471.52 785.579Z" fill="none" opacity="1" stroke="#000000" stroke-linecap="butt" stroke-linejoin="round" stroke-width="1.73394" vectornator:layerName="Oval 2"/>
<path d="M1149.63 713.517L1149.31 830.31L1385.26 828.17L1386.1 726.01L1154.37 710.534L1149.63 713.517Z" fill="#e9e7e8" fill-rule="nonzero" opacity="1" stroke="none" vectornator:layerName="Curve 270"/>
<path d="M1161.18 761.283L1210.34 760.768L1231.87 781.584L1162.94 784.641" fill="#da6f3d" fill-rule="nonzero" opacity="1" stroke="none" vectornator:layerName="Curve 271"/>
<path d="M1373.31 788.126L1337.47 786.452L1315.86 804.702L1340.04 814.655L1371.88 814.375L1374.5 813.524" fill="#da6f3d" fill-rule="nonzero" opacity="1" stroke="none" vectornator:layerName="Curve 272"/>
<path d="M1196.9 727.563C1198 730.685 1200.41 733.877 1202.48 735.796C1203.97 737.179 1205.15 737.245 1206.16 739.241C1207 740.896 1208.33 743.592 1210.05 744.674C1211.18 745.387 1215.63 749.016 1216.07 749.898C1217.12 751.973 1211.51 758.218 1210.15 759.311C1210.12 759.331 1203.01 753.482 1202.48 752.713C1200.23 749.5 1197.2 747.353 1193.93 745.295C1193.35 744.931 1192.42 744.012 1192.05 743.282C1191.77 742.73 1191.5 742.813 1191.25 742.317C1190.84 741.507 1182.25 735.038 1181.09 734.063C1177.6 731.129 1174.78 727.698 1170.04 726.987C1169.4 726.891 1164.58 727.238 1164.96 728.583C1165.73 731.343 1173.06 736.091 1175.35 737.533C1177.43 738.844 1178.76 741.573 1180.72 743.282C1186.22 748.071 1192.2 752.263 1197.79 756.958C1200.62 759.328 1203.14 763.013 1206.72 764.18C1206.82 764.214 1207.55 764.664 1207.46 764.789C1205.72 767.074 1206.48 765.838 1205.19 767.914C1204.86 768.453 1199.55 774.791 1198.51 776.718C1197.26 779.037 1197.55 780.428 1197.32 780.548C1195.46 781.509 1192.05 781.458 1190.05 781.224C1186.81 780.845 1184.32 781.561 1181.18 781.898C1175.6 782.494 1167.21 780.219 1162.03 782.895C1161.58 783.128 1161.77 784.019 1161.86 784.414C1162.8 788.518 1162.43 795.387 1162.94 801.201C1163.12 803.321 1162.82 806.167 1162.94 808.978C1163 810.343 1163.22 810.46 1162.94 812.189C1162.73 813.453 1162.59 814.656 1162.94 815.334C1163.16 815.781 1169.93 815.334 1170.9 815.334C1181.86 815.334 1183.39 815.334 1192.05 815.334C1200.53 815.334 1206.38 815.414 1213.41 815.334C1220.19 815.257 1221.83 815.177 1225.06 815.334C1232.86 815.712 1232.05 815.27 1234.98 815.334C1238.5 815.411 1242.23 815.334 1244.82 815.334C1250.62 815.334 1253.42 815.216 1253.42 815.216L1263.13 815.216C1263.13 815.216 1267.54 815.334 1271.63 815.334C1275.73 815.334 1280.32 815.334 1280.32 815.334C1280.32 815.334 1287.69 814.66 1291.4 815.216C1293.19 815.485 1318.37 815.216 1318.37 815.216C1318.37 815.216 1339.7 815.677 1338.29 815.216C1331.33 812.942 1324.11 808.805 1317.07 806.475C1316.34 806.233 1333.21 806.598 1332.48 806.356C1331.7 806.102 1337.61 806.287 1339.61 804.158C1341.27 802.385 1339.01 798.328 1339.11 797.39C1339.39 795.006 1343.18 785.064 1339.61 779.93C1336.92 776.062 1330.19 767.637 1327.76 764.304C1321.1 755.162 1315.91 755.923 1309.19 752.713C1307.43 751.87 1288.61 752.971 1285.68 752.77C1281.1 752.457 1276 761.062 1271.62 759.633C1271.52 759.598 1272.9 759.175 1273.03 759.146C1273.94 758.933 1274.86 759.514 1275.72 759.185C1277.29 758.583 1285.07 757.01 1284.09 754.144C1283.96 753.761 1284.19 753.021 1283.67 752.852C1278.88 751.285 1262.18 764.574 1258.87 768.602C1257.75 769.96 1256.85 774.094 1255.42 774.831C1253.89 775.623 1251.84 776.136 1250.5 777.216C1249.79 777.779 1250.92 780.926 1250.06 781.172C1248.02 781.754 1232.2 781.408 1230.56 780.37C1229.62 779.781 1221.96 779.407 1215.61 779.724C1209.8 780.014 1205.19 781.023 1205.72 780.088C1208.32 775.507 1206.16 779.93 1208.32 775.212C1208.63 774.55 1214.75 767.617 1214.94 767.074C1216.69 762.129 1219.14 760.781 1221.09 757.63C1222.77 754.907 1224.45 752.733 1226.12 750.026C1226.91 748.741 1230.35 746.938 1233.58 745.012C1237.94 742.412 1242.84 740.264 1244.82 739.241C1246.69 738.276 1254.74 734.437 1254.72 731.523C1254.71 730.363 1246.41 731.362 1245.52 731.671C1242.39 732.757 1238.48 735.064 1234.98 736.868C1233.46 737.654 1231.9 737.756 1230.71 738.604C1227.97 740.558 1224.18 744.589 1221.13 745.457C1220.48 745.645 1219.97 744.567 1219.9 744.109C1219.51 741.503 1215.07 737.441 1213.41 735.796C1210.96 733.364 1209.27 730.749 1206.61 728.107" fill="#dfb304" fill-rule="nonzero" opacity="1" stroke="none" vectornator:layerName="Curve 273"/>
<path d="M1286.23 741.372L1286.23 743.282L1287.52 744.324L1287.55 750.736L1283.19 751.877C1283.19 751.877 1271.14 755.221 1286.71 755.018C1302.28 754.816 1304.53 754.567 1304.53 754.567L1304.09 744.523C1304.09 744.523 1305.57 745.736 1306.33 744.324L1306.33 741.372C1306.33 741.372 1305.86 740.429 1303.7 740.103C1301.54 739.777 1303.5 739.991 1303.5 739.991L1301.11 740.102L1301.05 737.123C1301.05 737.123 1300.41 736.428 1299.55 736.423L1293.43 736.403C1293.43 736.403 1291.8 736.714 1291.87 737.605L1291.73 739.861C1291.73 739.861 1286.28 739.881 1286.23 742.11" fill="#dfb304" fill-rule="nonzero" opacity="1" stroke="none" vectornator:layerName="Curve 274"/>
<path d="M1308.12 752.713C1308.12 752.713 1327.32 756.149 1334.34 775.212" fill="none" opacity="1" stroke="#000000" stroke-linecap="round" stroke-linejoin="round" stroke-width="1.91473" vectornator:layerName="Curve 275"/>
<path d="M1337.74 779.091L1340.49 780.865L1339.72 804.251" fill="none" opacity="1" stroke="#000000" stroke-linecap="round" stroke-linejoin="round" stroke-width="1.91473" vectornator:layerName="Curve 276"/>
<path d="M1326.66 806.467C1326.66 806.467 1333.24 806.689 1338.29 804.805" fill="none" opacity="1" stroke="#000000" stroke-linecap="round" stroke-linejoin="round" stroke-width="1.91473" vectornator:layerName="Curve 277"/>
<path d="M1315.91 805.581L1339.61 815.334" fill="none" opacity="1" stroke="#000000" stroke-linecap="round" stroke-linejoin="round" stroke-width="1.91473" vectornator:layerName="Curve 278"/>
<path d="M1250.18 785.631L1302.74 806.356" fill="none" opacity="1" stroke="#000000" stroke-linecap="round" stroke-linejoin="round" stroke-width="1.91473" vectornator:layerName="Curve 279"/>
<path d="M1283.1 752.491C1283.1 752.491 1262.25 761.026 1256.11 774.769L1250.73 776.67L1251.09 786.004" fill="none" opacity="1" stroke="#000000" stroke-linecap="round" stroke-linejoin="round" stroke-width="1.91473" vectornator:layerName="Curve 280"/>
<path d="M1287.7 755.923C1287.7 755.923 1278.71 760.989 1275.73 772.685" fill="none" opacity="1" stroke="#000000" stroke-linecap="round" stroke-linejoin="round" stroke-width="1.91473" vectornator:layerName="Curve 281"/>
<path d="M1297.82 756.754C1297.82 756.754 1307.77 766.151 1306.6 779.073" fill="none" opacity="1" stroke="#000000" stroke-linecap="round" stroke-linejoin="round" stroke-width="1.91473" vectornator:layerName="Curve 282"/>
<path d="M1304.24 757.719C1304.24 757.719 1316.37 759.807 1322.96 772.834" fill="none" opacity="1" stroke="#000000" stroke-linecap="round" stroke-linejoin="round" stroke-width="1.91473" vectornator:layerName="Curve 283"/>
<path d="M1268.58 772.776C1268.58 772.776 1263.43 776.403 1263.96 779.93" fill="none" opacity="1" stroke="#000000" stroke-linecap="round" stroke-linejoin="round" stroke-width="1.91473" vectornator:layerName="Curve 284"/>
<path d="M1263.13 789.457L1263.16 779.651C1263.16 779.651 1270.7 770.126 1274.61 782.114L1273.54 792.299" fill="none" opacity="1" stroke="#000000" stroke-linecap="round" stroke-linejoin="round" stroke-width="1.91473" vectornator:layerName="Curve 285"/>
<path d="M1266.03 784.71C1266.03 784.71 1268.71 785.352 1271.18 784.667" fill="none" opacity="1" stroke="#000000" stroke-linecap="round" stroke-linejoin="round" stroke-width="1.91473" vectornator:layerName="Curve 286"/>
<path d="M1265.77 789.312C1265.77 789.312 1268.21 790.519 1271.37 789.486" fill="none" opacity="1" stroke="#000000" stroke-linecap="round" stroke-linejoin="round" stroke-width="1.91473" vectornator:layerName="Curve 287"/>
<path d="M1289.88 773.488C1289.88 773.488 1284.97 777.359 1286.15 781.224" fill="none" opacity="1" stroke="#000000" stroke-linecap="round" stroke-linejoin="round" stroke-width="1.91473" vectornator:layerName="Curve 288"/>
<path d="M1284.75 792.592L1285.26 779.792C1285.26 779.792 1289.97 774.512 1294.89 777.356C1296.29 778.162 1296.43 778.574 1298.04 781.224L1297.01 797.39" fill="none" opacity="1" stroke="#000000" stroke-linecap="round" stroke-linejoin="round" stroke-width="1.91473" vectornator:layerName="Curve 289"/>
<path d="M1310.26 800.365L1310.9 780.879C1310.9 780.879 1318.01 771.45 1323.89 780.979" fill="none" opacity="1" stroke="#000000" stroke-linecap="round" stroke-linejoin="round" stroke-width="1.91473" vectornator:layerName="Curve 290"/>
<path d="M1318.37 802.548C1318.37 802.548 1320.95 802.99 1322.59 799.832" fill="none" opacity="1" stroke="#000000" stroke-linecap="round" stroke-linejoin="round" stroke-width="1.91473" vectornator:layerName="Curve 291"/>
<path d="M1323.18 779.365L1322.54 799.823" fill="none" opacity="1" stroke="#000000" stroke-linecap="round" stroke-linejoin="round" stroke-width="1.91473" vectornator:layerName="Curve 292"/>
<path d="M1313.29 787.019C1313.29 787.019 1317.21 787.577 1321.1 786.879" fill="none" opacity="1" stroke="#000000" stroke-linecap="round" stroke-linejoin="round" stroke-width="1.91473" vectornator:layerName="Curve 293"/>
<path d="M1314.95 795.842C1314.95 795.842 1318.59 796.207 1319.36 795.521" fill="none" opacity="1" stroke="#000000" stroke-linecap="round" stroke-linejoin="round" stroke-width="1.91473" vectornator:layerName="Curve 294"/>
<path d="M1288.02 785.009L1293.12 785.188" fill="none" opacity="1" stroke="#000000" stroke-linecap="round" stroke-linejoin="round" stroke-width="1.91473" vectornator:layerName="Curve 295"/>
<path d="M1289.89 792.484L1294.93 792.19" fill="none" opacity="1" stroke="#000000" stroke-linecap="round" stroke-linejoin="round" stroke-width="1.91473" vectornator:layerName="Curve 296"/>
<path d="M1287.61 750.646C1287.61 750.646 1295.93 751.579 1303.73 750.026" fill="none" opacity="1" stroke="#000000" stroke-linecap="round" stroke-linejoin="round" stroke-width="1.91473" vectornator:layerName="Curve 297"/>
<path d="M1287.99 744.324C1287.99 744.324 1295.62 746.949 1305.8 744.948" fill="none" opacity="1" stroke="#000000" stroke-linecap="round" stroke-linejoin="round" stroke-width="1.91473" vectornator:layerName="Curve 298"/>
<path d="M1289.93 739.241C1289.93 739.241 1295.6 741.806 1301.4 740.166" fill="none" opacity="1" stroke="#000000" stroke-linecap="round" stroke-linejoin="round" stroke-width="1.91473" vectornator:layerName="Curve 299"/>
<path d="M1183.65 745.031L1164.81 728.705" fill="none" opacity="1" stroke="#000000" stroke-linecap="round" stroke-linejoin="round" stroke-width="1.91473" vectornator:layerName="Curve 300"/>
<path d="M1175.35 728.851L1202.48 751.955" fill="none" opacity="1" stroke="#000000" stroke-linecap="round" stroke-linejoin="round" stroke-width="1.91473" vectornator:layerName="Curve 301"/>
<path d="M1198.51 776.298L1197.35 780.963L1162.94 783.149" fill="none" opacity="1" stroke="#000000" stroke-linecap="round" stroke-linejoin="round" stroke-width="1.91473" vectornator:layerName="Curve 302"/>
<path d="M1166.4 761.867L1200.53 760.41" fill="none" opacity="1" stroke="#000000" stroke-linecap="round" stroke-linejoin="round" stroke-width="1.91473" vectornator:layerName="Curve 303"/>
<path d="M1196.78 729.799L1215.54 750.279" fill="none" opacity="1" stroke="#000000" stroke-linecap="round" stroke-linejoin="round" stroke-width="1.91473" vectornator:layerName="Curve 304"/>
<path d="M1211.21 759.244L1215.61 751.081" fill="none" opacity="1" stroke="#000000" stroke-linecap="round" stroke-linejoin="round" stroke-width="1.91473" vectornator:layerName="Curve 305"/>
<path d="M1223.62 743.282L1246.35 730.965" fill="none" opacity="1" stroke="#000000" stroke-linecap="round" stroke-linejoin="round" stroke-width="1.91473" vectornator:layerName="Curve 306"/>
<path d="M1207.74 728.341L1222.46 746.708" fill="none" opacity="1" stroke="#000000" stroke-linecap="round" stroke-linejoin="round" stroke-width="1.91473" vectornator:layerName="Curve 307"/>
<path d="M1225.06 752.32L1208.32 775.424" fill="none" opacity="1" stroke="#000000" stroke-linecap="round" stroke-linejoin="round" stroke-width="1.91473" vectornator:layerName="Curve 308"/>
<path d="M1224.7 750.425L1255.22 732.277" fill="none" opacity="1" stroke="#000000" stroke-linecap="round" stroke-linejoin="round" stroke-width="1.91473" vectornator:layerName="Curve 309"/>
<path d="M1166.76 770.978C1166.76 770.978 1188.77 766.605 1207.46 767.115" fill="none" opacity="1" stroke="#000000" stroke-linecap="round" stroke-linejoin="round" stroke-width="1.91473" vectornator:layerName="Curve 310"/>
<path d="M1184.44 778.047C1184.44 778.047 1193.82 776.153 1199.66 776.59" fill="none" opacity="1" stroke="#000000" stroke-linecap="round" stroke-linejoin="round" stroke-width="1.91473" vectornator:layerName="Curve 311"/>
<path d="M1208.97 776.225C1208.97 776.225 1216.55 775.132 1222.18 775.642" fill="none" opacity="1" stroke="#000000" stroke-linecap="round" stroke-linejoin="round" stroke-width="1.91473" vectornator:layerName="Curve 312"/>
<path d="M1215.39 766.022L1231.05 780.088" fill="none" opacity="1" stroke="#000000" stroke-linecap="round" stroke-linejoin="round" stroke-width="1.91473" vectornator:layerName="Curve 313"/>
<path d="M1205.72 779.942C1205.72 779.942 1217.77 778.193 1231.92 780.89" fill="none" opacity="1" stroke="#000000" stroke-linecap="round" stroke-linejoin="round" stroke-width="1.91473" vectornator:layerName="Curve 314"/>
<path d="M1231.05 780.671L1251.4 780.89" fill="none" opacity="1" stroke="#000000" stroke-linecap="round" stroke-linejoin="round" stroke-width="1.91473" vectornator:layerName="Curve 315"/>
<path d="M1353.45 785.133C1353.45 785.133 1368.18 786.467 1372.66 787.186" fill="none" opacity="1" stroke="#000000" stroke-linecap="round" stroke-linejoin="round" stroke-width="1.91473" vectornator:layerName="Curve 316"/>
<path d="M1284.66 732.815L1248.15 731.462" fill="none" opacity="1" stroke="#000000" stroke-linecap="round" stroke-linejoin="round" stroke-width="1.91473" vectornator:layerName="Curve 317"/>
<path d="M1182.8 726.962L1162.17 727.161L1162.12 744.631" fill="none" opacity="1" stroke="#000000" stroke-linecap="round" stroke-linejoin="round" stroke-width="2.5112" vectornator:layerName="Curve 318"/>
<path d="M1333.73 737.533L1374.62 740.725L1371.92 808.978" fill="none" opacity="1" stroke="#000000" stroke-linecap="round" stroke-linejoin="round" stroke-width="2.5112" vectornator:layerName="Curve 319"/>
<path d="M1165.57 817.995L1244.82 817.238" fill="none" opacity="1" stroke="#000000" stroke-linecap="round" stroke-linejoin="round" stroke-width="2.5112" vectornator:layerName="Curve 320"/>
<path d="M1375.52 724.018L1148.7 710.972L1149.66 831.79L1359.88 825.405" fill="none" opacity="1" stroke="#000000" stroke-linecap="round" stroke-linejoin="round" stroke-width="2.5112" vectornator:layerName="Curve 321"/>
<path d="M1386.92 725.42L1384.46 804.158" fill="none" opacity="1" stroke="#000000" stroke-linecap="round" stroke-linejoin="round" stroke-width="2.5112" vectornator:layerName="Curve 322"/>
</g>
</svg>
