<?xml version="1.0" encoding="UTF-8" standalone="no"?>
<!DOCTYPE svg PUBLIC "-//W3C//DTD SVG 1.1//EN" "http://www.w3.org/Graphics/SVG/1.1/DTD/svg11.dtd">
<!-- Created with Vectornator (http://vectornator.io/) -->
<svg height="100%" stroke-miterlimit="10" style="fill-rule:nonzero;clip-rule:evenodd;stroke-linecap:round;stroke-linejoin:round;" version="1.1" viewBox="-1.7053e-13 -15.0817 696.555 571.055" width="100%" xml:space="preserve" xmlns="http://www.w3.org/2000/svg" xmlns:vectornator="http://vectornator.io" xmlns:xlink="http://www.w3.org/1999/xlink">
<defs/>
<g id="Layer-5" vectornator:layerName="Layer 5">
<path d="M288.943 62.6918L275.384 463.241L647.072 540.892L645.995 0L534.578 0L288.943 62.6918Z" fill="#dbdac6" fill-rule="nonzero" opacity="1" stroke="none" vectornator:layerName="Curve 1"/>
<path d="M292.193 67.0662L287.238 439.898L696.555 555.974L-1.7053e-13 555.974L2.71636-15.0817" fill="#6d9d7d" fill-rule="nonzero" opacity="1" stroke="none" vectornator:layerName="Curve 2"/>
<path d="M534.578 9.59233e-14L7.18515 6.03961e-14L253.913 73.6677L290.647 78.8645" fill="#6d9d7d" fill-rule="nonzero" opacity="1" stroke="none" vectornator:layerName="Curve 3"/>
<path d="M245.596 188.481C238.419 181.618 225.529 174.879 214.657 176.959C210.54 177.747 208.074 184.787 205.895 187.565C197.429 198.361 188.497 209.533 179.747 220.692C174.843 226.946 174.417 239.375 172.765 247.271C172.112 250.398 173.918 260.275 168.932 256.699C167.866 255.934 165.681 248.155 166.468 247.402C166.692 247.188 168.045 247.96 168.248 248.057C171.176 249.457 178.012 249.927 181.527 249.366C190.479 247.939 197.456 243.69 203.842 237.582C211.559 230.201 221.41 217.2 223.555 206.943C223.755 205.989 222.38 205.339 222.46 205.11C222.612 204.675 230.374 207.699 231.495 203.408C232.005 201.457 229.137 200.891 228.346 200.135C227.636 199.455 230.459 200.695 231.358 200.266C232.854 199.551 232.57 196.935 231.632 195.814C230.848 194.876 226.626 193.551 226.43 192.802C226.303 192.318 231.725 195.894 232.043 194.374C232.496 192.205 224.846 185.853 225.745 185.208C227.174 184.183 238.923 193.833 241.078 192.802C247.082 189.931 240.201 184.33 237.656 183.113" fill="#cdd8fa" fill-rule="nonzero" opacity="1" stroke="none" vectornator:layerName="Curve 4"/>
<path d="M164.321 169.245C164.987 168.303 170.498 170.171 171.379 170.058C172.699 169.891 178.449 162.659 178.641 161.533C179.228 158.096 174.025 157.526 172.489 155.702C169.859 152.579 167.156 146.919 162.194 151.178C161.116 152.104 161.254 154.886 159.181 155.15C155.524 155.615 148.951 153.355 146.742 158.158C146.134 159.479 146.146 162.552 145.503 163.355C144.743 164.306 142.12 166.482 141.845 167.422C140.784 171.054 148.151 180.927 152.431 179.592C153.534 179.247 156.859 168.738 159.458 167.837C160.989 167.306 161.719 170.131 162.956 170.651C164.331 171.23 170.427 170.646 171.566 169.035" fill="#cdd8fa" fill-rule="nonzero" opacity="1" stroke="none" vectornator:layerName="Curve 5"/>
<path d="M165.278 166.549C167.472 165.722 169.043 169.974 167.249 170.94C165.523 171.87 159.936 166.992 162.792 165.454C163.553 165.045 164.782 166.735 165.278 166.549Z" fill="#cdd8fa" fill-rule="nonzero" opacity="1" stroke="none" vectornator:layerName="Curve 6"/>
<path d="M159.978 167.976C164.4 170.834 168.954 172.431 167.861 178.833C167.236 182.488 162.023 183.094 160.711 186.207C160.068 187.732 161.527 190.645 161.476 192.423C161.443 193.554 161.142 196.806 162.057 197.731C167.345 203.077 170.207 211.525 175.456 217.362C176.738 218.789 179.144 222.96 178.24 224.923C177.438 226.668 174.244 225.042 173.873 225.849C173.462 226.742 175.596 228.241 174.895 229.074C174.25 229.84 172.734 229.063 171.972 229.474C171.129 229.928 170.662 231.884 169.267 232.776C165.897 234.932 161.215 235.686 157.773 237.54C156.196 238.389 154.189 249.754 151.017 249.903C148.909 250.002 132.979 248.915 132.175 247.549C131.821 246.948 129.87 247.757 130.064 247.092C130.091 247 131.935 247.313 132.234 247.35C132.633 247.401 135.156 246.953 135.094 247.739C134.825 251.152 115.263 248.675 112.739 247.613C109.518 246.257 110.176 244.97 108.57 243.063C103.567 237.122 108.831 236.984 110.525 231.187C111.873 226.576 114.484 222.185 118.173 218.847C120.427 216.807 121.175 213.296 122.653 210.813C123.37 209.609 125.357 209.049 126.304 207.924C129.496 204.129 132.852 200.377 136.087 196.531C138.952 193.126 142.672 190.767 146.005 187.75C146.99 186.859 149.148 187.084 149.998 186.187C150.405 185.758 149.735 182.713 149.846 181.907C149.904 181.481 150.057 178.885 149.828 178.896" fill="#cdd8fa" fill-rule="nonzero" opacity="1" stroke="none" vectornator:layerName="Curve 7"/>
<path d="M136.011 197.264C126.066 203.74 121.383 216.348 114.376 225.141C111.797 228.377 106.359 233.852 106.404 238.267C106.419 239.738 108.469 241.695 108.891 243.118" fill="#cdd8fa" fill-rule="nonzero" opacity="1" stroke="none" vectornator:layerName="Curve 8"/>
<path d="M136.596 196.729C129.81 201.147 124.951 209.36 120.633 215.828C117.48 220.553 112.579 224.445 110.27 229.894C108.842 233.265 102.831 239.672 107.974 241.943C109.379 242.564 108.595 243.826 110.886 243.205" fill="#cdd8fa" fill-rule="nonzero" opacity="1" stroke="none" vectornator:layerName="Curve 9"/>
<path d="M135.669 197.095C134.667 199.387 130.738 202.434 128.774 204.054C124.195 207.829 120.938 213.686 117.62 218.394C116.709 219.687 113.017 224.32 114.712 225.912C114.828 226.02 119.23 223.273 119.487 223.053C122.037 220.868 130.608 213.578 130.877 210.111" fill="#cdd8fa" fill-rule="nonzero" opacity="1" stroke="none" vectornator:layerName="Curve 10"/>
<path d="M109.938 244.248C110.689 243.213 109.694 246.771 109.324 247.98C108.604 250.329 108.12 252.636 107.864 255.09C107.039 262.976 107.225 269.454 107.791 277.412C108.749 290.886 112.4 311.455 124.464 319.466C128.75 322.311 131.267 317.311 135.328 317.196C139.368 317.081 143.567 318.287 147.568 316.107C153.213 313.031 152.102 302.189 151.713 297.024C150.45 280.243 151.371 270.08 139.696 256.058C135.971 251.585 128.062 247.847 122.828 245.727C121.224 245.078 112.334 243.835 114.594 245.336" fill="#cdd8fa" fill-rule="nonzero" opacity="1" stroke="none" vectornator:layerName="Curve 11"/>
<path d="M177.151 248.782C177.953 256.887 177.043 266.447 179.141 274.272C180.151 278.04 182.825 284.095 180.566 287.947C178.9 290.789 173.625 288.473 171.403 289.831C164.507 294.048 152.777 298.439 144.324 295.31C141.958 294.435 139.247 288.541 138.002 286.396C133.177 278.084 125.055 267.289 125.269 257.255C125.655 239.208 137.627 226.034 157.082 228.125C159.874 228.425 180.678 231.271 180.91 233.617" fill="#cdd8fa" fill-rule="nonzero" opacity="1" stroke="none" vectornator:layerName="Curve 12"/>
<path d="M157.182 192.925C157.212 192.897 163.778 199.243 165.093 201.955C170.273 212.64 175.649 226.687 162.659 234.325C159.747 236.038 156.09 238.015 152.567 237.492C129.291 234.039 131.633 205.078 145.373 193.255C148.339 190.702 162.216 188.529 160.311 193.5" fill="#cdd8fa" fill-rule="nonzero" opacity="1" stroke="none" vectornator:layerName="Curve 13"/>
<path d="M175.695 248.159C178.238 257.885 181.339 268.749 180.166 278.847C179.892 281.204 179.778 287.121 177.354 288.571C173.819 290.683 168.633 279.343 167.908 276.847C167.557 275.638 167.183 274.416 166.899 273.192C166.832 272.903 166.583 271.589 166.466 271.813" fill="#cdd8fa" fill-rule="nonzero" opacity="1" stroke="none" vectornator:layerName="Curve 14"/>
<path d="M179.944 287.053C184.979 316.792 184.424 347.628 186.337 377.663C186.843 385.594 187.406 393.414 187.104 401.251C186.985 404.326 184.718 407.589 184.32 410.8C183.718 415.671 186.845 420.97 184.63 425.621C179.689 435.994 156.148 446.194 144.188 445.772C136.418 445.497 124.992 431.525 122.034 424.935C121.003 422.638 122.714 418.182 121.746 415.44C121.406 414.476 117.833 415.24 117.927 412.805C118.067 409.179 122.239 403.908 123.604 400.424C124.962 396.958 125.765 391.142 126.095 387.413C126.666 380.964 126.206 374.615 126.783 368.089C127.962 354.772 131.54 341.276 132.047 328.136C132.304 321.46 127.945 314.869 127.977 308.427C127.988 306.048 131.491 304.854 131.435 301.999C131.353 297.794 129.451 293.918 132.35 290.075C141.078 278.501 161.119 283.051 169.537 293.153C172.882 297.167 177.756 307.201 173.113 311.677C169.961 314.715 162.148 313.01 158.056 314.57" fill="#cdd8fa" fill-rule="nonzero" opacity="1" stroke="none" vectornator:layerName="Curve 15"/>
<path d="M130.435 316.883C130.99 320.165 129.495 325.701 131.687 328.613C134.585 332.461 136.379 319.445 136.047 317.978C135.624 316.108 130.125 306.308 129.986 306.432" fill="#cdd8fa" fill-rule="nonzero" opacity="1" stroke="none" vectornator:layerName="Curve 16"/>
<path d="M131.141 318.457C132.638 327.297 129.98 334.363 129.239 342.739C128.596 350 130.561 357.588 128.87 364.82C127.238 371.801 122.45 382.2 125.252 389.367C126.426 392.368 129.624 386.371 129.792 385.859C131.881 379.471 133.522 374.67 134.497 367.736C136.55 353.136 138.792 337.659 136.308 322.988" fill="#cdd8fa" fill-rule="nonzero" opacity="1" stroke="none" vectornator:layerName="Curve 17"/>
<path d="M188.468 402.142C191.164 397.464 193.668 407.366 193.49 409.738C193.351 411.608 187.722 418.131 188.774 419.017C195.977 425.09 212.122 420.363 214.928 432.202C215.213 433.404 218.109 437.414 217.359 438.492C216.713 439.422 200.957 442.813 198.76 443.289C196.252 443.833 191.853 443.489 189.357 444.607C187.117 445.611 185.095 447.548 182.661 448.016C181.017 448.333 180.109 446.599 178.905 446.761C178.16 446.861 177.289 448.953 176.446 449.386C175.098 450.079 166.874 451.769 165.268 451.157C161.607 449.761 151.974 449.867 147.432 450.141C144.616 450.311 141.863 451.959 138.965 452.134C136.116 452.306 122.223 450.973 121.227 448.757C119.979 445.979 122.431 442.536 122.248 439.762C122.027 436.411 120.848 418.832 122.456 416.52C123.357 415.224 126.13 414.125 127.371 413.137C134.804 407.221 143.487 398.304 153.547 395.74C161.419 393.735 179.787 395.516 187.407 397.962C189.911 398.767 195.844 406.321 193.088 408.138" fill="#cdd8fa" fill-rule="nonzero" opacity="1" stroke="none" vectornator:layerName="Curve 18"/>
<path d="M179.797 285.336C184.895 300.222 176.417 307.489 163.166 297.242C158.411 293.564 157.845 282.159 164.534 279.986C166.251 279.427 176.64 279.879 172.053 281.876" fill="#cdd8fa" fill-rule="nonzero" opacity="1" stroke="none" vectornator:layerName="Curve 19"/>
<path d="M173.058 218.294C174.321 221.924 189.181 233.6 180.201 237.51C177.95 238.49 175.086 235.748 173.429 234.627C170.581 232.701 168.089 230.776 166.09 227.993C159.303 218.541 170.581 211.174 173.058 218.294Z" fill="#cdd8fa" fill-rule="nonzero" opacity="1" stroke="none" vectornator:layerName="Curve 20"/>
<path d="M107.013 238.554C102.914 243.402 108.324 245.509 112.226 245.114" fill="#cdd8fa" fill-rule="nonzero" opacity="1" stroke="none" vectornator:layerName="Curve 21"/>
<path d="M107.065 239.031C104.901 239.973 105.489 245.548 107.777 244.552" fill="#cdd8fa" fill-rule="nonzero" opacity="1" stroke="none" vectornator:layerName="Curve 22"/>
<path d="M106.37 238.667C105.234 240.416 105.274 248.268 108.341 244.64" fill="#cdd8fa" fill-rule="nonzero" opacity="1" stroke="none" vectornator:layerName="Curve 23"/>
<path d="M121.741 449.743C120.944 449.166 120.639 451.692 121.111 451.814C123.856 452.524 128.564 451.795 131.61 452.084C137.572 452.649 143.633 450.755 149.418 451.124C152.912 451.347 156.354 452.203 159.888 451.808C161.883 451.584 168.213 451.818 168.544 449.241C168.854 446.82 158.476 445.255 157.051 445.006C148.132 443.446 139.257 445.316 130.545 446.499C127.937 446.852 122.847 450.547 121.741 449.743Z" fill="#cdd8fa" fill-rule="nonzero" opacity="1" stroke="none" vectornator:layerName="Curve 24"/>
<path d="M217.56 438.248C215.492 440.664 206.146 440.926 202.984 441.852C189.228 445.878 172.4 454.458 157.693 451.28" fill="#cdd8fa" fill-rule="nonzero" opacity="1" stroke="none" vectornator:layerName="Curve 25"/>
<path d="M228.262 188.615C235.667 197.13 227.427 197.538 220.716 194.724" fill="none" opacity="1" stroke="#000000" stroke-linecap="round" stroke-linejoin="round" stroke-width="3.4313" vectornator:layerName="Curve 26"/>
<path d="M226.091 196.228C225.994 195.831 226.574 196.691 227.151 197.067C228.131 197.707 230.629 200.699 229.742 201.942C228.388 203.841 222.744 201.982 221.479 200.528" fill="none" opacity="1" stroke="#000000" stroke-linecap="round" stroke-linejoin="round" stroke-width="3.4313" vectornator:layerName="Curve 27"/>
<path d="M228.854 203.069C229.26 206.721 222.247 207.224 220.004 204.645" fill="none" opacity="1" stroke="#000000" stroke-linecap="round" stroke-linejoin="round" stroke-width="3.4313" vectornator:layerName="Curve 28"/>
<path d="M212.847 197.773C212.847 198.086 213.491 197.196 213.733 196.99C214.619 196.237 215.341 195.293 216.257 194.577C218.379 192.916 221.696 188.176 220.554 185.444C219.118 182.012 213.387 189.358 212.437 189.358" fill="none" opacity="1" stroke="#000000" stroke-linecap="round" stroke-linejoin="round" stroke-width="3.4313" vectornator:layerName="Curve 29"/>
<path d="M163.263 199.751C162.886 199.448 163.869 201.635 163.982 202.181C164.378 204.094 165.472 205.825 166.228 207.618C168.868 213.878 173.923 219.559 177.578 225.28C178.887 227.33 180.183 229.083 181.814 230.916C182.212 231.364 184.681 233.895 184.262 232.965" fill="none" opacity="1" stroke="#000000" stroke-linecap="round" stroke-linejoin="round" stroke-width="3.4313" vectornator:layerName="Curve 30"/>
<path d="M160.733 184.984C161.885 187.544 160.072 192.189 160.33 195.092C160.358 195.399 160.101 196.195 160.301 196.179" fill="none" opacity="1" stroke="#000000" stroke-linecap="round" stroke-linejoin="round" stroke-width="3.4313" vectornator:layerName="Curve 31"/>
<path d="M161.375 185.133C164.546 186.619 168.826 178.777 168.615 176.395C168.473 174.799 168.018 173.488 167.263 172.05C167.001 171.551 165.405 170.452 165.928 171.195" fill="none" opacity="1" stroke="#000000" stroke-linecap="round" stroke-linejoin="round" stroke-width="3.4313" vectornator:layerName="Curve 32"/>
<path d="M165.726 170.81C165.772 170.847 164.054 169.923 163.536 169.784C162.168 169.416 160.744 168.494 159.65 167.611" fill="none" opacity="1" stroke="#000000" stroke-linecap="round" stroke-linejoin="round" stroke-width="3.4313" vectornator:layerName="Curve 33"/>
<path d="M159.202 167.768C156.116 169.039 157.791 172.351 156.393 173.937" fill="none" opacity="1" stroke="#000000" stroke-linecap="round" stroke-linejoin="round" stroke-width="3.4313" vectornator:layerName="Curve 34"/>
<path d="M156.283 174.32C156.927 173.941 154.959 175.073 154.473 175.628" fill="none" opacity="1" stroke="#000000" stroke-linecap="round" stroke-linejoin="round" stroke-width="3.4313" vectornator:layerName="Curve 35"/>
<path d="M154.044 176.203C154.02 177.232 153.408 179.463 153.376 179.414" fill="none" opacity="1" stroke="#000000" stroke-linecap="round" stroke-linejoin="round" stroke-width="3.4313" vectornator:layerName="Curve 36"/>
<path d="M153.35 180.23C153.797 179.729 150.878 180.101 150.01 180.063" fill="none" opacity="1" stroke="#000000" stroke-linecap="round" stroke-linejoin="round" stroke-width="3.4313" vectornator:layerName="Curve 37"/>
<path d="M152.899 197.308C152.896 200.298 154.776 205.019 153.878 207.585C150.101 218.388 144.16 227.814 138.86 237.928C136.916 241.636 136.181 246.226 133.016 249.248" fill="none" opacity="1" stroke="#000000" stroke-linecap="round" stroke-linejoin="round" stroke-width="3.4313" vectornator:layerName="Curve 38"/>
<path d="M130.434 250.293C131.636 249.911 129.481 250.247 129.02 250.292C127.183 250.472 125.224 249.171 123.508 248.664C121.566 248.09 105.18 242.69 105.946 244.894" fill="none" opacity="1" stroke="#000000" stroke-linecap="round" stroke-linejoin="round" stroke-width="3.4313" vectornator:layerName="Curve 39"/>
<path d="M130.911 250.241C130.964 250.243 130.376 254.321 131.255 256.21C133.543 261.122 133.94 267.181 135.791 272.379C138.203 279.15 140.18 287.689 145.549 292.681C146.388 293.461 148.158 297.218 147.069 298.343C145.032 300.448 138.397 296.382 137.966 296.882" fill="none" opacity="1" stroke="#000000" stroke-linecap="round" stroke-linejoin="round" stroke-width="3.4313" vectornator:layerName="Curve 40"/>
<path d="M138.484 297.341C137.638 299.451 142.514 313.795 134.9 311" fill="none" opacity="1" stroke="#000000" stroke-linecap="round" stroke-linejoin="round" stroke-width="3.4313" vectornator:layerName="Curve 41"/>
<path d="M135.319 311.356C138.77 314.965 131.434 315.705 129.444 314.974" fill="none" opacity="1" stroke="#000000" stroke-linecap="round" stroke-linejoin="round" stroke-width="3.4313" vectornator:layerName="Curve 42"/>
<path d="M129.938 315.492C130.804 319.168 123.771 319.71 123.525 317.302" fill="none" opacity="1" stroke="#000000" stroke-linecap="round" stroke-linejoin="round" stroke-width="3.4313" vectornator:layerName="Curve 43"/>
<path d="M173.447 287.785C162.455 288.768 150.98 290.07 140.727 286.262" fill="none" opacity="1" stroke="#000000" stroke-linecap="round" stroke-linejoin="round" stroke-width="3.4313" vectornator:layerName="Curve 44"/>
<path d="M179.679 288.228C178.955 291.243 180.038 294.902 180.268 297.924C181.187 309.981 184.885 325.801 182.051 337.606" fill="none" opacity="1" stroke="#000000" stroke-linecap="round" stroke-linejoin="round" stroke-width="3.4313" vectornator:layerName="Curve 45"/>
<path d="M169.775 299.719C170.603 302.982 168.021 306.091 167.754 309.126C167.191 315.537 167.47 322.589 167.197 329.047C166.386 348.227 172.933 379.216 162.263 395.954" fill="none" opacity="1" stroke="#000000" stroke-linecap="round" stroke-linejoin="round" stroke-width="3.4313" vectornator:layerName="Curve 46"/>
<path d="M132.937 319.243C132.839 332.337 128.747 345.187 128.651 358.162C128.553 371.329 126.817 385.631 123.758 398.371C122.966 401.668 116.66 419.81 124.84 417.913" fill="none" opacity="1" stroke="#000000" stroke-linecap="round" stroke-linejoin="round" stroke-width="3.4313" vectornator:layerName="Curve 47"/>
<path d="M159.898 415.13C163.979 411.489 161.448 399.732 154.533 401.686C145.542 404.225 144.107 422.355 130.749 420.307C129.385 420.098 126.421 419.414 125.453 418.422" fill="none" opacity="1" stroke="#000000" stroke-linecap="round" stroke-linejoin="round" stroke-width="3.4313" vectornator:layerName="Curve 48"/>
<path d="M160.899 411.545C170.772 413.618 173.85 401.642 181.401 399.817C185.599 398.802 192.066 401.604 190.933 406.542" fill="none" opacity="1" stroke="#000000" stroke-linecap="round" stroke-linejoin="round" stroke-width="3.4313" vectornator:layerName="Curve 49"/>
<path d="M187.889 418.5C191.365 418.147 203.311 405.542 196.822 403.054C192.556 401.419 186.042 416.806 184.591 418.523" fill="none" opacity="1" stroke="#000000" stroke-linecap="round" stroke-linejoin="round" stroke-width="3.4313" vectornator:layerName="Curve 50"/>
<path d="M186.304 413.014C186.738 411.126 185.788 402.55 181.45 406.126C179.821 407.468 179.176 417.874 180.851 419.169" fill="none" opacity="1" stroke="#000000" stroke-linecap="round" stroke-linejoin="round" stroke-width="3.4313" vectornator:layerName="Curve 51"/>
<path d="M186.747 418.26C182.179 417.301 180.637 421.478 177.292 422.287" fill="none" opacity="1" stroke="#000000" stroke-linecap="round" stroke-linejoin="round" stroke-width="3.4313" vectornator:layerName="Curve 52"/>
<path d="M187.485 421.564C186.032 422.031 182.474 424.949 180.802 424.598" fill="none" opacity="1" stroke="#000000" stroke-linecap="round" stroke-linejoin="round" stroke-width="3.4313" vectornator:layerName="Curve 53"/>
<path d="M193.482 422.823C191.413 424.089 189.596 426.084 187.214 426.66" fill="none" opacity="1" stroke="#000000" stroke-linecap="round" stroke-linejoin="round" stroke-width="3.4313" vectornator:layerName="Curve 54"/>
<path d="M161.528 420.423C160.372 417.793 150.702 408.718 152.774 416.881C153.93 421.437 161.516 422.247 162.948 426.362" fill="none" opacity="1" stroke="#000000" stroke-linecap="round" stroke-linejoin="round" stroke-width="3.4313" vectornator:layerName="Curve 55"/>
<path d="M163.608 425.038C166.968 423.969 173.871 417.155 173.185 413.538C171.459 404.434 165.698 411.926 164.233 416.862C163.761 418.451 162.363 420.581 162.458 422.23" fill="none" opacity="1" stroke="#000000" stroke-linecap="round" stroke-linejoin="round" stroke-width="3.4313" vectornator:layerName="Curve 56"/>
<path d="M159.72 419.04C160.188 417.921 157.876 420.718 156.786 421.324C154.599 422.54 153.367 423.288 150.933 423.778" fill="none" opacity="1" stroke="#000000" stroke-linecap="round" stroke-linejoin="round" stroke-width="3.4313" vectornator:layerName="Curve 57"/>
<path d="M164.195 423.855C161.325 426.296 158.497 427.921 155.013 429.35" fill="none" opacity="1" stroke="#000000" stroke-linecap="round" stroke-linejoin="round" stroke-width="3.4313" vectornator:layerName="Curve 58"/>
<path d="M167.225 428.722C164.966 430.509 163.507 432.193 160.894 433.264" fill="none" opacity="1" stroke="#000000" stroke-linecap="round" stroke-linejoin="round" stroke-width="3.4313" vectornator:layerName="Curve 59"/>
<path d="M162.449 425.004C172.172 428.722 194.27 428.754 192.059 444.275" fill="none" opacity="1" stroke="#000000" stroke-linecap="round" stroke-linejoin="round" stroke-width="3.4313" vectornator:layerName="Curve 60"/>
<path d="M194.116 421.751C203.033 421.039 216.748 427.177 217.599 436.938" fill="none" opacity="1" stroke="#000000" stroke-linecap="round" stroke-linejoin="round" stroke-width="3.4313" vectornator:layerName="Curve 61"/>
<path d="M121.71 445.222C121.237 444.167 123.91 446.151 125.053 446.5C127.293 447.184 129.703 447.803 132.025 448.183C138.923 449.311 145.867 448.316 152.792 448.859C155.147 449.044 158.2 448.396 160.582 448.206C161.278 448.151 164.996 446.971 163.748 447.07" fill="none" opacity="1" stroke="#000000" stroke-linecap="round" stroke-linejoin="round" stroke-width="3.4313" vectornator:layerName="Curve 62"/>
<path d="M124.083 418.058C124.188 417.978 123.379 424.925 123.467 425.952C123.929 431.338 122.766 437.554 121.652 442.845C121.293 444.547 121.484 446.683 121.557 448.396C121.572 448.753 121.218 450.419 121.5 449.395" fill="none" opacity="1" stroke="#000000" stroke-linecap="round" stroke-linejoin="round" stroke-width="3.4313" vectornator:layerName="Curve 63"/>
<path d="M140.904 452.166C137.723 452.803 126.002 450.261 122.24 449.313" fill="none" opacity="1" stroke="#000000" stroke-linecap="round" stroke-linejoin="round" stroke-width="3.4313" vectornator:layerName="Curve 64"/>
<path d="M125.666 298.641C125.67 298.637 127.258 302.271 127.584 302.684C129.431 305.023 131.505 307.029 133.42 309.291" fill="none" opacity="1" stroke="#000000" stroke-linecap="round" stroke-linejoin="round" stroke-width="2.61729" vectornator:layerName="Curve 65"/>
<path d="M121.795 305.012C123.07 306.424 124.327 308.02 125.89 309.151C126.334 309.473 128.137 311.596 127.652 311.059" fill="none" opacity="1" stroke="#000000" stroke-linecap="round" stroke-linejoin="round" stroke-width="2.61729" vectornator:layerName="Curve 66"/>
<path d="M119.076 309.162C118.685 308.341 120.948 312.38 121.682 313.246C121.799 313.385 122.495 314.466 122.145 314.267" fill="none" opacity="1" stroke="#000000" stroke-linecap="round" stroke-linejoin="round" stroke-width="2.61729" vectornator:layerName="Curve 67"/>
<path d="M444.683 483.38C444.683 483.38 368.489 463.369 359.632 460.414" fill="none" opacity="1" stroke="#000000" stroke-linecap="round" stroke-linejoin="round" stroke-width="2.61729" vectornator:layerName="Curve 68"/>
<path d="M214.784 21.1069L212.514 21.9183C213.271 21.6511 214.026 21.3741 214.784 21.1069Z" fill="#6d9d7d" fill-rule="nonzero" opacity="1" stroke="none" vectornator:layerName="Curve 69"/>
<path d="M289.859 78.7448L29.2329 19.928" fill="none" opacity="1" stroke="#000000" stroke-linecap="round" stroke-linejoin="round" stroke-width="2.70327" vectornator:layerName="Curve 70"/>
<path d="M309.467 73.6677L289.475 78.2346" fill="none" opacity="1" stroke="#000000" stroke-linecap="round" stroke-linejoin="round" stroke-width="2.70327" vectornator:layerName="Curve 71"/>
<path d="M291.495 78.0906L290.858 188.784" fill="none" opacity="1" stroke="#000000" stroke-linecap="round" stroke-linejoin="round" stroke-width="2.70327" vectornator:layerName="Curve 72"/>
<path d="M289.323 257.222L287.789 385.104" fill="none" opacity="1" stroke="#000000" stroke-linecap="round" stroke-linejoin="round" stroke-width="2.70327" vectornator:layerName="Curve 73"/>
<path d="M255.599 448.892L22.5817 530.904" fill="none" opacity="1" stroke="#000000" stroke-linecap="round" stroke-linejoin="round" stroke-width="2.70327" vectornator:layerName="Curve 74"/>
<path d="M392.497 479.096C392.497 479.096 348.424 458.856 379.428 486.251C379.428 486.251 368.864 490.222 356.487 483.571C356.487 483.571 360.575 485.328 360.914 492.371" fill="none" opacity="1" stroke="#000000" stroke-linecap="round" stroke-linejoin="round" stroke-width="2.70327" vectornator:layerName="Curve 75"/>
<path d="M360.525 491.812C360.525 491.812 353.864 491.69 347.166 489.817" fill="none" opacity="1" stroke="#000000" stroke-linecap="round" stroke-linejoin="round" stroke-width="2.70327" vectornator:layerName="Curve 76"/>
<path d="M252.957 477.566C252.957 477.566 224.162 455.066 237.729 478.311C237.729 478.311 233.807 486.041 216.25 469.877" fill="none" opacity="1" stroke="#000000" stroke-linecap="round" stroke-linejoin="round" stroke-width="2.70327" vectornator:layerName="Curve 77"/>
<path d="M254.621 424.673L260.581 101.447L96.564 67.0662L76.3293 475.879" fill="none" opacity="1" stroke="#ffffff" stroke-linecap="round" stroke-linejoin="round" stroke-width="3.56429" vectornator:layerName="Curve 78"/>
<path d="M78.9607 45.3882L271.751 90.1371L267.34 435.795L58.2395 499.937L78.9607 45.3882Z" fill="none" opacity="1" stroke="#ffffff" stroke-linecap="round" stroke-linejoin="round" stroke-width="3.56429" vectornator:layerName="Curve 79"/>
<path d="M271.685 88.5719C271.685 88.5719 270.319 98.5094 258.823 102.284" fill="none" opacity="1" stroke="#ffffff" stroke-linecap="round" stroke-linejoin="round" stroke-width="3.56429" vectornator:layerName="Curve 80"/>
<path d="M253.821 426.617L75.592 476.952" fill="#6d9d7d" fill-rule="nonzero" opacity="1" stroke="#ffffff" stroke-linecap="round" stroke-linejoin="round" stroke-width="3.56429" vectornator:layerName="Curve 81"/>
<path d="M358.878 459.422L359.567 469.135L279.58 468.343C279.58 468.343 281.485 447.824 294.209 444.891C294.209 444.891 304.058 446.482 304.021 458.773L305.209 460.605L358.878 459.422Z" fill="#d7e0fe" fill-rule="nonzero" opacity="1" stroke="none" vectornator:layerName="Curve 82"/>
<path d="M271.481 438.379C271.481 438.379 256.793 443.039 256.706 462.644L280.777 462.644L285.68 450.895C285.68 450.895 275.262 437.154 272.532 438.458" fill="#d7e0fe" fill-rule="nonzero" opacity="1" stroke="none" vectornator:layerName="Curve 83"/>
<path d="M315.72 232.272L276.268 180.617C276.268 180.617 271.762 170.947 252.1 181.582C252.1 181.582 239.378 186.464 241.281 193.507C241.281 193.507 243.374 198.531 253.891 190.391C253.891 190.391 255.862 188.964 258.5 187.279C258.5 187.279 258.591 189.98 258.286 190.666C258.286 190.666 252.762 193.299 254.198 198.25C254.198 198.25 252.19 202.268 255.52 204.779C255.52 204.779 255.071 211.84 263.254 208.691C263.254 208.691 268.794 244.781 307.943 252.276" fill="#d4b6d1" fill-rule="nonzero" opacity="1" stroke="none" vectornator:layerName="Curve 84"/>
<path d="M339.017 184.41C339.799 181.946 339.401 172.278 336.358 171.114C334.802 170.519 333.779 174.498 333.41 175.205C333.159 175.684 333.054 177.021 332.658 176.642C331.525 175.558 331.503 171.096 330.404 169.345C328.511 166.328 321.797 168.379 321.156 171.446C320.167 176.174 320.253 180.1 324.451 183.111C325.467 183.84 327.445 182.984 328.15 183.995C328.66 184.727 326.684 195.143 327.976 196.379C328.05 196.449 331.012 192.26 331.445 191.845C333.749 189.642 338.176 187.056 339.017 184.41Z" fill="#d4b6d1" fill-rule="nonzero" opacity="1" stroke="none" vectornator:layerName="Curve 85"/>
<path d="M348.774 257.482L309.05 257.083L293.206 414.35C293.206 414.35 305.522 420.484 299.92 435.333C299.92 435.333 323.191 406.02 327.397 431.083L359.432 430.805C359.432 430.805 366.223 426.394 359.381 421.319C352.538 416.243 359.104 420.211 359.104 420.211L355.522 326.698L348.774 257.482Z" fill="#d65e67" fill-rule="nonzero" opacity="1" stroke="none" vectornator:layerName="Curve 86"/>
<path d="M382.73 239.836C382.044 240.758 380.924 236.128 380.409 234.168C379.323 230.03 377.436 226.167 374.828 222.668C366.191 211.078 359.787 199.839 348.548 190.474C347.202 189.353 343.021 184.344 341.358 184.24C340.308 184.174 332.893 189.158 332.257 191.239C331.815 192.686 329.904 192.897 329.053 194.071C325.961 198.34 325.094 204.803 321.384 208.628C318.144 211.969 309.679 217.222 309.337 222.209C309.045 226.458 315.784 231.348 315.72 234.759C315.56 243.23 310.668 248.619 310.108 256.768C310.087 257.08 311.634 257.145 311.893 257.217C316.265 258.439 322.995 255.451 326.449 255.668C331.822 256.006 339.167 257.583 344.545 256.65C344.939 256.582 345.494 257.194 345.722 256.879C346.031 256.453 344.879 254.331 344.706 253.912C343.719 251.527 343.673 247.626 343.842 245.171C343.897 244.365 349.002 241.488 350.957 240.251C353.888 238.398 358.372 232.894 361.585 232.337C361.644 232.327 360.681 233.982 360.567 234.14C359.917 235.037 358.81 235.995 357.872 236.667C354.333 239.203 352.406 239.852 348.902 241.367C348.355 241.603 344.506 245.655 344.859 245.754C346.376 246.178 362.188 236.846 368.127 236.948C369.618 236.974 386.051 235.376 382.73 239.836Z" fill="#7693d8" fill-rule="nonzero" opacity="1" stroke="none" vectornator:layerName="Curve 87"/>
<path d="M341.591 184.632C341.503 185.471 338.946 184.681 338.946 184.681C338.946 184.681 337.458 187.086 336.307 187.883C335.398 188.512 328.446 193.78 328.609 194.471C328.682 194.784 332.21 192.678 332.697 192.396C334.461 191.377 341.011 187.532 339.745 184.815C339.667 184.647 336.517 187.273 335.91 187.693C334.747 188.498 329.32 192.193 329.694 193.778C330.135 195.653 339.303 189.406 339.585 186.717" fill="#7693d8" fill-rule="nonzero" opacity="1" stroke="none" vectornator:layerName="Curve 88"/>
<path d="M361.162 230.023C362.126 231.582 362.968 233.528 362.184 235.376C361.556 236.856 350.024 242.813 348.33 241.551C345.012 239.081 351.412 232.351 354.03 231.325C355.415 230.783 356.578 230.937 358.005 231.145C358.518 231.219 359.991 231.074 359.566 231.092" fill="#7693d8" fill-rule="nonzero" opacity="1" stroke="none" vectornator:layerName="Curve 89"/>
<path d="M348.196 237.175C350.345 240.112 350.541 243.588 346.84 245.216C346.417 245.402 346.35 246.319 345.797 246.183C343.237 245.554 343.375 242.478 344.962 241.056" fill="#7693d8" fill-rule="nonzero" opacity="1" stroke="none" vectornator:layerName="Curve 90"/>
<path d="M348.811 243.703C348.009 244.586 344.617 246.456 344.78 246.224" fill="#7693d8" fill-rule="nonzero" opacity="1" stroke="none" vectornator:layerName="Curve 91"/>
<path d="M348.458 244.131C347.779 244.633 346.15 246.785 344.961 246.341C344.481 246.161 344.925 244.122 345.398 244.18" fill="#7693d8" fill-rule="nonzero" opacity="1" stroke="none" vectornator:layerName="Curve 92"/>
<path d="M348.636 243.54C348.276 243.894 346.359 246.449 345.696 245.63" fill="#7693d8" fill-rule="nonzero" opacity="1" stroke="none" vectornator:layerName="Curve 93"/>
<path d="M342.728 251.249C342.432 250.44 343.613 251.061 343.642 251.785C343.716 253.67 345.185 255.564 345.777 257.181" fill="#7693d8" fill-rule="nonzero" opacity="1" stroke="none" vectornator:layerName="Curve 94"/>
<path d="M344.734 253.652C344.894 254.185 345.359 256.905 345.341 256.886" fill="#7693d8" fill-rule="nonzero" opacity="1" stroke="none" vectornator:layerName="Curve 95"/>
<path d="M345.721 253.845C345.772 254.264 345.915 257.581 345.864 257.554L328.096 257.173L345.721 253.845Z" fill="#7693d8" fill-rule="nonzero" opacity="1" stroke="none" vectornator:layerName="Curve 96"/>
<path d="M381.505 238.295C381.505 238.295 363.234 231.71 344.17 247.646L378.16 228.481C378.16 228.481 381.11 234.17 380.878 238.754" fill="#7693d8" fill-rule="nonzero" opacity="1" stroke="none" vectornator:layerName="Curve 97"/>
<path d="M374.866 237.143C374.866 237.143 363.507 235.272 360.747 238.76" fill="#7693d8" fill-rule="nonzero" opacity="1" stroke="none" vectornator:layerName="Curve 98"/>
<path d="M349.02 244.061C349.02 244.061 346.548 245.681 345.07 246.379" fill="#7693d8" fill-rule="nonzero" opacity="1" stroke="none" vectornator:layerName="Curve 99"/>
<path d="M374.593 237.008C374.511 236.93 377.465 237.143 377.87 237.138C380.042 237.111 384.098 238.54 382.599 241.336C382.059 242.343 381.201 242.79 380.342 243.394C380.165 243.518 378.971 244.509 378.844 244.446C376.925 243.505 376.219 238.566 374.593 237.008Z" fill="#525067" fill-rule="nonzero" opacity="1" stroke="none" vectornator:layerName="Curve 100"/>
<path d="M374.836 237.116C374.836 237.116 395.614 269.638 369.014 315.72C369.014 315.72 361.869 333.522 352.493 325.595C352.493 325.595 346.816 328.361 342.769 321.658C342.769 321.658 337.378 323.619 334.161 318.725" fill="#d4b4d0" fill-rule="nonzero" opacity="1" stroke="none" vectornator:layerName="Curve 101"/>
<path d="M344.548 247.156C344.548 247.156 353.478 290.053 332.121 295.077C332.121 295.077 315.377 303.169 333.329 304.085C333.329 304.085 337.034 303.733 342.056 304.722C342.056 304.722 340.42 308.623 334.726 308.869C329.031 309.115 327.857 310.799 327.537 314.601C327.537 314.601 329.351 320.002 334.829 318.959C340.307 317.917 334.922 319.759 334.922 319.759L367.004 283.635L374.422 236.936C374.422 236.936 362.979 236.568 355.959 240.911C355.959 240.911 348.553 243.681 344.548 247.156Z" fill="#d4b4d0" fill-rule="nonzero" opacity="1" stroke="none" vectornator:layerName="Curve 102"/>
<path d="M359.141 430.671C359.491 430.096 359.652 432.88 359.63 433.543C359.619 433.872 359.125 437.958 359.398 438.106C359.788 438.318 356.094 439.769 355.555 439.858C353.336 440.225 349.732 442.885 347.837 442.829C344.696 442.736 339.915 442.193 336.986 441.212C334.774 440.47 334.426 438.737 332.331 437.29C330.811 436.24 328.441 435.02 327.821 433.37C327.688 433.017 326.629 430.807 327.558 431.133" fill="#d4b4d0" fill-rule="nonzero" opacity="1" stroke="none" vectornator:layerName="Curve 103"/>
<path d="M327.558 431.133C328.034 433.633 331.258 437.673 334.294 438.088" fill="#d4b4d0" fill-rule="nonzero" opacity="1" stroke="none" vectornator:layerName="Curve 104"/>
<path d="M279.292 194.776C279.292 194.776 264.377 176.604 267.04 194.607L273.788 198.343" fill="none" opacity="1" stroke="#be7996" stroke-linecap="round" stroke-linejoin="round" stroke-width="3.4313" vectornator:layerName="Curve 105"/>
<path d="M265.514 192.814C265.514 192.814 259.061 200.882 253.421 195.007" fill="none" opacity="1" stroke="#be7996" stroke-linecap="round" stroke-linejoin="round" stroke-width="3.4313" vectornator:layerName="Curve 106"/>
<path d="M253.913 202.594C253.913 202.594 264.281 202.563 262.332 197.434" fill="none" opacity="1" stroke="#be7996" stroke-linecap="round" stroke-linejoin="round" stroke-width="3.4313" vectornator:layerName="Curve 107"/>
<path d="M264.119 199.609C264.119 199.609 265.648 206.514 259.204 209.278" fill="none" opacity="1" stroke="#be7996" stroke-linecap="round" stroke-linejoin="round" stroke-width="3.4313" vectornator:layerName="Curve 108"/>
<path d="M378.918 243.984C378.918 243.984 388.296 281.918 373.72 300.939" fill="none" opacity="1" stroke="#be7996" stroke-linecap="round" stroke-linejoin="round" stroke-width="3.4313" vectornator:layerName="Curve 109"/>
<path d="M347.837 322.556C347.913 322.813 353.969 317.946 354.728 317.071C355.941 315.671 356.65 314.263 357.202 312.541" fill="none" opacity="1" stroke="#be7996" stroke-linecap="round" stroke-linejoin="round" stroke-width="3.4313" vectornator:layerName="Curve 110"/>
<path d="M340.933 320.324C343.984 318.65 347.44 315.712 348.755 312.446" fill="none" opacity="1" stroke="#be7996" stroke-linecap="round" stroke-linejoin="round" stroke-width="3.4313" vectornator:layerName="Curve 111"/>
<path d="M333.882 317.166C340.876 315.273 343.92 311.46 346.794 305.286" fill="none" opacity="1" stroke="#be7996" stroke-linecap="round" stroke-linejoin="round" stroke-width="3.4313" vectornator:layerName="Curve 112"/>
<path d="M359.141 438.55L358.416 461.529L305.085 460.736L304.049 458.755C304.049 458.755 302.392 448.356 294.626 444.889C294.626 444.889 288.102 444.79 283.027 455.091C283.027 455.091 279.921 454.001 280.853 452.02C280.853 452.02 278.16 442.116 271.326 438.154C271.326 438.154 270.083 439.244 287.48 433.4C287.48 433.4 281.681 412.997 294.833 413.591C294.833 413.591 307.777 417.355 301.046 426.368L304.878 429.339C304.878 429.339 309.641 419.732 318.651 418.048C318.651 418.048 327.867 420.623 327.971 433.301C327.971 433.301 342.158 450.436 358.416 437.461" fill="#6d9d7d" fill-rule="nonzero" opacity="1" stroke="none" vectornator:layerName="Curve 113"/>
<path d="M328.423 195.087C328.895 194.726 327.7 197.335 327.475 197.831C326.795 199.329 325.804 200.524 324.887 201.879C321.595 206.743 317.404 212.037 313.342 216.028C312.406 216.948 310.084 219.991 309.693 221.085C309.49 221.652 309.69 222.029 309.69 222.685" fill="none" opacity="1" stroke="#000000" stroke-linecap="round" stroke-linejoin="round" stroke-width="3.4313" vectornator:layerName="Curve 114"/>
<path d="M341.969 191.521C352.994 200.701 363.14 209.838 369.727 222.685" fill="none" opacity="1" stroke="#000000" stroke-linecap="round" stroke-linejoin="round" stroke-width="3.4313" vectornator:layerName="Curve 115"/>
<path d="M334.524 214.944C334.425 214.5 338.657 225.179 339.577 228.068C341.368 233.688 346.01 249.005 344.503 254.586" fill="none" opacity="1" stroke="#000000" stroke-linecap="round" stroke-linejoin="round" stroke-width="3.4313" vectornator:layerName="Curve 116"/>
<path d="M320.603 219.143C320.603 218.669 319.622 222.872 319.062 224.299C317.664 227.865 317.088 231.683 315.674 235.202C310.366 248.401 307.489 263.936 305.661 277.927C304.967 283.233 304.429 287.284 304.429 292.66C304.429 294.439 304.164 299.142 304.164 300.939" fill="none" opacity="1" stroke="#000000" stroke-linecap="round" stroke-linejoin="round" stroke-width="3.4313" vectornator:layerName="Curve 117"/>
<path d="M342.519 255.825C342.597 255.943 337.193 255.603 332.531 255.961C326.106 256.454 312.886 258.495 306.512 257.142" fill="none" opacity="1" stroke="#000000" stroke-linecap="round" stroke-linejoin="round" stroke-width="3.4313" vectornator:layerName="Curve 118"/>
<path d="M312.119 421.748C313.809 420.015 315.103 399.509 315.315 396.307C316.805 373.856 318.523 351.081 317.71 328.816" fill="none" opacity="1" stroke="#000000" stroke-linecap="round" stroke-linejoin="round" stroke-width="3.4313" vectornator:layerName="Curve 119"/>
<path d="M358.083 438.914C350.509 443.602 338.963 441.074 332.867 435.333" fill="none" opacity="1" stroke="#000000" stroke-linecap="round" stroke-linejoin="round" stroke-width="3.4313" vectornator:layerName="Curve 120"/>
<path d="M357.995 466.531C358.404 466.517 357.977 461.713 358.008 461.29C358.295 457.341 357.994 453.382 357.806 449.451C357.767 448.648 357.724 443.265 357.774 444.611" fill="none" opacity="1" stroke="#000000" stroke-linecap="round" stroke-linejoin="round" stroke-width="3.4313" vectornator:layerName="Curve 121"/>
<path d="M354.244 467.417L286.885 466.81" fill="none" opacity="1" stroke="#000000" stroke-linecap="round" stroke-linejoin="round" stroke-width="3.4313" vectornator:layerName="Curve 122"/>
<path d="M279.402 460.572L259.766 460.414" fill="none" opacity="1" stroke="#000000" stroke-linecap="round" stroke-linejoin="round" stroke-width="3.4313" vectornator:layerName="Curve 123"/>
<path d="M264.005 446.72C264.005 446.72 260.239 451.716 259.959 456.803" fill="none" opacity="1" stroke="#000000" stroke-linecap="round" stroke-linejoin="round" stroke-width="3.4313" vectornator:layerName="Curve 124"/>
<path d="M307.566 434.425C310.554 432.776 326.501 419.638 320.631 415.309C316.782 412.471 309.453 425.97 308.136 428.06C307.561 428.972 305.7 434.373 305.928 434.208" fill="none" opacity="1" stroke="#000000" stroke-linecap="round" stroke-linejoin="round" stroke-width="3.4313" vectornator:layerName="Curve 125"/>
<path d="M309.688 431.694C309.706 429.46 309.594 427.44 309.152 425.242C308.879 423.886 308.776 422.338 308.304 421.03C303.724 408.321 296.284 432.154 305.903 434.736" fill="none" opacity="1" stroke="#000000" stroke-linecap="round" stroke-linejoin="round" stroke-width="3.4313" vectornator:layerName="Curve 126"/>
<path d="M289.644 433.36C293.697 432.686 301.733 416.58 294.294 419.483C291.518 420.567 287.115 433.781 289.644 433.36Z" fill="none" opacity="1" stroke="#000000" stroke-linecap="round" stroke-linejoin="round" stroke-width="3.4313" vectornator:layerName="Curve 127"/>
<path d="M288.311 430.937C288.672 432.732 290.99 430.115 291.485 429.059C293.438 424.883 292.244 415.771 286.472 415.908C282.505 416.003 285.942 430.713 286.624 432.218C286.884 432.792 287.368 433.743 288.066 433.084" fill="none" opacity="1" stroke="#000000" stroke-linecap="round" stroke-linejoin="round" stroke-width="3.4313" vectornator:layerName="Curve 128"/>
<path d="M306.095 435.072C306.531 434.5 319.204 444.021 321.6 444.749" fill="none" opacity="1" stroke="#000000" stroke-linecap="round" stroke-linejoin="round" stroke-width="3.4313" vectornator:layerName="Curve 129"/>
<path d="M301.807 438.458C305.528 441.05 309.629 443.131 313.374 445.738" fill="none" opacity="1" stroke="#000000" stroke-linecap="round" stroke-linejoin="round" stroke-width="3.4313" vectornator:layerName="Curve 130"/>
<path d="M299.92 442.829C302.362 444.529 304.861 446.269 307.277 447.951" fill="none" opacity="1" stroke="#000000" stroke-linecap="round" stroke-linejoin="round" stroke-width="3.4313" vectornator:layerName="Curve 131"/>
<path d="M287.442 433.677C287.484 433.605 292.446 438.642 293.168 439.396" fill="none" opacity="1" stroke="#000000" stroke-linecap="round" stroke-linejoin="round" stroke-width="3.4313" vectornator:layerName="Curve 132"/>
<path d="M283.681 437.261C285.092 436.877 288.311 439.851 288.53 441.212" fill="none" opacity="1" stroke="#000000" stroke-linecap="round" stroke-linejoin="round" stroke-width="3.4313" vectornator:layerName="Curve 133"/>
<path d="M279.256 437.914C279.07 437.286 280.943 439.552 281.14 439.777C282.354 441.162 283.426 442.699 284.698 444.029" fill="none" opacity="1" stroke="#000000" stroke-linecap="round" stroke-linejoin="round" stroke-width="3.4313" vectornator:layerName="Curve 134"/>
<path d="M339.267 178.094C339.267 178.094 354.419 164.234 346.833 162.741C346.833 162.741 343.34 161.442 343.131 155.43C342.922 149.417 335.143 151.698 334.138 151.458C334.138 151.458 329.667 151.826 326.927 147.644C324.187 143.462 320.072 148.211 319.642 149.039C319.642 149.039 316.72 154.307 312.882 155.016C312.882 155.016 308.071 157.691 313.785 162.526C313.785 162.526 313.943 171.618 323.486 168.688C323.486 168.688 331.012 165.145 331.911 174.23C331.961 174.73 332.022 175.468 332.288 175.926C332.458 176.219 332.891 176.189 332.867 176.592C332.867 176.592 333.527 173.438 334.522 172.151C335.387 171.032 336.197 170.272 337.595 172.313C337.986 172.884 338.003 173.505 338.591 174.604" fill="#525067" fill-rule="nonzero" opacity="1" stroke="none" vectornator:layerName="Curve 135"/>
</g>
</svg>
