<?xml version="1.0" encoding="UTF-8" standalone="no"?>
<!DOCTYPE svg PUBLIC "-//W3C//DTD SVG 1.1//EN" "http://www.w3.org/Graphics/SVG/1.1/DTD/svg11.dtd">
<!-- Created with Vectornator (http://vectornator.io/) -->
<svg height="100%" stroke-miterlimit="10" style="fill-rule:nonzero;clip-rule:evenodd;stroke-linecap:round;stroke-linejoin:round;" version="1.1" viewBox="128.59 1269.36 449.693 454.93" width="100%" xml:space="preserve" xmlns="http://www.w3.org/2000/svg" xmlns:vectornator="http://vectornator.io" xmlns:xlink="http://www.w3.org/1999/xlink">
<defs/>
<g id="Layer-7" vectornator:layerName="Layer 7">
<path d="M186.148 1434.77L185.038 1463.64L292.91 1460.82L295.351 1433.47L186.148 1434.77Z" fill="#e9bf00" fill-rule="nonzero" opacity="1" stroke="none" vectornator:layerName="Curve 268"/>
<path d="M262.765 1517.35L207.307 1519.67L205.46 1546.16C205.46 1546.16 211.647 1549.57 214.552 1550.42C217.457 1551.27 230.253 1551.08 232.65 1550.29C235.046 1549.49 246.985 1540.01 247.921 1538.75" fill="#ffffff" fill-rule="nonzero" opacity="1" stroke="none" vectornator:layerName="Curve 269"/>
<path d="M169.279 1385.72L171.72 1407.42L242.525 1406.12L243.413 1385.5" fill="#dddddd" fill-rule="nonzero" opacity="1" stroke="none" vectornator:layerName="Curve 270"/>
<path d="M232.391 1621.07L231.988 1665.02L443.438 1637.82L433.762 1592.09" fill="#eb6e44" fill-rule="nonzero" opacity="1" stroke="none" vectornator:layerName="Curve 271"/>
<path d="M460.773 1673.3L265.651 1697.15L267.25 1723.03C267.25 1723.03 431.796 1698.02 464.507 1705.97L460.146 1671.08" fill="#6b9ad2" fill-rule="nonzero" opacity="1" stroke="none" vectornator:layerName="Curve 272"/>
<path d="M570.07 1454.03L479.229 1444.79L465.467 1523.14L570.221 1540.17L575.051 1453.8" fill="#e9e7e8" fill-rule="nonzero" opacity="1" stroke="none" vectornator:layerName="Curve 273"/>
<path d="M132.361 1274.39L132.106 1366.8L324.955 1365.1L325.64 1284.27L136.238 1272.03L132.361 1274.39Z" fill="#e9e7e8" fill-rule="nonzero" opacity="1" stroke="none" vectornator:layerName="Curve 274"/>
<path d="M483.053 1452.74L473.612 1516.68L571.235 1535.05C571.235 1535.05 576.146 1463.48 578.25 1464.02C580.353 1464.57 483.053 1452.74 483.053 1452.74Z" fill="#e9ba00" fill-rule="nonzero" opacity="1" stroke="none" vectornator:layerName="Curve 275"/>
<path d="M474.467 1517.07L498.047 1464.73L503.445 1500.65L518.969 1467.9L526.239 1525.87" fill="#608a30" fill-rule="nonzero" opacity="1" stroke="none" vectornator:layerName="Curve 276"/>
<path d="M530.232 1482C530.155 1481.69 534.711 1477.81 535.411 1477.85C536.02 1477.88 538.751 1479.3 539.002 1479.09C540.83 1477.57 547.149 1473.15 549.915 1476.32C550.718 1477.24 549.527 1477.72 549.967 1478.4C550.706 1479.53 554.055 1477.6 553.817 1480.56C553.606 1483.19 550.788 1484.12 547.388 1484.3C543.205 1484.53 538.14 1483.63 535.967 1483.37C534.673 1483.21 531.253 1483.27 530.307 1482.19C529.825 1481.63 530.766 1480.96 531.086 1480.58" fill="#eeedeb" fill-rule="nonzero" opacity="1" stroke="none" vectornator:layerName="Curve 277"/>
<path d="M556.202 1492.45C557.063 1491.42 563.817 1488.11 564.266 1490.83C564.425 1491.79 562.197 1493.93 562.551 1494.47C562.588 1494.53 563.08 1494.53 563.178 1494.55C563.995 1494.73 571.131 1496.42 569.848 1498.25C567.952 1500.96 553.155 1498.59 549.846 1498.41C548.745 1498.35 544.848 1499.22 544.415 1497.51C543.984 1495.81 547.644 1495.94 548.371 1495.62C549.918 1494.94 550.339 1492.03 552.386 1492.19C553.928 1492.31 558.076 1492.91 557.674 1492.95" fill="#eeedeb" fill-rule="nonzero" opacity="1" stroke="none" vectornator:layerName="Curve 278"/>
<path d="M550.169 1520.07C548.612 1513.94 542.614 1519.67 539.354 1519.6C537.433 1519.56 533.584 1518.39 532.577 1520.99C532.183 1522 532.516 1523.7 533.522 1524.29C534.301 1524.75 536.638 1524.06 537.693 1524.29C541.19 1525.05 550.553 1527.58 553.561 1524.49C555.758 1522.23 549.293 1521.46 548.707 1520.56C548.598 1520.39 548.568 1520.43 548.745 1520.39" fill="#eeedeb" fill-rule="nonzero" opacity="1" stroke="none" vectornator:layerName="Curve 279"/>
<path d="M495.214 1488.15C495.214 1486.08 494.483 1492.88 494.282 1494.46C493.563 1500.08 491.856 1505.75 491.018 1511.48C490.802 1512.96 489.386 1521.58 489.386 1518.47" fill="none" opacity="1" stroke="#e9ba00" stroke-linecap="round" stroke-linejoin="round" stroke-width="1.91473" vectornator:layerName="Curve 280"/>
<path d="M488.832 1490.13C489.225 1492.41 489.458 1494.66 490.462 1496.91C490.725 1497.49 492.607 1500.45 492.38 1499.14" fill="none" opacity="1" stroke="#e9ba00" stroke-linecap="round" stroke-linejoin="round" stroke-width="1.91473" vectornator:layerName="Curve 281"/>
<path d="M499.878 1490.8C498.355 1495.69 497.042 1499.19 492.628 1502.34" fill="none" opacity="1" stroke="#e9ba00" stroke-linecap="round" stroke-linejoin="round" stroke-width="1.91473" vectornator:layerName="Curve 282"/>
<path d="M487.321 1498.82C487.482 1499.76 489.455 1505.67 490.837 1504.69" fill="none" opacity="1" stroke="#e9ba00" stroke-linecap="round" stroke-linejoin="round" stroke-width="1.91473" vectornator:layerName="Curve 283"/>
<path d="M501.146 1504.53C501.185 1504.41 499.098 1506.11 498.561 1506.49C496.943 1507.62 494.757 1509.62 492.732 1509.94" fill="none" opacity="1" stroke="#e9ba00" stroke-linecap="round" stroke-linejoin="round" stroke-width="1.91473" vectornator:layerName="Curve 284"/>
<path d="M510.9 1489.28C511.317 1491.81 511.991 1494.21 512.75 1496.65C513.031 1497.55 514.599 1499.58 514.529 1499.42" fill="none" opacity="1" stroke="#e9ba00" stroke-linecap="round" stroke-linejoin="round" stroke-width="1.91473" vectornator:layerName="Curve 285"/>
<path d="M506.57 1504.71C507.459 1506.73 508.805 1509.28 510.478 1510.76C510.612 1510.88 510.572 1510.86 510.693 1510.78" fill="none" opacity="1" stroke="#e9ba00" stroke-linecap="round" stroke-linejoin="round" stroke-width="1.91473" vectornator:layerName="Curve 286"/>
<path d="M516.18 1492.43C516.475 1494.22 515.51 1495.72 515.149 1497.4C513.738 1503.97 511.621 1510.42 510.745 1517.18C510.546 1518.72 509.709 1521.8 509.783 1522.25" fill="none" opacity="1" stroke="#e9ba00" stroke-linecap="round" stroke-linejoin="round" stroke-width="1.91473" vectornator:layerName="Curve 287"/>
<path d="M521.26 1499.18C519.414 1501.68 516.278 1505.35 513.105 1505.85" fill="none" opacity="1" stroke="#e9ba00" stroke-linecap="round" stroke-linejoin="round" stroke-width="1.91473" vectornator:layerName="Curve 288"/>
<path d="M518.196 1508.77C519.186 1508.25 516.334 1510.36 515.988 1510.62C514.599 1511.7 512.753 1511.75 511.16 1512.23" fill="none" opacity="1" stroke="#e9ba00" stroke-linecap="round" stroke-linejoin="round" stroke-width="1.91473" vectornator:layerName="Curve 289"/>
<path d="M141.803 1312.18L181.986 1311.77L199.582 1328.24L143.242 1330.66" fill="#da6f3d" fill-rule="nonzero" opacity="1" stroke="none" vectornator:layerName="Curve 290"/>
<path d="M315.188 1333.42L285.89 1332.09L268.228 1346.53L287.998 1354.41L314.015 1354.19L316.158 1353.51" fill="#da6f3d" fill-rule="nonzero" opacity="1" stroke="none" vectornator:layerName="Curve 291"/>
<path d="M171.002 1285.5C171.896 1287.97 173.867 1290.49 175.558 1292.01C176.776 1293.11 177.74 1293.16 178.566 1294.74C179.251 1296.05 180.341 1298.18 181.745 1299.04C182.671 1299.6 186.304 1302.47 186.669 1303.17C187.528 1304.81 182.942 1309.75 181.827 1310.62C181.806 1310.64 175.998 1306.01 175.558 1305.4C173.723 1302.86 171.244 1301.16 168.574 1299.53C168.102 1299.24 167.338 1298.51 167.037 1297.94C166.808 1297.5 166.583 1297.57 166.378 1297.17C166.043 1296.53 159.029 1291.41 158.08 1290.64C155.222 1288.32 152.917 1285.61 149.048 1285.04C148.527 1284.97 144.583 1285.24 144.89 1286.31C145.521 1288.49 151.514 1292.25 153.384 1293.39C155.085 1294.43 156.174 1296.58 157.778 1297.94C162.271 1301.73 167.156 1305.04 171.73 1308.76C174.038 1310.63 176.102 1313.55 179.023 1314.47C179.108 1314.5 179.705 1314.85 179.628 1314.95C178.212 1316.76 178.827 1315.78 177.779 1317.43C177.507 1317.85 173.164 1322.87 172.315 1324.39C171.292 1326.23 171.53 1327.33 171.34 1327.42C169.82 1328.18 167.032 1328.14 165.402 1327.96C162.75 1327.66 160.719 1328.22 158.149 1328.49C153.591 1328.96 146.734 1327.16 142.5 1329.28C142.131 1329.46 142.284 1330.17 142.358 1330.48C143.127 1333.73 142.823 1339.16 143.24 1343.76C143.393 1345.44 143.142 1347.69 143.24 1349.92C143.288 1351 143.471 1351.09 143.24 1352.46C143.072 1353.46 142.96 1354.41 143.24 1354.95C143.425 1355.3 148.959 1354.95 149.748 1354.95C158.71 1354.95 159.956 1354.95 167.037 1354.95C173.966 1354.95 178.745 1355.01 184.493 1354.95C190.037 1354.89 191.374 1354.82 194.017 1354.95C200.389 1355.25 199.728 1354.9 202.126 1354.95C205.003 1355.01 208.053 1354.95 210.166 1354.95C214.907 1354.95 217.194 1354.85 217.194 1354.85L225.133 1354.85C225.133 1354.85 228.733 1354.95 232.083 1354.95C235.433 1354.95 239.179 1354.95 239.179 1354.95C239.179 1354.95 245.21 1354.41 248.236 1354.85C249.702 1355.07 270.285 1354.85 270.285 1354.85C270.285 1354.85 287.718 1355.22 286.565 1354.85C280.872 1353.05 274.975 1349.78 269.224 1347.94C268.627 1347.75 282.416 1348.03 281.812 1347.84C281.174 1347.64 286.01 1347.79 287.641 1346.1C289 1344.7 287.15 1341.49 287.238 1340.75C287.461 1338.86 290.557 1331 287.641 1326.93C285.444 1323.87 279.94 1317.21 277.956 1314.57C272.512 1307.34 268.27 1307.94 262.781 1305.4C261.339 1304.73 245.957 1305.6 243.561 1305.44C239.822 1305.2 235.649 1312 232.073 1310.87C231.986 1310.85 233.119 1310.51 233.221 1310.49C233.964 1310.32 234.717 1310.78 235.421 1310.52C236.707 1310.04 243.063 1308.8 242.266 1306.53C242.16 1306.23 242.348 1305.64 241.924 1305.51C238.003 1304.27 224.358 1314.78 221.65 1317.97C220.738 1319.05 219.997 1322.32 218.831 1322.9C217.578 1323.53 215.908 1323.93 214.806 1324.79C214.231 1325.23 215.154 1327.72 214.451 1327.92C212.783 1328.38 199.854 1328.1 198.508 1327.28C197.743 1326.82 191.479 1326.52 186.292 1326.77C181.542 1327 177.779 1327.8 178.212 1327.06C180.335 1323.43 178.566 1326.93 180.335 1323.2C180.584 1322.68 185.585 1317.19 185.743 1316.76C187.176 1312.85 189.178 1311.78 190.768 1309.29C192.142 1307.14 193.515 1305.42 194.881 1303.27C195.529 1302.26 198.342 1300.83 200.982 1299.31C204.547 1297.25 208.548 1295.55 210.166 1294.74C211.693 1293.98 218.278 1290.94 218.257 1288.63C218.249 1287.72 211.464 1288.51 210.737 1288.75C208.177 1289.61 204.983 1291.43 202.126 1292.86C200.882 1293.48 199.608 1293.56 198.636 1294.24C196.396 1295.78 193.293 1298.97 190.807 1299.66C190.269 1299.81 189.856 1298.95 189.799 1298.59C189.478 1296.53 185.848 1293.32 184.493 1292.01C182.489 1290.09 181.114 1288.02 178.937 1285.93" fill="#dfb304" fill-rule="nonzero" opacity="1" stroke="none" vectornator:layerName="Curve 292"/>
<path d="M244.016 1296.43L244.016 1297.94L245.067 1298.76L245.092 1303.83L241.531 1304.74C241.531 1304.74 231.679 1307.38 244.406 1307.22C257.133 1307.06 258.97 1306.87 258.97 1306.87L258.615 1298.92C258.615 1298.92 259.822 1299.88 260.444 1298.76L260.444 1296.43C260.444 1296.43 260.061 1295.68 258.296 1295.42C256.53 1295.16 258.127 1295.33 258.127 1295.33L256.172 1295.42L256.122 1293.06C256.122 1293.06 255.599 1292.51 254.9 1292.51L249.899 1292.49C249.899 1292.49 248.567 1292.74 248.626 1293.45L248.51 1295.23C248.51 1295.23 244.056 1295.25 244.016 1297.01" fill="#dfb304" fill-rule="nonzero" opacity="1" stroke="none" vectornator:layerName="Curve 293"/>
<path d="M261.902 1305.4C261.902 1305.4 277.597 1308.12 283.336 1323.2" fill="none" opacity="1" stroke="#000000" stroke-linecap="round" stroke-linejoin="round" stroke-width="1.91473" vectornator:layerName="Curve 294"/>
<path d="M286.117 1326.27L288.359 1327.67L287.731 1346.18" fill="none" opacity="1" stroke="#000000" stroke-linecap="round" stroke-linejoin="round" stroke-width="1.91473" vectornator:layerName="Curve 295"/>
<path d="M277.059 1347.93C277.059 1347.93 282.44 1348.11 286.565 1346.62" fill="none" opacity="1" stroke="#000000" stroke-linecap="round" stroke-linejoin="round" stroke-width="1.91473" vectornator:layerName="Curve 296"/>
<path d="M268.27 1347.23L287.641 1354.95" fill="none" opacity="1" stroke="#000000" stroke-linecap="round" stroke-linejoin="round" stroke-width="1.91473" vectornator:layerName="Curve 297"/>
<path d="M214.55 1331.44L257.508 1347.84" fill="none" opacity="1" stroke="#000000" stroke-linecap="round" stroke-linejoin="round" stroke-width="1.91473" vectornator:layerName="Curve 298"/>
<path d="M241.455 1305.22C241.455 1305.22 224.415 1311.98 219.393 1322.85L215.001 1324.35L215.293 1331.74" fill="none" opacity="1" stroke="#000000" stroke-linecap="round" stroke-linejoin="round" stroke-width="1.91473" vectornator:layerName="Curve 299"/>
<path d="M245.217 1307.94C245.217 1307.94 237.87 1311.95 235.433 1321.2" fill="none" opacity="1" stroke="#000000" stroke-linecap="round" stroke-linejoin="round" stroke-width="1.91473" vectornator:layerName="Curve 300"/>
<path d="M253.484 1308.6C253.484 1308.6 261.621 1316.03 260.666 1326.26" fill="none" opacity="1" stroke="#000000" stroke-linecap="round" stroke-linejoin="round" stroke-width="1.91473" vectornator:layerName="Curve 301"/>
<path d="M258.731 1309.36C258.731 1309.36 268.649 1311.01 274.032 1321.32" fill="none" opacity="1" stroke="#000000" stroke-linecap="round" stroke-linejoin="round" stroke-width="1.91473" vectornator:layerName="Curve 302"/>
<path d="M229.586 1321.27C229.586 1321.27 225.374 1324.14 225.808 1326.93" fill="none" opacity="1" stroke="#000000" stroke-linecap="round" stroke-linejoin="round" stroke-width="1.91473" vectornator:layerName="Curve 303"/>
<path d="M225.133 1334.47L225.155 1326.71C225.155 1326.71 231.321 1319.18 234.513 1328.66L233.64 1336.72" fill="none" opacity="1" stroke="#000000" stroke-linecap="round" stroke-linejoin="round" stroke-width="1.91473" vectornator:layerName="Curve 304"/>
<path d="M227.506 1330.72C227.506 1330.72 229.692 1331.22 231.71 1330.68" fill="none" opacity="1" stroke="#000000" stroke-linecap="round" stroke-linejoin="round" stroke-width="1.91473" vectornator:layerName="Curve 305"/>
<path d="M227.288 1334.36C227.288 1334.36 229.286 1335.31 231.871 1334.49" fill="none" opacity="1" stroke="#000000" stroke-linecap="round" stroke-linejoin="round" stroke-width="1.91473" vectornator:layerName="Curve 306"/>
<path d="M246.995 1321.84C246.995 1321.84 242.987 1324.9 243.946 1327.96" fill="none" opacity="1" stroke="#000000" stroke-linecap="round" stroke-linejoin="round" stroke-width="1.91473" vectornator:layerName="Curve 307"/>
<path d="M242.805 1336.95L243.22 1326.82C243.22 1326.82 247.067 1322.65 251.094 1324.9C252.235 1325.54 252.347 1325.86 253.667 1327.96L252.827 1340.75" fill="none" opacity="1" stroke="#000000" stroke-linecap="round" stroke-linejoin="round" stroke-width="1.91473" vectornator:layerName="Curve 308"/>
<path d="M263.656 1343.1L264.18 1327.68C264.18 1327.68 269.988 1320.22 274.792 1327.76" fill="none" opacity="1" stroke="#000000" stroke-linecap="round" stroke-linejoin="round" stroke-width="1.91473" vectornator:layerName="Curve 309"/>
<path d="M270.285 1344.83C270.285 1344.83 272.389 1345.18 273.728 1342.68" fill="none" opacity="1" stroke="#000000" stroke-linecap="round" stroke-linejoin="round" stroke-width="1.91473" vectornator:layerName="Curve 310"/>
<path d="M274.213 1326.49L273.692 1342.67" fill="none" opacity="1" stroke="#000000" stroke-linecap="round" stroke-linejoin="round" stroke-width="1.91473" vectornator:layerName="Curve 311"/>
<path d="M266.13 1332.54C266.13 1332.54 269.338 1332.98 272.512 1332.43" fill="none" opacity="1" stroke="#000000" stroke-linecap="round" stroke-linejoin="round" stroke-width="1.91473" vectornator:layerName="Curve 312"/>
<path d="M267.486 1339.52C267.486 1339.52 270.461 1339.81 271.089 1339.27" fill="none" opacity="1" stroke="#000000" stroke-linecap="round" stroke-linejoin="round" stroke-width="1.91473" vectornator:layerName="Curve 313"/>
<path d="M245.48 1330.95L249.644 1331.09" fill="none" opacity="1" stroke="#000000" stroke-linecap="round" stroke-linejoin="round" stroke-width="1.91473" vectornator:layerName="Curve 314"/>
<path d="M247.003 1336.87L251.126 1336.63" fill="none" opacity="1" stroke="#000000" stroke-linecap="round" stroke-linejoin="round" stroke-width="1.91473" vectornator:layerName="Curve 315"/>
<path d="M245.138 1303.76C245.138 1303.76 251.938 1304.5 258.321 1303.27" fill="none" opacity="1" stroke="#000000" stroke-linecap="round" stroke-linejoin="round" stroke-width="1.91473" vectornator:layerName="Curve 316"/>
<path d="M245.453 1298.76C245.453 1298.76 251.691 1300.84 260.006 1299.26" fill="none" opacity="1" stroke="#000000" stroke-linecap="round" stroke-linejoin="round" stroke-width="1.91473" vectornator:layerName="Curve 317"/>
<path d="M247.041 1294.74C247.041 1294.74 251.675 1296.77 256.416 1295.47" fill="none" opacity="1" stroke="#000000" stroke-linecap="round" stroke-linejoin="round" stroke-width="1.91473" vectornator:layerName="Curve 318"/>
<path d="M160.166 1299.32L144.774 1286.4" fill="none" opacity="1" stroke="#000000" stroke-linecap="round" stroke-linejoin="round" stroke-width="1.91473" vectornator:layerName="Curve 319"/>
<path d="M153.384 1286.52L175.558 1304.8" fill="none" opacity="1" stroke="#000000" stroke-linecap="round" stroke-linejoin="round" stroke-width="1.91473" vectornator:layerName="Curve 320"/>
<path d="M172.315 1324.06L171.371 1327.75L143.24 1329.48" fill="none" opacity="1" stroke="#000000" stroke-linecap="round" stroke-linejoin="round" stroke-width="1.91473" vectornator:layerName="Curve 321"/>
<path d="M146.071 1312.64L173.966 1311.49" fill="none" opacity="1" stroke="#000000" stroke-linecap="round" stroke-linejoin="round" stroke-width="1.91473" vectornator:layerName="Curve 322"/>
<path d="M170.899 1287.27L186.233 1303.47" fill="none" opacity="1" stroke="#000000" stroke-linecap="round" stroke-linejoin="round" stroke-width="1.91473" vectornator:layerName="Curve 323"/>
<path d="M182.694 1310.57L186.292 1304.11" fill="none" opacity="1" stroke="#000000" stroke-linecap="round" stroke-linejoin="round" stroke-width="1.91473" vectornator:layerName="Curve 324"/>
<path d="M192.838 1297.94L211.415 1288.19" fill="none" opacity="1" stroke="#000000" stroke-linecap="round" stroke-linejoin="round" stroke-width="1.91473" vectornator:layerName="Curve 325"/>
<path d="M179.863 1286.12L191.894 1300.65" fill="none" opacity="1" stroke="#000000" stroke-linecap="round" stroke-linejoin="round" stroke-width="1.91473" vectornator:layerName="Curve 326"/>
<path d="M194.017 1305.09L180.335 1323.37" fill="none" opacity="1" stroke="#000000" stroke-linecap="round" stroke-linejoin="round" stroke-width="1.91473" vectornator:layerName="Curve 327"/>
<path d="M193.722 1303.59L218.669 1289.23" fill="none" opacity="1" stroke="#000000" stroke-linecap="round" stroke-linejoin="round" stroke-width="1.91473" vectornator:layerName="Curve 328"/>
<path d="M146.366 1319.85C146.366 1319.85 164.353 1316.39 179.628 1316.79" fill="none" opacity="1" stroke="#000000" stroke-linecap="round" stroke-linejoin="round" stroke-width="1.91473" vectornator:layerName="Curve 329"/>
<path d="M160.815 1325.44C160.815 1325.44 168.481 1323.95 173.258 1324.29" fill="none" opacity="1" stroke="#000000" stroke-linecap="round" stroke-linejoin="round" stroke-width="1.91473" vectornator:layerName="Curve 330"/>
<path d="M180.866 1324C180.866 1324 187.058 1323.14 191.658 1323.54" fill="none" opacity="1" stroke="#000000" stroke-linecap="round" stroke-linejoin="round" stroke-width="1.91473" vectornator:layerName="Curve 331"/>
<path d="M186.115 1315.93L198.912 1327.06" fill="none" opacity="1" stroke="#000000" stroke-linecap="round" stroke-linejoin="round" stroke-width="1.91473" vectornator:layerName="Curve 332"/>
<path d="M178.212 1326.94C178.212 1326.94 188.061 1325.56 199.62 1327.69" fill="none" opacity="1" stroke="#000000" stroke-linecap="round" stroke-linejoin="round" stroke-width="1.91473" vectornator:layerName="Curve 333"/>
<path d="M198.912 1327.52L215.543 1327.69" fill="none" opacity="1" stroke="#000000" stroke-linecap="round" stroke-linejoin="round" stroke-width="1.91473" vectornator:layerName="Curve 334"/>
<path d="M298.951 1331.05C298.951 1331.05 310.998 1332.11 314.654 1332.68" fill="none" opacity="1" stroke="#000000" stroke-linecap="round" stroke-linejoin="round" stroke-width="1.91473" vectornator:layerName="Curve 335"/>
<path d="M242.728 1289.66L212.89 1288.58" fill="none" opacity="1" stroke="#000000" stroke-linecap="round" stroke-linejoin="round" stroke-width="1.91473" vectornator:layerName="Curve 336"/>
<path d="M288.198 1541.29C288.198 1541.29 279.095 1566.61 291.63 1579.01C304.165 1591.42 319.536 1575.37 325.878 1572.81C325.878 1572.81 333.116 1559.39 333.862 1559.02C334.608 1558.66 289.685 1541.75 288.838 1541.43" fill="#e8b9b7" fill-rule="nonzero" opacity="1" stroke="none" vectornator:layerName="Curve 337"/>
<path d="M447.296 1536.33C447.296 1536.33 440.717 1557.92 434.866 1572.67C434.866 1572.67 461.573 1575.96 463.001 1558.26C463.001 1558.26 466.677 1550.96 451.097 1536.87L447.243 1536.14L447.296 1536.33Z" fill="#e8b9b7" fill-rule="nonzero" opacity="1" stroke="none" vectornator:layerName="Curve 338"/>
<path d="M416.809 1316.13C416.809 1316.13 413.209 1324.58 422.337 1325.74L420.709 1325C420.709 1325 420.733 1325.1 421.074 1326.25" fill="#e8b9b7" fill-rule="nonzero" opacity="1" stroke="none" vectornator:layerName="Curve 339"/>
<path d="M420.767 1325.36L421 1326.17L418.338 1329.33L417.886 1346.16L425.559 1350.49L432.393 1346.53L435.356 1340.93L437.928 1332.23L439.171 1328L439.46 1325.87L439.642 1322.13C439.642 1322.13 430.104 1322.18 429.377 1322.42L428.834 1322.89L428.573 1320.75C428.573 1320.75 427.541 1321.36 427.941 1319.97C427.941 1319.97 428.203 1318.62 427.926 1317.88C427.748 1317.41 427.057 1317.45 426.892 1317.41C426.892 1317.41 426.722 1317.39 426.597 1317.63C426.221 1318.33 425.582 1319.94 425.8 1320.4C425.8 1320.4 425.025 1320.57 424.138 1320.84C423.251 1321.11 424.212 1320.88 424.212 1320.88C424.212 1320.88 423.995 1320.43 423.683 1319.75C423.182 1318.65 422.433 1316.93 421.931 1315.44C421.931 1315.44 421.064 1315.22 419.944 1315.5C419.289 1315.66 417.301 1315.89 416.812 1316.13" fill="#e8b9b7" fill-rule="nonzero" opacity="1" stroke="none" vectornator:layerName="Curve 340"/>
<path d="M214.725 1551.2C210.878 1549.39 207.337 1545.62 203.604 1544.24C202.04 1543.66 200.677 1544.48 199.2 1544.11C181.416 1539.63 170.753 1546.65 157.763 1558.04C155.245 1560.25 145.489 1567.32 147.096 1571.39C148.856 1575.85 153.546 1575.28 156.844 1577.03C159.17 1578.26 160.946 1580.6 163.452 1581.53C164.764 1582.01 166.135 1580.86 167.389 1581.36C173.218 1583.73 179.776 1584.75 185.759 1586.25C189.682 1587.24 193.493 1590.87 197.245 1592.86C202.263 1595.52 210.223 1594.89 215.601 1596.77C222.11 1599.04 228.972 1601.03 235.233 1603.74C238.082 1604.98 241.448 1607.25 244.438 1608.01C250.733 1609.59 257.513 1611.22 263.76 1613.75C273.561 1617.73 284.424 1620.01 294.762 1622.61C297.08 1623.2 298.958 1624.33 301.476 1623.95C305.477 1623.34 304.906 1619.55 306.268 1617.09C307.328 1615.18 309.341 1614.85 310.191 1612.85C311.254 1610.35 309.847 1607.13 312.347 1605.69" fill="#dadadc" fill-rule="nonzero" opacity="1" stroke="none" vectornator:layerName="Curve 341"/>
<path d="M428.535 1632.13C426.803 1632.34 428.768 1632.29 428.034 1629.68C427.737 1628.62 424.864 1626.41 424.006 1625.5C421.242 1622.58 417.495 1622.46 414.371 1620.59C412.562 1619.51 412.281 1617.66 409.891 1617.19C408.404 1616.9 406.612 1617.93 405.349 1617.57C404.017 1617.2 403.43 1616.05 401.765 1616.13C390.902 1616.65 375.063 1622.71 369.571 1633.49C368.833 1634.93 364.324 1642.58 365.788 1644.01C371.834 1649.91 384.318 1653.35 393.375 1654.25C394.884 1654.4 395.968 1655.58 397.367 1656C402.267 1657.49 407.509 1657.57 412.637 1658.34C414.977 1658.69 416.759 1660.65 418.879 1661.16C420.576 1661.57 422.32 1660.42 424.121 1660.51C428.212 1660.71 432.139 1662.61 436.081 1663.52C443.934 1665.35 449.927 1667.82 457.367 1668.35C458.038 1668.39 460.012 1669.44 460.521 1669.3C461.371 1669.08 464.01 1657.3 465.835 1655" fill="#dadadc" fill-rule="nonzero" opacity="1" stroke="none" vectornator:layerName="Curve 342"/>
<path d="M467.128 1653.5C467.312 1658.32 471.552 1642.83 471.845 1642.03C474.458 1634.94 478.37 1626.61 481.94 1620.12C486.75 1611.37 487.84 1601.22 491.834 1592.14C496.111 1582.43 499.088 1572.58 500.694 1562.45C501.052 1560.2 505.98 1548.19 504.667 1546.77C503.828 1545.86 501.25 1546.52 500.143 1546.19C497.292 1545.34 494.543 1543.75 491.752 1542.92C491.658 1542.89 488.552 1542.42 488.497 1542.46C485.911 1544.54 485.794 1549.67 484.89 1552.57C483.028 1558.55 479.476 1563.86 477.6 1569.88C476.739 1572.64 475.463 1575.3 474.415 1578.01C473.054 1581.52 471.918 1585.14 470.584 1588.62C465.773 1601.19 461.185 1613.69 456.241 1626.26C454.562 1630.53 450.058 1638.19 450.869 1642.87C451.573 1646.94 456.109 1654.07 459.793 1655.76C460.435 1656.05 465.116 1655.52 465.627 1655.07C466.302 1654.47 467.438 1652.06 467.271 1652.94C467.186 1653.38 467.115 1653.18 467.128 1653.5Z" fill="#dadadc" fill-rule="nonzero" opacity="1" stroke="none" vectornator:layerName="Curve 343"/>
<path d="M420.869 1326.25C420.869 1326.25 405.13 1339.05 401.599 1352.17C401.599 1352.17 407.527 1357.52 411.468 1358.83L407.674 1397.57L474.4 1395.98C474.4 1395.98 473.688 1384.95 478.506 1383.26C478.506 1383.26 468.453 1360.27 464.666 1344.01L465.717 1342.92C465.717 1342.92 463.13 1323.64 468.347 1322.96C468.347 1322.96 458.015 1321.09 438.377 1322.14C438.377 1322.14 438.394 1330.07 436.715 1334.23C436.715 1334.23 432.435 1345.64 425.467 1346.77C425.467 1346.77 413.717 1348.82 420.869 1326.25Z" fill="#d56432" fill-rule="nonzero" opacity="1" stroke="none" vectornator:layerName="Curve 344"/>
<path d="M401.592 1350.91C401.592 1350.91 328.613 1329.83 307.168 1357.45C307.168 1357.45 303.99 1360.84 305.625 1364.09C305.625 1364.09 304.608 1362.82 304.43 1364.87C304.43 1364.87 305.497 1376.05 318.104 1380.33C318.104 1380.33 318.716 1381.44 318.264 1382.27C318.264 1382.27 316.882 1383.74 317.367 1385.15C317.367 1385.15 317.057 1389.76 320.488 1392.91C320.488 1392.91 321.304 1396 342.034 1392.01C342.034 1392.01 349.952 1391.76 355.946 1393.15C355.946 1393.15 387.457 1395.1 407.713 1387.76L410.7 1358.42C410.7 1358.42 401.737 1355.23 401.482 1349.57" fill="#e3b6ad" fill-rule="nonzero" opacity="1" stroke="none" vectornator:layerName="Curve 345"/>
<path d="M467.433 1323.56L485.839 1326.79C485.839 1326.79 490.418 1327.11 494.869 1332.27C494.869 1332.27 548.591 1382.56 523.445 1400.79C523.445 1400.79 520.529 1402.9 513.547 1404.04C513.547 1404.04 513.67 1405.09 511.755 1405.59C511.755 1405.59 508.347 1406.73 505.255 1404.92C505.255 1404.92 507.568 1406.71 501.294 1410.02C501.294 1410.02 495.255 1414.19 485.09 1407.95C485.09 1407.95 481.14 1401.68 484.046 1399.66C484.046 1399.66 481.67 1400.32 479.027 1400.84C479.027 1400.84 471.718 1399.37 473.958 1393.99C473.958 1393.99 475.448 1381.97 482.462 1378.05C482.462 1378.05 478.493 1361.65 469.548 1343.75L464.377 1343.31C464.377 1343.31 464.096 1325.34 467.433 1323.56Z" fill="#e3b6ad" fill-rule="nonzero" opacity="1" stroke="none" vectornator:layerName="Curve 346"/>
<path d="M266.364 1515.26C266.87 1515.66 261.811 1520.54 261.164 1521.2C255.417 1527.07 251.77 1533.95 245.514 1539.63C242.643 1542.23 240.36 1545 237.355 1547.33C236.589 1547.93 235.408 1547.34 234.506 1547.63C230.898 1548.78 227.841 1550.43 224.28 1551.45C221.773 1552.17 218.555 1551.14 216.115 1550.86C215.641 1550.81 211.964 1549.88 211.947 1550.31C211.877 1552.14 213.793 1553.73 214.103 1555.39C214.669 1558.4 214.583 1565.08 213.837 1567.95C213.419 1569.56 208.871 1581.82 208.943 1582.12C209.172 1583.09 219.218 1583.79 219.966 1584.3C229.749 1590.9 246.731 1590.57 258.62 1593.14C259.879 1593.41 261.274 1593.21 262.618 1593.18C263.668 1593.16 250.6 1590.19 250.515 1592.39C250.498 1592.84 251.479 1593.19 251.804 1593.31C254.699 1594.38 259.692 1597.81 262.016 1598.31C272.223 1600.52 285.953 1601.85 295.194 1606.21C298.456 1607.76 305.029 1613.76 308.863 1612.66C311.812 1611.82 312.353 1606.84 313.794 1604.57C316.524 1600.28 318.01 1595.39 320.397 1590.94C322.239 1587.51 325.863 1584.07 325.77 1579.8C325.734 1578.15 327.583 1574.38 325.913 1573.25C325.796 1573.18 320.925 1576.67 320.524 1577.07C317.533 1580.05 314.313 1580.8 310.947 1582.3C308.692 1583.3 306.774 1585.45 304.408 1586.5C299.362 1588.74 292.39 1587.61 287.406 1589.44C287.224 1589.51 282.63 1590 282.629 1590C282.489 1590.37 283.716 1590.45 283.828 1590.45C286.801 1590.38 290.271 1591 293.282 1591.24C300.866 1591.84 306.237 1587.2 312.166 1583.64C313.124 1583.06 317.564 1579.57 317.605 1578.5C317.624 1578.01 310.886 1581.86 310.247 1582.22C306.98 1584.03 297.178 1585.85 293.556 1583.4C288.891 1580.25 287.278 1578.74 286.245 1573.23C286.052 1572.2 284.52 1571.32 284.198 1570.24C283.383 1567.52 282.882 1563.18 283.363 1560.3C285.157 1549.56 290.192 1538.03 289.016 1527.06C288.822 1525.25 289.887 1523.01 289.349 1521.21C287.193 1513.99 285.338 1509.72 276.542 1509.9C274.495 1509.94 262.415 1515.55 264.175 1517.4" fill="#6b9ad2" fill-rule="nonzero" opacity="1" stroke="#6b9ad2" stroke-linecap="round" stroke-linejoin="round" stroke-width="2.83986" vectornator:layerName="Curve 347"/>
<path d="M265.654 1516.16C264.452 1514.89 258.567 1524.4 258.014 1525.13" fill="#6b9ad2" fill-rule="nonzero" opacity="1" stroke="#6b9ad2" stroke-linecap="round" stroke-linejoin="round" stroke-width="2.83986" vectornator:layerName="Curve 348"/>
<path d="M423.453 1626.73C423.334 1626.75 424.359 1628.71 424.436 1629.14C424.741 1630.85 425.533 1632.36 426.011 1634C426.999 1637.38 427.836 1641.11 428.451 1644.55C428.627 1645.53 427.697 1647.23 428.118 1648C429.088 1649.75 432.041 1649.59 433.584 1650.45C436.08 1651.83 439.096 1651.74 441.819 1652.79C444.556 1653.84 448.315 1657.07 451.393 1656.78C452.618 1656.67 453.779 1652.02 454.283 1650.83C454.812 1649.59 454.432 1647.83 454.812 1646.43C455.704 1643.13 457.808 1640 458.727 1636.61C459.143 1635.08 459.209 1632.88 459.95 1631.46C461.339 1628.79 462.54 1624.94 462.985 1622.04C463.397 1619.34 465.656 1616.69 466.992 1614.46C468.138 1612.54 468.447 1609.7 469.348 1607.58C470.49 1604.89 470.278 1601.81 471.335 1599.32C473.716 1593.71 477.216 1588.6 479.373 1582.75C480.291 1580.26 480.057 1577.01 481.157 1574.56C482.3 1572.02 484.428 1569.54 485.866 1567.13C489.582 1560.92 495.296 1548.88 489.029 1542.67C488.063 1541.71 470.378 1539.6 469.738 1539.71C469.688 1539.72 469.63 1539.7 469.589 1539.73C469.178 1540.03 469.68 1540.41 469.92 1540.72C471.05 1542.22 469.935 1549.62 469.403 1551.36C467.285 1558.3 461.696 1567.9 455.032 1571.78C447.652 1576.08 440.838 1572.94 432.839 1572.64C431.082 1572.57 429.786 1571.8 427.872 1572.29C425.468 1572.91 423.28 1575.33 421.226 1576.61C413.367 1581.48 408.171 1586.12 412.81 1595.01C415.347 1599.87 421.55 1597.89 425.913 1598.34C431.239 1598.89 436.025 1600.57 441.066 1602.17C443.771 1603.02 447.878 1605.24 447.936 1608.69C448.001 1612.49 447.052 1616.09 446.161 1619.67C446.08 1619.99 444.772 1622.35 444.644 1622.33C444.201 1622.26 443.011 1623.02 443.372 1622.75C445.098 1621.51 443.016 1612.17 442.186 1610.31C438.268 1601.49 429.764 1590.3 419.49 1597.74C419.113 1598.01 418.046 1599.37 418.652 1599.74C418.925 1599.9 422.044 1599.67 422.798 1599.78C427.644 1600.49 432.558 1601.31 437.096 1604.13C439.743 1605.78 442.068 1608.7 443.624 1611.32C444.164 1612.23 444.69 1613.17 445.335 1614.03C445.576 1614.34 446.077 1615.38 446.058 1614.98C445.686 1607.57 439.04 1603.06 432.808 1601.24C431.778 1600.94 425.093 1598.79 424.399 1600.67C424.147 1601.36 427.564 1602 428.007 1602.33C430.049 1603.87 432.02 1605.66 433.167 1608.04C434.149 1610.09 434.641 1611.9 435.233 1614.11C435.37 1614.62 435.855 1617.8 436.278 1617.37C438.102 1615.53 433.504 1603.52 430.994 1603.95C430.543 1604.03 430.829 1604.63 430.907 1604.83C431.696 1606.89 433.205 1610.46 433.19 1612.63C433.178 1614.42 433.365 1616.4 433.261 1618.16C433.261 1618.16 432.528 1620.66 432.759 1620.49C433.856 1619.7 434.277 1608.93 432.403 1609.25C432.041 1609.32 431.846 1609.76 431.844 1610.07C431.82 1613.64 432.048 1616.5 431.022 1619.86C430.516 1621.52 423.665 1626.9 424.391 1627.86" fill="#6b9ad2" fill-rule="nonzero" opacity="1" stroke="#6b9ad2" stroke-linecap="round" stroke-linejoin="round" stroke-width="2.83986" vectornator:layerName="Curve 349"/>
<path d="M451.856 1537.09C451.421 1537.98 454.242 1539.14 454.948 1539.84C457.624 1542.49 459.554 1546.09 461.803 1549.1C465.026 1553.41 462.225 1556.7 463.268 1560.38C463.816 1562.31 468.104 1557.87 468.437 1557.49C469.319 1556.48 470.052 1555.34 470.701 1554.17C471.652 1552.46 472.112 1550.28 472.427 1548.36C473.83 1539.81 464.218 1538.8 458.378 1537.79C456.717 1537.5 452.57 1535.61 451.856 1537.09Z" fill="#6b9ad2" fill-rule="nonzero" opacity="1" stroke="#6b9ad2" stroke-linecap="round" stroke-linejoin="round" stroke-width="2.83986" vectornator:layerName="Curve 350"/>
<path d="M428.008 1569.5C426.575 1570.09 424.932 1568.14 423.395 1568.26C422.164 1568.36 421.171 1569.52 420.059 1569.73C419.559 1569.82 418.775 1569.18 418.354 1569.34C417.945 1569.49 418.099 1570.28 417.628 1570.43C414.443 1571.43 411.152 1572.08 408.749 1575.33C407.615 1576.86 408.225 1580.41 408.406 1582.12C408.667 1584.59 407.882 1586.78 410.031 1588.7C411.21 1589.76 415.087 1589.25 416.285 1588.45C421.22 1585.16 429.293 1580.78 431.755 1575.12C432.174 1574.15 430.064 1568.65 428.008 1569.5Z" fill="#6b9ad2" fill-rule="nonzero" opacity="1" stroke="#6b9ad2" stroke-linecap="round" stroke-linejoin="round" stroke-width="2.83986" vectornator:layerName="Curve 351"/>
<path d="M428.007 1572.08C429.961 1573.14 431.778 1574.19 433.939 1574.79C434.356 1574.91 437.001 1575.09 436.61 1573.89C435.871 1571.64 431.414 1570.59 429.518 1570.01C428.953 1569.84 425.793 1569.64 426.397 1569.81" fill="#6b9ad2" fill-rule="nonzero" opacity="1" stroke="#6b9ad2" stroke-linecap="round" stroke-linejoin="round" stroke-width="2.83986" vectornator:layerName="Curve 352"/>
<path d="M441.542 1595.03C439.822 1603.86 441.886 1611.81 443.301 1620.36C443.633 1622.37 443.815 1628.23 446.709 1629.03C449.317 1629.75 453.767 1622.56 454.771 1620.99C460.392 1612.18 464.33 1600.87 465.867 1590.63C466.266 1587.98 466.333 1584.65 465.757 1582.01C460.527 1558.09 441.375 1591.42 441.159 1601.4" fill="#6b9ad2" fill-rule="nonzero" opacity="1" stroke="#6b9ad2" stroke-linecap="round" stroke-linejoin="round" stroke-width="2.83986" vectornator:layerName="Curve 353"/>
<path d="M435.86 1596.72C433.967 1599.47 432.374 1602.74 433.163 1606.14C434.428 1611.59 440.747 1608.04 442.602 1604.73C444.164 1601.95 445.766 1592.51 440.615 1592.8C438.602 1592.91 436.486 1595.81 435.86 1596.72Z" fill="#6b9ad2" fill-rule="nonzero" opacity="1" stroke="#6b9ad2" stroke-linecap="round" stroke-linejoin="round" stroke-width="2.83986" vectornator:layerName="Curve 354"/>
<path d="M325.01 1573.48C324.029 1576.13 318.937 1576.97 317.073 1578.7" fill="#6b9ad2" fill-rule="nonzero" opacity="1" stroke="#6b9ad2" stroke-linecap="round" stroke-linejoin="round" stroke-width="2.83986" vectornator:layerName="Curve 355"/>
<path d="M324.64 1573.61C323.204 1573.77 320.824 1576.47 319.415 1577.12" fill="#6b9ad2" fill-rule="nonzero" opacity="1" stroke="#6b9ad2" stroke-linecap="round" stroke-linejoin="round" stroke-width="2.83986" vectornator:layerName="Curve 356"/>
<path d="M306.873 1583.97C303.091 1585.22 299.222 1583.12 295.709 1583.9" fill="#6b9ad2" fill-rule="nonzero" opacity="1" stroke="#6b9ad2" stroke-linecap="round" stroke-linejoin="round" stroke-width="2.83986" vectornator:layerName="Curve 357"/>
<path d="M407.663 1394.72C407.663 1394.72 333.34 1387.82 293.782 1462.2C293.782 1462.2 264.658 1503 263.023 1514.26C263.023 1514.26 262.786 1518.81 273.476 1508.74C273.476 1508.74 298.321 1503.87 288.42 1543C278.518 1582.13 289.096 1543.75 289.096 1543.75C289.096 1543.75 307.624 1545.66 333.117 1560L325.686 1573.3L328.253 1576.96L416.103 1599.38C416.103 1599.38 388.032 1567.39 431.432 1569.47L433.854 1572.37C433.854 1572.37 447.61 1539.3 447.48 1536.13C447.35 1532.95 424.362 1530.28 419.222 1528.58C414.083 1526.87 388.741 1523.6 385.597 1522.25C382.453 1520.9 384.411 1521.91 384.411 1521.91C384.411 1521.91 448.492 1487.98 480.477 1399.5C480.477 1399.5 479.78 1401.09 476.056 1399.84C476.056 1399.84 472.512 1398.18 473.656 1395.34L407.663 1394.72Z" fill="#e9bc00" fill-rule="nonzero" opacity="1" stroke="none" vectornator:layerName="Curve 358"/>
<path d="M367.872 1473.97C367.872 1473.97 380.962 1476.64 398.079 1473.86C413.724 1471.33 431.823 1467.84 446.197 1460.88" fill="none" opacity="1" stroke="#000000" stroke-linecap="round" stroke-linejoin="round" stroke-width="5.23768" vectornator:layerName="Curve 359"/>
<path d="M393.565 1474.51C393.565 1474.51 367.851 1508.16 347.882 1536.99C336.128 1553.96 326.365 1569.25 325.004 1575.03" fill="none" opacity="1" stroke="#000000" stroke-linecap="round" stroke-linejoin="round" stroke-width="5.23768" vectornator:layerName="Curve 360"/>
<path d="M327.841 1575.08C327.841 1575.08 310.946 1613.75 302.826 1625.2" fill="none" opacity="1" stroke="#000000" stroke-linecap="round" stroke-linejoin="round" stroke-width="5.23768" vectornator:layerName="Curve 361"/>
<path d="M302.376 1625.46C302.376 1625.46 266.836 1615.37 253.401 1610.87C253.401 1610.87 214.477 1593.89 196.382 1592.92C196.382 1592.92 174.221 1581.81 162.97 1581.02C162.97 1581.02 149.012 1572.48 145.994 1572.47C145.994 1572.47 173.712 1523.13 215.106 1551.1C215.106 1551.1 234.549 1554.85 254.211 1537.55" fill="none" opacity="1" stroke="#000000" stroke-linecap="round" stroke-linejoin="round" stroke-width="5.23768" vectornator:layerName="Curve 362"/>
<path d="M214.203 1551.64C214.203 1551.64 216.654 1571.07 207.251 1582.73C207.251 1582.73 245.255 1591.74 265.657 1594.4C265.657 1594.4 299.037 1599.32 313.636 1607.08" fill="none" opacity="1" stroke="#000000" stroke-linecap="round" stroke-linejoin="round" stroke-width="5.23768" vectornator:layerName="Curve 363"/>
<path d="M265.372 1516.06C265.372 1516.06 297.007 1489.21 287.814 1543.4C287.814 1543.4 273.536 1583.36 298.377 1583.49C298.377 1583.49 283.857 1583 285.17 1558.73" fill="none" opacity="1" stroke="#000000" stroke-linecap="round" stroke-linejoin="round" stroke-width="5.23768" vectornator:layerName="Curve 364"/>
<path d="M248.504 1537.79C248.504 1537.79 239.362 1524.89 244.236 1521.76C244.236 1521.76 251.064 1517.13 248.998 1536.27" fill="none" opacity="1" stroke="#000000" stroke-linecap="round" stroke-linejoin="round" stroke-width="5.23768" vectornator:layerName="Curve 365"/>
<path d="M251.408 1535.02C251.408 1535.02 260.437 1517.96 267.987 1526.02C267.987 1526.02 263.009 1535.04 254.083 1537.95" fill="none" opacity="1" stroke="#000000" stroke-linecap="round" stroke-linejoin="round" stroke-width="5.23768" vectornator:layerName="Curve 366"/>
<path d="M245.232 1540.69C245.232 1540.69 255.739 1539.74 262.103 1547.49" fill="none" opacity="1" stroke="#000000" stroke-linecap="round" stroke-linejoin="round" stroke-width="5.23768" vectornator:layerName="Curve 367"/>
<path d="M237.845 1546.42C237.845 1546.42 248.067 1548.16 251.094 1559.06" fill="none" opacity="1" stroke="#000000" stroke-linecap="round" stroke-linejoin="round" stroke-width="5.23768" vectornator:layerName="Curve 368"/>
<path d="M224.987 1549.96C224.987 1549.96 239.545 1560.22 239.172 1571.93" fill="none" opacity="1" stroke="#000000" stroke-linecap="round" stroke-linejoin="round" stroke-width="5.23768" vectornator:layerName="Curve 369"/>
<path d="M331.793 1577.23C331.793 1577.23 406.377 1594.91 414.607 1596.65" fill="none" opacity="1" stroke="#000000" stroke-linecap="round" stroke-linejoin="round" stroke-width="5.23768" vectornator:layerName="Curve 370"/>
<path d="M413.001 1597.21C413.001 1597.21 394.359 1568.19 427.077 1569.4C427.077 1569.4 453.837 1582.22 463.612 1560.96" fill="none" opacity="1" stroke="#000000" stroke-linecap="round" stroke-linejoin="round" stroke-width="5.23768" vectornator:layerName="Curve 371"/>
<path d="M425.213 1627.94C425.213 1627.94 403.382 1603.82 377.563 1625.2C377.563 1625.2 366.715 1632.66 366.293 1647.8" fill="none" opacity="1" stroke="#000000" stroke-linecap="round" stroke-linejoin="round" stroke-width="5.23768" vectornator:layerName="Curve 372"/>
<path d="M368.81 1648.8L451.578 1667.94L369.182 1648.15" fill="none" opacity="1" stroke="#000000" stroke-linecap="round" stroke-linejoin="round" stroke-width="5.23768" vectornator:layerName="Curve 373"/>
<path d="M454.603 1649.99C454.603 1649.99 451.741 1638.14 465.608 1610.43C465.608 1610.43 493.114 1556.91 488.692 1552.78C488.692 1552.78 481.99 1578.62 469.047 1604.07" fill="none" opacity="1" stroke="#000000" stroke-linecap="round" stroke-linejoin="round" stroke-width="5.23768" vectornator:layerName="Curve 374"/>
<path d="M435.374 1598.87C435.374 1598.87 416.277 1604.17 414.05 1596.59C414.05 1596.59 414.911 1590.85 434.88 1598.31" fill="none" opacity="1" stroke="#000000" stroke-linecap="round" stroke-linejoin="round" stroke-width="5.23768" vectornator:layerName="Curve 375"/>
<path d="M435.622 1597.91C435.622 1597.91 430.766 1582.06 436.812 1580.56C436.812 1580.56 441.671 1581.78 435.809 1598.97" fill="none" opacity="1" stroke="#000000" stroke-linecap="round" stroke-linejoin="round" stroke-width="5.23768" vectornator:layerName="Curve 376"/>
<path d="M430.505 1605.92C430.505 1605.92 446.138 1591.74 453.257 1592.73" fill="none" opacity="1" stroke="#000000" stroke-linecap="round" stroke-linejoin="round" stroke-width="5.23768" vectornator:layerName="Curve 377"/>
<path d="M431.556 1614.64C431.556 1614.64 440.788 1605.64 450.291 1606.26" fill="none" opacity="1" stroke="#000000" stroke-linecap="round" stroke-linejoin="round" stroke-width="5.23768" vectornator:layerName="Curve 378"/>
<path d="M425.537 1627.91C425.537 1627.91 438.292 1615.3 454.722 1613.94" fill="none" opacity="1" stroke="#000000" stroke-linecap="round" stroke-linejoin="round" stroke-width="5.23768" vectornator:layerName="Curve 379"/>
<path d="M408.636 1379.32L412.24 1342.41" fill="none" opacity="1" stroke="#000000" stroke-linecap="round" stroke-linejoin="round" stroke-width="2.83986" vectornator:layerName="Curve 380"/>
<path d="M406.471 1397.68L455.258 1396.11" fill="none" opacity="1" stroke="#000000" stroke-linecap="round" stroke-linejoin="round" stroke-width="2.83986" vectornator:layerName="Curve 381"/>
<path d="M445.036 1336.23C445.036 1336.23 449.693 1343.67 464.926 1341.84" fill="none" opacity="1" stroke="#000000" stroke-linecap="round" stroke-linejoin="round" stroke-width="2.83986" vectornator:layerName="Curve 382"/>
<path d="M404.82 1508.8L389.482 1521.66" fill="none" opacity="1" stroke="#000000" stroke-linecap="round" stroke-linejoin="round" stroke-width="2.83986" vectornator:layerName="Curve 383"/>
<path d="M387.544 1521.7L404.827 1525.97" fill="none" opacity="1" stroke="#000000" stroke-linecap="round" stroke-linejoin="round" stroke-width="2.83986" vectornator:layerName="Curve 384"/>
<path d="M434.258 1572.76L447.104 1540.25" fill="none" opacity="1" stroke="#000000" stroke-linecap="round" stroke-linejoin="round" stroke-width="2.83986" vectornator:layerName="Curve 385"/>
<path d="M492.776 1543.35L505.561 1546.59L502.37 1561.89" fill="none" opacity="1" stroke="#000000" stroke-linecap="round" stroke-linejoin="round" stroke-width="2.83986" vectornator:layerName="Curve 386"/>
<path d="M498.978 1576.02L461.048 1669.81" fill="none" opacity="1" stroke="#000000" stroke-linecap="round" stroke-linejoin="round" stroke-width="2.83986" vectornator:layerName="Curve 387"/>
<path d="M288.313 1541.33C288.313 1541.33 318.574 1550.67 331.565 1558.59" fill="none" opacity="1" stroke="#000000" stroke-linecap="round" stroke-linejoin="round" stroke-width="2.83986" vectornator:layerName="Curve 388"/>
<path d="M311.65 1368.3C311.65 1368.3 314.879 1370.97 323.397 1368.52L328.964 1369.28C328.964 1369.28 333.028 1375.81 335.923 1376.19" fill="none" opacity="1" stroke="#cb8d82" stroke-linecap="round" stroke-linejoin="round" stroke-width="2.83986" vectornator:layerName="Curve 389"/>
<path d="M321.504 1381.58C321.504 1381.58 327.628 1377.77 338.373 1377.99" fill="none" opacity="1" stroke="#cb8d82" stroke-linecap="round" stroke-linejoin="round" stroke-width="2.83986" vectornator:layerName="Curve 390"/>
<path d="M328.964 1369.77C328.964 1369.77 328.686 1374.07 325.902 1376.25C325.902 1376.25 322.339 1378.92 323.453 1380.98" fill="none" opacity="1" stroke="#cb8d82" stroke-linecap="round" stroke-linejoin="round" stroke-width="2.83986" vectornator:layerName="Curve 391"/>
<path d="M322.005 1369.33C322.005 1369.33 324.678 1371.89 325.234 1377.01" fill="none" opacity="1" stroke="#cb8d82" stroke-linecap="round" stroke-linejoin="round" stroke-width="2.83986" vectornator:layerName="Curve 392"/>
<path d="M307.475 1360.57C307.475 1360.57 316.048 1353 336.536 1352.46" fill="none" opacity="1" stroke="#cb8d82" stroke-linecap="round" stroke-linejoin="round" stroke-width="2.83986" vectornator:layerName="Curve 393"/>
<path d="M311.873 1354.85C311.873 1354.85 332.416 1342.88 346.389 1346.03" fill="none" opacity="1" stroke="#cb8d82" stroke-linecap="round" stroke-linejoin="round" stroke-width="2.83986" vectornator:layerName="Curve 394"/>
<path d="M482.43 1400.56C482.43 1400.56 490.628 1393.72 495.866 1387.76" fill="none" opacity="1" stroke="#cb8d82" stroke-linecap="round" stroke-linejoin="round" stroke-width="2.83986" vectornator:layerName="Curve 395"/>
<path d="M497.858 1383.97C497.858 1383.97 496.378 1394.05 497.061 1397.89" fill="none" opacity="1" stroke="#cb8d82" stroke-linecap="round" stroke-linejoin="round" stroke-width="2.83986" vectornator:layerName="Curve 396"/>
<path d="M498.428 1403.18C498.428 1403.18 499.737 1398.56 490.401 1395.22" fill="none" opacity="1" stroke="#cb8d82" stroke-linecap="round" stroke-linejoin="round" stroke-width="2.83986" vectornator:layerName="Curve 397"/>
<path d="M507.309 1385.14C507.309 1385.14 507.081 1402.79 504.747 1404.96" fill="none" opacity="1" stroke="#cb8d82" stroke-linecap="round" stroke-linejoin="round" stroke-width="2.83986" vectornator:layerName="Curve 398"/>
<path d="M517.215 1384.86C517.215 1384.86 518.353 1396.94 514.881 1401.4" fill="none" opacity="1" stroke="#cb8d82" stroke-linecap="round" stroke-linejoin="round" stroke-width="2.83986" vectornator:layerName="Curve 399"/>
<path d="M524.331 1384.59C524.331 1384.59 524.73 1394.55 522.054 1399" fill="none" opacity="1" stroke="#cb8d82" stroke-linecap="round" stroke-linejoin="round" stroke-width="2.83986" vectornator:layerName="Curve 400"/>
<path d="M421.774 1315.19C421.774 1315.19 423.208 1319.11 424.058 1320.59C424.414 1321.21 425.601 1320.93 426.018 1320.13C426.595 1319.03 426.441 1317.18 427.24 1317.48C427.519 1317.59 427.666 1317.95 427.79 1318.11C428.211 1318.68 427.873 1319.46 427.866 1320.38C427.864 1320.53 427.909 1320.78 427.928 1320.93C427.928 1320.93 428.22 1320.91 428.531 1320.78C429.818 1320.24 433.228 1318.17 435.538 1311.04C435.538 1311.04 437.645 1296.52 419.518 1296.43C419.518 1296.43 410.243 1298.48 407.77 1305.97C407.77 1305.97 406.26 1312.32 408.675 1314.32C408.675 1314.32 411.19 1318.07 416.927 1316.91L421.774 1315.19Z" fill="#634334" fill-rule="nonzero" opacity="1" stroke="none" vectornator:layerName="Curve 401"/>
<path d="M277.145 1432.17C277.145 1432.17 209.944 1427.64 185.743 1433.33" fill="none" opacity="1" stroke="#000000" stroke-linecap="round" stroke-linejoin="round" stroke-width="6.03331" vectornator:layerName="Curve 402"/>
<path d="M185.815 1435.48L183.078 1463.82C183.078 1463.82 253.543 1458.42 291.541 1460.1" fill="none" opacity="1" stroke="#000000" stroke-linecap="round" stroke-linejoin="round" stroke-width="6.03331" vectornator:layerName="Curve 403"/>
<path d="M293.842 1435.45C293.842 1435.45 293.429 1452.8 295.662 1458.52" fill="none" opacity="1" stroke="#000000" stroke-linecap="round" stroke-linejoin="round" stroke-width="6.03331" vectornator:layerName="Curve 404"/>
<path d="M169.872 1383.47L241.207 1385.72" fill="none" opacity="1" stroke="#000000" stroke-linecap="round" stroke-linejoin="round" stroke-width="6.03331" vectornator:layerName="Curve 405"/>
<path d="M170.366 1384.19L169.788 1405.78" fill="none" opacity="1" stroke="#000000" stroke-linecap="round" stroke-linejoin="round" stroke-width="6.03331" vectornator:layerName="Curve 406"/>
<path d="M170.197 1405.05L244.254 1406.58" fill="none" opacity="1" stroke="#000000" stroke-linecap="round" stroke-linejoin="round" stroke-width="6.03331" vectornator:layerName="Curve 407"/>
<path d="M244.471 1387.69C244.471 1387.69 242.952 1399.79 243.841 1405.12" fill="none" opacity="1" stroke="#000000" stroke-linecap="round" stroke-linejoin="round" stroke-width="6.03331" vectornator:layerName="Curve 408"/>
<path d="M204.871 1546.34L206.517 1522.39" fill="none" opacity="1" stroke="#000000" stroke-linecap="round" stroke-linejoin="round" stroke-width="6.03331" vectornator:layerName="Curve 409"/>
<path d="M208.149 1518.97L264.261 1516.59" fill="none" opacity="1" stroke="#000000" stroke-linecap="round" stroke-linejoin="round" stroke-width="6.03331" vectornator:layerName="Curve 410"/>
<path d="M258.775 1616.88L231.359 1620.21" fill="none" opacity="1" stroke="#000000" stroke-linecap="round" stroke-linejoin="round" stroke-width="6.03331" vectornator:layerName="Curve 411"/>
<path d="M231.295 1621.35L229.686 1660.85" fill="none" opacity="1" stroke="#000000" stroke-linecap="round" stroke-linejoin="round" stroke-width="6.03331" vectornator:layerName="Curve 412"/>
<path d="M233.1 1662.56L366.851 1642.71" fill="none" opacity="1" stroke="#000000" stroke-linecap="round" stroke-linejoin="round" stroke-width="6.03331" vectornator:layerName="Curve 413"/>
<path d="M312.603 1610L410.024 1598.94" fill="none" opacity="1" stroke="#000000" stroke-linecap="round" stroke-linejoin="round" stroke-width="6.03331" vectornator:layerName="Curve 414"/>
<path d="M460.23 1670.17L265.493 1694.49" fill="none" opacity="1" stroke="#000000" stroke-linecap="round" stroke-linejoin="round" stroke-width="6.03331" vectornator:layerName="Curve 415"/>
<path d="M262.781 1696.02L264.758 1717.57" fill="none" opacity="1" stroke="#000000" stroke-linecap="round" stroke-linejoin="round" stroke-width="6.03331" vectornator:layerName="Curve 416"/>
<path d="M267.036 1721.27C267.036 1721.27 404.557 1701.82 463.166 1703.6" fill="none" opacity="1" stroke="#000000" stroke-linecap="round" stroke-linejoin="round" stroke-width="6.03331" vectornator:layerName="Curve 417"/>
<path d="M461.827 1670.2L461.74 1702.53" fill="none" opacity="1" stroke="#000000" stroke-linecap="round" stroke-linejoin="round" stroke-width="6.03331" vectornator:layerName="Curve 418"/>
<path d="M482.416 1444.44L569.396 1453.1" fill="none" opacity="1" stroke="#000000" stroke-linecap="round" stroke-linejoin="round" stroke-width="6.03331" vectornator:layerName="Curve 419"/>
<path d="M477.723 1445.86C477.723 1445.86 464.064 1517.03 464.661 1522.69" fill="none" opacity="1" stroke="#000000" stroke-linecap="round" stroke-linejoin="round" stroke-width="6.03331" vectornator:layerName="Curve 420"/>
<path d="M464.188 1523.3C464.188 1523.3 496.671 1525.71 570.522 1541.41" fill="none" opacity="1" stroke="#000000" stroke-linecap="round" stroke-linejoin="round" stroke-width="6.03331" vectornator:layerName="Curve 421"/>
<path d="M159.471 1285.02L142.616 1285.18L142.576 1299" fill="none" opacity="1" stroke="#000000" stroke-linecap="round" stroke-linejoin="round" stroke-width="6.03331" vectornator:layerName="Curve 422"/>
<path d="M282.837 1293.39L316.26 1295.91L314.055 1349.92" fill="none" opacity="1" stroke="#000000" stroke-linecap="round" stroke-linejoin="round" stroke-width="6.03331" vectornator:layerName="Curve 423"/>
<path d="M145.393 1357.05L210.166 1356.45" fill="none" opacity="1" stroke="#000000" stroke-linecap="round" stroke-linejoin="round" stroke-width="6.03331" vectornator:layerName="Curve 424"/>
<path d="M316.998 1282.69L131.607 1272.37L132.392 1367.97L304.215 1362.91" fill="none" opacity="1" stroke="#000000" stroke-linecap="round" stroke-linejoin="round" stroke-width="6.03331" vectornator:layerName="Curve 425"/>
<path d="M326.308 1283.8L324.3 1346.1" fill="none" opacity="1" stroke="#000000" stroke-linecap="round" stroke-linejoin="round" stroke-width="6.03331" vectornator:layerName="Curve 426"/>
</g>
</svg>
