<?xml version="1.0" encoding="UTF-8" standalone="no"?>
<!DOCTYPE svg PUBLIC "-//W3C//DTD SVG 1.1//EN" "http://www.w3.org/Graphics/SVG/1.1/DTD/svg11.dtd">
<!-- Created with Vectornator (http://vectornator.io/) -->
<svg height="100%" stroke-miterlimit="10" style="fill-rule:nonzero;clip-rule:evenodd;stroke-linecap:round;stroke-linejoin:round;" version="1.1" viewBox="444.121 477.496 723.358 62.0762" width="100%" xml:space="preserve" xmlns="http://www.w3.org/2000/svg" xmlns:vectornator="http://vectornator.io" xmlns:xlink="http://www.w3.org/1999/xlink">
<defs/>
<g id="Layer-14" vectornator:layerName="Layer 14">
<path d="M577.653 506.487L604.52 506.674L626.187 486.777" fill="none" opacity="1" stroke="#000000" stroke-linecap="butt" stroke-linejoin="round" stroke-width="5.55652" vectornator:layerName="Curve 1"/>
<path d="M604.674 506.929L625.707 526.403" fill="none" opacity="1" stroke="#000000" stroke-linecap="butt" stroke-linejoin="round" stroke-width="5.55652" vectornator:layerName="Curve 2"/>
<path d="M625.782 481.276C625.782 481.276 766.546 491.021 920.684 484.279C920.684 484.279 1049.48 474.379 1167.48 479.556L1106.97 507.127L1164.19 536.746C1164.19 536.746 1110.72 530.56 1036.62 530.445C980.884 530.359 910.923 535.737 857.528 538.461C857.528 538.461 807.209 540.422 732.939 539.133C708.032 538.7 651.133 536.542 651.133 536.542C651.133 536.542 635.547 535.784 627.595 535.343" fill="#eff3f4" fill-rule="nonzero" opacity="1" stroke="none" vectornator:layerName="Curve 3"/>
<path d="M625.791 480.274L625.68 536.545" fill="none" opacity="1" stroke="#884b5b" stroke-linecap="butt" stroke-linejoin="round" stroke-width="5.55652" vectornator:layerName="Curve 4"/>
<g fill="#ffffff" opacity="1" stroke="none" vectornator:layerName="Text 1"/>
<g fill="#000000" opacity="0.982558" stroke="none" vectornator:layerName="Curve 2">
<path d="M744.07 495.181C744.066 495.368 744.003 495.539 743.882 495.692C743.76 495.845 743.63 495.92 743.489 495.916C742.33 495.996 741.375 496.343 740.625 496.957C739.874 497.571 739.086 498.759 738.259 500.52L725.62 527.141C725.536 527.389 725.314 527.509 724.954 527.5C724.673 527.492 724.458 527.362 724.308 527.108L717.963 512.923L709.895 526.74C709.733 526.986 709.511 527.105 709.23 527.098C708.886 527.089 708.663 526.959 708.56 526.706L697.506 499.48C696.815 497.789 696.071 496.602 695.276 495.917C694.48 495.232 693.358 494.793 691.909 494.6C691.784 494.597 691.668 494.527 691.563 494.392C691.457 494.256 691.406 494.102 691.41 493.93C691.421 493.493 691.552 493.277 691.802 493.284C692.849 493.31 693.941 493.385 695.079 493.508C696.139 493.629 697.138 493.701 698.075 493.725C699.028 493.75 700.154 493.731 701.453 493.671C702.815 493.612 704.019 493.596 705.066 493.622C705.316 493.629 705.435 493.851 705.424 494.288C705.413 494.726 705.329 494.942 705.173 494.938C704.124 494.99 703.293 495.234 702.68 495.672C702.067 496.11 701.751 496.696 701.733 497.43C701.723 497.805 701.836 498.277 702.072 498.846L711.214 521.005L716.987 510.74L712.129 499.853C711.257 497.908 710.531 496.65 709.951 496.08C709.372 495.511 708.482 495.148 707.282 494.992C707.173 494.989 707.069 494.92 706.971 494.785C706.873 494.649 706.826 494.496 706.83 494.324C706.841 493.887 706.956 493.671 707.175 493.676C708.222 493.703 709.181 493.774 710.054 493.89C710.895 494.006 711.792 494.075 712.745 494.1C713.683 494.124 714.676 494.102 715.725 494.035C716.806 493.969 717.869 493.949 718.916 493.976C719.166 493.982 719.285 494.204 719.274 494.642C719.263 495.079 719.179 495.296 719.023 495.292C716.926 495.379 715.864 495.946 715.837 496.993C715.825 497.461 716.049 498.194 716.508 499.191L719.73 506.167L723.266 499.949C723.757 499.071 724.011 498.327 724.026 497.718C724.063 496.28 723.036 495.488 720.945 495.341C720.757 495.336 720.669 495.115 720.68 494.678C720.684 494.521 720.735 494.374 720.832 494.236C720.929 494.098 721.025 494.03 721.119 494.032C721.869 494.051 722.789 494.122 723.88 494.243C724.925 494.364 725.783 494.433 726.455 494.45C726.939 494.462 727.651 494.441 728.59 494.387C729.78 494.308 730.774 494.279 731.571 494.299C731.758 494.304 731.847 494.494 731.838 494.869C731.825 495.369 731.647 495.614 731.303 495.605C730.081 495.699 729.092 496.01 728.336 496.538C727.58 497.066 726.623 498.284 725.464 500.193L720.752 508.398L726.528 520.974L736.061 500.276C736.393 499.519 736.567 498.819 736.584 498.179C736.623 496.648 735.597 495.809 733.506 495.662C733.318 495.657 733.23 495.436 733.241 494.998C733.252 494.561 733.399 494.346 733.68 494.353C734.445 494.372 735.35 494.442 736.395 494.563C737.361 494.681 738.172 494.749 738.828 494.766C739.516 494.783 740.314 494.757 741.222 494.686C742.162 494.616 743.007 494.591 743.757 494.61C743.975 494.616 744.08 494.806 744.07 495.181Z"/>
<path d="M764.542 514.424C764.532 514.862 764.245 515.074 763.682 515.06L750.84 514.739C750.725 515.58 750.656 516.454 750.634 517.36C750.571 519.876 751.12 521.824 752.282 523.205C753.443 524.586 755.125 525.305 757.328 525.36C758.438 525.387 759.562 525.118 760.702 524.553C761.842 523.987 762.767 523.252 763.477 522.347L763.595 522.303C763.736 522.307 763.871 522.396 763.999 522.571C764.128 522.747 764.189 522.951 764.183 523.186C764.175 523.514 763.658 524.185 762.632 525.199C761.606 526.213 760.501 526.979 759.315 527.496C758.13 528.014 756.897 528.257 755.615 528.225C752.803 528.154 750.462 527.064 748.592 524.954C746.722 522.844 745.824 520.289 745.899 517.289C745.975 514.227 746.981 511.657 748.917 509.579C750.853 507.501 753.266 506.498 756.156 506.57C758.578 506.631 760.593 507.475 762.201 509.102C763.81 510.728 764.59 512.503 764.542 514.424ZM760.329 512.256C760.358 511.084 759.98 510.101 759.195 509.308C758.409 508.514 757.384 508.102 756.118 508.07C754.915 508.04 753.86 508.518 752.952 509.504C752.044 510.489 751.414 511.799 751.06 513.431L757.58 513.406C758.565 513.415 759.266 513.339 759.684 513.178C760.103 513.016 760.317 512.709 760.329 512.256Z"/>
<path d="M782.877 527.493C782.866 527.931 782.736 528.146 782.486 528.14C781.845 528.124 781.026 528.065 780.028 527.962C778.905 527.857 777.961 527.794 777.195 527.775C776.445 527.757 775.515 527.773 774.404 527.824C773.402 527.877 772.581 527.896 771.94 527.881C771.69 527.874 771.57 527.653 771.581 527.215C771.591 526.825 771.721 526.617 771.972 526.592C773.304 526.468 774.175 526.173 774.585 525.706C774.995 525.24 775.219 524.241 775.257 522.709L775.793 500.938C775.824 499.673 775.688 498.841 775.385 498.442C775.082 498.044 774.37 497.769 773.248 497.616C772.999 497.579 772.879 497.38 772.888 497.021C772.897 496.646 773.026 496.461 773.276 496.468C774.927 496.086 776.282 495.67 777.341 495.219C778.399 494.769 779.065 494.382 779.339 494.061C779.499 493.893 779.673 493.811 779.861 493.816C780.298 493.827 780.514 493.957 780.508 494.207C780.172 497.7 779.98 500.416 779.932 502.353L779.428 522.812C779.39 524.343 779.561 525.352 779.94 525.838C780.319 526.324 781.178 526.662 782.518 526.851C782.767 526.889 782.887 527.103 782.877 527.493Z"/>
<path d="M808.162 511.554C808.131 512.835 807.475 513.46 806.193 513.429C805.647 513.416 805.2 513.288 804.854 513.045C804.509 512.802 804.165 512.286 803.825 511.496C803.426 510.564 802.991 509.948 802.522 509.647C802.052 509.346 801.435 509.187 800.669 509.168C798.778 509.122 797.318 509.872 796.288 511.419C795.258 512.965 794.706 515.245 794.633 518.261C794.572 520.776 795.148 522.819 796.36 524.388C797.573 525.957 799.226 526.767 801.32 526.818C803.694 526.875 805.595 526.179 807.022 524.728L807.14 524.684C807.28 524.688 807.415 524.781 807.543 524.964C807.672 525.147 807.733 525.348 807.728 525.566C807.721 525.879 807.251 526.407 806.318 527.15C805.385 527.894 804.371 528.447 803.276 528.812C802.181 529.176 801.024 529.343 799.805 529.314C797.009 529.246 794.639 528.161 792.697 526.058C790.755 523.955 789.822 521.333 789.898 518.193C789.973 515.084 791.079 512.535 793.214 510.547C795.349 508.558 797.846 507.599 800.705 507.668C802.815 507.719 804.591 508.126 806.034 508.888C807.477 509.65 808.186 510.539 808.162 511.554Z"/>
<path d="M837.785 519.461C837.735 522.571 836.681 525.113 834.625 527.088C832.569 529.063 829.931 530.025 826.712 529.972C823.493 529.92 820.884 528.869 818.886 526.821C816.887 524.772 815.913 522.2 815.963 519.106C816.014 515.966 817.08 513.369 819.161 511.316C821.242 509.263 823.876 508.263 827.064 508.314C830.268 508.367 832.868 509.448 834.866 511.56C836.863 513.671 837.836 516.305 837.785 519.461ZM833.075 519.338C833.121 516.478 832.607 514.184 831.534 512.455C830.46 510.726 828.962 509.846 827.04 509.815C825.133 509.784 823.611 510.618 822.474 512.319C821.337 514.02 820.745 516.293 820.699 519.137C820.653 521.965 821.163 524.22 822.23 525.902C823.297 527.584 824.799 528.441 826.736 528.472C828.674 528.504 830.203 527.704 831.324 526.073C832.445 524.443 833.028 522.197 833.075 519.338Z"/>
<path d="M882.653 525.859C882.686 526.295 882.578 526.523 882.329 526.542C881.705 526.589 880.938 526.6 880.027 526.575C879.023 526.556 878.131 526.577 877.352 526.636C876.588 526.693 875.711 526.807 874.721 526.976C873.824 527.137 873.056 527.243 872.417 527.291C872.168 527.31 872.027 527.101 871.994 526.665C871.964 526.275 872.073 526.055 872.32 526.005C873.37 525.8 874.041 525.444 874.332 524.936C874.622 524.428 874.709 523.403 874.593 521.86L874.003 514.053C873.87 512.292 873.438 511.035 872.707 510.283C871.976 509.532 870.894 509.21 869.46 509.318C867.575 509.461 866.065 510.217 864.93 511.588L865.757 522.528C865.873 524.071 866.121 525.071 866.501 525.528C866.88 525.985 867.604 526.236 868.674 526.281C868.925 526.293 869.066 526.494 869.095 526.884C869.128 527.32 869.02 527.548 868.771 527.566C868.147 527.614 867.419 527.622 866.586 527.59C865.675 527.565 864.846 527.581 864.098 527.638C863.319 527.696 862.473 527.807 861.56 527.97C860.741 528.126 860.02 528.228 859.397 528.275C859.148 528.294 859.007 528.085 858.974 527.649C858.944 527.259 859.053 527.039 859.3 526.989C860.366 526.783 861.048 526.426 861.346 525.918C861.645 525.409 861.736 524.384 861.619 522.841L861.029 515.033C860.897 513.288 860.458 512.036 859.711 511.277C858.964 510.519 857.874 510.194 856.44 510.302C855.536 510.371 854.75 510.602 854.083 510.998C853.415 511.393 852.717 512.057 851.988 512.99L852.783 523.509C852.9 525.052 853.144 526.052 853.516 526.51C853.887 526.967 854.615 527.218 855.7 527.261C855.952 527.274 856.092 527.475 856.122 527.864C856.155 528.301 856.046 528.528 855.797 528.547C855.158 528.595 854.375 528.607 853.449 528.583C852.429 528.567 851.537 528.587 850.774 528.645C849.994 528.704 849.11 528.817 848.119 528.986C847.238 529.147 846.478 529.251 845.839 529.3C845.59 529.319 845.449 529.11 845.416 528.673C845.386 528.284 845.495 528.064 845.742 528.014C847.054 527.742 847.883 527.359 848.229 526.862C848.576 526.366 848.691 525.354 848.576 523.827L847.922 515.178C847.828 513.931 847.606 513.125 847.257 512.759C846.908 512.394 846.191 512.19 845.107 512.146C844.857 512.165 844.717 511.972 844.687 511.567C844.659 511.193 844.769 510.996 845.018 510.977C846.532 510.471 847.784 509.934 848.776 509.365C849.767 508.797 850.383 508.346 850.625 508.015C850.767 507.816 850.931 507.709 851.118 507.695C851.554 507.662 851.782 507.771 851.801 508.02L851.836 510.979C853.923 508.721 855.932 507.52 857.864 507.373C860.825 507.15 862.921 508.135 864.153 510.331C866.35 507.876 868.578 506.564 870.838 506.393C872.973 506.232 874.682 506.714 875.966 507.839C877.25 508.964 877.97 510.556 878.126 512.613L878.801 521.542C878.916 523.069 879.182 524.052 879.599 524.491C880.017 524.93 880.894 525.185 882.231 525.256C882.483 525.268 882.624 525.469 882.653 525.859Z"/>
<path d="M907.32 511.473C907.345 511.91 907.076 512.144 906.514 512.175L893.688 512.895C893.642 513.742 893.644 514.619 893.695 515.524C893.836 518.036 894.541 519.934 895.81 521.216C897.079 522.499 898.814 523.079 901.014 522.956C902.122 522.893 903.221 522.534 904.311 521.878C905.402 521.223 906.264 520.415 906.899 519.456L907.014 519.403C907.154 519.395 907.295 519.473 907.438 519.637C907.58 519.801 907.658 520 907.671 520.234C907.689 520.562 907.228 521.273 906.288 522.366C905.347 523.46 904.307 524.313 903.167 524.924C902.028 525.536 900.818 525.878 899.539 525.95C896.73 526.107 894.308 525.21 892.273 523.258C890.239 521.306 889.137 518.832 888.969 515.836C888.798 512.777 889.593 510.135 891.354 507.907C893.115 505.679 895.439 504.485 898.326 504.323C900.745 504.187 902.821 504.865 904.556 506.357C906.291 507.848 907.213 509.554 907.32 511.473ZM902.945 509.652C902.879 508.482 902.423 507.533 901.576 506.806C900.729 506.078 899.674 505.75 898.41 505.821C897.209 505.888 896.195 506.45 895.37 507.506C894.545 508.562 894.022 509.917 893.802 511.573L900.298 511.021C901.28 510.951 901.973 510.818 902.377 510.623C902.781 510.428 902.97 510.104 902.945 509.652Z"/>
<path d="M959.345 514.37C959.53 517.255 958.711 519.629 956.888 521.492C955.066 523.355 952.556 524.389 949.359 524.594C948.314 524.66 946.829 524.709 944.905 524.738C943.074 524.761 941.683 524.803 940.731 524.864C939.78 524.925 938.504 525.054 936.904 525.25C935.241 525.451 933.887 525.584 932.842 525.651C932.593 525.667 932.454 525.457 932.426 525.02C932.401 524.63 932.512 524.412 932.76 524.364C934.633 524.025 935.893 523.592 936.541 523.065C937.188 522.538 937.465 521.55 937.373 520.099L935.963 498.085C935.893 496.993 935.707 496.234 935.406 495.807C935.104 495.38 934.602 495.06 933.9 494.846C933.197 494.633 932.178 494.491 930.842 494.42C930.593 494.435 930.454 494.225 930.426 493.788C930.398 493.352 930.509 493.125 930.758 493.109C931.803 493.043 933.085 493.007 934.604 493.004C936.06 493.005 937.264 492.975 938.216 492.914C939.167 492.853 940.412 492.726 941.95 492.534C943.581 492.335 944.92 492.203 945.965 492.136C948.881 491.949 951.281 492.492 953.163 493.765C955.046 495.039 956.06 496.814 956.206 499.091C956.307 500.682 955.74 502.21 954.502 503.675C953.265 505.14 951.686 506.153 949.764 506.715C952.56 507.084 954.823 507.949 956.555 509.31C958.286 510.671 959.216 512.358 959.345 514.37ZM951.012 499.423C950.88 497.365 950.276 495.884 949.201 494.982C948.125 494.08 946.519 493.698 944.382 493.834L943.446 493.894C941.481 494.02 940.553 494.925 940.66 496.61L941.312 506.786L944.681 506.571C947.052 506.419 948.737 505.782 949.738 504.661C950.739 503.54 951.164 501.794 951.012 499.423ZM954.198 514.7C954.054 512.454 953.302 510.732 951.941 509.535C950.581 508.338 948.769 507.812 946.508 507.957L941.408 508.284L942.145 519.794C942.236 521.213 942.704 522.158 943.548 522.628C944.393 523.099 945.797 523.271 947.762 523.145C949.806 523.015 951.427 522.171 952.627 520.614C953.827 519.057 954.351 517.086 954.198 514.7Z"/>
<path d="M983.167 522.502C982.293 522.546 981.521 522.371 980.851 521.975C980.181 521.578 979.711 521.019 979.439 520.298C977.857 522.1 975.716 523.07 973.015 523.208C971.611 523.28 970.441 522.905 969.508 522.084C968.574 521.263 968.074 520.205 968.008 518.91C967.844 515.71 971.505 512.926 978.989 510.556L978.943 506.897L978.937 506.78C978.88 505.656 978.557 504.776 977.969 504.141C977.381 503.506 976.627 503.212 975.706 503.259C974.785 503.306 974.016 503.569 973.399 504.046C972.781 504.524 972.482 505.098 972.501 505.77C972.536 506.77 972.315 507.564 971.836 508.151C971.357 508.739 970.697 509.055 969.854 509.098C969.354 509.123 968.941 508.996 968.614 508.715C968.287 508.434 968.11 508.044 968.085 507.545C968.023 506.343 969.051 505.027 971.169 503.597C973.287 502.166 975.282 501.403 977.155 501.307C978.841 501.221 980.232 501.651 981.329 502.597C982.426 503.542 983.017 504.858 983.103 506.543L983.117 506.824L983.33 517.423L983.338 517.587C983.422 519.226 983.994 520.018 985.056 519.964C985.571 519.938 986.156 519.595 986.811 518.936L986.972 518.881C987.097 518.874 987.218 518.95 987.336 519.108C987.454 519.267 987.517 519.44 987.527 519.627C987.55 520.079 987.106 520.658 986.195 521.361C985.284 522.065 984.275 522.445 983.167 522.502ZM979.023 512.151C974.518 513.413 972.327 515.231 972.448 517.603C972.561 519.82 973.476 520.884 975.193 520.796C976.02 520.754 976.825 520.506 977.608 520.051C978.39 519.596 978.907 519.058 979.156 518.434L979.023 512.151Z"/>
<path d="M1011.25 503.445C1011.3 504.726 1010.69 505.393 1009.41 505.448C1008.87 505.471 1008.41 505.373 1008.05 505.154C1007.69 504.935 1007.31 504.442 1006.92 503.677C1006.46 502.773 1005.98 502.188 1005.5 501.919C1005.01 501.65 1004.38 501.532 1003.62 501.565C1001.73 501.645 1000.32 502.491 999.394 504.103C998.469 505.714 998.071 508.027 998.199 511.04C998.307 513.554 999.017 515.553 1000.33 517.038C1001.65 518.523 1003.35 519.221 1005.44 519.132C1007.82 519.031 1009.67 518.209 1010.99 516.667L1011.11 516.615C1011.25 516.609 1011.39 516.693 1011.53 516.867C1011.67 517.04 1011.74 517.237 1011.75 517.455C1011.77 517.768 1011.33 518.326 1010.45 519.13C1009.57 519.934 1008.6 520.554 1007.53 520.991C1006.46 521.427 1005.32 521.671 1004.1 521.723C1001.3 521.842 998.866 520.917 996.788 518.949C994.71 516.98 993.604 514.427 993.47 511.288C993.338 508.181 994.271 505.564 996.269 503.438C998.266 501.312 1000.69 500.188 1003.55 500.066C1005.66 499.976 1007.46 500.263 1008.95 500.927C1010.44 501.591 1011.21 502.431 1011.25 503.445Z"/>
<path d="M1044.36 518.876C1044.38 519.313 1044.26 519.536 1044.01 519.544C1043.38 519.565 1042.58 519.545 1041.59 519.484C1040.51 519.426 1039.59 519.409 1038.82 519.435C1038.06 519.46 1037.1 519.539 1035.94 519.671C1034.87 519.8 1034.02 519.875 1033.39 519.896C1033.14 519.904 1033.01 519.69 1033 519.252C1032.99 518.862 1033.1 518.647 1033.35 518.607C1033.76 518.547 1034.04 518.459 1034.21 518.344C1034.38 518.229 1034.46 518.016 1034.45 517.703C1034.43 517.235 1033.65 516.229 1032.1 514.685L1028.21 510.639C1027.89 510.337 1027.46 510.195 1026.93 510.212L1027.08 514.851C1027.13 516.226 1027.33 517.197 1027.68 517.763C1028.04 518.33 1028.68 518.653 1029.6 518.732C1029.85 518.755 1029.99 518.961 1030 519.352C1030.01 519.789 1029.9 520.012 1029.65 520.02C1028.97 520.043 1028.1 520.025 1027.02 519.967C1025.98 519.907 1025.17 519.887 1024.58 519.907C1023.9 519.929 1023.09 520.003 1022.14 520.128C1021.24 520.252 1020.49 520.324 1019.9 520.343C1019.65 520.352 1019.52 520.137 1019.5 519.7C1019.49 519.309 1019.61 519.094 1019.86 519.055C1021.16 518.871 1022.01 518.534 1022.38 518.045C1022.75 517.555 1022.92 516.537 1022.86 514.991L1022.14 493.225C1022.1 491.96 1021.92 491.137 1021.6 490.757C1021.29 490.376 1020.57 490.142 1019.46 490.054C1019.21 490.031 1019.08 489.84 1019.06 489.48C1019.05 489.074 1019.17 488.867 1019.42 488.859C1022.07 488.145 1024.02 487.252 1025.26 486.179C1025.49 485.984 1025.68 485.883 1025.84 485.878C1026.28 485.864 1026.5 485.981 1026.51 486.231C1026.34 488.801 1026.31 491.523 1026.4 494.397L1026.89 508.9C1027.45 508.882 1027.89 508.718 1028.21 508.411L1031.59 504.992C1031.69 504.879 1031.87 504.709 1032.11 504.482C1033.37 503.267 1033.99 502.379 1033.97 501.817C1033.95 501.41 1033.32 501.15 1032.07 501.035C1031.82 501.012 1031.68 500.798 1031.67 500.392C1031.65 499.954 1031.77 499.731 1032.02 499.723C1032.68 499.701 1033.51 499.721 1034.51 499.781C1035.44 499.845 1036.2 499.866 1036.81 499.846C1037.26 499.831 1037.85 499.772 1038.56 499.67C1039.44 499.532 1040.22 499.452 1040.9 499.429C1041.15 499.421 1041.28 499.635 1041.3 500.072C1041.31 500.479 1041.19 500.701 1040.95 500.741C1039.81 500.904 1038.82 501.202 1037.98 501.636C1037.15 502.071 1036.02 502.952 1034.61 504.281L1030.7 507.976L1037.06 514.521C1038.41 515.899 1039.53 516.839 1040.44 517.341C1041.35 517.842 1042.52 518.147 1043.97 518.256C1044.22 518.279 1044.35 518.485 1044.36 518.876Z"/>
<path d="M1057.92 488.675L1055.81 509.106C1055.76 509.511 1055.49 509.709 1055.01 509.701C1054.51 509.692 1054.26 509.484 1054.27 509.078L1052.9 488.514C1052.91 488.014 1053.15 487.601 1053.63 487.273C1054.1 486.945 1054.7 486.788 1055.42 486.801C1056.15 486.814 1056.75 486.993 1057.22 487.338C1057.69 487.682 1057.92 488.128 1057.92 488.675ZM1057.35 517.433C1057.34 518.121 1057.09 518.702 1056.59 519.178C1056.1 519.654 1055.51 519.885 1054.82 519.873C1054.14 519.861 1053.55 519.608 1053.08 519.115C1052.6 518.622 1052.37 518.031 1052.38 517.344C1052.4 516.641 1052.65 516.047 1053.14 515.564C1053.64 515.08 1054.23 514.845 1054.91 514.857C1055.62 514.87 1056.2 515.126 1056.67 515.627C1057.14 516.128 1057.36 516.73 1057.35 517.433Z"/>
</g>
<path d="M555.798 498.686C555.798 498.686 573.869 462.322 581.462 490.09C581.462 490.09 589.809 503.627 576.816 506.517C576.816 506.517 570.158 509.408 558.837 509.909C558.837 509.909 467.727 529.958 450.392 511.725C450.392 511.725 449.199 508.736 452.018 506.938C452.018 506.938 451.49 505.282 464.588 505.708C464.588 505.708 487.579 510.62 504.07 505.605C504.07 505.605 503.887 503.696 503.162 502.194C502.403 500.623 498.315 498.78 494.752 497.749" fill="#fddf19" fill-rule="nonzero" opacity="1" stroke="none" vectornator:layerName="Curve 1"/>
<path d="M578.527 505.796L574.615 506.93L577.495 509.978L578.527 505.796Z" fill="#facd21" fill-rule="nonzero" opacity="1" stroke="none" vectornator:layerName="Curve 2"/>
<path d="M489.941 498.681L491.084 508.107C491.084 508.107 506.357 507.517 504.106 503.493C504.106 503.493 503.145 498.263 489.941 498.681Z" fill="none" opacity="1" stroke="#216f8c" stroke-linecap="butt" stroke-linejoin="round" stroke-width="5.55652" vectornator:layerName="Curve 1"/>
<path d="M466.087 505.298C466.087 505.298 469.463 507.861 471.687 508.29L479.833 498.204L490.202 498.649" fill="none" opacity="1" stroke="#216f8c" stroke-linecap="butt" stroke-linejoin="round" stroke-width="5.55652" vectornator:layerName="Curve 2"/>
<path d="M472.129 507.632C472.129 507.632 489.941 508.145 491.262 508.14" fill="none" opacity="1" stroke="#216f8c" stroke-linecap="butt" stroke-linejoin="round" stroke-width="5.55652" vectornator:layerName="Curve 3"/>
<path d="M466.087 506.256C466.087 506.256 471.978 498.669 476.692 498.133L480.821 498.203" fill="none" opacity="1" stroke="#216f8c" stroke-linecap="butt" stroke-linejoin="round" stroke-width="5.55652" vectornator:layerName="Curve 4"/>
<path d="M449.625 507.679L487.644 507.857L574.615 506.93C574.615 506.93 519.818 519.137 449.45 511.365" fill="#f5891d" fill-rule="nonzero" opacity="1" stroke="none" vectornator:layerName="Curve 2"/>
<path d="M476.533 519.134L476.427 524.726C476.427 524.726 478.046 523.992 479.614 525.465C479.614 525.465 486.226 522.129 486.189 519.383" fill="#da8322" fill-rule="nonzero" opacity="1" stroke="none" vectornator:layerName="Curve 3"/>
<path d="M558.754 503.09L576.301 502.887C576.301 502.887 560.761 505.032 558.754 503.09Z" fill="#da8322" fill-rule="nonzero" opacity="1" stroke="none" vectornator:layerName="Curve 4"/>
<path d="M448.261 527.77C448.261 527.77 444.536 509.282 450.619 491.682" fill="#000000" fill-rule="nonzero" opacity="1" stroke="none" vectornator:layerName="Curve 1"/>
<path d="M576.301 511.486C576.301 510.514 577.298 509.726 578.527 509.726C579.756 509.726 580.753 510.514 580.753 511.486C580.753 512.458 579.756 513.246 578.527 513.246C577.298 513.246 576.301 512.458 576.301 511.486Z" fill="#000000" fill-rule="nonzero" opacity="1" stroke="none" vectornator:layerName="Oval 1"/>
<path d="M447.641 511.81C447.641 511.81 439.736 510 447.619 508.104" fill="#000000" fill-rule="nonzero" opacity="1" stroke="none" vectornator:layerName="Curve 3"/>
<path d="M477.626 497.749L486.565 518.394L494.752 498.052" fill="none" opacity="1" stroke="#ffffff" stroke-linecap="butt" stroke-linejoin="round" stroke-width="5.39954" vectornator:layerName="Curve 1"/>
<path d="M474.827 527.77C474.827 526.292 476.08 525.094 477.626 525.094C479.172 525.094 480.425 526.292 480.425 527.77C480.425 529.247 479.172 530.445 477.626 530.445C476.08 530.445 474.827 529.247 474.827 527.77Z" fill="#facd21" fill-rule="nonzero" opacity="1" stroke="#000000" stroke-linecap="butt" stroke-linejoin="round" stroke-width="5.55652" vectornator:layerName="Oval 1"/>
<path d="M472.882 498.121C471.717 496.482 472.968 494.441 472.968 494.441C484.289 491.091 511.848 496.728 511.848 496.728C511.848 496.728 512.906 497.56 512.11 498.71" fill="#f5891d" fill-rule="nonzero" opacity="1" stroke="none" vectornator:layerName="Curve 1"/>
</g>
</svg>
