<svg xmlns:xlink="http://www.w3.org/1999/xlink" xmlns="http://www.w3.org/2000/svg" xml:space="preserve" viewBox="0 70.9497907949791 378 238.6610878661088" version="1.1" style="max-height: 500px" stroke-miterlimit="10" width="378" height="238.6610878661088">
<defs/>
<g id="Layer-10">
<path stroke="none" opacity="1" fill-rule="nonzero" fill="#f6e9b9" d="M0 71.9143L378 71.9143L378 310L0 310L0 71.9143Z"/>
</g>
<g visibility="hidden" id="Layer-11">
<path stroke="none" opacity="1" fill-rule="nonzero" fill="#ffffff" d="M0 0L378 0L378 71.9143L0 71.9143L0 0Z"/>
</g>
<g id="Layer-5">
<path stroke="none" opacity="1" fill-rule="nonzero" fill="#e08255" d="M187.218 206.411C187.615 206.336 184.81 206.747 184.057 206.965C181.712 207.642 179.82 209.032 178.059 210.683C170.328 217.931 169.887 218.022 169.567 227.931C169.415 232.658 174.123 231.642 175.666 234.413C181.756 245.346 177.372 259.264 190.676 266.098C193.681 267.642 197.588 266.198 200.812 266.561C203.203 266.83 207.078 268.169 209.426 267.268C223.386 261.912 216.959 241.889 222.773 230.573C225.004 226.231 233.465 218.804 228.755 212.61C223.886 206.206 206.219 203.647 199.385 203.654C197.131 203.657 190.422 203.031 188.854 204.745"/>
<path stroke="none" opacity="1" fill-rule="nonzero" fill="#e08255" d="M180.645 206.043C178.162 209.383 173.563 211.693 170.727 214.836C169.122 216.615 166.868 228.399 170.221 227.702C172.914 227.142 179.638 209.655 180.057 207.297"/>
<path stroke="none" opacity="1" fill-rule="nonzero" fill="#e08255" d="M75.8868 261.362C76.1467 258.676 85.2546 249.242 87.8721 248.236"/>
</g>
<g id="Layer-3">
<path stroke="none" opacity="1" fill-rule="nonzero" fill="#407936" d="M146.436 147.341C131.644 137.886 127.026 133.751 125.314 116.011C124.935 112.08 124.236 104.185 128.584 102.354C144.825 95.5135 149.291 114.013 150.281 126.012C150.6 129.877 151.449 134.284 151.043 138.129C150.918 139.319 149.247 144.228 148.962 143.39"/>
<path stroke="none" opacity="1" fill-rule="nonzero" fill="#407936" d="M134.357 153.53C130.524 155.771 126.181 156.532 122.332 158.664C114.757 162.859 98.2652 157.724 100.853 147.095C104.024 134.073 121.902 137.827 129.553 143.448C132.817 145.846 134.995 150.572 136.311 154.185"/>
<path stroke="none" opacity="1" fill-rule="nonzero" fill="#407936" d="M150.005 166.067C146.614 172.326 130.358 176.226 124.435 170.555C118.865 165.221 125.411 159.601 130.806 158.891C133.53 158.533 136.331 157.889 139.064 157.704C144.191 157.356 149.224 163.984 151.944 163.494"/>
<path stroke="none" opacity="1" fill-rule="nonzero" fill="#407936" d="M140.265 178.207C143.969 179.256 140.578 187.316 139.7 189.869C136.823 198.239 128.262 208.703 118.025 207.604C105.603 206.271 103.181 202.297 105.43 191.481C106.17 187.921 108.17 182.741 111.067 180.425C116.88 175.777 126.569 173.733 133.675 175.817C135.907 176.471 138.288 177.648 140.265 178.207Z"/>
<path stroke="none" opacity="1" fill-rule="nonzero" fill="#407936" d="M167.517 160.952C166.587 163.478 162.052 157.17 161.389 156.035C157.459 149.308 154.692 131.639 166.608 130.718C179.486 129.722 169.23 156.301 167.517 160.952Z"/>
<path stroke="none" opacity="1" fill-rule="nonzero" fill="#407936" d="M186.244 147.757C185.793 148.137 182.236 144.173 181.44 143.38C177.55 139.503 175.498 132.076 178.087 127.048C180.104 123.132 186.39 130.098 187.322 132.062C189.563 136.785 187.281 145.829 185.386 150.229"/>
<path stroke="none" opacity="1" fill-rule="nonzero" fill="#407936" d="M184.284 147.978C186.546 153.015 177.604 150.043 175.591 149.265C172.521 148.079 168.86 147.867 166.178 145.832C160.321 141.388 160.095 130.365 166.682 126.249C173.71 121.857 186.226 143.813 183.656 149.78"/>
<path stroke="none" opacity="1" fill-rule="nonzero" fill="#407936" d="M198.584 150.756C197.418 151.34 197.077 148.621 196.223 147.635C194.919 146.131 192.4 145.115 191.583 143.333C187.798 135.074 189.962 117.645 202.802 120.052C219.47 123.178 208.031 146.96 197.235 149.66"/>
<path stroke="none" opacity="1" fill-rule="nonzero" fill="#407936" d="M214.67 121.435C215.217 121.855 216.193 122.992 215.574 123.293C212.285 124.893 203.11 112.929 202.052 110.31C198.722 102.067 199.658 85.3536 211.726 84.7757C217.457 84.5012 218.389 90.2138 219.358 94.605C221.762 105.496 217.935 115.83 213.254 125.688"/>
<path stroke="none" opacity="1" fill-rule="nonzero" fill="#407936" d="M223.489 113.028C220.619 112.996 219.964 106.19 220.336 104.266C221.434 98.5771 223.745 88.1479 230.979 86.2596C234.777 85.2681 236.234 93.3411 236.772 95.4C238.494 101.998 232.401 111.353 226.944 114.594"/>
<path stroke="none" opacity="1" fill-rule="nonzero" fill="#407936" d="M231.48 110.407C230.77 100.602 250.741 91.0549 251.926 101.808C252.771 109.477 236.128 119.8 232.292 111.913"/>
<path stroke="none" opacity="1" fill-rule="nonzero" fill="#407936" d="M229.372 123.444C228.357 123.989 231.521 117.304 234.827 116.277C240.575 114.492 254.128 108.155 256.122 117.651C257.909 126.163 245.713 128.53 239.034 126.787C236.325 126.08 231.252 122.435 229.372 123.444Z"/>
<path stroke="none" opacity="1" fill-rule="nonzero" fill="#407936" d="M219.031 150.571C216.827 151.016 219.064 143.831 219.36 142.503C220.655 136.705 232.753 120.459 239.305 130.747C240.766 133.041 239.852 135.276 239.254 137.716C236.576 148.658 224.254 145.913 216.577 149.737"/>
<path stroke="none" opacity="1" fill-rule="nonzero" fill="#407936" d="M231.536 153.445C233.755 150.441 237.125 145.896 240.973 144.781C246.279 143.243 251.461 141.262 257.169 142.442C263.866 143.826 267.538 153.325 262.467 158.549C257.746 163.413 248.846 164.458 242.445 163.682C237.588 163.093 233.402 162.549 229.031 160.014"/>
<path stroke="none" opacity="1" fill-rule="nonzero" fill="#407936" d="M142.357 123.079C143.014 121.853 145.647 112.611 144.69 111.256"/>
</g>
<g id="Layer-6">
<path stroke="none" opacity="1" fill-rule="nonzero" fill="#996f63" d="M191.375 210.159C188.713 208.382 169.131 217.581 177.753 222.168C180.2 223.47 184.622 222.932 187.367 223.178C197.245 224.062 208.136 225.352 217.366 222.1C224.357 219.637 221.809 211.747 214.969 210.477C210.803 209.703 206.676 208.785 202.466 208.659C200.147 208.59 198.675 209.907 196.715 209.371"/>
</g>
<g id="Layer-2">
<path stroke-width="3.73912" stroke-linejoin="round" stroke-linecap="round" stroke="#000000" opacity="1" fill="none" d="M174.603 140.8C175.261 144.752 183.824 148.914 186.972 150.548C193.639 154.008 200.159 162.339 202.758 169.58C203.945 172.886 204.429 176.209 204.482 179.543C204.675 191.835 199.004 204.282 201.053 216.599"/>
<path stroke-width="3.73912" stroke-linejoin="round" stroke-linecap="round" stroke="#000000" opacity="1" fill="none" d="M202.928 133.89C199.773 144.133 198.754 153.947 200.562 164.812"/>
<path stroke-width="3.73912" stroke-linejoin="round" stroke-linecap="round" stroke="#000000" opacity="1" fill="none" d="M211.546 104.448C214.954 124.935 218.271 141.169 210.763 160.921C209.383 164.551 207.536 172.679 204.46 174.915"/>
<path stroke-width="3.73912" stroke-linejoin="round" stroke-linecap="round" stroke="#000000" opacity="1" fill="none" d="M232.89 135.31C225.66 137.107 215.223 153.997 211.218 160.125"/>
<path stroke-width="3.73912" stroke-linejoin="round" stroke-linecap="round" stroke="#000000" opacity="1" fill="none" d="M247.088 155.027C233.47 158.435 221.063 158.486 210.258 169.142C208.545 170.831 203.61 178.972 204.456 181.974"/>
<path stroke-width="3.73912" stroke-linejoin="round" stroke-linecap="round" stroke="#000000" opacity="1" fill="none" d="M229.081 97.6043C225.893 106.531 225.938 116.96 222.15 125.448C220.723 128.644 218.05 131.106 216.464 134.164"/>
<path stroke-width="3.73912" stroke-linejoin="round" stroke-linecap="round" stroke="#000000" opacity="1" fill="none" d="M225.638 117.796C225.414 118.02 228.237 113.637 229.451 112.733C233.629 109.625 237.588 107.703 242.535 106.29"/>
<path stroke-width="3.73912" stroke-linejoin="round" stroke-linecap="round" stroke="#000000" opacity="1" fill="none" d="M220.904 128.842C225.867 125.864 238.05 119.216 244.048 121.215"/>
<path stroke-width="3.73912" stroke-linejoin="round" stroke-linecap="round" stroke="#000000" opacity="1" fill="none" d="M177.344 181.716C170.427 175.341 168.387 166.822 166.287 158.012C165.516 154.774 165.319 149.593 165.943 146.29C165.98 146.09 166.117 145.627 166.375 145.755"/>
<path stroke-width="3.73912" stroke-linejoin="round" stroke-linecap="round" stroke="#000000" opacity="1" fill="none" d="M131.713 163.347C130.653 164.205 133.997 162.907 135.244 162.876C138.183 162.803 141.14 162.934 144.043 163.545C153.602 165.557 162.999 166.856 169.766 174.475"/>
<path stroke-width="3.73912" stroke-linejoin="round" stroke-linecap="round" stroke="#000000" opacity="1" fill="none" d="M122.885 197.962C120.931 199.916 124.477 193.299 124.991 192.442C127.134 188.87 131.252 185.881 134.434 183.362C145.316 174.747 160.372 172 173.219 178.423"/>
<path stroke-width="3.73912" stroke-linejoin="round" stroke-linecap="round" stroke="#000000" opacity="1" fill="none" d="M111.975 152.053C129.363 146.257 148.183 157.96 161.85 167.982"/>
<path stroke-width="3.73912" stroke-linejoin="round" stroke-linecap="round" stroke="#000000" opacity="1" fill="none" d="M176.533 181.637C175.248 180.388 179.803 183.824 180.462 184.26C183.807 186.479 186.686 188.091 189.681 191.001C194.757 195.932 197.925 204.067 198.788 210.929C198.999 212.606 197.623 215.137 198.18 216.731"/>
<path stroke-width="3.73912" stroke-linejoin="round" stroke-linecap="round" stroke="#000000" opacity="1" fill="none" d="M184.697 135.501C184.213 140.259 184.263 144.319 185.749 148.85"/>
<path stroke-width="3.73912" stroke-linejoin="round" stroke-linecap="round" stroke="#000000" opacity="1" fill="none" d="M134.683 113.976C134.19 113.73 134.428 113.894 133.99 113.456"/>
<path stroke-width="3.73912" stroke-linejoin="round" stroke-linecap="round" stroke="#000000" opacity="1" fill="none" d="M134.406 113.491C140.435 124.862 144.371 137.394 150.128 148.97C152.045 152.824 154.477 156.44 156.495 160.247C157.048 161.29 158.605 165.179 158.456 164.734"/>
<path stroke-width="3.73912" stroke-linejoin="round" stroke-linecap="round" stroke="#000000" opacity="1" fill="none" d="M141.945 114.647C141.595 118.037 141.594 121.596 140.602 125.412"/>
<path stroke-width="3.73912" stroke-linejoin="round" stroke-linecap="round" stroke="#000000" opacity="1" fill="none" d="M137.38 131.313C139.748 132.865 140.097 134.602 143.18 134.309"/>
<path stroke-width="3.73912" stroke-linejoin="round" stroke-linecap="round" stroke="#000000" opacity="1" fill="none" d="M202.364 123.535C202.804 124.416 202.293 136.921 201.696 137.965"/>
<path stroke-width="3.73912" stroke-linejoin="round" stroke-linecap="round" stroke="#000000" opacity="1" fill="none" d="M202.129 135.503C202.056 135.575 204.402 134.345 205.088 133.431C206.739 131.23 207.848 129.569 209.053 127.158"/>
<path stroke-width="3.73912" stroke-linejoin="round" stroke-linecap="round" stroke="#000000" opacity="1" fill="none" d="M195.026 133.786C196.438 135.904 197.299 139.496 200.057 140.415"/>
<path stroke-width="3.73912" stroke-linejoin="round" stroke-linecap="round" stroke="#000000" opacity="1" fill="none" d="M209.252 92.5564C209.187 92.4514 208.621 91.4858 208.859 91.2469C208.883 91.2238 209.37 93.5851 209.383 93.6695C209.556 94.7947 209.723 95.7394 210.038 96.8778C211.093 100.692 211.426 104.969 212.657 108.663"/>
<path stroke-width="3.73912" stroke-linejoin="round" stroke-linecap="round" stroke="#000000" opacity="1" fill="none" d="M205.717 98.2528C206.525 100.274 207.634 103.299 209.973 103.884"/>
<path stroke-width="3.73912" stroke-linejoin="round" stroke-linecap="round" stroke="#000000" opacity="1" fill="none" d="M215.669 103.163C215.669 106.134 214.122 109.44 213.181 112.265"/>
<path stroke-width="3.73912" stroke-linejoin="round" stroke-linecap="round" stroke="#000000" opacity="1" fill="none" d="M229.574 93.3988C228.854 94.1193 229.02 98.3288 228.649 99.6878"/>
<path stroke-width="3.73912" stroke-linejoin="round" stroke-linecap="round" stroke="#000000" opacity="1" fill="none" d="M228.798 101.189C228.645 101.257 229.921 100.557 230.362 99.971C230.966 99.1692 232.365 97.3567 233.309 96.9369"/>
<path stroke-width="3.73912" stroke-linejoin="round" stroke-linecap="round" stroke="#000000" opacity="1" fill="none" d="M223.369 104.423C223.567 105.202 223.71 105.813 224.444 106.206"/>
<path stroke-width="3.73912" stroke-linejoin="round" stroke-linecap="round" stroke="#000000" opacity="1" fill="none" d="M246.447 102.285C246.383 101.764 245.827 103.41 244.931 104.305C243.539 105.693 241.828 106.181 240.271 107.25"/>
<path stroke-width="3.73912" stroke-linejoin="round" stroke-linecap="round" stroke="#000000" opacity="1" fill="none" d="M239.258 105.517C240.09 104.091 240.701 102.543 241.341 101.098"/>
<path stroke-width="3.73912" stroke-linejoin="round" stroke-linecap="round" stroke="#000000" opacity="1" fill="none" d="M240.77 107.557C240.479 106.837 240.146 107.573 240.766 107.996C242.397 109.107 245.147 108.003 246.965 108.249"/>
<path stroke-width="3.73912" stroke-linejoin="round" stroke-linecap="round" stroke="#000000" opacity="1" fill="none" d="M250.532 118.913C248.39 119.701 242.318 119.868 241.394 120.383"/>
<path stroke-width="3.73912" stroke-linejoin="round" stroke-linecap="round" stroke="#000000" opacity="1" fill="none" d="M244.28 121.614C245.374 121.976 246.96 122.901 247.912 123.55"/>
<path stroke-width="3.73912" stroke-linejoin="round" stroke-linecap="round" stroke="#000000" opacity="1" fill="none" d="M240.504 116.15C239.602 116.757 237.79 117.939 237.519 119.164"/>
<path stroke-width="3.73912" stroke-linejoin="round" stroke-linecap="round" stroke="#000000" opacity="1" fill="none" d="M228.458 139.504C227.802 139.094 229.992 139.709 230.763 139.773C232.187 139.89 233.744 139.976 235.135 139.858"/>
<path stroke-width="3.73912" stroke-linejoin="round" stroke-linecap="round" stroke="#000000" opacity="1" fill="none" d="M224.449 135.585C224.799 135.058 222.837 139.642 223.411 140.849"/>
<path stroke-width="3.73912" stroke-linejoin="round" stroke-linecap="round" stroke="#000000" opacity="1" fill="none" d="M257.099 151.258C252.512 152.786 248.715 154.509 244.132 155.622"/>
<path stroke-width="3.73912" stroke-linejoin="round" stroke-linecap="round" stroke="#000000" opacity="1" fill="none" d="M252.981 146.297C251.288 149.075 248.035 150.779 246.687 153.923"/>
<path stroke-width="3.73912" stroke-linejoin="round" stroke-linecap="round" stroke="#000000" opacity="1" fill="none" d="M240.562 158.027C242.526 158.977 244.663 159.729 246.63 160.572"/>
<path stroke-width="3.73912" stroke-linejoin="round" stroke-linecap="round" stroke="#000000" opacity="1" fill="none" d="M140.429 179.313C140.519 179.104 133.862 184.013 132.157 184.792C125.441 187.864 119.783 193.135 114.232 197.84"/>
<path stroke-width="3.73912" stroke-linejoin="round" stroke-linecap="round" stroke="#000000" opacity="1" fill="none" d="M133.322 182.448C130.487 181.235 121.762 182.759 118.987 183.872"/>
<path stroke-width="3.73912" stroke-linejoin="round" stroke-linecap="round" stroke="#000000" opacity="1" fill="none" d="M141.48 164C138.983 163.94 134.617 168.276 132.054 169.25"/>
<path stroke-width="3.73912" stroke-linejoin="round" stroke-linecap="round" stroke="#000000" opacity="1" fill="none" d="M146.128 163.368C145.802 161.987 140.12 160.532 138.338 160.952"/>
<path stroke-width="3.73912" stroke-linejoin="round" stroke-linecap="round" stroke="#000000" opacity="1" fill="none" d="M126.158 150.007C126.299 149.8 119.49 149.203 118.517 149.214C113.446 149.27 108.424 148.238 103.522 149.619"/>
<path stroke-width="3.73912" stroke-linejoin="round" stroke-linecap="round" stroke="#000000" opacity="1" fill="none" d="M126.786 150.869C126.808 149.248 115.558 143.076 115.083 143.339"/>
<path stroke-width="3.73912" stroke-linejoin="round" stroke-linecap="round" stroke="#000000" opacity="1" fill="none" d="M168.805 132.271C169.83 135.148 173.534 141.643 176.316 143.246"/>
<path stroke-width="3.73912" stroke-linejoin="round" stroke-linecap="round" stroke="#000000" opacity="1" fill="none" d="M165.802 140.025C163.722 140.397 169.741 143.345 170.26 143.559C171.153 143.928 172.713 143.407 173.71 143.442"/>
<path stroke-width="3.73912" stroke-linejoin="round" stroke-linecap="round" stroke="#000000" opacity="1" fill="none" d="M175.258 136.001C175.151 136.419 175.193 136.167 175.197 136.766"/>
<path stroke-width="3.73912" stroke-linejoin="round" stroke-linecap="round" stroke="#000000" opacity="1" fill="none" d="M175.448 134.514C175.826 135.453 175.859 136.391 175.637 137.363C175.623 137.424 175.422 138.736 175.29 138.513"/>
<path stroke-width="3.73912" stroke-linejoin="round" stroke-linecap="round" stroke="#000000" opacity="1" fill="none" d="M180.617 128.497C180.627 128.377 180.161 129.387 180.129 129.702C180.023 130.731 179.771 131.657 179.881 132.715C180.123 135.05 181.381 140.226 183.471 141.66"/>
<path stroke-width="3.73912" stroke-linejoin="round" stroke-linecap="round" stroke="#000000" opacity="1" fill="none" d="M182.557 141.616C181.411 140.102 180.235 140.158 179.161 139.206"/>
<path stroke-width="3.73912" stroke-linejoin="round" stroke-linecap="round" stroke="#000000" opacity="1" fill="none" d="M160.519 143.613C160.221 143.213 161.183 152.156 164.304 151.777"/>
<path stroke-width="3.73912" stroke-linejoin="round" stroke-linecap="round" stroke="#000000" opacity="1" fill="none" d="M163.347 150.719C162.415 147.906 160.819 139.393 161.153 136.161"/>
</g>
<g id="Layer-4">
<path stroke-width="3.73912" stroke-linejoin="round" stroke-linecap="butt" stroke="#000000" opacity="1" fill="none" d="M175.55 217.613C175.55 213.301 185.964 209.807 198.811 209.807C211.657 209.807 222.071 213.301 222.071 217.613C222.071 221.924 211.657 225.419 198.811 225.419C185.964 225.419 175.55 221.924 175.55 217.613Z"/>
<path stroke-width="3.73912" stroke-linejoin="round" stroke-linecap="round" stroke="#000000" opacity="1" fill="none" d="M167.643 218.861C167.303 218.843 168.546 226.645 168.654 227.891C168.699 228.407 169.074 230.858 169.011 230.132"/>
<path stroke-width="3.73912" stroke-linejoin="round" stroke-linecap="round" stroke="#000000" opacity="1" fill="none" d="M167.954 219.451C167.27 219.924 169.73 214.482 170.189 213.806C172.299 210.693 179.751 206.892 183.471 206.308C191.388 205.065 195.37 204.907 200.057 204.815C204.452 204.728 209.448 204.56 219.422 207.684C221.128 208.219 222.698 209.018 224.491 210.107C225.526 210.736 227.152 211.338 227.593 212.358"/>
<path stroke-width="3.73912" stroke-linejoin="round" stroke-linecap="round" stroke="#000000" opacity="1" fill="none" d="M227.425 212.611C227.727 210.695 230.18 216.502 230.16 216.887C230.003 219.911 229.121 221.201 228.649 224.191C228.518 225.019 226.688 228.345 227.046 227.655"/>
<path stroke-width="3.73912" stroke-linejoin="round" stroke-linecap="round" stroke="#000000" opacity="1" fill="none" d="M170.21 230.982C168.857 229.915 174.176 233.318 175.862 233.925C180.079 235.445 196.834 237.45 201.299 237.263C207.219 237.015 221.544 234.038 226.744 227.443"/>
<path stroke-width="3.73912" stroke-linejoin="round" stroke-linecap="round" stroke="#000000" opacity="1" fill="none" d="M175.477 234.115C175.694 233.803 176.357 238.792 176.755 240.376C177.97 245.203 179.315 250.62 180.168 255.372C180.487 257.152 181.723 258.333 181.937 259.922C182.018 260.518 182.556 262.02 182.534 261.953"/>
<path stroke-width="3.73912" stroke-linejoin="round" stroke-linecap="round" stroke="#000000" opacity="1" fill="none" d="M223.459 230.297C220.134 241.156 218.659 252.564 215.385 263.258"/>
<path stroke-width="3.73912" stroke-linejoin="round" stroke-linecap="round" stroke="#000000" opacity="1" fill="none" d="M182.74 262.061C182.796 264.33 189.425 266.885 191.264 267.173C199.086 268.397 210.06 269.002 216.031 262.729"/>
</g>
<g id="Layer-8">
<path stroke="none" opacity="1" fill-rule="nonzero" fill="#eab900" d="M189.569 179.589C185.497 184.58 181.802 189.224 176.804 192.819C175.164 193.998 174.345 195.652 172.289 196.378C171.371 196.703 169.723 199.143 170.015 198.214C170.587 196.388 176.848 190.25 175.883 188.403C175.467 187.608 174.805 189.891 174.05 190.377C172.532 191.355 171.644 192.582 170.599 194.028C168.613 196.776 163.08 199.342 160.064 200.918C146.934 207.779 135.699 218.545 122.377 225.506C116.056 228.809 107.23 237.546 100.161 238.685C97.1876 239.164 94.4535 237.232 91.3735 238.841C88.3441 240.424 85.5269 244.37 82.3725 245.485C79.5893 246.468 71.2266 254.539 72.4122 257.895C74.8943 264.921 87.639 244.953 92.1089 249.266C92.4834 249.628 91.3924 251.47 91.0909 251.738C88.3607 254.164 73.6357 265.895 75.5503 269.559C77.0367 272.404 82.1182 268.496 83.6548 268.096C93.241 265.6 97.6305 260.052 104.926 253.286C123.739 235.84 142.737 219.265 164.018 204.95C169.605 201.192 178.278 202.027 183.457 198.303C186.516 196.104 193.12 180.115 189.799 178.083C189.399 177.839 188.439 178.918 188.133 179.139C183.313 182.605 180.521 190.315 175.946 194.006"/>
<path stroke="none" opacity="1" fill-rule="nonzero" fill="#eab900" d="M189.405 178.566C188.817 178.363 190.366 176.274 190.18 176.868C189.203 179.983 180.772 189.29 178.385 193.193C178.37 193.219 177.743 194.34 177.859 194.484C178.275 195.001 179.368 193.782 179.601 193.574C180.921 192.401 193.393 179.95 189.405 178.566Z"/>
</g>
<g id="Layer-7">
<path stroke="none" opacity="1" fill-rule="nonzero" fill="#98701d" d="M86.0175 248.991C84.4241 252.477 81.5954 255.682 78.8554 258.048C77.341 259.356 75.8402 260.064 77.1828 259.678"/>
<path stroke="none" opacity="1" fill-rule="nonzero" fill="#98701d" d="M87.4851 248.464C89.1693 248.777 91.0292 249.508 92.356 250.511"/>
<path stroke-width="3.73912" stroke-linejoin="round" stroke-linecap="round" stroke="#98701d" opacity="1" fill="none" d="M76.656 259.957C75.204 260.451 78.6539 257.63 79.6478 256.462C81.6067 254.16 83.6191 250.744 86.5881 249.734"/>
<path stroke-width="3.73912" stroke-linejoin="round" stroke-linecap="round" stroke="#98701d" opacity="1" fill="none" d="M182.725 198.634C149.175 208.097 124.233 234.582 100.02 258.123C96.452 261.593 80.0743 275.954 75.4958 269.213"/>
<path stroke-width="3.73912" stroke-linejoin="round" stroke-linecap="round" stroke="#98701d" opacity="1" fill="none" d="M177.327 189.357C176.456 193.913 172.332 196.524 169.127 199.442"/>
<path stroke-width="3.73912" stroke-linejoin="round" stroke-linecap="round" stroke="#98701d" opacity="1" fill="none" d="M183.369 198.305C183.369 201.772 195.458 177.002 190.967 177.002"/>
<path stroke-width="3.73912" stroke-linejoin="round" stroke-linecap="round" stroke="#98701d" opacity="1" fill="none" d="M190.425 177.273C191.174 175.775 186.503 182.073 185.676 183.108C182.764 186.747 179.393 190.873 175.635 193.691"/>
<path stroke-width="3.73912" stroke-linejoin="round" stroke-linecap="round" stroke="#98701d" opacity="1" fill="none" d="M176.691 188.535C177.171 187.003 174.247 190.65 172.861 191.46C171.228 192.415 169.825 193.958 168.311 195.131C162.649 199.517 156.862 203.471 150.649 206.946"/>
<path stroke-width="3.73912" stroke-linejoin="round" stroke-linecap="round" stroke="#98701d" opacity="1" fill="none" d="M92.4318 250.945C92.242 250.976 98.7237 246.87 101.117 249.179"/>
<path stroke-width="3.73912" stroke-linejoin="round" stroke-linecap="round" stroke="#98701d" opacity="1" fill="none" d="M76.5165 268.176C75.9661 269.323 83.0333 258.921 86.1775 255.068C86.7789 254.331 90.2681 250.685 90.2141 251.112"/>
<path stroke-width="3.73912" stroke-linejoin="round" stroke-linecap="round" stroke="#98701d" opacity="1" fill="none" d="M74.5257 259.916C68.7248 254.295 89.6327 235.666 93.5825 236.913"/>
<path stroke-width="3.73912" stroke-linejoin="round" stroke-linecap="round" stroke="#98701d" opacity="1" fill="none" d="M95.1389 236.498C95.021 236.461 94.9032 236.424 94.7854 236.387"/>
<path stroke-width="3.73912" stroke-linejoin="round" stroke-linecap="round" stroke="#98701d" opacity="1" fill="none" d="M93.4274 236.994C113.089 236.684 133.403 215.917 149.968 207.305"/>
<path stroke-width="3.73912" stroke-linejoin="round" stroke-linecap="round" stroke="#98701d" opacity="1" fill="none" d="M179.167 171.311C179.714 174.511 180.156 176.841 181.185 179.736"/>
<path stroke-width="3.73912" stroke-linejoin="round" stroke-linecap="round" stroke="#98701d" opacity="1" fill="none" d="M166.511 185.438C168.365 185.511 170.736 184.369 172.074 185.656"/>
</g>
<g id="Layer-9">
<path stroke-width="2.97707" stroke-linejoin="round" stroke-linecap="round" stroke="#000000" opacity="1" fill="none" d="M134.672 10.688C134.425 13.1249 133.498 15.4328 133.349 17.8761C133.323 18.296 133.163 20.8907 133.364 20.673"/>
<path stroke-width="2.97707" stroke-linejoin="round" stroke-linecap="round" stroke="#000000" opacity="1" fill="none" d="M133.989 16.4146C132.338 15.9804 140.575 15.6671 140.375 15.7835"/>
<path stroke-width="2.97707" stroke-linejoin="round" stroke-linecap="round" stroke="#000000" opacity="1" fill="none" d="M141.605 10.8881C140.962 13.4376 140.119 15.9068 139.635 18.4871C139.516 19.1219 139.37 22.351 139.213 21.1879"/>
<path stroke-width="2.97707" stroke-linejoin="round" stroke-linecap="round" stroke="#000000" opacity="1" fill="none" d="M145.941 11.316C145.414 13.6334 144.705 15.8878 144.453 18.2524C144.399 18.7673 143.778 22.5161 143.93 21.3788"/>
<path stroke-width="2.97707" stroke-linejoin="round" stroke-linecap="round" stroke="#000000" opacity="1" fill="none" d="M150.975 11.5041C150.451 13.7673 149.907 15.9836 149.465 18.2708C149.37 18.7662 148.309 22.2771 148.431 21.3593"/>
<path stroke-width="2.97707" stroke-linejoin="round" stroke-linecap="round" stroke="#000000" opacity="1" fill="none" d="M150.885 10.9315C150.183 11.4686 154.451 17.7982 154.784 19.3906C154.826 19.5887 155.732 21.2698 155.715 21.2722C155.311 21.3263 156.548 17.2366 156.569 17.1447C157.05 15.0396 157.327 12.8068 157.572 10.6587C157.647 10.0019 158.198 8.29581 158.105 8.48777"/>
<path stroke-width="2.97707" stroke-linejoin="round" stroke-linecap="round" stroke="#000000" opacity="1" fill="none" d="M169.166 13.5153C169.166 13.534 169.545 12.6771 169.571 12.3698C169.618 11.8083 170.498 9.16879 169.657 9.16831C166.136 9.16627 159.433 17.8029 162.135 20.9085C164.37 23.4778 173.742 19.1468 172.213 17.1062"/>
<path stroke-width="2.97707" stroke-linejoin="round" stroke-linecap="round" stroke="#000000" opacity="1" fill="none" d="M165.714 17.4899C165.588 17.3804 173.974 16.4582 172.18 16.8397"/>
<path stroke-width="2.97707" stroke-linejoin="round" stroke-linecap="round" stroke="#000000" opacity="1" fill="none" d="M183.332 10.7292C181.884 10.198 190.41 11.0035 190.394 10.7239"/>
<path stroke-width="2.97707" stroke-linejoin="round" stroke-linecap="round" stroke="#000000" opacity="1" fill="none" d="M186.463 12.2824C186.36 13.6331 185.458 21.2964 185.702 20.002"/>
<path stroke-width="2.97707" stroke-linejoin="round" stroke-linecap="round" stroke="#000000" opacity="1" fill="none" d="M182.179 20.3793C182.136 20.3867 189.082 21.2427 189.264 20.0555"/>
<path stroke-width="2.97707" stroke-linejoin="round" stroke-linecap="round" stroke="#000000" opacity="1" fill="none" d="M199.588 11.8781C199.846 14.7932 200.203 17.7267 200.324 20.6217C200.327 20.7012 200.484 21.3928 200.599 21.3554C201.849 20.9482 203.842 15.8042 204.756 14.6689C205.385 13.8885 205.839 13.2562 206.171 12.3112C206.326 11.8713 207.162 10.8792 206.718 11.0236C205.443 11.4389 206.405 17.3955 206.498 17.931C206.546 18.2012 206.649 22.2235 207.05 22.1534C207.269 22.1152 207.472 21.4822 207.551 21.2744C208.607 18.5186 209.758 15.8136 210.858 13.0755C211.06 12.5729 212.767 8.63528 212.843 9.27962"/>
<path stroke-width="2.97707" stroke-linejoin="round" stroke-linecap="round" stroke="#000000" opacity="1" fill="none" d="M217.27 10.2358C216.376 12.5353 215.659 14.9643 215.198 17.3887C215.112 17.839 214.041 21.7019 214.316 20.2882"/>
<path stroke-width="2.97707" stroke-linejoin="round" stroke-linecap="round" stroke="#000000" opacity="1" fill="none" d="M221.315 10.0842C222.09 6.60633 220.356 20.7302 220.356 20.7302C220.356 20.7302 227.672 19.679 225.829 19.2687"/>
<path stroke-width="2.97707" stroke-linejoin="round" stroke-linecap="round" stroke="#000000" opacity="1" fill="none" d="M231.746 9.16205C231.818 11.949 229.465 17.6532 230.577 20.114C230.972 20.9878 236.352 19.2086 235.669 20.0486"/>
<path stroke-width="2.97707" stroke-linejoin="round" stroke-linecap="round" stroke="#000000" opacity="1" fill="none" d="M257.412 11.0672C257.309 7.07335 248.789 13.4848 249.4 15.0661C249.74 15.9438 257.323 15.585 257.03 16.9053C256.595 18.8586 248.387 23.1047 249.302 18.9931"/>
<path stroke-width="2.97707" stroke-linejoin="round" stroke-linecap="round" stroke="#000000" opacity="1" fill="none" d="M260.876 11.9792C260.32 11.3988 269.155 10.0916 268.723 10.6231"/>
<path stroke-width="2.97707" stroke-linejoin="round" stroke-linecap="round" stroke="#000000" opacity="1" fill="none" d="M264.654 11.4803C264.347 12.8583 262.919 22.1602 263.546 20.2597"/>
<path stroke-width="2.97707" stroke-linejoin="round" stroke-linecap="round" stroke="#000000" opacity="1" fill="none" d="M277.406 9.94666C274.723 10.9124 266.654 18.0486 271.676 20.1654C281.059 24.1197 281.818 8.35894 277.406 9.94666Z"/>
<path stroke-width="2.97707" stroke-linejoin="round" stroke-linecap="round" stroke="#000000" opacity="1" fill="none" d="M284.053 10.6138C284.305 10.4293 284.051 13.2591 284.011 13.6889C283.865 15.2605 283.432 22.0324 283.241 20.9047"/>
<path stroke-width="2.97707" stroke-linejoin="round" stroke-linecap="round" stroke="#000000" opacity="1" fill="none" d="M285.293 9.89429C286.363 9.83267 292.019 9.46749 291.794 11.6385C291.549 13.9865 282.792 18.7246 284.242 17.2403"/>
<path stroke-width="2.97707" stroke-linejoin="round" stroke-linecap="round" stroke="#000000" opacity="1" fill="none" d="M290.129 20.1481L290.256 20.1678L290.488 20.0735L290.592 19.9594L290.618 19.7899L290.638 19.6627L290.664 19.4932L290.635 19.4018L290.521 19.2974L290.443 19.2419L290.28 19.1732L290.153 19.1535L290.019 19.1762L289.836 19.2348L289.696 19.2999L289.592 19.4139L289.494 19.4855L289.425 19.6485L289.363 19.7691L289.386 19.9028L289.451 20.0431L289.565 20.1476L289.728 20.2162L289.897 20.2425L290.073 20.2263L290.256 20.1678L290.41 20.0179L290.514 19.9039L290.576 19.7833L290.602 19.6138L290.586 19.4377L290.508 19.3821L290.43 19.3266L290.26 19.3004L290.126 19.3231L290.064 19.4437"/>
<path stroke-width="2.97707" stroke-linejoin="round" stroke-linecap="round" stroke="#000000" opacity="1" fill="none" d="M121.397 11.8856C121.321 11.8947 123.395 11.1903 123.916 11.072C125.913 10.6189 127.928 10.4424 129.917 10.0251"/>
<path stroke-width="2.97707" stroke-linejoin="round" stroke-linecap="round" stroke="#000000" opacity="1" fill="none" d="M127.015 10.7543C127.808 9.46134 122.935 20.1431 123.769 20.2151"/>
<path stroke-width="2.97707" stroke-linejoin="round" stroke-linecap="round" stroke="#000000" opacity="1" fill="none" d="M84.3325 10.3927C81.4023 8.77645 73.0932 19.6562 77.9872 21.1961C83.2191 22.8424 89.3573 13.1642 84.3325 10.3927Z"/>
<path stroke-width="2.97707" stroke-linejoin="round" stroke-linecap="round" stroke="#000000" opacity="1" fill="none" d="M91.765 10.5333C90.973 12.6866 88.8835 20.6649 89.0509 20.2513"/>
<path stroke-width="2.97707" stroke-linejoin="round" stroke-linecap="round" stroke="#000000" opacity="1" fill="none" d="M92.7047 10.3505C92.8579 9.69058 92.8202 12.186 93.0719 13.1277C93.6893 15.4372 94.212 17.9622 95.1845 20.1477C95.4347 20.7098 95.799 22.0366 96.2699 21.6406C96.6347 21.3338 97.3492 11.8887 98.5488 9.93146"/>
<path stroke-width="2.97707" stroke-linejoin="round" stroke-linecap="round" stroke="#000000" opacity="1" fill="none" d="M103.393 10.6932C101.972 13.0116 100.393 18.3105 101.986 20.8674"/>
<path stroke-width="2.97707" stroke-linejoin="round" stroke-linecap="round" stroke="#000000" opacity="1" fill="none" d="M103.548 10.4534C103.525 10.9571 109.231 10.0136 110.206 10.0583"/>
<path stroke-width="2.97707" stroke-linejoin="round" stroke-linecap="round" stroke="#000000" opacity="1" fill="none" d="M101.97 16.6056C101.8 16.2745 103.359 16.5896 104.547 16.3866C106.459 16.0599 108.264 16.0134 110.147 15.8652"/>
<path stroke-width="2.97707" stroke-linejoin="round" stroke-linecap="round" stroke="#000000" opacity="1" fill="none" d="M102.814 21.3905C104.157 21.2848 108.574 21.5092 109.708 20.9284"/>
<path stroke-width="2.97707" stroke-linejoin="round" stroke-linecap="round" stroke="#000000" opacity="1" fill="none" d="M295.579 19.0477C295.924 18.8982 295.293 18.9797 295.167 19.4181C294.765 20.8252 296.456 20.8018 296.608 19.5828C296.784 18.1774 294.534 19.5007 295.579 19.0477Z"/>
<path stroke-width="2.97707" stroke-linejoin="round" stroke-linecap="round" stroke="#000000" opacity="1" fill="none" d="M301.548 19.2946L301.548 19.1712L301.548 19.0888L301.465 19.13L301.424 19.2123L301.383 19.3358L301.342 19.4181L301.342 19.5416L301.342 19.6651L301.342 19.7886L301.424 19.9121L301.506 19.9944L301.63 20.0356L301.795 20.0356L301.918 19.9532L302 19.8298L302.165 19.5828L302.165 19.5005L302.165 19.377L302.124 19.2123L301.959 19.0888L301.836 19.0477L301.548 19.0477L301.383 19.0888L301.301 19.1712L301.259 19.2535L301.259 19.377L301.259 19.4593L301.259 19.5416"/>
</g>
</svg>