<?xml version="1.0" encoding="UTF-8" standalone="no"?>
<!DOCTYPE svg PUBLIC "-//W3C//DTD SVG 1.1//EN" "http://www.w3.org/Graphics/SVG/1.1/DTD/svg11.dtd">
<!-- Created with Vectornator (http://vectornator.io/) -->
<svg height="100%" stroke-miterlimit="10" style="fill-rule:nonzero;clip-rule:evenodd;stroke-linecap:round;stroke-linejoin:round;" version="1.1" viewBox="0 0 1383.76 736.527" width="100%" xml:space="preserve" xmlns="http://www.w3.org/2000/svg" xmlns:vectornator="http://vectornator.io" xmlns:xlink="http://www.w3.org/1999/xlink">
<defs/>
<clipPath id="ArtboardFrame">
<rect height="736.527" width="1383.76" x="0" y="0"/>
</clipPath>
<g clip-path="url(#ArtboardFrame)" id="Layer-18" vectornator:layerName="Layer 18">
<path d="M-1.13687e-13-6.3005L-1.13687e-13 34.169L3.41061e-13 204.765L763.281 212.999L1383.76 213.406L1383.76-4.26326e-14L716.225-4.26326e-14L-1.13687e-13-6.3005Z" fill="#84a4bc" fill-rule="nonzero" opacity="1" stroke="none" vectornator:layerName="Curve 1"/>
</g>
<g clip-path="url(#ArtboardFrame)" id="Layer-10" vectornator:layerName="Layer 10">
<path d="M-1.13687e-13 211.469L0 760.685L197.88 759.07L1045.37 649.402L1382.24 604.355L1381.61 261.664L1079.81 212.999" fill="#7f9cb2" fill-rule="nonzero" opacity="1" stroke="none" vectornator:layerName="Curve 1"/>
</g>
<g clip-path="url(#ArtboardFrame)" id="Layer-15" vectornator:layerName="Layer 15">
<path d="M785.137 133.286L785.646 144.503L769.568 148.858L770.315 158.872L756.927 159.489L763.281 215.27L0 212.071L2.27374e-13 56.7567L183.754 115.983L785.137 133.286Z" fill="#ecc300" fill-rule="nonzero" opacity="1" stroke="none" vectornator:layerName="Curve 1"/>
<path d="M1349.85 132.152L1225.12 133.556L1232.34 141.878L1247.03 142.091L1248.8 162.278L1260.9 161.565L1269.6 211.148L1382.74 212.46L1383.76 133.567L1349.85 132.152Z" fill="#ecc300" fill-rule="nonzero" opacity="1" stroke="none" vectornator:layerName="Curve 2"/>
<path d="M1536.46-391.757" fill="#ecc300" fill-rule="nonzero" opacity="1" stroke="none" vectornator:layerName="Curve 3"/>
</g>
<g clip-path="url(#ArtboardFrame)" id="Layer-16" vectornator:layerName="Layer 16">
<path d="M742.258 128.175C742.258 128.175 747.163 83.9395 730.593 67.5686L719.046 55.9631L719.144 0C719.144 0 413.741 3.73027 381.322 2.23993C381.322 2.23993 390.712 42.4485 365.553 56.4481C365.553 56.4481 357.511 61.5044 359.554 121.977L742.258 128.175Z" fill="#f3f5e4" fill-rule="nonzero" opacity="1" stroke="none" vectornator:layerName="Curve 1"/>
<path d="M938.969-51.8186" fill="#f3f5e4" fill-rule="nonzero" opacity="1" stroke="none" vectornator:layerName="Curve 2"/>
</g>
<g id="Layer-17" vectornator:layerName="Layer 17">
<path d="M324.321 214.75C324.321 214.75 325.941 209.117 333.902 205.867C343.11 202.108 362.003 201.004 373.778 209.451C376.052 211.082 374.508 212.858 376.458 215.27" fill="#7c9a30" fill-rule="nonzero" opacity="1" stroke="none" vectornator:layerName="Curve 1"/>
<path d="M413.741 216.084C413.741 216.084 414.753 207.392 431.91 206.861C431.91 206.861 445.558 206.273 447.011 216.084" fill="#7c9a30" fill-rule="nonzero" opacity="1" stroke="none" vectornator:layerName="Curve 2"/>
<path d="M790.538 210.946C790.538 210.946 809.033 186.231 826.698 213.018" fill="#7c9a30" fill-rule="nonzero" opacity="1" stroke="none" vectornator:layerName="Curve 3"/>
<path d="M826.519 211.615C826.519 211.615 846.536 177.145 876.191 214.229" fill="#7c9a30" fill-rule="nonzero" opacity="1" stroke="none" vectornator:layerName="Curve 4"/>
<path d="M841.898 199.616C841.898 199.616 816.777 203.694 824.824 215.056" fill="#7c9a30" fill-rule="nonzero" opacity="1" stroke="none" vectornator:layerName="Curve 5"/>
<path d="M876.191 214.229L788.237 215.825C788.237 215.825 797.566 199.154 807.273 201.964" fill="#7c9a30" fill-rule="nonzero" opacity="1" stroke="none" vectornator:layerName="Curve 6"/>
</g>
<g clip-path="url(#ArtboardFrame)" id="Layer-13" vectornator:layerName="Layer 13">
<path d="M155.093 759.07L1382.24 599.211L1382.24 736.527L155.093 759.07Z" fill="#ecc300" fill-rule="nonzero" opacity="1" stroke="none" vectornator:layerName="Curve 2"/>
<path d="M1173.85 210.64L1174.47 229.323L1382.24 264.109L1382.24 211.394" fill="#ecc300" fill-rule="nonzero" opacity="1" stroke="none" vectornator:layerName="Curve 3"/>
</g>
<g clip-path="url(#ArtboardFrame)" id="Layer-14" vectornator:layerName="Layer 14">
<path d="M1074.26 692.992L1016.49 726.391" fill="none" opacity="1" stroke="#000000" stroke-linecap="round" stroke-linejoin="round" stroke-width="3.07663" vectornator:layerName="Curve 1"/>
<path d="M1099.51 698.529L1033.69 736.527" fill="none" opacity="1" stroke="#000000" stroke-linecap="round" stroke-linejoin="round" stroke-width="3.07663" vectornator:layerName="Curve 2"/>
<path d="M1121.48 705.985L1083.92 728.554" fill="none" opacity="1" stroke="#000000" stroke-linecap="round" stroke-linejoin="round" stroke-width="3.07663" vectornator:layerName="Curve 3"/>
<path d="M1139.18 712.963C1139.18 712.963 1120.59 723.695 1112.48 725.909" fill="none" opacity="1" stroke="#000000" stroke-linecap="round" stroke-linejoin="round" stroke-width="3.07663" vectornator:layerName="Curve 4"/>
<path d="M1149.87 699.905C1149.87 699.905 1172.34 704.244 1194.77 684.898" fill="none" opacity="1" stroke="#000000" stroke-linecap="round" stroke-linejoin="round" stroke-width="3.07663" vectornator:layerName="Curve 5"/>
<path d="M1194.83 684.944C1194.83 684.944 1229.42 694.432 1242.43 672.842" fill="none" opacity="1" stroke="#000000" stroke-linecap="round" stroke-linejoin="round" stroke-width="3.07663" vectornator:layerName="Curve 6"/>
</g>
<g id="Layer-12" vectornator:layerName="Layer 12">
<path d="M1046.19 81.1926C1045.47 80.4786 1045.51 83.0921 1043.41 81.0602C1035.75 73.6178 1024.37 65.437 1026.23 56.1854C1027 52.3645 1033.17 50.5359 1033.78 46.8778C1034.85 40.4845 1032.92 36.1709 1038.63 31.6268C1045.24 26.3693 1052.5 35.2379 1058.25 34.0939C1060.6 33.6264 1059.53 30.3559 1062.09 29.7204C1065.77 28.8046 1071.99 32.403 1075.17 33.9818C1076.39 34.5874 1086.22 33.1551 1090.05 35.4396C1097.57 39.9252 1098.87 44.2694 1103.7 51.4756C1104.74 53.0285 1107.47 52.9029 1108.43 54.5033C1109.57 56.3838 1109.95 60.0548 1111.48 61.5681C1112.77 62.8581 1116.68 63.7861 1117.45 65.7173C1122.08 77.209 1114.88 101.874 1103.92 107.321C1095 111.758 1071.97 104.641 1066.82 96.1072C1064.38 92.0629 1060.02 80.7751 1055.43 78.9498C1053.72 78.2696 1048.89 80.4738 1049.91 78.9498C1050.93 77.4321 1057.88 76.4402 1057.46 78.9498C1057.03 81.5462 1049.47 85.7057 1048.1 82.9869" fill="#50494b" fill-rule="nonzero" opacity="1" stroke="none" vectornator:layerName="Curve 1"/>
</g>
<g id="Layer-11" vectornator:layerName="Layer 11">
<path d="M932.542 149.852C932.542 149.852 948.089 183.533 970.595 213.103C990.457 239.198 1015.74 262.093 1040.53 255.811C1040.53 255.811 1051.37 254.86 1046.83 232.375C1046.83 232.375 1039.61 210.879 1010.25 190.565C1010.25 190.565 990.451 174.958 988.346 130.28C988.346 130.28 984.31 120.163 971.621 126.668C971.621 126.668 969.6 129.75 970.006 138.46C970.006 138.46 958.636 118.386 951.829 118.094C945.021 117.803 945.16 125.055 939.381 120.499C939.381 120.499 933.401 122.365 937.839 131.662C937.839 131.662 921.308 122.367 932.542 149.852Z" fill="#c68244" fill-rule="nonzero" opacity="1" stroke="none" vectornator:layerName="Curve 1"/>
<path d="M953.863 190.971C965.305 196.631 925.524 169.626 932.851 148.497C940.179 127.367 956.696 185.509 956.696 185.509L954.889 190.96" fill="#c68244" fill-rule="nonzero" opacity="1" stroke="none" vectornator:layerName="Curve 2"/>
<path d="M1068.92 140.055L1067.53 122.435C1067.53 122.435 1035.2 116.929 1045.41 81.4747C1045.41 81.4747 1053.25 81.6718 1061.15 77.5471C1061.15 77.5471 1064.21 83.4789 1063.33 89.774C1063.33 89.774 1065 92.2688 1066.49 93.9393C1067.44 94.9978 1068.2 94.9019 1068.76 96.2588L1078.09 95.5305C1078.09 95.5305 1079.79 93.6493 1083.37 88.3565C1083.37 88.3565 1090.44 88.7915 1092.04 96.5494C1092.04 96.5494 1090.87 105.592 1099.62 107.608C1099.62 107.608 1109.86 129.254 1108.7 140.594L1084.39 144.679L1068.44 140.693" fill="#c68244" fill-rule="nonzero" opacity="1" stroke="none" vectornator:layerName="Curve 3"/>
<path d="M1176.82 226.569L1159.4 234.791C1159.4 234.791 1159.05 275.103 1166.07 305.258L1177.49 342.781C1177.49 342.781 1187.93 340.266 1191.16 334.741C1191.16 334.741 1189.48 316.882 1193.3 295.536C1193.3 295.536 1178.75 240.246 1176.82 226.569Z" fill="#c68244" fill-rule="nonzero" opacity="1" stroke="none" vectornator:layerName="Curve 4"/>
</g>
<g id="Layer-5" vectornator:layerName="Layer 5">
<path d="M969.5 655.731C969.5 655.731 804.4 606.984 682.241 572.432C682.241 572.432 589.518 530.262 512.09 492.909C512.09 492.909 386.879 542.495 261.096 487.503C261.096 487.503 240.359 462.425 266.93 441.523C266.93 441.523 295.524 442.999 284.409 420.249C284.409 420.249 287.839 387.303 323.842 425.628C323.842 425.628 336.063 455.264 418.401 442.729C418.401 442.729 461.944 441.264 454.905 392.428L412.656 360.719C412.656 360.719 395.729 387.678 375.238 367.719C375.238 367.719 348.405 376.472 345.184 352.281C345.184 352.281 346.501 344.081 331.066 332.662C331.066 332.662 323.999 319.944 333.929 308.32C333.929 308.32 321.089 281.935 347.625 274.169C347.625 274.169 338.782 258.643 356.069 252.018C356.069 252.018 361.778 248.864 369.867 253.28C369.867 253.28 375.894 263.847 390.643 256.434C390.643 256.434 399.366 254.384 403.965 265.425L402.697 274.415C402.697 274.415 414.274 277.569 409.516 287.821C409.516 287.821 454.694 286.255 455.26 337.938L476.311 347.057C476.311 347.057 501.137 300.02 543.717 308.596C543.717 308.596 627.859 327.936 682.179 361.511L724.381 382.172C724.381 382.172 784.842 402.631 776.101 434.598C776.101 434.598 971.296 535.423 1081.04 613.247L1091.04 611.042L1098.9 637.71L1033.69 645.841L969.5 655.731Z" fill="#ffffff" fill-rule="nonzero" opacity="1" stroke="none" vectornator:layerName="Curve 1"/>
</g>
<g id="Layer-7" vectornator:layerName="Layer 7">
<path d="M1064.86 457.601C1064.27 456.678 1066.08 460.128 1065.86 462.892C1065.42 468.543 1067.76 473.109 1067.47 478.46C1066.66 493.289 1070.93 509.464 1073.29 523.935C1077.8 551.552 1081.34 586.33 1092.79 611.557C1096.89 620.605 1093.63 633.847 1100.55 641.89C1105.16 647.245 1123.56 648.67 1130.14 648.814C1145.13 649.143 1147.04 635.014 1155.94 632.808C1166.85 630.106 1177.7 634.915 1188.55 635.153C1199.15 635.386 1204.97 625.902 1213.6 621.696C1214.95 621.041 1218.34 621.811 1219.37 621.164C1219.65 620.987 1218.32 617.796 1218.2 617.463C1216.31 612.619 1211.61 607.389 1211.92 601.586C1212.79 585.747 1205.42 568.961 1200.72 554.917C1198.28 547.599 1198.27 538.292 1197.04 530.741C1194.94 517.886 1190.27 503.464 1191.52 490.403C1192.11 484.232 1191.49 473.807 1188.07 468.451C1185.2 463.959 1186.8 451.641 1185.43 446.135C1185.11 444.88 1185.35 441.741 1184.25 442.434C1183.73 442.764 1183.85 445.725 1183.54 446.44C1181.82 450.283 1178.24 452.064 1175.12 454.715C1164 464.181 1150.35 462.645 1137.3 465.881" fill="#dd623c" fill-rule="nonzero" opacity="1" stroke="none" vectornator:layerName="Curve 1"/>
</g>
<g id="Layer-8" vectornator:layerName="Layer 8">
<path d="M1074.19 486.265C1074.19 480.084 1078.92 475.074 1084.75 475.074C1090.59 475.074 1095.32 480.084 1095.32 486.265C1095.32 492.445 1090.59 497.455 1084.75 497.455C1078.92 497.455 1074.19 492.445 1074.19 486.265Z" fill="#f3c717" fill-rule="nonzero" opacity="1" stroke="none" vectornator:layerName="Oval 1"/>
<path d="M1079.47 529.348C1079.47 523.167 1084.21 518.157 1090.04 518.157C1095.88 518.157 1100.61 523.167 1100.61 529.348C1100.61 535.528 1095.88 540.538 1090.04 540.538C1084.21 540.538 1079.47 535.528 1079.47 529.348Z" fill="#f3c717" fill-rule="nonzero" opacity="1" stroke="none" vectornator:layerName="Oval 2"/>
<path d="M1106.97 514.013C1106.97 507.833 1111.7 502.822 1117.54 502.822C1123.38 502.822 1128.11 507.833 1128.11 514.013C1128.11 520.193 1123.38 525.203 1117.54 525.203C1111.7 525.203 1106.97 520.193 1106.97 514.013Z" fill="#f3c717" fill-rule="nonzero" opacity="1" stroke="none" vectornator:layerName="Oval 3"/>
<path d="M1160.56 486.265C1160.56 480.084 1165.29 475.074 1171.13 475.074C1176.97 475.074 1181.7 480.084 1181.7 486.265C1181.7 492.445 1176.97 497.455 1171.13 497.455C1165.29 497.455 1160.56 492.445 1160.56 486.265Z" fill="#f3c717" fill-rule="nonzero" opacity="1" stroke="none" vectornator:layerName="Oval 4"/>
<path d="M1139.66 514.013C1139.66 507.833 1144.39 502.822 1150.23 502.822C1156.06 502.822 1160.8 507.833 1160.8 514.013C1160.8 520.193 1156.06 525.203 1150.23 525.203C1144.39 525.203 1139.66 520.193 1139.66 514.013Z" fill="#f3c717" fill-rule="nonzero" opacity="1" stroke="none" vectornator:layerName="Oval 5"/>
<path d="M1091.8 581.974C1091.8 575.794 1096.53 570.784 1102.37 570.784C1108.21 570.784 1112.94 575.794 1112.94 581.974C1112.94 588.154 1108.21 593.165 1102.37 593.165C1096.53 593.165 1091.8 588.154 1091.8 581.974Z" fill="#f3c717" fill-rule="nonzero" opacity="1" stroke="none" vectornator:layerName="Oval 6"/>
<path d="M1110.32 559.593C1110.32 553.413 1115.05 548.403 1120.89 548.403C1126.73 548.403 1131.46 553.413 1131.46 559.593C1131.46 565.773 1126.73 570.784 1120.89 570.784C1115.05 570.784 1110.32 565.773 1110.32 559.593Z" fill="#f3c717" fill-rule="nonzero" opacity="1" stroke="none" vectornator:layerName="Oval 7"/>
<path d="M1100.61 628.44C1100.61 622.26 1105.34 617.25 1111.18 617.25C1117.01 617.25 1121.74 622.26 1121.74 628.44C1121.74 634.62 1117.01 639.631 1111.18 639.631C1105.34 639.631 1100.61 634.62 1100.61 628.44Z" fill="#f3c717" fill-rule="nonzero" opacity="1" stroke="none" vectornator:layerName="Oval 8"/>
<path d="M1120.89 604.355C1120.89 598.175 1125.62 593.165 1131.46 593.165C1137.29 593.165 1142.02 598.175 1142.02 604.355C1142.02 610.536 1137.29 615.546 1131.46 615.546C1125.62 615.546 1120.89 610.536 1120.89 604.355Z" fill="#f3c717" fill-rule="nonzero" opacity="1" stroke="none" vectornator:layerName="Oval 9"/>
<path d="M1150.5 569.267C1150.5 563.087 1155.23 558.077 1161.07 558.077C1166.9 558.077 1171.63 563.087 1171.63 569.267C1171.63 575.448 1166.9 580.458 1161.07 580.458C1155.23 580.458 1150.5 575.448 1150.5 569.267Z" fill="#f3c717" fill-rule="nonzero" opacity="1" stroke="none" vectornator:layerName="Oval 10"/>
<path d="M1167.41 532.25C1167.41 526.069 1172.14 521.059 1177.98 521.059C1183.81 521.059 1188.55 526.069 1188.55 532.25C1188.55 538.43 1183.81 543.44 1177.98 543.44C1172.14 543.44 1167.41 538.43 1167.41 532.25Z" fill="#f3c717" fill-rule="nonzero" opacity="1" stroke="none" vectornator:layerName="Oval 11"/>
<path d="M1184.91 586.811C1184.91 580.631 1189.64 575.621 1195.48 575.621C1201.31 575.621 1206.04 580.631 1206.04 586.811C1206.04 592.992 1201.31 598.002 1195.48 598.002C1189.64 598.002 1184.91 592.992 1184.91 586.811Z" fill="#f3c717" fill-rule="nonzero" opacity="1" stroke="none" vectornator:layerName="Oval 12"/>
<path d="M1166.52 610.401C1166.52 604.221 1171.25 599.211 1177.08 599.211C1182.92 599.211 1187.65 604.221 1187.65 610.401C1187.65 616.581 1182.92 621.592 1177.08 621.592C1171.25 621.592 1166.52 616.581 1166.52 610.401Z" fill="#f3c717" fill-rule="nonzero" opacity="1" stroke="none" vectornator:layerName="Oval 13"/>
</g>
<g id="Layer-9" vectornator:layerName="Layer 9">
<path d="M1160.33 629.828C1159.42 629.572 1154.23 630.428 1149.87 634.404C1145.34 638.537 1141.59 645.822 1138.31 646.95C1131.34 649.345 1116.51 645.841 1108.79 645.841C1104.4 645.841 1101.51 641.299 1099.51 641.72C1097.82 642.076 1104.56 657.393 1103.56 658.002C1102.12 658.887 1104.14 656.329 1102.7 655.731C1101.71 655.324 1103.81 653.853 1097.04 654.674C1090.92 655.417 1079.65 664.477 1078.81 670.819C1078.16 675.743 1089.84 675.427 1092.25 675.668C1093.43 675.785 1097.71 680.128 1098.15 679.904C1100.98 678.461 1091.74 673.503 1091.21 676.303C1090.97 677.602 1100.35 679.715 1100.45 679.394C1101.41 676.418 1094.52 673.895 1091.9 675.048C1091.63 675.166 1090.96 675.216 1091.28 675.678C1093.94 679.558 1098.98 678.314 1102.55 679.787C1115.08 684.97 1129.33 685.606 1142.97 684.554C1145.8 684.336 1148.56 685.893 1151.56 685.363C1159.46 683.965 1167.81 682.463 1174.7 678.249C1177.57 676.497 1173.38 672.301 1177.34 670.94C1180.76 669.766 1187.52 671.485 1191.63 670.856C1202.87 669.136 1213.39 664.923 1222.61 659.289C1224.52 658.119 1226.29 648.22 1224.98 646.088C1223.73 644.066 1220.04 641.628 1219.74 639.21C1219.21 634.923 1219.77 631.051 1218.84 626.668C1218.3 624.156 1219.36 616.312 1215.58 615.816C1214.29 615.646 1215.6 618.575 1214.86 619.638C1212.65 622.782 1211.43 622.602 1207.64 625.562C1203.81 628.554 1194.45 632.286 1188.89 633.942C1185.9 634.832 1184.23 634.708 1183.59 634.648C1180.44 634.358 1179.77 634.365 1178.75 633.942C1172.38 631.309 1165.43 631.257 1160.33 629.828Z" fill="#8aa5b9" fill-rule="nonzero" opacity="1" stroke="none" vectornator:layerName="Curve 1"/>
<path d="M1078.18 673.888C1074.39 685.265 1086.07 683.406 1093.34 686.438C1112.77 694.533 1132.63 697.408 1152.98 693.936C1155.98 693.424 1176.15 691.181 1177.02 687.275C1179.94 674.095 1164.01 684.078 1158.15 684.468C1155.89 684.619 1153.46 684.548 1151.28 684.693C1150.03 684.776 1146.64 686.215 1147.59 685.403C1150.14 683.228 1161.48 688.178 1162.65 682.915C1163.11 680.832 1147.4 684.485 1145.77 684.363C1135.2 683.573 1121.13 686.394 1111.24 682.274" fill="#f4e7d1" fill-rule="nonzero" opacity="1" stroke="none" vectornator:layerName="Curve 3"/>
<path d="M1225.31 656.084C1225.27 655.522 1225.43 655.691 1225.01 656.178C1223.28 658.204 1221.31 659.664 1219.01 661.049C1214.36 663.855 1209.02 665.738 1204.05 667.85C1198.55 670.185 1174.66 668.745 1177.04 676.387C1177.69 678.456 1183.59 677.395 1185.3 677.562C1193.73 678.386 1206.55 674.007 1214.23 670.271C1216.95 668.948 1220.27 668.587 1222.84 667.035C1224.11 666.269 1227.96 664.039 1226.69 664.804" fill="#f4e7d1" fill-rule="nonzero" opacity="1" stroke="none" vectornator:layerName="Curve 4"/>
<path d="M1218.42 668.012C1217.86 668.139 1207.14 673.62 1207.66 674.059C1210.16 676.166 1218.71 669.621 1220.72 668.406" fill="#f4e7d1" fill-rule="nonzero" opacity="1" stroke="none" vectornator:layerName="Curve 5"/>
<path d="M1210.81 670.55C1195.83 675.167 1206 676.491 1214.53 671.342" fill="#f4e7d1" fill-rule="nonzero" opacity="1" stroke="none" vectornator:layerName="Curve 6"/>
<path d="M1204.61 673.041C1202.95 673.642 1201.12 674.345 1199.6 675.265C1196.93 676.876 1205.15 676.041 1206.81 673.409" fill="#f4e7d1" fill-rule="nonzero" opacity="1" stroke="none" vectornator:layerName="Curve 7"/>
</g>
<g id="Layer-6" vectornator:layerName="Layer 6">
<path d="M1064.1 456.658C1064.1 456.658 1030.31 335.848 1046.84 244.233C1046.84 244.233 1059.53 231.787 1009.56 189.908C1009.56 189.908 1017.82 131.099 1087.61 140.86C1087.61 140.86 1158.74 123.258 1176.78 226.892C1176.78 226.892 1175.97 227.889 1159.87 234.53C1159.87 234.53 1157.05 284.928 1175.29 339.354C1175.29 339.354 1182.59 355.274 1178.81 377.68C1178.81 377.68 1187.85 425.251 1182.63 441.016C1182.63 441.016 1181.63 471.404 1113.79 461.785C1113.79 461.785 1075.77 460 1064.1 456.658Z" fill="#ffffff" fill-rule="nonzero" opacity="1" stroke="none" vectornator:layerName="Curve 1"/>
<path d="M716.837 276.048C717.091 275.753 727.021 276.279 730.327 274.917C741.974 270.118 762.347 267.841 774.527 273.189C785.15 277.854 795.832 283.056 807.734 284.071C821.931 285.281 838.603 281.686 851.895 277.482C856.881 275.905 864.377 269.818 869.864 271.215C870.451 271.364 872.72 271.265 872.418 272.436C872.246 273.105 871.138 272.901 870.696 272.996C865.214 274.175 858.15 278.001 853.156 280.942C838.561 289.539 813.517 292.803 797.169 286.659C786.804 282.763 776.737 275.671 765.453 274.445C753.633 273.162 741.723 279.132 729.834 278.501C727.516 278.378 713.112 280.373 716.837 276.048Z" fill="#ffffff" fill-rule="nonzero" opacity="1" stroke="none" vectornator:layerName="Curve 2"/>
<path d="M826.688 308.799C832.533 306.95 839.42 308.525 845.323 306.91C853.403 304.699 860.222 297.951 868.305 296.213C874.108 294.965 881.994 295.609 887.891 295.921C899.097 296.515 908.205 301.987 919.521 299.553C920.793 299.279 928.97 295.517 928.857 293.941C928.793 293.045 922.031 295.297 921.432 295.474C918.282 296.408 912.699 295.351 909.503 295.004C902.211 294.212 894.623 289.927 887.523 289.55C873.073 288.784 862.484 294.384 849.852 298.79C843.605 300.969 837.731 304.417 830.71 304.045C826.402 303.817 824.939 309.353 826.688 308.799Z" fill="#ffffff" fill-rule="nonzero" opacity="1" stroke="none" vectornator:layerName="Curve 3"/>
<path d="M880.51 397.817C881.223 398.874 876.643 400.284 876.235 401.263C875.558 402.892 870.092 409.494 868.286 408.751C864.036 407.003 870.1 401.058 871.047 399.055C871.602 397.883 875.127 396.236 876.312 395.446C883.375 390.737 893.952 394.621 901.508 395.151C910.527 395.784 924.337 396.697 933.036 394.313C943.032 391.574 952.857 391.424 963.105 390.571C964.792 390.43 977.126 386.091 977.377 387.418C978.573 393.749 959.175 395.528 955.656 395.537C945.557 395.563 935.691 398.208 925.7 398.707C914.099 399.287 903.259 397.666 891.862 396.711C888.026 396.389 879.087 400.344 876.644 399.201" fill="#ffffff" fill-rule="nonzero" opacity="1" stroke="none" vectornator:layerName="Curve 4"/>
<path d="M358.247 564.777C343.397 571.219 327.832 569.259 312.467 571.825C298.297 574.191 287.291 586.293 271.81 585.487C257.722 584.754 240.24 578.521 226.673 580.327C221.499 581.016 182.51 584.196 183.977 592.885C184.173 594.044 185.439 594.335 186.447 594.465C197.19 595.851 211.376 589.143 224.168 589.808C237.919 590.524 252.12 594.437 266.286 595.174C282.844 596.036 299.511 584.296 315.117 580.396C329.749 576.739 350.366 584.961 360.866 568.722" fill="#ffffff" fill-rule="nonzero" opacity="1" stroke="none" vectornator:layerName="Curve 5"/>
<path d="M358.057 564.897C358.806 564.489 359.749 564.22 360.551 563.873C367.172 561.011 360.718 568.418 360.602 569.219" fill="#ffffff" fill-rule="nonzero" opacity="1" stroke="none" vectornator:layerName="Curve 6"/>
<path d="M297.409 617.794C297.59 616.524 302.478 617.159 303.8 616.986C309.986 616.175 315.567 614.974 321.515 613.619C331.959 611.239 340.132 601.287 350.805 599.381C365.387 596.778 379.439 600.944 393.852 602.906C402.989 604.149 410.687 604.796 419.662 602.751C422.444 602.117 425.728 600.196 428.063 598.539C428.391 598.306 431.158 596.03 431.111 597.176C430.093 621.828 372.69 600.184 359.794 603.56C346.227 607.113 324.101 621.375 311.837 621.591C310.871 621.608 294.16 621.133 294.608 619.958C295.433 617.798 296.985 620.768 297.409 617.794Z" fill="#ffffff" fill-rule="nonzero" opacity="1" stroke="none" vectornator:layerName="Curve 7"/>
<path d="M298.725 617.296C297.112 616.888 292.756 619.268 295.695 620.012" fill="#ffffff" fill-rule="nonzero" opacity="1" stroke="none" vectornator:layerName="Curve 8"/>
<path d="M294.927 618.615C293.493 619.463 294.53 620.473 295.742 620.314" fill="#ffffff" fill-rule="nonzero" opacity="1" stroke="none" vectornator:layerName="Curve 9"/>
<path d="M185.645 405.547C166.592 421.116 145.886 411.089 124.12 412.775C121.559 412.973 102.257 416.985 103.529 421.299C104.307 423.941 118.605 417.523 121.902 417.643C137.055 418.194 153.718 422.649 169.029 418.961C174.907 417.545 183.789 413.986 187.842 409.275C189.172 407.729 186.158 405.127 185.645 405.547Z" fill="#ffffff" fill-rule="nonzero" opacity="1" stroke="none" vectornator:layerName="Curve 10"/>
<path d="M187.385 421.695C177.487 426.852 166.983 426.567 156.541 428.252C155.511 428.418 154.185 429.215 154.549 430.45C155.143 432.466 161.868 432.444 163.459 432.305C168.194 431.89 195.114 429.722 189.988 419.991" fill="#ffffff" fill-rule="nonzero" opacity="1" stroke="none" vectornator:layerName="Curve 11"/>
<path d="M196.175 447.986C196.001 446.103 178.038 447.993 174.97 448.501C169.32 449.438 166.898 445.067 162.262 445.067C161.918 445.067 160.83 444.951 160.742 445.479C160.484 447.017 162.289 447.207 163.021 448.227C169.301 456.97 178.878 454.56 188.301 452.005C191.199 451.219 196.486 451.347 196.175 447.986Z" fill="#ffffff" fill-rule="nonzero" opacity="1" stroke="none" vectornator:layerName="Curve 12"/>
<path d="M155.878 252.113C155.53 253.124 144.881 254.758 142.78 255.782C116.692 268.505 90.9079 246.359 65.9837 244.671C57.209 244.077 36.2957 246.662 34.6542 257.626C34.566 258.215 37.0787 256.372 37.4084 256.186C39.479 255.019 42.2217 254.808 44.5282 254.429C52.2135 253.166 60.711 251.863 68.4806 252.641C75.5057 253.343 81.4278 256.955 88.2196 258.192C103.473 260.97 118.933 263.017 134.37 264.063C140.54 264.48 148.114 262.036 152.861 259.071C154.886 257.806 156.501 250.31 155.878 252.113Z" fill="#ffffff" fill-rule="nonzero" opacity="1" stroke="none" vectornator:layerName="Curve 13"/>
<path d="M197.139 282.787C194.728 280.065 189.142 280.126 185.64 279.479C167.013 276.036 153.356 283.35 136.273 287.654C132.77 288.536 116.24 285.695 115.802 291.136C115.634 293.217 126.734 293.133 128.301 293.217C134.521 293.549 140.021 293.334 145.974 291.305C153.228 288.833 157.309 282.985 166.041 282.632C168.08 282.55 203.394 289.848 197.139 282.787Z" fill="#ffffff" fill-rule="nonzero" opacity="1" stroke="none" vectornator:layerName="Curve 14"/>
</g>
<g clip-path="url(#ArtboardFrame)" id="Layer-2" vectornator:layerName="Layer 2">
<path d="M5.68434e-14 211.394L266.407 215.462" fill="none" opacity="1" stroke="#000000" stroke-linecap="round" stroke-linejoin="round" stroke-width="2.10984" vectornator:layerName="Curve 1"/>
<path d="M393.851 215.03L969.91 213.428" fill="none" opacity="1" stroke="#000000" stroke-linecap="round" stroke-linejoin="round" stroke-width="2.10984" vectornator:layerName="Curve 2"/>
<path d="M1171.63 211.001L1383.76 214.229" fill="none" opacity="1" stroke="#000000" stroke-linecap="round" stroke-linejoin="round" stroke-width="2.10984" vectornator:layerName="Curve 3"/>
<path d="M1055.14 145.424C1055.14 145.424 1017.41 138.983 1009.69 185.252" fill="none" opacity="1" stroke="#000000" stroke-linecap="round" stroke-linejoin="round" stroke-width="2.10984" vectornator:layerName="Curve 4"/>
<path d="M1125.96 148.139C1125.96 148.139 1143.33 155.196 1153.36 174.171" fill="none" opacity="1" stroke="#000000" stroke-linecap="round" stroke-linejoin="round" stroke-width="2.10984" vectornator:layerName="Curve 5"/>
<path d="M1065.03 205.525C1065.03 205.525 1063.38 227.537 1047.16 244.281" fill="none" opacity="1" stroke="#000000" stroke-linecap="round" stroke-linejoin="round" stroke-width="2.10984" vectornator:layerName="Curve 6"/>
<path d="M1041.53 265.285C1041.53 265.285 1032.71 348.548 1062.64 456.652" fill="none" opacity="1" stroke="#000000" stroke-linecap="round" stroke-linejoin="round" stroke-width="2.10984" vectornator:layerName="Curve 7"/>
<path d="M1168.52 290.743C1168.52 290.743 1166.81 300.612 1173.83 315.986C1173.83 315.986 1181.14 341.967 1180.59 368.73" fill="none" opacity="1" stroke="#000000" stroke-linecap="round" stroke-linejoin="round" stroke-width="2.10984" vectornator:layerName="Curve 8"/>
<path d="M1063.86 456.349C1063.86 456.349 1069.6 541.674 1103.34 657.344" fill="none" opacity="1" stroke="#000000" stroke-linecap="round" stroke-linejoin="round" stroke-width="2.10984" vectornator:layerName="Curve 9"/>
<path d="M1064.08 458.037C1064.08 458.037 1093.1 458.434 1132.83 465.033C1132.83 465.033 1174.54 469.254 1184.43 441.213" fill="none" opacity="1" stroke="#000000" stroke-linecap="round" stroke-linejoin="round" stroke-width="2.10984" vectornator:layerName="Curve 10"/>
<path d="M1184.5 440.909C1184.5 440.909 1197.03 545.909 1216.27 616.356C1216.27 616.356 1219.6 607.16 1220.15 636.773L1223.99 644.68L1226.52 664.942C1226.52 664.942 1216.23 674.462 1196.53 677.425" fill="none" opacity="1" stroke="#000000" stroke-linecap="round" stroke-linejoin="round" stroke-width="2.10984" vectornator:layerName="Curve 11"/>
<path d="M1217.73 661.575C1217.73 661.575 1198.88 673.002 1177.08 670.915" fill="none" opacity="1" stroke="#000000" stroke-linecap="round" stroke-linejoin="round" stroke-width="2.10984" vectornator:layerName="Curve 12"/>
<path d="M1134.5 532.843C1134.5 532.843 1148.55 594.311 1156.33 606.6C1156.33 606.6 1155.07 617.893 1160.77 634.045C1160.77 634.045 1168.68 641.282 1168.26 655.231C1168.26 655.231 1177.54 665.719 1176.06 678.514L1178.17 685.437" fill="none" opacity="1" stroke="#000000" stroke-linecap="round" stroke-linejoin="round" stroke-width="2.10984" vectornator:layerName="Curve 13"/>
<path d="M1176.74 678.068C1176.74 678.068 1134.14 694.461 1079.47 673.242" fill="none" opacity="1" stroke="#000000" stroke-linecap="round" stroke-linejoin="round" stroke-width="2.10984" vectornator:layerName="Curve 14"/>
<path d="M1094.31 657.279C1094.31 657.279 1082.09 646.792 1085.21 642.532C1085.21 642.532 1090.23 639.333 1098.9 654.16C1098.9 654.16 1092.03 639.704 1096.84 634.404" fill="none" opacity="1" stroke="#000000" stroke-linecap="round" stroke-linejoin="round" stroke-width="2.10984" vectornator:layerName="Curve 15"/>
<path d="M1145.18 193.039C1145.18 193.039 1159.83 218.112 1160.56 247.58" fill="none" opacity="1" stroke="#000000" stroke-linecap="round" stroke-linejoin="round" stroke-width="2.10984" vectornator:layerName="Curve 16"/>
<path d="M1177.98 229.323C1177.98 229.323 1183.7 267.507 1191.84 286.812" fill="none" opacity="1" stroke="#000000" stroke-linecap="round" stroke-linejoin="round" stroke-width="2.10984" vectornator:layerName="Curve 17"/>
<path d="M954.385 190.789C954.385 190.789 922.428 159.427 933.036 148.139" fill="none" opacity="1" stroke="#000000" stroke-linecap="round" stroke-linejoin="round" stroke-width="2.10984" vectornator:layerName="Curve 18"/>
<path d="M941.065 162.324C941.065 162.324 915.86 125.011 937.507 130.984" fill="none" opacity="1" stroke="#000000" stroke-linecap="round" stroke-linejoin="round" stroke-width="2.10984" vectornator:layerName="Curve 19"/>
<path d="M953.358 157.481C953.358 157.481 919.327 110.779 945.809 122.276" fill="none" opacity="1" stroke="#000000" stroke-linecap="round" stroke-linejoin="round" stroke-width="2.10984" vectornator:layerName="Curve 20"/>
<path d="M969.867 157.116C969.867 157.116 927.458 108.847 955.889 119.632C955.889 119.632 963.044 126.391 969.91 138.348" fill="none" opacity="1" stroke="#000000" stroke-linecap="round" stroke-linejoin="round" stroke-width="2.10984" vectornator:layerName="Curve 21"/>
<path d="M969.719 142.238C969.719 142.238 967.637 124.016 976.3 124.783C976.3 124.783 987.924 120.648 990.019 134.814C990.019 134.814 991.055 152.723 992.341 159.661" fill="none" opacity="1" stroke="#000000" stroke-linecap="round" stroke-linejoin="round" stroke-width="2.10984" vectornator:layerName="Curve 22"/>
<path d="M737.159 568.991L758.618 551.945C758.618 551.945 791.866 510.272 801.158 446.03C801.158 446.03 767.352 426.933 759.768 430.288" fill="none" opacity="1" stroke="#000000" stroke-linecap="round" stroke-linejoin="round" stroke-width="2.10984" vectornator:layerName="Curve 23"/>
<path d="M779.157 434.766C779.157 434.766 780.277 417.831 758.812 397.391C758.812 397.391 738.381 392.27 727.487 387.246C727.487 387.246 724.864 381.367 719.902 380.149" fill="none" opacity="1" stroke="#000000" stroke-linecap="round" stroke-linejoin="round" stroke-width="2.10984" vectornator:layerName="Curve 24"/>
<path d="M743.242 393.463C743.242 393.463 768.748 420.13 720.881 410.84" fill="none" opacity="1" stroke="#000000" stroke-linecap="round" stroke-linejoin="round" stroke-width="2.10984" vectornator:layerName="Curve 25"/>
<path d="M716.68 410.45C716.68 410.45 686.514 401.294 659.939 386.234C659.939 386.234 612.103 364.483 581.467 349.378" fill="none" opacity="1" stroke="#000000" stroke-linecap="round" stroke-linejoin="round" stroke-width="2.10984" vectornator:layerName="Curve 26"/>
<path d="M609.976 333.854C609.976 333.854 611.567 353.916 600.956 358.86" fill="none" opacity="1" stroke="#000000" stroke-linecap="round" stroke-linejoin="round" stroke-width="2.10984" vectornator:layerName="Curve 27"/>
<path d="M464.35 508.805C464.35 508.805 489.502 503.051 512.241 493.857C512.241 493.857 533.695 505.859 556.869 515.417" fill="none" opacity="1" stroke="#000000" stroke-linecap="round" stroke-linejoin="round" stroke-width="2.10984" vectornator:layerName="Curve 28"/>
<path d="M439.101 434.874C439.101 434.874 457.533 423.968 454.607 391.165" fill="none" opacity="1" stroke="#000000" stroke-linecap="round" stroke-linejoin="round" stroke-width="2.10984" vectornator:layerName="Curve 29"/>
<path d="M420.443 359.645C420.443 359.645 402.278 354.548 402.041 349.958C402.041 349.958 411.627 332.819 381.103 338.923C381.103 338.923 359.976 334.489 374.913 308.962C374.913 308.962 390.755 316.872 388.157 296.196C388.157 296.196 398.132 302.505 410.256 286.262" fill="none" opacity="1" stroke="#000000" stroke-linecap="round" stroke-linejoin="round" stroke-width="2.10984" vectornator:layerName="Curve 30"/>
<path d="M457.286 336.946L482.439 351.481" fill="none" opacity="1" stroke="#000000" stroke-linecap="round" stroke-linejoin="round" stroke-width="2.10984" vectornator:layerName="Curve 31"/>
<path d="M262.445 489.607C262.445 489.607 245.413 462.832 298.642 489.623C298.642 489.623 296.667 480.798 328.991 479.866" fill="none" opacity="1" stroke="#000000" stroke-linecap="round" stroke-linejoin="round" stroke-width="2.10984" vectornator:layerName="Curve 32"/>
<path d="M316.875 479.978C316.875 479.978 310.417 462.407 317.856 454.509L317.351 445.672C317.351 445.672 286.455 435.574 291.102 413.135" fill="none" opacity="1" stroke="#000000" stroke-linecap="round" stroke-linejoin="round" stroke-width="2.10984" vectornator:layerName="Curve 33"/>
<path d="M294.881 430.797C294.881 430.797 269.686 420.493 278.774 447.621" fill="none" opacity="1" stroke="#000000" stroke-linecap="round" stroke-linejoin="round" stroke-width="2.10984" vectornator:layerName="Curve 34"/>
<path d="M291.831 453.819C291.831 453.819 251.948 428.47 262.414 463.257" fill="none" opacity="1" stroke="#000000" stroke-linecap="round" stroke-linejoin="round" stroke-width="2.10984" vectornator:layerName="Curve 35"/>
<path d="M294.748 475.414C294.748 475.414 240.848 447.825 255.37 476.699" fill="none" opacity="1" stroke="#000000" stroke-linecap="round" stroke-linejoin="round" stroke-width="2.10984" vectornator:layerName="Curve 36"/>
</g>
<g clip-path="url(#ArtboardFrame)" id="Layer-3" vectornator:layerName="Layer 3">
<path d="M1026.03 645.841C1026.03 645.841 439.567 725.779 156.84 755.381" fill="none" opacity="1" stroke="#000000" stroke-linecap="round" stroke-linejoin="round" stroke-width="3.59052" vectornator:layerName="Curve 1"/>
</g>
<g clip-path="url(#ArtboardFrame)" id="Layer-1" vectornator:layerName="Layer 1">
<path d="M789.469 212.427C789.469 212.427 805.13 186.325 826.756 212.613" fill="none" opacity="1" stroke="#000000" stroke-linecap="butt" stroke-linejoin="round" stroke-width="3.54035" vectornator:layerName="Curve 1"/>
<path d="M829.4 202.648C829.4 202.648 858.689 190.146 876.191 215.03" fill="none" opacity="1" stroke="#000000" stroke-linecap="butt" stroke-linejoin="round" stroke-width="3.54035" vectornator:layerName="Curve 2"/>
<path d="M704.68 159.548L771.897 158.202L770.462 147.006L345.277 137.631" fill="none" opacity="1" stroke="#000000" stroke-linecap="butt" stroke-linejoin="round" stroke-width="3.54035" vectornator:layerName="Curve 3"/>
<path d="M348.63 120.429L781.675 131.171" fill="none" opacity="1" stroke="#000000" stroke-linecap="butt" stroke-linejoin="round" stroke-width="3.54035" vectornator:layerName="Curve 4"/>
<path d="M785.749 135.572L785.375 143.378L769.003 142.136" fill="none" opacity="1" stroke="#000000" stroke-linecap="butt" stroke-linejoin="round" stroke-width="3.54035" vectornator:layerName="Curve 5"/>
<path d="M758.96 163.321L763.281 215.181" fill="none" opacity="1" stroke="#000000" stroke-linecap="butt" stroke-linejoin="round" stroke-width="3.54035" vectornator:layerName="Curve 6"/>
<path d="M654.054 214.732L651.192 183.17" fill="none" opacity="1" stroke="#000000" stroke-linecap="butt" stroke-linejoin="round" stroke-width="3.54035" vectornator:layerName="Curve 7"/>
<path d="M648.91 176.533" fill="none" opacity="1" stroke="#000000" stroke-linecap="butt" stroke-linejoin="round" stroke-width="3.54035" vectornator:layerName="Curve 8"/>
<path d="M723.78 177.726L649.34 177.171" fill="none" opacity="1" stroke="#000000" stroke-linecap="butt" stroke-linejoin="round" stroke-width="3.54035" vectornator:layerName="Curve 9"/>
<path d="M721.756 181.048L724.068 215.27" fill="none" opacity="1" stroke="#000000" stroke-linecap="butt" stroke-linejoin="round" stroke-width="3.54035" vectornator:layerName="Curve 10"/>
<path d="M570.543 215.499L568.56 186.232L625.004 184.55L628.051 216.084" fill="none" opacity="1" stroke="#000000" stroke-linecap="butt" stroke-linejoin="round" stroke-width="3.54035" vectornator:layerName="Curve 11"/>
<path d="M322.355 213.784C322.355 213.784 350.537 195.638 376.458 214.288" fill="none" opacity="1" stroke="#000000" stroke-linecap="butt" stroke-linejoin="round" stroke-width="3.54035" vectornator:layerName="Curve 12"/>
<path d="M1295.37 157.616L1247.5 161.582L1244.95 142.604" fill="none" opacity="1" stroke="#000000" stroke-linecap="butt" stroke-linejoin="round" stroke-width="3.54035" vectornator:layerName="Curve 13"/>
<path d="M1260.25 163.281L1268.46 209.451" fill="none" opacity="1" stroke="#000000" stroke-linecap="butt" stroke-linejoin="round" stroke-width="3.54035" vectornator:layerName="Curve 14"/>
<path d="M1382.24 142.038L1232.56 141.471C1232.56 141.471 1224.7 136.373 1225.42 131.557L1381.88 131.557" fill="none" opacity="1" stroke="#000000" stroke-linecap="butt" stroke-linejoin="round" stroke-width="3.54035" vectornator:layerName="Curve 15"/>
<path d="M1280.64 207.751L1273.84 170.929" fill="none" opacity="1" stroke="#000000" stroke-linecap="butt" stroke-linejoin="round" stroke-width="3.54035" vectornator:layerName="Curve 16"/>
<path d="M1276.11 170.929L1316.05 169.796L1322.84 212" fill="none" opacity="1" stroke="#000000" stroke-linecap="butt" stroke-linejoin="round" stroke-width="3.54035" vectornator:layerName="Curve 17"/>
<path d="M1340.12 210.017L1333.61 170.646L1354.29 171.495" fill="none" opacity="1" stroke="#000000" stroke-linecap="butt" stroke-linejoin="round" stroke-width="3.54035" vectornator:layerName="Curve 18"/>
<path d="M1301.03 181.126L1310.38 180.843L1312.65 203.503" fill="none" opacity="1" stroke="#000000" stroke-linecap="butt" stroke-linejoin="round" stroke-width="3.54035" vectornator:layerName="Curve 19"/>
<path d="M379.398 3.73027L380.041 35.1583C380.041 35.1583 380.041 44.0793 370.459 50.1368C370.459 50.1368 360.057 57.9949 359.807 69.611L359.531 119.854" fill="none" opacity="1" stroke="#000000" stroke-linecap="butt" stroke-linejoin="round" stroke-width="3.54035" vectornator:layerName="Curve 20"/>
<path d="M387.315 117.374C387.315 117.374 384.327 85.2217 399.3 85.1749C399.3 85.1749 422.346 81.6452 422.562 97.2581C422.777 112.871 423.258 121.859 423.258 121.859" fill="none" opacity="1" stroke="#000000" stroke-linecap="butt" stroke-linejoin="round" stroke-width="3.54035" vectornator:layerName="Curve 21"/>
<path d="M460.659 85.2046L462.045 123.258" fill="none" opacity="1" stroke="#000000" stroke-linecap="butt" stroke-linejoin="round" stroke-width="3.54035" vectornator:layerName="Curve 22"/>
<path d="M478.999 87.3752L479.743 123.171" fill="none" opacity="1" stroke="#000000" stroke-linecap="butt" stroke-linejoin="round" stroke-width="3.54035" vectornator:layerName="Curve 23"/>
<path d="M515.196 124.169C515.196 124.169 511.089 87.4207 525.371 87.9441C525.371 87.9441 553.82 83.7468 553.157 99.7594L554.176 125.389" fill="none" opacity="1" stroke="#000000" stroke-linecap="butt" stroke-linejoin="round" stroke-width="3.54035" vectornator:layerName="Curve 24"/>
<path d="M611.884 90.6615L613.796 124.851" fill="none" opacity="1" stroke="#000000" stroke-linecap="butt" stroke-linejoin="round" stroke-width="3.54035" vectornator:layerName="Curve 25"/>
<path d="M634.4 95.7991L637.284 127.323" fill="none" opacity="1" stroke="#000000" stroke-linecap="butt" stroke-linejoin="round" stroke-width="3.54035" vectornator:layerName="Curve 26"/>
<path d="M665.306 127.323C665.306 127.323 660.567 94.7689 681.789 96.8293C681.789 96.8293 708.574 93.1206 705.071 130.002" fill="none" opacity="1" stroke="#000000" stroke-linecap="butt" stroke-linejoin="round" stroke-width="3.54035" vectornator:layerName="Curve 27"/>
<path d="M718.192 87.6919L720.096 128.732" fill="none" opacity="1" stroke="#000000" stroke-linecap="butt" stroke-linejoin="round" stroke-width="3.54035" vectornator:layerName="Curve 28"/>
<path d="M718.192 27.8569" fill="none" opacity="1" stroke="#000000" stroke-linecap="butt" stroke-linejoin="round" stroke-width="3.54035" vectornator:layerName="Curve 29"/>
<path d="M717.598 27.0242L719.144 56.5253C719.144 56.5253 739.842 68.0641 741.151 96.1377L743.649 130.04" fill="none" opacity="1" stroke="#000000" stroke-linecap="butt" stroke-linejoin="round" stroke-width="3.54035" vectornator:layerName="Curve 30"/>
<path d="M365.677 67.2684C365.677 67.2684 544.005 68.0475 736.735 82.3424" fill="none" opacity="1" stroke="#000000" stroke-linecap="butt" stroke-linejoin="round" stroke-width="3.54035" vectornator:layerName="Curve 31"/>
<path d="M359.737 78.8835C359.737 78.8835 567.329 79.437 741.589 95.4336" fill="none" opacity="1" stroke="#000000" stroke-linecap="butt" stroke-linejoin="round" stroke-width="3.54035" vectornator:layerName="Curve 32"/>
<path d="M385.713 40.2197C385.713 40.2197 546.473 43.7165 715.742 53.7314" fill="none" opacity="1" stroke="#000000" stroke-linecap="butt" stroke-linejoin="round" stroke-width="3.54035" vectornator:layerName="Curve 33"/>
<path d="M385.017 48.4925C385.017 48.4925 376.875 55.2584 373.778 62.4831" fill="none" opacity="1" stroke="#000000" stroke-linecap="butt" stroke-linejoin="round" stroke-width="3.54035" vectornator:layerName="Curve 34"/>
<path d="M402.792 48.8366C402.792 48.8366 393.273 58.1254 392.012 64.2032" fill="none" opacity="1" stroke="#000000" stroke-linecap="butt" stroke-linejoin="round" stroke-width="3.54035" vectornator:layerName="Curve 35"/>
<path d="M463.132 47.8307L455.719 58.2543" fill="none" opacity="1" stroke="#000000" stroke-linecap="butt" stroke-linejoin="round" stroke-width="3.54035" vectornator:layerName="Curve 36"/>
<path d="M511.346 51.4579L505.917 62.0556" fill="none" opacity="1" stroke="#000000" stroke-linecap="butt" stroke-linejoin="round" stroke-width="3.54035" vectornator:layerName="Curve 37"/>
<path d="M578.234 53.8221L581.129 63.8545" fill="none" opacity="1" stroke="#000000" stroke-linecap="butt" stroke-linejoin="round" stroke-width="3.54035" vectornator:layerName="Curve 38"/>
<path d="M644.317 53.7795L654.237 70.4082" fill="none" opacity="1" stroke="#000000" stroke-linecap="butt" stroke-linejoin="round" stroke-width="3.54035" vectornator:layerName="Curve 39"/>
<path d="M697.193 60.5588L709.335 74.0936" fill="none" opacity="1" stroke="#000000" stroke-linecap="butt" stroke-linejoin="round" stroke-width="3.54035" vectornator:layerName="Curve 40"/>
<path d="M713.063 61.5483C713.063 61.5483 722.405 70.5104 730.142 78.2266" fill="none" opacity="1" stroke="#000000" stroke-linecap="butt" stroke-linejoin="round" stroke-width="3.54035" vectornator:layerName="Curve 41"/>
<path d="M389.672 5.68042C389.672 5.68042 563.564-3.88344 707.12 19.3478" fill="none" opacity="1" stroke="#000000" stroke-linecap="butt" stroke-linejoin="round" stroke-width="3.54035" vectornator:layerName="Curve 42"/>
<path d="M393.851 12.0761L393.987 32.091" fill="none" opacity="1" stroke="#000000" stroke-linecap="butt" stroke-linejoin="round" stroke-width="3.54035" vectornator:layerName="Curve 43"/>
<path d="M395.316 13.6261L605.611 19.697" fill="none" opacity="1" stroke="#000000" stroke-linecap="butt" stroke-linejoin="round" stroke-width="3.54035" vectornator:layerName="Curve 44"/>
<path d="M679.775 21.5504C679.775 21.5504 692.149 21.6715 698.88 28.2452L699.217 41.8874" fill="none" opacity="1" stroke="#000000" stroke-linecap="butt" stroke-linejoin="round" stroke-width="3.54035" vectornator:layerName="Curve 45"/>
<path d="M709.128 25.1769L709.828 43.1611" fill="none" opacity="1" stroke="#000000" stroke-linecap="butt" stroke-linejoin="round" stroke-width="3.54035" vectornator:layerName="Curve 46"/>
</g>
<g id="Layer-19" vectornator:layerName="Layer 19">
<path d="M758.772 590.049C756.463 589.497 766.047 590.622 768.179 590.602C775.623 590.535 783.306 591.032 790.716 590.398C812.9 588.498 840.803 587.266 854.663 566.883C856.359 564.39 859.363 563.65 860.071 560.721" fill="none" opacity="1" stroke="#90a0b4" stroke-linecap="round" stroke-linejoin="round" stroke-width="2.70424" vectornator:layerName="Curve 1"/>
<path d="M820.977 511.488C851.83 522.616 861.477 499.791 887.711 500.474" fill="none" opacity="1" stroke="#90a0b4" stroke-linecap="round" stroke-linejoin="round" stroke-width="2.70424" vectornator:layerName="Curve 2"/>
<path d="M853.608 619.843C852.985 620.562 854.817 618.773 856.867 618.435C860.571 617.824 864.381 616.93 868.03 616.527C875.346 615.717 895.674 617.716 898.182 607.864" fill="none" opacity="1" stroke="#90a0b4" stroke-linecap="round" stroke-linejoin="round" stroke-width="2.70424" vectornator:layerName="Curve 3"/>
<path d="M933.497 564.159C940.653 565.219 970.014 558.878 969.493 551.569" fill="none" opacity="1" stroke="#90a0b4" stroke-linecap="round" stroke-linejoin="round" stroke-width="2.70424" vectornator:layerName="Curve 4"/>
</g>
</svg>
