<?xml version="1.0" encoding="UTF-8" standalone="no"?>
<!DOCTYPE svg PUBLIC "-//W3C//DTD SVG 1.1//EN" "http://www.w3.org/Graphics/SVG/1.1/DTD/svg11.dtd">
<!-- Created with Vectornator (http://vectornator.io/) -->
<svg height="100%" stroke-miterlimit="10" style="fill-rule:nonzero;clip-rule:evenodd;stroke-linecap:round;stroke-linejoin:round;" version="1.1" viewBox="0 0 2388 1668" width="100%" xml:space="preserve" xmlns="http://www.w3.org/2000/svg" xmlns:vectornator="http://vectornator.io" xmlns:xlink="http://www.w3.org/1999/xlink">
<defs/>
<g id="Layer-10" vectornator:layerName="Layer 10">
<path d="M676.989 933.318L676.034 1480.25L873.914 1478.64L1721.41 1368.97L2058.27 1323.92L2057.64 981.231L1755.84 932.566" fill="#7f9cb2" fill-rule="nonzero" opacity="1" stroke="none" vectornator:layerName="Curve 1"/>
</g>
<g id="Layer-13" vectornator:layerName="Layer 13">
<path d="M820.895 1480.25" fill="#ecc300" fill-rule="nonzero" opacity="1" stroke="none" vectornator:layerName="Curve 1"/>
<path d="M831.127 1478.64L2058.27 1318.78L2058.27 1456.09L831.127 1478.64Z" fill="#ecc300" fill-rule="nonzero" opacity="1" stroke="none" vectornator:layerName="Curve 2"/>
<path d="M1849.88 930.207L1850.51 948.89L2058.27 983.677L2058.27 930.961" fill="#ecc300" fill-rule="nonzero" opacity="1" stroke="none" vectornator:layerName="Curve 3"/>
</g>
<g id="Layer-14" vectornator:layerName="Layer 14">
<path d="M1750.29 1412.56L1692.52 1445.96" fill="none" opacity="1" stroke="#000000" stroke-linecap="round" stroke-linejoin="round" stroke-width="3.07663" vectornator:layerName="Curve 1"/>
<path d="M1775.54 1418.1L1709.72 1456.09" fill="none" opacity="1" stroke="#000000" stroke-linecap="round" stroke-linejoin="round" stroke-width="3.07663" vectornator:layerName="Curve 2"/>
<path d="M1797.51 1425.55L1759.95 1448.12" fill="none" opacity="1" stroke="#000000" stroke-linecap="round" stroke-linejoin="round" stroke-width="3.07663" vectornator:layerName="Curve 3"/>
<path d="M1815.21 1432.53C1815.21 1432.53 1796.62 1443.26 1788.51 1445.48" fill="none" opacity="1" stroke="#000000" stroke-linecap="round" stroke-linejoin="round" stroke-width="3.07663" vectornator:layerName="Curve 4"/>
<path d="M1825.91 1419.47C1825.91 1419.47 1848.38 1423.81 1870.8 1404.46" fill="none" opacity="1" stroke="#000000" stroke-linecap="round" stroke-linejoin="round" stroke-width="3.07663" vectornator:layerName="Curve 5"/>
<path d="M1870.87 1404.51C1870.87 1404.51 1905.45 1414 1918.47 1392.41" fill="none" opacity="1" stroke="#000000" stroke-linecap="round" stroke-linejoin="round" stroke-width="3.07663" vectornator:layerName="Curve 6"/>
</g>
<g id="Layer-12" vectornator:layerName="Layer 12">
<path d="M1722.22 800.76C1721.5 800.046 1721.54 802.66 1719.45 800.628C1711.79 793.185 1700.4 785.004 1702.26 775.753C1703.03 771.932 1709.2 770.103 1709.82 766.445C1710.89 760.052 1708.95 755.738 1714.67 751.194C1721.27 745.937 1728.53 754.805 1734.29 753.661C1736.64 753.194 1735.56 749.923 1738.12 749.288C1741.8 748.372 1748.03 751.97 1751.2 753.549C1752.42 754.155 1762.26 752.723 1766.09 755.007C1773.6 759.493 1774.9 763.837 1779.73 771.043C1780.77 772.596 1783.5 772.47 1784.47 774.071C1785.6 775.951 1785.99 779.622 1787.51 781.136C1788.81 782.425 1792.71 783.354 1793.49 785.285C1798.11 796.776 1790.91 821.442 1779.96 826.889C1771.03 831.325 1748.01 824.209 1742.86 815.675C1740.42 811.63 1736.06 800.342 1731.47 798.517C1729.76 797.837 1724.92 800.041 1725.94 798.517C1726.96 797 1733.92 796.008 1733.5 798.517C1733.06 801.114 1725.5 805.273 1724.14 802.554" fill="#50494b" fill-rule="nonzero" opacity="1" stroke="none" vectornator:layerName="Curve 1"/>
</g>
<g id="Layer-11" vectornator:layerName="Layer 11">
<path d="M1608.58 869.419C1608.58 869.419 1663.67 988.778 1716.57 975.378C1716.57 975.378 1727.41 974.427 1722.86 951.943C1722.86 951.943 1715.64 930.446 1686.29 910.132C1686.29 910.132 1666.48 894.525 1664.38 849.848C1664.38 849.848 1660.34 839.731 1647.65 846.235C1647.65 846.235 1645.63 849.318 1646.04 858.027C1646.04 858.027 1634.67 837.953 1627.86 837.662C1621.05 837.37 1621.19 844.623 1615.42 840.066C1615.42 840.066 1609.44 841.933 1613.87 851.229C1613.87 851.229 1597.34 841.935 1608.58 869.419Z" fill="#c68244" fill-rule="nonzero" opacity="1" stroke="none" vectornator:layerName="Curve 1"/>
<path d="M1629.9 910.538C1641.34 916.198 1601.56 889.193 1608.89 868.064C1616.21 846.935 1632.73 905.077 1632.73 905.077L1630.92 910.528" fill="#c68244" fill-rule="nonzero" opacity="1" stroke="none" vectornator:layerName="Curve 2"/>
<path d="M1744.95 859.622L1743.56 842.003C1743.56 842.003 1711.23 836.497 1721.44 801.042C1721.44 801.042 1729.29 801.239 1737.18 797.115C1737.18 797.115 1740.24 803.046 1739.36 809.341C1739.36 809.341 1741.04 811.836 1742.53 813.507C1743.47 814.565 1744.23 814.469 1744.8 815.826L1754.13 815.098C1754.13 815.098 1755.83 813.217 1759.4 807.924C1759.4 807.924 1766.47 808.359 1768.08 816.117C1768.08 816.117 1766.91 825.16 1775.66 827.175C1775.66 827.175 1785.89 848.822 1784.73 860.162L1760.43 864.247L1744.47 860.261" fill="#c68244" fill-rule="nonzero" opacity="1" stroke="none" vectornator:layerName="Curve 3"/>
<path d="M1852.86 946.136L1835.43 954.358C1835.43 954.358 1835.08 994.671 1842.1 1024.83L1853.52 1062.35C1853.52 1062.35 1863.96 1059.83 1867.19 1054.31C1867.19 1054.31 1865.51 1036.45 1869.33 1015.1C1869.33 1015.1 1854.78 959.813 1852.86 946.136Z" fill="#c68244" fill-rule="nonzero" opacity="1" stroke="none" vectornator:layerName="Curve 4"/>
</g>
<g id="Layer-5" vectornator:layerName="Layer 5">
<path d="M1637.15 1368.97C1637.15 1368.97 1480.43 1326.55 1358.28 1292C1358.28 1292 1265.55 1249.83 1188.12 1212.48C1188.12 1212.48 1062.91 1262.06 937.13 1207.07C937.13 1207.07 916.393 1181.99 942.964 1161.09C942.964 1161.09 971.558 1162.57 960.442 1139.82C960.442 1139.82 963.873 1106.87 999.876 1145.19C999.876 1145.19 1012.1 1174.83 1094.43 1162.3C1094.43 1162.3 1137.98 1160.83 1130.94 1111.99L1088.69 1080.29C1088.69 1080.29 1071.76 1107.25 1051.27 1087.29C1051.27 1087.29 1024.44 1096.04 1021.22 1071.85C1021.22 1071.85 1022.53 1063.65 1007.1 1052.23C1007.1 1052.23 1000.03 1039.51 1009.96 1027.89C1009.96 1027.89 997.123 1001.5 1023.66 993.736C1023.66 993.736 1014.82 978.21 1032.1 971.586C1032.1 971.586 1037.81 968.431 1045.9 972.847C1045.9 972.847 1051.93 983.415 1066.68 976.002C1066.68 976.002 1075.4 973.951 1080 984.992L1078.73 993.982C1078.73 993.982 1090.31 997.136 1085.55 1007.39C1085.55 1007.39 1130.73 1005.82 1131.29 1057.51L1152.34 1066.62C1152.34 1066.62 1177.17 1019.59 1219.75 1028.16C1219.75 1028.16 1303.89 1047.5 1358.21 1081.08L1400.41 1101.74C1400.41 1101.74 1460.88 1122.2 1452.13 1154.16C1452.13 1154.16 1647.33 1254.99 1757.08 1332.81L1767.07 1330.61L1774.94 1357.28L1709.72 1365.41L1637.15 1368.97Z" fill="#ffffff" fill-rule="nonzero" opacity="1" stroke="none" vectornator:layerName="Curve 1"/>
</g>
<g id="Layer-7" vectornator:layerName="Layer 7">
<path d="M1740.9 1177.17C1740.31 1176.25 1742.11 1179.7 1741.89 1182.46C1741.45 1188.11 1743.79 1192.68 1743.5 1198.03C1742.69 1212.86 1746.96 1229.03 1749.32 1243.5C1753.84 1271.12 1757.37 1305.9 1768.82 1331.12C1772.93 1340.17 1769.66 1353.41 1776.58 1361.46C1781.19 1366.81 1799.59 1368.24 1806.17 1368.38C1821.16 1368.71 1823.07 1354.58 1831.97 1352.38C1842.88 1349.67 1853.73 1354.48 1864.59 1354.72C1875.18 1354.95 1881 1345.47 1889.64 1341.26C1890.98 1340.61 1894.38 1341.38 1895.4 1340.73C1895.68 1340.55 1894.36 1337.36 1894.23 1337.03C1892.35 1332.19 1887.64 1326.96 1887.96 1321.15C1888.82 1305.31 1881.45 1288.53 1876.76 1274.48C1874.31 1267.17 1874.31 1257.86 1873.07 1250.31C1870.97 1237.45 1866.3 1223.03 1867.55 1209.97C1868.15 1203.8 1867.52 1193.37 1864.1 1188.02C1861.23 1183.53 1862.84 1171.21 1861.46 1165.7C1861.14 1164.45 1861.38 1161.31 1860.29 1162C1859.76 1162.33 1859.89 1165.29 1859.57 1166.01C1857.86 1169.85 1854.27 1171.63 1851.16 1174.28C1840.04 1183.75 1826.39 1182.21 1813.33 1185.45" fill="#dd623c" fill-rule="nonzero" opacity="1" stroke="none" vectornator:layerName="Curve 1"/>
</g>
<g id="Layer-8" vectornator:layerName="Layer 8">
<path d="M1750.22 1205.83C1750.22 1199.65 1754.95 1194.64 1760.79 1194.64C1766.62 1194.64 1771.35 1199.65 1771.35 1205.83C1771.35 1212.01 1766.62 1217.02 1760.79 1217.02C1754.95 1217.02 1750.22 1212.01 1750.22 1205.83Z" fill="#f3c717" fill-rule="nonzero" opacity="1" stroke="none" vectornator:layerName="Oval 1"/>
<path d="M1755.51 1248.92C1755.51 1242.73 1760.24 1237.72 1766.07 1237.72C1771.91 1237.72 1776.64 1242.73 1776.64 1248.92C1776.64 1255.1 1771.91 1260.11 1766.07 1260.11C1760.24 1260.11 1755.51 1255.1 1755.51 1248.92Z" fill="#f3c717" fill-rule="nonzero" opacity="1" stroke="none" vectornator:layerName="Oval 2"/>
<path d="M1783.01 1233.58C1783.01 1227.4 1787.74 1222.39 1793.57 1222.39C1799.41 1222.39 1804.14 1227.4 1804.14 1233.58C1804.14 1239.76 1799.41 1244.77 1793.57 1244.77C1787.74 1244.77 1783.01 1239.76 1783.01 1233.58Z" fill="#f3c717" fill-rule="nonzero" opacity="1" stroke="none" vectornator:layerName="Oval 3"/>
<path d="M1836.6 1205.83C1836.6 1199.65 1841.33 1194.64 1847.16 1194.64C1853 1194.64 1857.73 1199.65 1857.73 1205.83C1857.73 1212.01 1853 1217.02 1847.16 1217.02C1841.33 1217.02 1836.6 1212.01 1836.6 1205.83Z" fill="#f3c717" fill-rule="nonzero" opacity="1" stroke="none" vectornator:layerName="Oval 4"/>
<path d="M1815.7 1233.58C1815.7 1227.4 1820.43 1222.39 1826.26 1222.39C1832.1 1222.39 1836.83 1227.4 1836.83 1233.58C1836.83 1239.76 1832.1 1244.77 1826.26 1244.77C1820.43 1244.77 1815.7 1239.76 1815.7 1233.58Z" fill="#f3c717" fill-rule="nonzero" opacity="1" stroke="none" vectornator:layerName="Oval 5"/>
<path d="M1767.84 1301.54C1767.84 1295.36 1772.57 1290.35 1778.4 1290.35C1784.24 1290.35 1788.97 1295.36 1788.97 1301.54C1788.97 1307.72 1784.24 1312.73 1778.4 1312.73C1772.57 1312.73 1767.84 1307.72 1767.84 1301.54Z" fill="#f3c717" fill-rule="nonzero" opacity="1" stroke="none" vectornator:layerName="Oval 6"/>
<path d="M1786.36 1279.16C1786.36 1272.98 1791.09 1267.97 1796.92 1267.97C1802.76 1267.97 1807.49 1272.98 1807.49 1279.16C1807.49 1285.34 1802.76 1290.35 1796.92 1290.35C1791.09 1290.35 1786.36 1285.34 1786.36 1279.16Z" fill="#f3c717" fill-rule="nonzero" opacity="1" stroke="none" vectornator:layerName="Oval 7"/>
<path d="M1776.64 1348.01C1776.64 1341.83 1781.37 1336.82 1787.21 1336.82C1793.04 1336.82 1797.78 1341.83 1797.78 1348.01C1797.78 1354.19 1793.04 1359.2 1787.21 1359.2C1781.37 1359.2 1776.64 1354.19 1776.64 1348.01Z" fill="#f3c717" fill-rule="nonzero" opacity="1" stroke="none" vectornator:layerName="Oval 8"/>
<path d="M1796.92 1323.92C1796.92 1317.74 1801.65 1312.73 1807.49 1312.73C1813.33 1312.73 1818.06 1317.74 1818.06 1323.92C1818.06 1330.1 1813.33 1335.11 1807.49 1335.11C1801.65 1335.11 1796.92 1330.1 1796.92 1323.92Z" fill="#f3c717" fill-rule="nonzero" opacity="1" stroke="none" vectornator:layerName="Oval 9"/>
<path d="M1826.53 1288.83C1826.53 1282.65 1831.26 1277.64 1837.1 1277.64C1842.93 1277.64 1847.67 1282.65 1847.67 1288.83C1847.67 1295.02 1842.93 1300.03 1837.1 1300.03C1831.26 1300.03 1826.53 1295.02 1826.53 1288.83Z" fill="#f3c717" fill-rule="nonzero" opacity="1" stroke="none" vectornator:layerName="Oval 10"/>
<path d="M1843.45 1251.82C1843.45 1245.64 1848.18 1240.63 1854.01 1240.63C1859.85 1240.63 1864.58 1245.64 1864.58 1251.82C1864.58 1258 1859.85 1263.01 1854.01 1263.01C1848.18 1263.01 1843.45 1258 1843.45 1251.82Z" fill="#f3c717" fill-rule="nonzero" opacity="1" stroke="none" vectornator:layerName="Oval 11"/>
<path d="M1860.94 1306.38C1860.94 1300.2 1865.67 1295.19 1871.51 1295.19C1877.35 1295.19 1882.08 1300.2 1882.08 1306.38C1882.08 1312.56 1877.35 1317.57 1871.51 1317.57C1865.67 1317.57 1860.94 1312.56 1860.94 1306.38Z" fill="#f3c717" fill-rule="nonzero" opacity="1" stroke="none" vectornator:layerName="Oval 12"/>
<path d="M1842.55 1329.97C1842.55 1323.79 1847.28 1318.78 1853.12 1318.78C1858.95 1318.78 1863.68 1323.79 1863.68 1329.97C1863.68 1336.15 1858.95 1341.16 1853.12 1341.16C1847.28 1341.16 1842.55 1336.15 1842.55 1329.97Z" fill="#f3c717" fill-rule="nonzero" opacity="1" stroke="none" vectornator:layerName="Oval 13"/>
</g>
<g id="Layer-9" vectornator:layerName="Layer 9">
<path d="M1836.37 1349.39C1835.46 1349.14 1830.27 1350 1825.91 1353.97C1821.37 1358.1 1817.63 1365.39 1814.34 1366.52C1807.37 1368.91 1792.54 1365.41 1784.83 1365.41C1780.43 1365.41 1777.55 1360.87 1775.54 1361.29C1773.85 1361.64 1780.59 1376.96 1779.6 1377.57C1778.15 1378.45 1780.17 1375.9 1778.73 1375.3C1777.74 1374.89 1779.84 1373.42 1773.08 1374.24C1766.96 1374.98 1755.68 1384.04 1754.84 1390.39C1754.19 1395.31 1765.87 1394.99 1768.28 1395.24C1769.46 1395.35 1773.75 1399.7 1774.19 1399.47C1777.01 1398.03 1767.78 1393.07 1767.25 1395.87C1767 1397.17 1776.38 1399.28 1776.48 1398.96C1777.45 1395.99 1770.55 1393.46 1767.93 1394.61C1767.66 1394.73 1766.99 1394.78 1767.31 1395.25C1769.97 1399.13 1775.02 1397.88 1778.58 1399.35C1791.11 1404.54 1805.36 1405.17 1819.01 1404.12C1821.84 1403.9 1824.59 1405.46 1827.59 1404.93C1835.5 1403.53 1843.84 1402.03 1850.73 1397.82C1853.6 1396.06 1849.41 1391.87 1853.37 1390.51C1856.79 1389.33 1863.55 1391.05 1867.67 1390.42C1878.9 1388.7 1889.43 1384.49 1898.64 1378.86C1900.56 1377.69 1902.33 1367.79 1901.01 1365.66C1899.76 1363.63 1896.07 1361.2 1895.77 1358.78C1895.25 1354.49 1895.8 1350.62 1894.87 1346.24C1894.34 1343.72 1895.4 1335.88 1891.62 1335.38C1890.32 1335.21 1891.64 1338.14 1890.89 1339.21C1888.68 1342.35 1887.46 1342.17 1883.67 1345.13C1879.85 1348.12 1870.49 1351.85 1864.92 1353.51C1861.93 1354.4 1860.27 1354.27 1859.62 1354.22C1856.47 1353.93 1855.8 1353.93 1854.78 1353.51C1848.41 1350.88 1841.46 1350.82 1836.37 1349.39Z" fill="#8aa5b9" fill-rule="nonzero" opacity="1" stroke="none" vectornator:layerName="Curve 1"/>
<path d="M1754.22 1393.46C1750.43 1404.83 1762.1 1402.97 1769.37 1406.01C1788.8 1414.1 1808.66 1416.98 1829.01 1413.5C1832.01 1412.99 1852.19 1410.75 1853.05 1406.84C1855.97 1393.66 1840.04 1403.65 1834.19 1404.04C1831.92 1404.19 1829.49 1404.12 1827.31 1404.26C1826.07 1404.34 1822.68 1405.78 1823.63 1404.97C1826.17 1402.8 1837.51 1407.75 1838.68 1402.48C1839.14 1400.4 1823.43 1404.05 1821.81 1403.93C1811.24 1403.14 1797.16 1405.96 1787.28 1401.84" fill="#f4e7d1" fill-rule="nonzero" opacity="1" stroke="none" vectornator:layerName="Curve 3"/>
<path d="M1901.35 1375.65C1901.3 1375.09 1901.46 1375.26 1901.05 1375.74C1899.32 1377.77 1897.34 1379.23 1895.05 1380.62C1890.4 1383.42 1885.05 1385.31 1880.08 1387.42C1874.58 1389.75 1850.7 1388.31 1853.08 1395.95C1853.72 1398.02 1859.62 1396.96 1861.33 1397.13C1869.76 1397.95 1882.58 1393.57 1890.26 1389.84C1892.98 1388.52 1896.31 1388.15 1898.88 1386.6C1900.15 1385.84 1903.99 1383.61 1902.72 1384.37" fill="#f4e7d1" fill-rule="nonzero" opacity="1" stroke="none" vectornator:layerName="Curve 4"/>
<path d="M1894.45 1387.58C1893.89 1387.71 1883.17 1393.19 1883.69 1393.63C1886.19 1395.73 1894.74 1389.19 1896.75 1387.97" fill="#f4e7d1" fill-rule="nonzero" opacity="1" stroke="none" vectornator:layerName="Curve 5"/>
<path d="M1886.85 1390.12C1871.87 1394.73 1882.03 1396.06 1890.56 1390.91" fill="#f4e7d1" fill-rule="nonzero" opacity="1" stroke="none" vectornator:layerName="Curve 6"/>
<path d="M1880.65 1392.61C1878.98 1393.21 1877.16 1393.91 1875.63 1394.83C1872.96 1396.44 1881.18 1395.61 1882.85 1392.98" fill="#f4e7d1" fill-rule="nonzero" opacity="1" stroke="none" vectornator:layerName="Curve 7"/>
</g>
<g id="Layer-6" vectornator:layerName="Layer 6">
<path d="M1740.13 1176.23C1740.13 1176.23 1706.34 1055.42 1722.87 963.8C1722.87 963.8 1735.56 951.355 1685.6 909.475C1685.6 909.475 1693.85 850.667 1763.65 860.428C1763.65 860.428 1834.77 842.825 1852.81 946.459C1852.81 946.459 1852 947.456 1835.9 954.097C1835.9 954.097 1833.08 1004.49 1851.32 1058.92C1851.32 1058.92 1858.62 1074.84 1854.85 1097.25C1854.85 1097.25 1863.89 1144.82 1858.66 1160.58C1858.66 1160.58 1857.67 1190.97 1789.82 1181.35C1789.82 1181.35 1751.8 1179.57 1740.13 1176.23Z" fill="#ffffff" fill-rule="nonzero" opacity="1" stroke="none" vectornator:layerName="Curve 1"/>
<path d="M1392.87 995.615C1393.12 995.321 1403.06 995.847 1406.36 994.485C1418.01 989.685 1438.38 987.408 1450.56 992.757C1461.18 997.421 1471.87 1002.62 1483.77 1003.64C1497.97 1004.85 1514.64 1001.25 1527.93 997.049C1532.91 995.473 1540.41 989.385 1545.9 990.782C1546.48 990.932 1548.75 990.832 1548.45 992.003C1548.28 992.673 1547.17 992.468 1546.73 992.563C1541.25 993.742 1534.18 997.568 1529.19 1000.51C1514.6 1009.11 1489.55 1012.37 1473.2 1006.23C1462.84 1002.33 1452.77 995.238 1441.49 994.013C1429.67 992.729 1417.76 998.699 1405.87 998.069C1403.55 997.946 1389.15 999.94 1392.87 995.615Z" fill="#ffffff" fill-rule="nonzero" opacity="1" stroke="none" vectornator:layerName="Curve 2"/>
<path d="M1502.72 1028.37C1508.57 1026.52 1515.45 1028.09 1521.36 1026.48C1529.44 1024.27 1536.26 1017.52 1544.34 1015.78C1550.14 1014.53 1558.03 1015.18 1563.92 1015.49C1575.13 1016.08 1584.24 1021.55 1595.56 1019.12C1596.83 1018.85 1605 1015.08 1604.89 1013.51C1604.83 1012.61 1598.06 1014.86 1597.47 1015.04C1594.32 1015.98 1588.73 1014.92 1585.54 1014.57C1578.24 1013.78 1570.66 1009.49 1563.56 1009.12C1549.11 1008.35 1538.52 1013.95 1525.89 1018.36C1519.64 1020.54 1513.76 1023.98 1506.74 1023.61C1502.44 1023.38 1500.97 1028.92 1502.72 1028.37Z" fill="#ffffff" fill-rule="nonzero" opacity="1" stroke="none" vectornator:layerName="Curve 3"/>
<path d="M1556.54 1117.38C1557.26 1118.44 1552.68 1119.85 1552.27 1120.83C1551.59 1122.46 1546.13 1129.06 1544.32 1128.32C1540.07 1126.57 1546.13 1120.63 1547.08 1118.62C1547.64 1117.45 1551.16 1115.8 1552.35 1115.01C1559.41 1110.3 1569.99 1114.19 1577.54 1114.72C1586.56 1115.35 1600.37 1116.26 1609.07 1113.88C1619.07 1111.14 1628.89 1110.99 1639.14 1110.14C1640.83 1110 1653.16 1105.66 1653.41 1106.99C1654.61 1113.32 1635.21 1115.1 1631.69 1115.1C1621.59 1115.13 1611.73 1117.78 1601.73 1118.27C1590.13 1118.85 1579.29 1117.23 1567.9 1116.28C1564.06 1115.96 1555.12 1119.91 1552.68 1118.77" fill="#ffffff" fill-rule="nonzero" opacity="1" stroke="none" vectornator:layerName="Curve 4"/>
<path d="M1034.28 1284.34C1019.43 1290.79 1003.87 1288.83 988.501 1291.39C974.331 1293.76 963.325 1305.86 947.844 1305.05C933.756 1304.32 916.274 1298.09 902.707 1299.89C897.532 1300.58 858.543 1303.76 860.011 1312.45C860.207 1313.61 861.473 1313.9 862.481 1314.03C873.224 1315.42 887.41 1308.71 900.202 1309.38C913.953 1310.09 928.153 1314 942.319 1314.74C958.878 1315.6 975.544 1303.86 991.15 1299.96C1005.78 1296.31 1026.4 1304.53 1036.9 1288.29" fill="#ffffff" fill-rule="nonzero" opacity="1" stroke="none" vectornator:layerName="Curve 5"/>
<path d="M1034.09 1284.46C1034.84 1284.06 1035.78 1283.79 1036.58 1283.44C1043.21 1280.58 1036.75 1287.99 1036.64 1288.79" fill="#ffffff" fill-rule="nonzero" opacity="1" stroke="none" vectornator:layerName="Curve 6"/>
<path d="M973.443 1337.36C973.624 1336.09 978.512 1336.73 979.833 1336.55C986.019 1335.74 991.601 1334.54 997.549 1333.19C1007.99 1330.81 1016.17 1320.85 1026.84 1318.95C1041.42 1316.35 1055.47 1320.51 1069.89 1322.47C1079.02 1323.72 1086.72 1324.36 1095.7 1322.32C1098.48 1321.68 1101.76 1319.76 1104.1 1318.11C1104.42 1317.87 1107.19 1315.6 1107.14 1316.74C1106.13 1341.4 1048.72 1319.75 1035.83 1323.13C1022.26 1326.68 1000.13 1340.94 987.87 1341.16C986.905 1341.18 970.194 1340.7 970.642 1339.53C971.467 1337.37 973.019 1340.33 973.443 1337.36Z" fill="#ffffff" fill-rule="nonzero" opacity="1" stroke="none" vectornator:layerName="Curve 7"/>
<path d="M974.758 1336.86C973.145 1336.46 968.79 1338.84 971.728 1339.58" fill="#ffffff" fill-rule="nonzero" opacity="1" stroke="none" vectornator:layerName="Curve 8"/>
<path d="M970.96 1338.18C969.526 1339.03 970.564 1340.04 971.776 1339.88" fill="#ffffff" fill-rule="nonzero" opacity="1" stroke="none" vectornator:layerName="Curve 9"/>
<path d="M861.678 1125.11C842.625 1140.68 821.92 1130.66 800.154 1132.34C797.592 1132.54 778.29 1136.55 779.562 1140.87C780.341 1143.51 794.639 1137.09 797.936 1137.21C813.089 1137.76 829.752 1142.22 845.063 1138.53C850.94 1137.11 859.822 1133.55 863.876 1128.84C865.205 1127.3 862.192 1124.69 861.678 1125.11Z" fill="#ffffff" fill-rule="nonzero" opacity="1" stroke="none" vectornator:layerName="Curve 10"/>
<path d="M863.419 1141.26C853.52 1146.42 843.016 1146.13 832.574 1147.82C831.544 1147.99 830.218 1148.78 830.583 1150.02C831.177 1152.03 837.902 1152.01 839.493 1151.87C844.228 1151.46 871.148 1149.29 866.021 1139.56" fill="#ffffff" fill-rule="nonzero" opacity="1" stroke="none" vectornator:layerName="Curve 11"/>
<path d="M872.209 1167.55C872.034 1165.67 854.071 1167.56 851.004 1168.07C845.353 1169.01 842.931 1164.63 838.295 1164.63C837.952 1164.63 836.864 1164.52 836.776 1165.05C836.518 1166.58 838.323 1166.77 839.055 1167.79C845.335 1176.54 854.911 1174.13 864.335 1171.57C867.233 1170.79 872.52 1170.91 872.209 1167.55Z" fill="#ffffff" fill-rule="nonzero" opacity="1" stroke="none" vectornator:layerName="Curve 12"/>
<path d="M831.912 971.681C831.563 972.691 820.915 974.325 818.814 975.35C792.726 988.073 766.942 965.926 742.017 964.239C733.243 963.644 712.329 966.23 710.688 977.193C710.6 977.783 713.112 975.939 713.442 975.753C715.513 974.587 718.255 974.376 720.562 973.997C728.247 972.734 736.745 971.431 744.514 972.208C751.539 972.91 757.461 976.522 764.253 977.759C779.506 980.537 794.967 982.585 810.403 983.63C816.574 984.048 824.147 981.603 828.895 978.638C830.92 977.373 832.534 969.877 831.912 971.681Z" fill="#ffffff" fill-rule="nonzero" opacity="1" stroke="none" vectornator:layerName="Curve 13"/>
<path d="M873.172 1002.35C870.762 999.633 865.175 999.694 861.674 999.047C843.046 995.603 829.389 1002.92 812.307 1007.22C808.804 1008.1 792.274 1005.26 791.835 1010.7C791.667 1012.78 802.767 1012.7 804.334 1012.78C810.555 1013.12 816.055 1012.9 822.008 1010.87C829.262 1008.4 833.343 1002.55 842.075 1002.2C844.114 1002.12 879.428 1009.42 873.172 1002.35Z" fill="#ffffff" fill-rule="nonzero" opacity="1" stroke="none" vectornator:layerName="Curve 14"/>
</g>
<g id="Layer-2" vectornator:layerName="Layer 2">
<path d="M676.034 930.961L942.441 935.03" fill="none" opacity="1" stroke="#000000" stroke-linecap="round" stroke-linejoin="round" stroke-width="2.10984" vectornator:layerName="Curve 1"/>
<path d="M1068.84 937L1648.67 934.188" fill="none" opacity="1" stroke="#000000" stroke-linecap="round" stroke-linejoin="round" stroke-width="2.10984" vectornator:layerName="Curve 2"/>
<path d="M1847.67 930.568L1956.02 929.311" fill="none" opacity="1" stroke="#000000" stroke-linecap="round" stroke-linejoin="round" stroke-width="2.10984" vectornator:layerName="Curve 3"/>
<path d="M1731.17 864.991C1731.17 864.991 1693.44 858.55 1685.72 904.82" fill="none" opacity="1" stroke="#000000" stroke-linecap="round" stroke-linejoin="round" stroke-width="2.10984" vectornator:layerName="Curve 4"/>
<path d="M1801.99 867.707C1801.99 867.707 1819.37 874.763 1829.4 893.739" fill="none" opacity="1" stroke="#000000" stroke-linecap="round" stroke-linejoin="round" stroke-width="2.10984" vectornator:layerName="Curve 5"/>
<path d="M1741.07 925.093C1741.07 925.093 1739.42 947.105 1723.2 963.848" fill="none" opacity="1" stroke="#000000" stroke-linecap="round" stroke-linejoin="round" stroke-width="2.10984" vectornator:layerName="Curve 6"/>
<path d="M1717.56 984.852C1717.56 984.852 1708.74 1068.12 1738.68 1176.22" fill="none" opacity="1" stroke="#000000" stroke-linecap="round" stroke-linejoin="round" stroke-width="2.10984" vectornator:layerName="Curve 7"/>
<path d="M1844.55 1010.31C1844.55 1010.31 1842.84 1020.18 1849.86 1035.55C1849.86 1035.55 1857.18 1061.53 1856.62 1088.3" fill="none" opacity="1" stroke="#000000" stroke-linecap="round" stroke-linejoin="round" stroke-width="2.10984" vectornator:layerName="Curve 8"/>
<path d="M1739.89 1175.92C1739.89 1175.92 1745.63 1261.24 1779.38 1376.91" fill="none" opacity="1" stroke="#000000" stroke-linecap="round" stroke-linejoin="round" stroke-width="2.10984" vectornator:layerName="Curve 9"/>
<path d="M1740.11 1177.6C1740.11 1177.6 1769.14 1178 1808.86 1184.6C1808.86 1184.6 1850.58 1188.82 1860.46 1160.78" fill="none" opacity="1" stroke="#000000" stroke-linecap="round" stroke-linejoin="round" stroke-width="2.10984" vectornator:layerName="Curve 10"/>
<path d="M1860.53 1160.48C1860.53 1160.48 1873.07 1265.48 1892.3 1335.92C1892.3 1335.92 1895.63 1326.73 1896.19 1356.34L1900.02 1364.25L1902.55 1384.51C1902.55 1384.51 1892.27 1394.03 1872.56 1396.99" fill="none" opacity="1" stroke="#000000" stroke-linecap="round" stroke-linejoin="round" stroke-width="2.10984" vectornator:layerName="Curve 11"/>
<path d="M1893.76 1381.14C1893.76 1381.14 1874.91 1392.57 1853.12 1390.48" fill="none" opacity="1" stroke="#000000" stroke-linecap="round" stroke-linejoin="round" stroke-width="2.10984" vectornator:layerName="Curve 12"/>
<path d="M1810.54 1252.41C1810.54 1252.41 1824.59 1313.88 1832.36 1326.17C1832.36 1326.17 1831.11 1337.46 1836.8 1353.61C1836.8 1353.61 1844.71 1360.85 1844.29 1374.8C1844.29 1374.8 1853.57 1385.29 1852.09 1398.08L1854.2 1405" fill="none" opacity="1" stroke="#000000" stroke-linecap="round" stroke-linejoin="round" stroke-width="2.10984" vectornator:layerName="Curve 13"/>
<path d="M1852.77 1397.64C1852.77 1397.64 1810.17 1414.03 1755.51 1392.81" fill="none" opacity="1" stroke="#000000" stroke-linecap="round" stroke-linejoin="round" stroke-width="2.10984" vectornator:layerName="Curve 14"/>
<path d="M1770.34 1376.85C1770.34 1376.85 1758.12 1366.36 1761.24 1362.1C1761.24 1362.1 1766.27 1358.9 1774.94 1373.73C1774.94 1373.73 1768.07 1359.27 1772.88 1353.97" fill="none" opacity="1" stroke="#000000" stroke-linecap="round" stroke-linejoin="round" stroke-width="2.10984" vectornator:layerName="Curve 15"/>
<path d="M1821.21 912.606C1821.21 912.606 1835.87 937.679 1836.6 967.147" fill="none" opacity="1" stroke="#000000" stroke-linecap="round" stroke-linejoin="round" stroke-width="2.10984" vectornator:layerName="Curve 16"/>
<path d="M1854.01 948.89C1854.01 948.89 1859.74 987.074 1867.87 1006.38" fill="none" opacity="1" stroke="#000000" stroke-linecap="round" stroke-linejoin="round" stroke-width="2.10984" vectornator:layerName="Curve 17"/>
<path d="M1630.42 910.357C1630.42 910.357 1598.46 878.994 1609.07 867.707" fill="none" opacity="1" stroke="#000000" stroke-linecap="round" stroke-linejoin="round" stroke-width="2.10984" vectornator:layerName="Curve 18"/>
<path d="M1617.1 881.892C1617.1 881.892 1591.89 844.578 1613.54 850.552" fill="none" opacity="1" stroke="#000000" stroke-linecap="round" stroke-linejoin="round" stroke-width="2.10984" vectornator:layerName="Curve 19"/>
<path d="M1629.39 877.049C1629.39 877.049 1595.36 830.347 1621.84 841.844" fill="none" opacity="1" stroke="#000000" stroke-linecap="round" stroke-linejoin="round" stroke-width="2.10984" vectornator:layerName="Curve 20"/>
<path d="M1645.9 876.683C1645.9 876.683 1603.49 828.414 1631.92 839.199C1631.92 839.199 1639.08 845.958 1645.94 857.916" fill="none" opacity="1" stroke="#000000" stroke-linecap="round" stroke-linejoin="round" stroke-width="2.10984" vectornator:layerName="Curve 21"/>
<path d="M1645.75 861.805C1645.75 861.805 1643.67 843.584 1652.33 844.351C1652.33 844.351 1663.96 840.216 1666.05 854.381C1666.05 854.381 1667.09 872.291 1668.37 879.229" fill="none" opacity="1" stroke="#000000" stroke-linecap="round" stroke-linejoin="round" stroke-width="2.10984" vectornator:layerName="Curve 22"/>
<path d="M1413.19 1288.56L1434.65 1271.51C1434.65 1271.51 1467.9 1229.84 1477.19 1165.6C1477.19 1165.6 1443.39 1146.5 1435.8 1149.86" fill="none" opacity="1" stroke="#000000" stroke-linecap="round" stroke-linejoin="round" stroke-width="2.10984" vectornator:layerName="Curve 23"/>
<path d="M1455.19 1154.33C1455.19 1154.33 1456.31 1137.4 1434.85 1116.96C1434.85 1116.96 1414.41 1111.84 1403.52 1106.81C1403.52 1106.81 1400.9 1100.93 1395.94 1099.72" fill="none" opacity="1" stroke="#000000" stroke-linecap="round" stroke-linejoin="round" stroke-width="2.10984" vectornator:layerName="Curve 24"/>
<path d="M1419.28 1113.03C1419.28 1113.03 1444.78 1139.7 1396.91 1130.41" fill="none" opacity="1" stroke="#000000" stroke-linecap="round" stroke-linejoin="round" stroke-width="2.10984" vectornator:layerName="Curve 25"/>
<path d="M1392.71 1130.02C1392.71 1130.02 1362.55 1120.86 1335.97 1105.8C1335.97 1105.8 1288.14 1084.05 1257.5 1068.95" fill="none" opacity="1" stroke="#000000" stroke-linecap="round" stroke-linejoin="round" stroke-width="2.10984" vectornator:layerName="Curve 26"/>
<path d="M1286.01 1053.42C1286.01 1053.42 1287.6 1073.48 1276.99 1078.43" fill="none" opacity="1" stroke="#000000" stroke-linecap="round" stroke-linejoin="round" stroke-width="2.10984" vectornator:layerName="Curve 27"/>
<path d="M1140.38 1228.37C1140.38 1228.37 1165.54 1222.62 1188.27 1213.42C1188.27 1213.42 1209.73 1225.43 1232.9 1234.98" fill="none" opacity="1" stroke="#000000" stroke-linecap="round" stroke-linejoin="round" stroke-width="2.10984" vectornator:layerName="Curve 28"/>
<path d="M1115.13 1154.44C1115.13 1154.44 1133.57 1143.54 1130.64 1110.73" fill="none" opacity="1" stroke="#000000" stroke-linecap="round" stroke-linejoin="round" stroke-width="2.10984" vectornator:layerName="Curve 29"/>
<path d="M1096.48 1079.21C1096.48 1079.21 1078.31 1074.12 1078.07 1069.53C1078.07 1069.53 1087.66 1052.39 1057.14 1058.49C1057.14 1058.49 1036.01 1054.06 1050.95 1028.53C1050.95 1028.53 1066.79 1036.44 1064.19 1015.76C1064.19 1015.76 1074.17 1022.07 1086.29 1005.83" fill="none" opacity="1" stroke="#000000" stroke-linecap="round" stroke-linejoin="round" stroke-width="2.10984" vectornator:layerName="Curve 30"/>
<path d="M1133.32 1056.51L1158.47 1071.05" fill="none" opacity="1" stroke="#000000" stroke-linecap="round" stroke-linejoin="round" stroke-width="2.10984" vectornator:layerName="Curve 31"/>
<path d="M938.479 1209.17C938.479 1209.17 921.447 1182.4 974.676 1209.19C974.676 1209.19 972.7 1200.37 1005.02 1199.43" fill="none" opacity="1" stroke="#000000" stroke-linecap="round" stroke-linejoin="round" stroke-width="2.10984" vectornator:layerName="Curve 32"/>
<path d="M992.909 1199.55C992.909 1199.55 986.451 1181.97 993.89 1174.08L993.385 1165.24C993.385 1165.24 962.488 1155.14 967.136 1132.7" fill="none" opacity="1" stroke="#000000" stroke-linecap="round" stroke-linejoin="round" stroke-width="2.10984" vectornator:layerName="Curve 33"/>
<path d="M970.915 1150.36C970.915 1150.36 945.719 1140.06 954.808 1167.19" fill="none" opacity="1" stroke="#000000" stroke-linecap="round" stroke-linejoin="round" stroke-width="2.10984" vectornator:layerName="Curve 34"/>
<path d="M967.865 1173.39C967.865 1173.39 927.982 1148.04 938.448 1182.82" fill="none" opacity="1" stroke="#000000" stroke-linecap="round" stroke-linejoin="round" stroke-width="2.10984" vectornator:layerName="Curve 35"/>
<path d="M970.782 1194.98C970.782 1194.98 916.882 1167.39 931.404 1196.27" fill="none" opacity="1" stroke="#000000" stroke-linecap="round" stroke-linejoin="round" stroke-width="2.10984" vectornator:layerName="Curve 36"/>
</g>
<g id="Layer-3" vectornator:layerName="Layer 3">
<path d="M1695.59 1362.92C1695.59 1362.92 1115.6 1445.35 832.874 1474.95" fill="none" opacity="1" stroke="#000000" stroke-linecap="round" stroke-linejoin="round" stroke-width="6.54708" vectornator:layerName="Curve 1"/>
</g>
<g id="Layer-4" vectornator:layerName="Layer 4">
<path d="M1490.14 1327.31C1487.83 1326.76 1497.42 1327.89 1499.55 1327.87C1506.99 1327.8 1514.67 1328.3 1522.08 1327.66C1544.27 1325.76 1572.17 1324.53 1586.03 1304.15C1587.73 1301.66 1590.73 1300.92 1591.44 1297.99" fill="none" opacity="1" stroke="#90a0b4" stroke-linecap="round" stroke-linejoin="round" stroke-width="2.70424" vectornator:layerName="Curve 1"/>
<path d="M1552.35 1248.75C1583.2 1259.88 1592.85 1237.06 1619.08 1237.74" fill="none" opacity="1" stroke="#90a0b4" stroke-linecap="round" stroke-linejoin="round" stroke-width="2.70424" vectornator:layerName="Curve 2"/>
<path d="M1584.98 1357.11C1584.35 1357.83 1586.19 1356.04 1588.24 1355.7C1591.94 1355.09 1595.75 1354.2 1599.4 1353.79C1606.71 1352.98 1627.04 1354.98 1629.55 1345.13" fill="none" opacity="1" stroke="#90a0b4" stroke-linecap="round" stroke-linejoin="round" stroke-width="2.70424" vectornator:layerName="Curve 3"/>
<path d="M1664.87 1301.43C1672.02 1302.48 1701.38 1296.14 1700.86 1288.83" fill="none" opacity="1" stroke="#90a0b4" stroke-linecap="round" stroke-linejoin="round" stroke-width="2.70424" vectornator:layerName="Curve 4"/>
</g>
</svg>
