<?xml version="1.0" encoding="UTF-8" standalone="no"?>
<!DOCTYPE svg PUBLIC "-//W3C//DTD SVG 1.1//EN" "http://www.w3.org/Graphics/SVG/1.1/DTD/svg11.dtd">
<!-- Created with Vectornator (http://vectornator.io/) -->
<svg height="100%" stroke-miterlimit="10" style="fill-rule:nonzero;clip-rule:evenodd;stroke-linecap:round;stroke-linejoin:round;" version="1.1" viewBox="-473.305 -2432.03 19228.8 6863.11" width="100%" xml:space="preserve" xmlns="http://www.w3.org/2000/svg" xmlns:vectornator="http://vectornator.io" xmlns:xlink="http://www.w3.org/1999/xlink">
<defs/>
<g id="Layer-7" vectornator:layerName="Layer 7">
<path d="M-456.837 2139.26L2523.64 2139.26L12664.4 2139.26L12664.4 4431.08L-473.305 4425.69L-456.837 2139.26Z" fill="#5f9052" fill-rule="nonzero" opacity="1" stroke="none" vectornator:layerName="Curve 10"/>
<path d="M18735.3-489.131C18765.1-731.26 18753.1-974.991 18753.1-1217.72C18753.1-1622.42 18744.2-2027.93 18744.2-2432.03" fill="#010101" fill-rule="nonzero" opacity="1" stroke="none" vectornator:layerName="Curve 2476"/>
<path d="M4144.74 1702.6C4140.53 1702.12 4173.17 1683.45 4176.29 1681.31C4201.73 1663.85 4219.87 1664.13 4253.91 1664.02C4272.19 1663.96 4317.78 1667.75 4330.98 1677.51C4331.76 1678.1 4337.05 1683.83 4337.89 1683.56C4345.6 1681.06 4348.91 1668.86 4356.9 1664.76C4399.56 1642.84 4432.91 1657.48 4460.73 1678.05C4479.16 1691.69 4483.58 1724.33 4501 1735.86C4507.47 1740.14 4559.1 1729.44 4570.33 1730.74C4576.15 1731.41 4617.63 1737.17 4626.75 1741.85C4636.84 1747.03 4635.24 1762.52 4647.52 1763.93C4656.73 1765 4687.74 1734.19 4700.22 1730.64C4721.33 1724.64 4772.64 1758.64 4782.7 1748.7C4789.02 1742.44 4756.59 1755.8 4750.27 1749.55C4749.35 1748.64 4749.61 1747.17 4750.1 1746.24C4753.5 1739.76 4846.26 1704.19 4860.14 1703.83C4919.8 1702.26 4960.62 1726.25 4988.33 1763.91C4994.84 1772.76 4985.77 1790.21 4994.66 1796.79C5013.88 1811.01 5115.23 1806.5 5131.43 1843.43C5139.87 1862.67 5094.23 1884.66 5097.55 1899.23C5098.8 1904.7 5152.7 1898.45 5152.86 1923.34C5153.05 1953.8 5114.4 1979.93 5070.22 1974.83C5055.38 1973.11 5040.04 1960.62 5024.55 1961.02C4993.52 1961.84 4961.59 1982.16 4932.76 1983.9C4896.81 1986.06 4859.97 1985.55 4824.41 1986.48C4804.3 1987.01 4758.43 1951.82 4744.7 1956.28C4742.3 1957.05 4748.84 2003.84 4732.94 2012.01C4720.86 2018.22 4695.72 2031.87 4680.91 2034.22C4675.98 2035.01 4663.26 2036.36 4665.99 2039.06C4670.6 2043.62 4688.99 2035.16 4688.99 2035.16C4688.99 2035.16 4680.97 2035.54 4677.03 2035.09C4665.15 2033.72 4640.44 2065.5 4622.55 2047.83C4620.44 2045.75 4637.26 2046.9 4638.39 2047.03C4654.32 2048.87 4661 2016.7 4679.09 2030.08C4687.15 2036.04 4654.31 2051.03 4648 2053.39C4631.84 2059.43 4596.15 2045.39 4594.65 2032.8C4593.75 2025.21 4619.13 2008.67 4616 2003.76C4611.2 1996.26 4517.08 1992.06 4548.31 1961.17C4567.58 1942.11 4548.26 1965.9 4525.58 1959.85C4515.73 1957.23 4550.01 1945.61 4550.01 1945.61C4550.01 1945.61 4532.05 1948.68 4526.24 1944.84C4521.02 1941.38 4521.37 1953.93 4520.32 1954.65C4510.55 1961.36 4494.75 1960.52 4483.4 1957C4464.24 1951.05 4448.76 1943.4 4428.48 1943.05C4410.81 1942.76 4388.61 1949.48 4368.71 1948.96C4362.47 1948.8 4318.29 1931.38 4319.42 1930.8C4323.74 1928.58 4338.59 1932.07 4338.6 1938.47C4338.61 1944.28 4324 1952.89 4323.31 1954.22C4317.55 1965.18 4279.58 1985.79 4264.49 1990.08C4246.28 1995.26 4220.05 1999.41 4201.86 1990.07C4190.2 1984.09 4178.23 1964.37 4178.23 1964.37C4178.23 1964.37 4190.53 1966.96 4191.23 1963.91C4192.6 1957.87 4175.69 1969.19 4167.51 1971.01C4152.7 1974.31 4137.64 1984.34 4123.22 1987.55C4099.3 1992.88 4060.8 1945.2 4075.32 1930.84" fill="#699b44" fill-rule="nonzero" opacity="1" stroke="none" vectornator:layerName="Curve 465"/>
<path d="M3802.73 1967.99C3782.51 1950.05 3813.08 1992.75 3819.22 2003.54C3826.39 2016.12 3849.77 2030.44 3868.25 2038.44C3875.05 2041.39 3882.01 2039.51 3886.09 2042.04C3903.26 2052.72 3894.47 2097.94 3897.55 2129.36C3898.51 2139.16 3897.17 2148.87 3902.57 2154.16C3907.91 2159.4 3922.03 2155.47 3933.55 2154.16C3936.99 2153.77 3935.98 2153.17 3940.75 2154.16C3944.44 2154.93 3953.82 2157.59 3957.44 2156.16C3987.18 2144.41 3967.78 2035.78 3968.55 2012.04C3969.36 1986.62 4040.05 1954.52 4047.67 1934.69C4049.17 1930.79 4038.83 1930.57 4035.34 1927.45C4033.3 1925.63 4022.4 1908.94 4021.64 1908.97C4015.61 1909.2 4006.39 1922.99 3994.71 1934.69C3988.38 1941.03 3983.84 1952.08 3976.4 1949.18C3972.23 1947.56 3979.37 1953.08 3974.05 1938.47C3966.46 1917.62 3986.05 1890.13 3943.11 1900.02C3902.17 1909.45 3910.51 1983.75 3909.79 2006.18C3909.74 2007.58 3906.78 2019.4 3905.43 2019.45C3899.88 2019.66 3902.13 2020.52 3897.55 2015.32C3889.52 2006.21 3877.12 1993.18 3867.79 1981.24C3862.17 1974.06 3858.6 1965.54 3855.12 1963.38C3839.41 1953.61 3816.53 1980.23 3802.73 1967.99Z" fill="#b36963" fill-rule="nonzero" opacity="1" stroke="none" vectornator:layerName="Curve 466"/>
<path d="M4312.34 1963.88C4305.88 1983.32 4311.93 2009.08 4313.36 2028.97C4313.41 2029.74 4315.43 2038.43 4314.37 2038.28C4291.21 2035.04 4262.87 1957.23 4232.46 2003.39C4230.39 2006.53 4266.93 2035.21 4290.2 2051.94C4298.84 2058.15 4303.5 2061.63 4305.7 2064.88C4311.83 2073.93 4312.59 2078.46 4312.53 2088.98C4312.46 2103.44 4312.42 2120.22 4312.36 2134.56C4312.32 2142.62 4305.05 2153.26 4310.99 2159.56C4314.9 2163.71 4321.73 2158.76 4325.35 2158.35C4332.08 2157.58 4335.61 2158.1 4344.29 2160.65C4348.2 2161.8 4363.86 2159.69 4374.96 2160.29C4380.99 2160.62 4386.52 2160.01 4386.66 2159.92C4393.62 2155.45 4383.16 2150.98 4382.82 2138.55C4382.14 2113.47 4383.57 2076.66 4381.97 2054.26C4381.42 2046.52 4377.16 2038.69 4380.26 2035.27C4388.75 2025.92 4465.6 1960.45 4462.28 1955.55C4449.99 1937.41 4420.27 1955.18 4409.63 1965C4407.65 1966.82 4396.85 1976.28 4396.08 1975.47C4388.59 1967.53 4397.33 1964.03 4393.58 1954.39C4389.1 1942.83 4363.69 1935.51 4344.57 1941.28C4329.77 1945.76 4314.53 1957.28 4312.34 1963.88Z" fill="#b36963" fill-rule="nonzero" opacity="1" stroke="none" vectornator:layerName="Curve 467"/>
<path d="M4685.51 2037.71C4674.16 2033.67 4763.26 2062.67 4772.07 2068.95C4794.81 2085.15 4749.49 2137.76 4770.95 2153.05C4781.88 2160.84 4818.55 2147.21 4833.34 2149.85C4834.4 2150.04 4836.15 2151.05 4836.15 2151.05C4836.15 2151.05 4837.12 2125.28 4840.08 2112.6C4845.45 2089.66 4831.46 2063.49 4839.52 2040.52C4839.81 2039.69 4840.76 2038.91 4841.21 2038.12C4851.13 2020.44 4897.68 2017.72 4911.47 1998.07C4912.64 1996.41 4914.05 1993.18 4910.91 1992.06C4877.83 1980.28 4857.22 2007.73 4841.21 2004.88C4830.92 2003.04 4841.74 1987.23 4835.59 1982.85C4833.45 1981.33 4803.97 1979.02 4798.49 1978.04C4792.69 1977.01 4779.55 1963.5 4771.51 1969.23C4764.57 1974.18 4778.82 2035.6 4778.82 2047.33C4778.82 2048.37 4783.51 2056.62 4782.19 2056.94C4781.7 2057.05 4724.6 2019.78 4714.74 2023.3" fill="#b36963" fill-rule="nonzero" opacity="1" stroke="none" vectornator:layerName="Curve 468"/>
<path d="M3949.4 1905.21C3949.4 1905.21 3868.13 1968.5 3829.39 1969.17C3790.64 1969.84 3822.77 1971.86 3822.77 1971.86C3822.77 1971.86 3624.32 1940.22 3636.6 1911.27C3636.6 1911.27 3654.56 1874.23 3681.02 1870.87C3681.02 1870.87 3617.7 1848.65 3641.33 1827.1C3641.33 1827.1 3665.9 1737.56 3765.13 1727.46C3765.13 1727.46 3758.51 1592.13 3903.1 1641.95C3903.1 1641.95 4057.13 1579.33 4108.17 1699.85C4108.17 1699.85 4214.25 1693.88 4239.76 1774.68C4239.76 1774.68 4273.14 1775.68 4282.51 1786.36C4315.61 1824.06 4324.52 1847.87 4231.96 1903.19C4091.15 1987.35 3983.64 1918.32 4010.92 1884.81C4010.92 1884.81 3983.38 1926.43 3949.4 1905.21Z" fill="#699b44" fill-rule="nonzero" opacity="1" stroke="#000000" stroke-linecap="butt" stroke-linejoin="round" stroke-width="4.87936" vectornator:layerName="Curve 469"/>
<path d="M4140.89 1703.35C4140.89 1703.35 4204.73 1634.03 4337.39 1676.67C4337.39 1676.67 4439.13 1596.85 4498.08 1731.82C4498.08 1731.82 4455.64 1736.27 4461.99 1755.01C4468.34 1773.74 4457.87 1755.1 4457.87 1755.1C4457.87 1755.1 4316.26 1752.52 4307.07 1840.6C4307.07 1840.6 4242.29 1965.37 4438.61 1942.19C4438.61 1942.19 4496.48 1976.35 4548.41 1940.14C4548.41 1940.14 4554.3 1885.93 4634.29 1887.82C4634.29 1887.82 4509.84 1843.48 4641.72 1769.22C4641.72 1769.22 4655.21 1711.83 4496.31 1731.95" fill="none" opacity="1" stroke="#000000" stroke-linecap="butt" stroke-linejoin="round" stroke-width="4.87936" vectornator:layerName="Curve 470"/>
<path d="M4540.13 1944.49C4540.13 1944.49 4517.02 2002.12 4615.54 2006.02C4615.54 2006.02 4549.25 2047.61 4639.26 2051.94C4639.26 2051.94 4677.57 2050.64 4680.61 2033.31C4680.61 2033.31 4780.35 2012.51 4751.77 1974.39C4751.77 1974.39 4707.39 1891.68 4832.67 1853.31C4832.67 1853.31 4796.96 1816.22 4899.24 1807.17C4899.24 1807.17 4965.21 1811.05 4956.14 1847.27C4956.14 1847.27 4944.64 1780.87 5054.18 1802.43C5054.18 1802.43 5183.09 1838.21 5097.76 1900.74C5097.76 1900.74 5180.67 1891.25 5157.67 1933.08C5157.67 1933.08 5134.07 2009.4 5026.95 1957.66C5026.95 1957.66 4901.67 2025.36 4750.97 1961.54" fill="none" opacity="1" stroke="#000000" stroke-linecap="butt" stroke-linejoin="round" stroke-width="4.87936" vectornator:layerName="Curve 471"/>
<path d="M4071.13 1940.72C4071.13 1940.72 4094.15 2021.03 4178.23 1961.68C4178.23 1961.68 4212.63 2054.64 4344.57 1935.55" fill="none" opacity="1" stroke="#000000" stroke-linecap="butt" stroke-linejoin="round" stroke-width="4.87936" vectornator:layerName="Curve 472"/>
<path d="M3795.91 1966.71C3795.91 1966.71 3837.76 2039.05 3894.76 2046.08L3899.83 2154.16L3971.1 2152.49L3966.36 2004.71L4047.67 1935.55" fill="none" opacity="1" stroke="#000000" stroke-linecap="butt" stroke-linejoin="round" stroke-width="4.87936" vectornator:layerName="Curve 473"/>
<path d="M4019.29 1911.72L3976.4 1951.28L3970.14 1911.38" fill="none" opacity="1" stroke="#000000" stroke-linecap="butt" stroke-linejoin="round" stroke-width="4.87936" vectornator:layerName="Curve 474"/>
<path d="M3853.8 1966.81C3853.8 1966.81 3888.87 2012.71 3910.38 2023.54" fill="none" opacity="1" stroke="#000000" stroke-linecap="butt" stroke-linejoin="round" stroke-width="4.87936" vectornator:layerName="Curve 475"/>
<path d="M4222.14 1995.59L4310.75 2069.21L4311.26 2158.64L4387.3 2159.92L4380.85 2033.33L4467.1 1953.08" fill="none" opacity="1" stroke="#000000" stroke-linecap="butt" stroke-linejoin="round" stroke-width="4.87936" vectornator:layerName="Curve 476"/>
<path d="M4391.38 1945.87L4396.08 1974.86" fill="none" opacity="1" stroke="#000000" stroke-linecap="butt" stroke-linejoin="round" stroke-width="4.87936" vectornator:layerName="Curve 477"/>
<path d="M4312.53 1964.86L4312.36 2033.96" fill="none" opacity="1" stroke="#000000" stroke-linecap="butt" stroke-linejoin="round" stroke-width="4.87936" vectornator:layerName="Curve 478"/>
<path d="M4775.67 1972.46L4785.05 2054.26L4722.19 2022.91" fill="none" opacity="1" stroke="#000000" stroke-linecap="butt" stroke-linejoin="round" stroke-width="4.87936" vectornator:layerName="Curve 479"/>
<path d="M4833.17 1984.48L4838.03 2008.39L4884.27 1988.71" fill="none" opacity="1" stroke="#000000" stroke-linecap="butt" stroke-linejoin="round" stroke-width="4.87936" vectornator:layerName="Curve 480"/>
<path d="M4928.31 1989.24L4835.08 2039.84L4833.6 2154.16" fill="none" opacity="1" stroke="#000000" stroke-linecap="butt" stroke-linejoin="round" stroke-width="4.87936" vectornator:layerName="Curve 481"/>
<path d="M4679.41 2043.72C4681.59 2043.14 4677.43 2040.52 4682.45 2042.18C4694.31 2046.11 4705.96 2052.1 4716.74 2057.33C4732.95 2065.2 4769.63 2090.99 4784.32 2075.96C4790.4 2069.75 4712.62 2032.23 4699.49 2031.59C4690.74 2031.17 4671.33 2045.87 4679.41 2043.72Z" fill="#b36963" fill-rule="nonzero" opacity="1" stroke="none" vectornator:layerName="Curve 482"/>
<path d="M4644.43 1762.13C4644.43 1762.13 4711.97 1695.23 4755.9 1746.09C4755.9 1746.09 4919.53 1625.99 4990.91 1785.6" fill="none" opacity="1" stroke="#000000" stroke-linecap="butt" stroke-linejoin="round" stroke-width="4.87936" vectornator:layerName="Curve 483"/>
<path d="M8052.12 2152.7L8576.57 2146.27L8576.35 2243.07L8145.6 2273.39L8049.76 2243.36L8052.12 2152.7Z" fill="#5f9052" fill-rule="nonzero" opacity="1" stroke="none" vectornator:layerName="Curve 2482"/>
<path d="M7934.34 2174.18L7911.59 2173.92L7911.26 2200.01L7938.29 2203.29" fill="#5f9052" fill-rule="nonzero" opacity="1" stroke="none" vectornator:layerName="Curve 2483"/>
<path d="M7806.02 2180.65L7804.83 2172.36L7780.62 2172.5L7780.69 2176.09" fill="#5f9052" fill-rule="nonzero" opacity="1" stroke="none" vectornator:layerName="Curve 2484"/>
<path d="M8052.38 2152.89L8046.97 2153.39L8047.66 2215.36L8053.77 2218.63" fill="#5f9052" fill-rule="nonzero" opacity="1" stroke="none" vectornator:layerName="Curve 2485"/>
<path d="M4805.11 2082.83L4812.78 2218.46" fill="none" opacity="1" stroke="#000000" stroke-linecap="butt" stroke-linejoin="round" stroke-width="4.87936" vectornator:layerName="Curve 2486"/>
<path d="M2575.71 2141.45L3900.38 2139.26L3904.58 2176.06L2574.83 2164.87L2575.71 2141.45Z" fill="#c97625" fill-rule="nonzero" opacity="1" stroke="#000000" stroke-linecap="butt" stroke-linejoin="round" stroke-width="3.25829" vectornator:layerName="Curve 2487"/>
<path d="M2515.92 2226.9C2515.92 2226.9 2480.3 2051.84 2552.85 2058.53C2552.85 2058.53 2620.8 2033.19 2611.93 2227.02" fill="#c97625" fill-rule="nonzero" opacity="1" stroke="#000000" stroke-linecap="butt" stroke-linejoin="round" stroke-width="3.25829" vectornator:layerName="Curve 2488"/>
<path d="M2760.56 2226.9C2760.56 2226.9 2728.01 2051.84 2794.3 2058.53C2794.3 2058.53 2856.39 2033.19 2848.29 2227.02" fill="#c97625" fill-rule="nonzero" opacity="1" stroke="#000000" stroke-linecap="butt" stroke-linejoin="round" stroke-width="3.25829" vectornator:layerName="Curve 2489"/>
<path d="M3478.78 2226.9C3478.78 2226.9 3446.23 2051.84 3512.52 2058.53C3512.52 2058.53 3574.61 2033.19 3566.51 2227.02" fill="#c97625" fill-rule="nonzero" opacity="1" stroke="#000000" stroke-linecap="butt" stroke-linejoin="round" stroke-width="3.25829" vectornator:layerName="Curve 2490"/>
<path d="M3600.5 2226.9C3600.5 2226.9 3567.95 2051.84 3634.24 2058.53C3634.24 2058.53 3696.33 2033.19 3688.23 2227.02" fill="#c97625" fill-rule="nonzero" opacity="1" stroke="#000000" stroke-linecap="butt" stroke-linejoin="round" stroke-width="3.25829" vectornator:layerName="Curve 2491"/>
<path d="M3730.75 2226.9C3730.75 2226.9 3698.2 2051.84 3764.49 2058.53C3764.49 2058.53 3826.58 2033.19 3818.49 2227.02" fill="#c97625" fill-rule="nonzero" opacity="1" stroke="#000000" stroke-linecap="butt" stroke-linejoin="round" stroke-width="3.25829" vectornator:layerName="Curve 2492"/>
<path d="M3860.7 2226.9C3860.7 2226.9 3825.55 2051.84 3897.13 2058.53C3897.13 2058.53 3964.17 2033.19 3955.43 2227.02" fill="#c97625" fill-rule="nonzero" opacity="1" stroke="#000000" stroke-linecap="butt" stroke-linejoin="round" stroke-width="3.25829" vectornator:layerName="Curve 2493"/>
<path d="M2643.53 2226.9C2643.53 2226.9 2609.61 2051.84 2678.7 2058.53C2678.7 2058.53 2743.41 2033.19 2734.97 2227.02" fill="#c97625" fill-rule="nonzero" opacity="1" stroke="#000000" stroke-linecap="butt" stroke-linejoin="round" stroke-width="3.25829" vectornator:layerName="Curve 2494"/>
<path d="M2880.36 2226.9C2880.36 2226.9 2849.01 2051.84 2912.86 2058.53C2912.86 2058.53 2972.66 2033.19 2964.86 2227.02" fill="#c97625" fill-rule="nonzero" opacity="1" stroke="#000000" stroke-linecap="butt" stroke-linejoin="round" stroke-width="3.25829" vectornator:layerName="Curve 2495"/>
<path d="M3000.62 2226.9C3000.62 2226.9 2967.3 2051.84 3035.14 2058.53C3035.14 2058.53 3098.69 2033.19 3090.4 2227.02" fill="#c97625" fill-rule="nonzero" opacity="1" stroke="#000000" stroke-linecap="butt" stroke-linejoin="round" stroke-width="3.25829" vectornator:layerName="Curve 2496"/>
<path d="M3126.35 2226.9C3126.35 2226.9 3093.03 2051.84 3160.88 2058.53C3160.88 2058.53 3224.42 2033.19 3216.14 2227.02" fill="#c97625" fill-rule="nonzero" opacity="1" stroke="#000000" stroke-linecap="butt" stroke-linejoin="round" stroke-width="3.25829" vectornator:layerName="Curve 2497"/>
<path d="M3249.48 2226.9C3249.48 2226.9 3216.17 2051.84 3284.01 2058.53C3284.01 2058.53 3347.56 2033.19 3339.27 2227.02" fill="#c97625" fill-rule="nonzero" opacity="1" stroke="#000000" stroke-linecap="butt" stroke-linejoin="round" stroke-width="3.25829" vectornator:layerName="Curve 2498"/>
<path d="M3365.02 2226.9C3365.02 2226.9 3331.7 2051.84 3399.55 2058.53C3399.55 2058.53 3463.09 2033.19 3454.81 2227.02" fill="#c97625" fill-rule="nonzero" opacity="1" stroke="#000000" stroke-linecap="butt" stroke-linejoin="round" stroke-width="3.25829" vectornator:layerName="Curve 2499"/>
<path d="M2620.21 2895.67L3939.22 2893.53L3943.4 2929.61L2619.33 2918.63L2620.21 2895.67Z" fill="#c97625" fill-rule="nonzero" opacity="1" stroke="#000000" stroke-linecap="butt" stroke-linejoin="round" stroke-width="3.25829" vectornator:layerName="Curve 2500"/>
<path d="M2560.68 2979.46C2560.68 2979.46 2525.21 2807.82 2597.44 2814.37C2597.44 2814.37 2665.1 2789.53 2656.28 2979.58" fill="#c97625" fill-rule="nonzero" opacity="1" stroke="#000000" stroke-linecap="butt" stroke-linejoin="round" stroke-width="3.25829" vectornator:layerName="Curve 2501"/>
<path d="M2804.27 2979.46C2804.27 2979.46 2771.86 2807.82 2837.86 2814.37C2837.86 2814.37 2899.69 2789.53 2891.63 2979.58" fill="#c97625" fill-rule="nonzero" opacity="1" stroke="#000000" stroke-linecap="butt" stroke-linejoin="round" stroke-width="3.25829" vectornator:layerName="Curve 2502"/>
<path d="M3519.42 2979.46C3519.42 2979.46 3487 2807.82 3553.01 2814.37C3553.01 2814.37 3614.84 2789.53 3606.78 2979.58" fill="#c97625" fill-rule="nonzero" opacity="1" stroke="#000000" stroke-linecap="butt" stroke-linejoin="round" stroke-width="3.25829" vectornator:layerName="Curve 2503"/>
<path d="M3640.62 2979.46C3640.62 2979.46 3608.2 2807.82 3674.21 2814.37C3674.21 2814.37 3736.04 2789.53 3727.97 2979.58" fill="#c97625" fill-rule="nonzero" opacity="1" stroke="#000000" stroke-linecap="butt" stroke-linejoin="round" stroke-width="3.25829" vectornator:layerName="Curve 2504"/>
<path d="M3770.31 2979.46C3770.31 2979.46 3737.9 2807.82 3803.91 2814.37C3803.91 2814.37 3865.73 2789.53 3857.67 2979.58" fill="#c97625" fill-rule="nonzero" opacity="1" stroke="#000000" stroke-linecap="butt" stroke-linejoin="round" stroke-width="3.25829" vectornator:layerName="Curve 2505"/>
<path d="M3899.7 2979.46C3899.7 2979.46 3864.7 2807.82 3935.97 2814.37C3935.97 2814.37 4002.73 2789.53 3994.03 2979.58" fill="#c97625" fill-rule="nonzero" opacity="1" stroke="#000000" stroke-linecap="butt" stroke-linejoin="round" stroke-width="3.25829" vectornator:layerName="Curve 2506"/>
<path d="M2687.74 2979.46C2687.74 2979.46 2653.96 2807.82 2722.75 2814.37C2722.75 2814.37 2787.19 2789.53 2778.79 2979.58" fill="#c97625" fill-rule="nonzero" opacity="1" stroke="#000000" stroke-linecap="butt" stroke-linejoin="round" stroke-width="3.25829" vectornator:layerName="Curve 2507"/>
<path d="M2923.56 2979.46C2923.56 2979.46 2892.34 2807.82 2955.91 2814.37C2955.91 2814.37 3015.46 2789.53 3007.7 2979.58" fill="#c97625" fill-rule="nonzero" opacity="1" stroke="#000000" stroke-linecap="butt" stroke-linejoin="round" stroke-width="3.25829" vectornator:layerName="Curve 2508"/>
<path d="M3043.3 2979.46C3043.3 2979.46 3010.12 2807.82 3077.68 2814.37C3077.68 2814.37 3140.95 2789.53 3132.7 2979.58" fill="#c97625" fill-rule="nonzero" opacity="1" stroke="#000000" stroke-linecap="butt" stroke-linejoin="round" stroke-width="3.25829" vectornator:layerName="Curve 2509"/>
<path d="M3168.49 2979.46C3168.49 2979.46 3135.32 2807.82 3202.87 2814.37C3202.87 2814.37 3266.15 2789.53 3257.9 2979.58" fill="#c97625" fill-rule="nonzero" opacity="1" stroke="#000000" stroke-linecap="butt" stroke-linejoin="round" stroke-width="3.25829" vectornator:layerName="Curve 2510"/>
<path d="M3291.1 2979.46C3291.1 2979.46 3257.93 2807.82 3325.48 2814.37C3325.48 2814.37 3388.75 2789.53 3380.5 2979.58" fill="#c97625" fill-rule="nonzero" opacity="1" stroke="#000000" stroke-linecap="butt" stroke-linejoin="round" stroke-width="3.25829" vectornator:layerName="Curve 2511"/>
<path d="M3406.14 2979.46C3406.14 2979.46 3372.97 2807.82 3440.52 2814.37C3440.52 2814.37 3503.8 2789.53 3495.54 2979.58" fill="#c97625" fill-rule="nonzero" opacity="1" stroke="#000000" stroke-linecap="butt" stroke-linejoin="round" stroke-width="3.25829" vectornator:layerName="Curve 2512"/>
<path d="M2672.23 3735.41L3986.35 3732.95L3990.51 3774.4L2671.36 3761.79L2672.23 3735.41Z" fill="#c97625" fill-rule="nonzero" opacity="1" stroke="#000000" stroke-linecap="butt" stroke-linejoin="round" stroke-width="3.25829" vectornator:layerName="Curve 2513"/>
<path d="M2612.92 3831.67C2612.92 3831.67 2577.58 3634.47 2649.55 3642C2649.55 3642 2716.96 3613.46 2708.17 3831.81" fill="#c97625" fill-rule="nonzero" opacity="1" stroke="#000000" stroke-linecap="butt" stroke-linejoin="round" stroke-width="3.25829" vectornator:layerName="Curve 2514"/>
<path d="M2855.61 3831.67C2855.61 3831.67 2823.32 3634.47 2889.08 3642C2889.08 3642 2950.68 3613.46 2942.64 3831.81" fill="#c97625" fill-rule="nonzero" opacity="1" stroke="#000000" stroke-linecap="butt" stroke-linejoin="round" stroke-width="3.25829" vectornator:layerName="Curve 2515"/>
<path d="M3568.1 3831.67C3568.1 3831.67 3535.81 3634.47 3601.57 3642C3601.57 3642 3663.17 3613.46 3655.14 3831.81" fill="#c97625" fill-rule="nonzero" opacity="1" stroke="#000000" stroke-linecap="butt" stroke-linejoin="round" stroke-width="3.25829" vectornator:layerName="Curve 2516"/>
<path d="M3688.85 3831.67C3688.85 3831.67 3656.56 3634.47 3722.32 3642C3722.32 3642 3783.92 3613.46 3775.89 3831.81" fill="#c97625" fill-rule="nonzero" opacity="1" stroke="#000000" stroke-linecap="butt" stroke-linejoin="round" stroke-width="3.25829" vectornator:layerName="Curve 2517"/>
<path d="M3818.07 3831.67C3818.07 3831.67 3785.77 3634.47 3851.54 3642C3851.54 3642 3913.13 3613.46 3905.1 3831.81" fill="#c97625" fill-rule="nonzero" opacity="1" stroke="#000000" stroke-linecap="butt" stroke-linejoin="round" stroke-width="3.25829" vectornator:layerName="Curve 2518"/>
<path d="M3946.97 3831.67C3946.97 3831.67 3912.11 3634.47 3983.11 3642C3983.11 3642 4049.63 3613.46 4040.95 3831.81" fill="#c97625" fill-rule="nonzero" opacity="1" stroke="#000000" stroke-linecap="butt" stroke-linejoin="round" stroke-width="3.25829" vectornator:layerName="Curve 2519"/>
<path d="M2739.52 3831.67C2739.52 3831.67 2705.86 3634.47 2774.4 3642C2774.4 3642 2838.59 3613.46 2830.22 3831.81" fill="#c97625" fill-rule="nonzero" opacity="1" stroke="#000000" stroke-linecap="butt" stroke-linejoin="round" stroke-width="3.25829" vectornator:layerName="Curve 2520"/>
<path d="M2974.45 3831.67C2974.45 3831.67 2943.35 3634.47 3006.69 3642C3006.69 3642 3066.02 3613.46 3058.28 3831.81" fill="#c97625" fill-rule="nonzero" opacity="1" stroke="#000000" stroke-linecap="butt" stroke-linejoin="round" stroke-width="3.25829" vectornator:layerName="Curve 2521"/>
<path d="M3093.75 3831.67C3093.75 3831.67 3060.7 3634.47 3128 3642C3128 3642 3191.04 3613.46 3182.82 3831.81" fill="#c97625" fill-rule="nonzero" opacity="1" stroke="#000000" stroke-linecap="butt" stroke-linejoin="round" stroke-width="3.25829" vectornator:layerName="Curve 2522"/>
<path d="M3218.48 3831.67C3218.48 3831.67 3185.43 3634.47 3252.73 3642C3252.73 3642 3315.77 3613.46 3307.55 3831.81" fill="#c97625" fill-rule="nonzero" opacity="1" stroke="#000000" stroke-linecap="butt" stroke-linejoin="round" stroke-width="3.25829" vectornator:layerName="Curve 2523"/>
<path d="M3340.63 3831.67C3340.63 3831.67 3307.58 3634.47 3374.89 3642C3374.89 3642 3437.93 3613.46 3429.7 3831.81" fill="#c97625" fill-rule="nonzero" opacity="1" stroke="#000000" stroke-linecap="butt" stroke-linejoin="round" stroke-width="3.25829" vectornator:layerName="Curve 2524"/>
<path d="M3455.25 3831.67C3455.25 3831.67 3422.2 3634.47 3489.5 3642C3489.5 3642 3552.54 3613.46 3544.32 3831.81" fill="#c97625" fill-rule="nonzero" opacity="1" stroke="#000000" stroke-linecap="butt" stroke-linejoin="round" stroke-width="3.25829" vectornator:layerName="Curve 2525"/>
<path d="M4599.02 2138.48L5923.69 2136.29L5927.89 2173.09L4598.13 2161.9L4599.02 2138.48Z" fill="#c97625" fill-rule="nonzero" opacity="1" stroke="#000000" stroke-linecap="butt" stroke-linejoin="round" stroke-width="3.25829" vectornator:layerName="Curve 2526"/>
<path d="M4539.23 2223.93C4539.23 2223.93 4503.61 2048.87 4576.15 2055.56C4576.15 2055.56 4644.11 2030.22 4635.24 2224.05" fill="#c97625" fill-rule="nonzero" opacity="1" stroke="#000000" stroke-linecap="butt" stroke-linejoin="round" stroke-width="3.25829" vectornator:layerName="Curve 2527"/>
<path d="M4783.87 2223.93C4783.87 2223.93 4751.32 2048.87 4817.61 2055.56C4817.61 2055.56 4879.7 2030.22 4871.6 2224.05" fill="#c97625" fill-rule="nonzero" opacity="1" stroke="#000000" stroke-linecap="butt" stroke-linejoin="round" stroke-width="3.25829" vectornator:layerName="Curve 2528"/>
<path d="M5502.09 2223.93C5502.09 2223.93 5469.54 2048.87 5535.83 2055.56C5535.83 2055.56 5597.92 2030.22 5589.82 2224.05" fill="#c97625" fill-rule="nonzero" opacity="1" stroke="#000000" stroke-linecap="butt" stroke-linejoin="round" stroke-width="3.25829" vectornator:layerName="Curve 2529"/>
<path d="M5623.81 2223.93C5623.81 2223.93 5591.26 2048.87 5657.55 2055.56C5657.55 2055.56 5719.64 2030.22 5711.54 2224.05" fill="#c97625" fill-rule="nonzero" opacity="1" stroke="#000000" stroke-linecap="butt" stroke-linejoin="round" stroke-width="3.25829" vectornator:layerName="Curve 2530"/>
<path d="M5754.06 2223.93C5754.06 2223.93 5721.51 2048.87 5787.8 2055.56C5787.8 2055.56 5849.89 2030.22 5841.79 2224.05" fill="#c97625" fill-rule="nonzero" opacity="1" stroke="#000000" stroke-linecap="butt" stroke-linejoin="round" stroke-width="3.25829" vectornator:layerName="Curve 2531"/>
<path d="M5884 2223.93C5884 2223.93 5848.86 2048.87 5920.43 2055.56C5920.43 2055.56 5987.48 2030.22 5978.74 2224.05" fill="#c97625" fill-rule="nonzero" opacity="1" stroke="#000000" stroke-linecap="butt" stroke-linejoin="round" stroke-width="3.25829" vectornator:layerName="Curve 2532"/>
<path d="M4666.84 2223.93C4666.84 2223.93 4632.92 2048.87 4702.01 2055.56C4702.01 2055.56 4766.72 2030.22 4758.28 2224.05" fill="#c97625" fill-rule="nonzero" opacity="1" stroke="#000000" stroke-linecap="butt" stroke-linejoin="round" stroke-width="3.25829" vectornator:layerName="Curve 2533"/>
<path d="M4903.67 2223.93C4903.67 2223.93 4872.31 2048.87 4936.17 2055.56C4936.17 2055.56 4995.97 2030.22 4988.17 2224.05" fill="#c97625" fill-rule="nonzero" opacity="1" stroke="#000000" stroke-linecap="butt" stroke-linejoin="round" stroke-width="3.25829" vectornator:layerName="Curve 2534"/>
<path d="M5023.92 2223.93C5023.92 2223.93 4990.61 2048.87 5058.45 2055.56C5058.45 2055.56 5122 2030.22 5113.71 2224.05" fill="#c97625" fill-rule="nonzero" opacity="1" stroke="#000000" stroke-linecap="butt" stroke-linejoin="round" stroke-width="3.25829" vectornator:layerName="Curve 2535"/>
<path d="M5149.66 2223.93C5149.66 2223.93 5116.34 2048.87 5184.19 2055.56C5184.19 2055.56 5247.73 2030.22 5239.44 2224.05" fill="#c97625" fill-rule="nonzero" opacity="1" stroke="#000000" stroke-linecap="butt" stroke-linejoin="round" stroke-width="3.25829" vectornator:layerName="Curve 2536"/>
<path d="M5272.79 2223.93C5272.79 2223.93 5239.48 2048.87 5307.32 2055.56C5307.32 2055.56 5370.86 2030.22 5362.58 2224.05" fill="#c97625" fill-rule="nonzero" opacity="1" stroke="#000000" stroke-linecap="butt" stroke-linejoin="round" stroke-width="3.25829" vectornator:layerName="Curve 2537"/>
<path d="M5388.33 2223.93C5388.33 2223.93 5355.01 2048.87 5422.86 2055.56C5422.86 2055.56 5486.4 2030.22 5478.11 2224.05" fill="#c97625" fill-rule="nonzero" opacity="1" stroke="#000000" stroke-linecap="butt" stroke-linejoin="round" stroke-width="3.25829" vectornator:layerName="Curve 2538"/>
<path d="M4634.87 2892.76L5953.88 2890.61L5958.05 2926.7L4633.99 2915.72L4634.87 2892.76Z" fill="#c97625" fill-rule="nonzero" opacity="1" stroke="#000000" stroke-linecap="butt" stroke-linejoin="round" stroke-width="3.25829" vectornator:layerName="Curve 2539"/>
<path d="M4575.33 2976.54C4575.33 2976.54 4539.86 2804.9 4612.1 2811.46C4612.1 2811.46 4679.76 2786.62 4670.94 2976.66" fill="#c97625" fill-rule="nonzero" opacity="1" stroke="#000000" stroke-linecap="butt" stroke-linejoin="round" stroke-width="3.25829" vectornator:layerName="Curve 2540"/>
<path d="M4818.93 2976.54C4818.93 2976.54 4786.51 2804.9 4852.52 2811.46C4852.52 2811.46 4914.35 2786.62 4906.28 2976.66" fill="#c97625" fill-rule="nonzero" opacity="1" stroke="#000000" stroke-linecap="butt" stroke-linejoin="round" stroke-width="3.25829" vectornator:layerName="Curve 2541"/>
<path d="M5534.08 2976.54C5534.08 2976.54 5501.66 2804.9 5567.67 2811.46C5567.67 2811.46 5629.5 2786.62 5621.43 2976.66" fill="#c97625" fill-rule="nonzero" opacity="1" stroke="#000000" stroke-linecap="butt" stroke-linejoin="round" stroke-width="3.25829" vectornator:layerName="Curve 2542"/>
<path d="M5655.27 2976.54C5655.27 2976.54 5622.86 2804.9 5688.87 2811.46C5688.87 2811.46 5750.7 2786.62 5742.63 2976.66" fill="#c97625" fill-rule="nonzero" opacity="1" stroke="#000000" stroke-linecap="butt" stroke-linejoin="round" stroke-width="3.25829" vectornator:layerName="Curve 2543"/>
<path d="M5784.97 2976.54C5784.97 2976.54 5752.56 2804.9 5818.56 2811.46C5818.56 2811.46 5880.39 2786.62 5872.33 2976.66" fill="#c97625" fill-rule="nonzero" opacity="1" stroke="#000000" stroke-linecap="butt" stroke-linejoin="round" stroke-width="3.25829" vectornator:layerName="Curve 2544"/>
<path d="M5914.36 2976.54C5914.36 2976.54 5879.36 2804.9 5950.63 2811.46C5950.63 2811.46 6017.39 2786.62 6008.68 2976.66" fill="#c97625" fill-rule="nonzero" opacity="1" stroke="#000000" stroke-linecap="butt" stroke-linejoin="round" stroke-width="3.25829" vectornator:layerName="Curve 2545"/>
<path d="M4702.4 2976.54C4702.4 2976.54 4668.62 2804.9 4737.41 2811.46C4737.41 2811.46 4801.85 2786.62 4793.44 2976.66" fill="#c97625" fill-rule="nonzero" opacity="1" stroke="#000000" stroke-linecap="butt" stroke-linejoin="round" stroke-width="3.25829" vectornator:layerName="Curve 2546"/>
<path d="M4938.21 2976.54C4938.21 2976.54 4906.99 2804.9 4970.57 2811.46C4970.57 2811.46 5030.12 2786.62 5022.36 2976.66" fill="#c97625" fill-rule="nonzero" opacity="1" stroke="#000000" stroke-linecap="butt" stroke-linejoin="round" stroke-width="3.25829" vectornator:layerName="Curve 2547"/>
<path d="M5057.95 2976.54C5057.95 2976.54 5024.78 2804.9 5092.34 2811.46C5092.34 2811.46 5155.61 2786.62 5147.36 2976.66" fill="#c97625" fill-rule="nonzero" opacity="1" stroke="#000000" stroke-linecap="butt" stroke-linejoin="round" stroke-width="3.25829" vectornator:layerName="Curve 2548"/>
<path d="M5183.15 2976.54C5183.15 2976.54 5149.98 2804.9 5217.53 2811.46C5217.53 2811.46 5280.81 2786.62 5272.55 2976.66" fill="#c97625" fill-rule="nonzero" opacity="1" stroke="#000000" stroke-linecap="butt" stroke-linejoin="round" stroke-width="3.25829" vectornator:layerName="Curve 2549"/>
<path d="M5305.76 2976.54C5305.76 2976.54 5272.59 2804.9 5340.14 2811.46C5340.14 2811.46 5403.41 2786.62 5395.16 2976.66" fill="#c97625" fill-rule="nonzero" opacity="1" stroke="#000000" stroke-linecap="butt" stroke-linejoin="round" stroke-width="3.25829" vectornator:layerName="Curve 2550"/>
<path d="M5420.8 2976.54C5420.8 2976.54 5387.63 2804.9 5455.18 2811.46C5455.18 2811.46 5518.46 2786.62 5510.2 2976.66" fill="#c97625" fill-rule="nonzero" opacity="1" stroke="#000000" stroke-linecap="butt" stroke-linejoin="round" stroke-width="3.25829" vectornator:layerName="Curve 2551"/>
<path d="M4679.41 3732.06L5993.52 3729.6L5997.69 3771.06L4678.54 3758.45L4679.41 3732.06Z" fill="#c97625" fill-rule="nonzero" opacity="1" stroke="#000000" stroke-linecap="butt" stroke-linejoin="round" stroke-width="3.25829" vectornator:layerName="Curve 2552"/>
<path d="M4620.1 3828.33C4620.1 3828.33 4584.76 3631.12 4656.73 3638.65C4656.73 3638.65 4724.14 3610.11 4715.35 3828.46" fill="#c97625" fill-rule="nonzero" opacity="1" stroke="#000000" stroke-linecap="butt" stroke-linejoin="round" stroke-width="3.25829" vectornator:layerName="Curve 2553"/>
<path d="M4862.79 3828.33C4862.79 3828.33 4830.5 3631.12 4896.26 3638.65C4896.26 3638.65 4957.86 3610.11 4949.82 3828.46" fill="#c97625" fill-rule="nonzero" opacity="1" stroke="#000000" stroke-linecap="butt" stroke-linejoin="round" stroke-width="3.25829" vectornator:layerName="Curve 2554"/>
<path d="M5575.28 3828.33C5575.28 3828.33 5542.99 3631.12 5608.75 3638.65C5608.75 3638.65 5670.35 3610.11 5662.32 3828.46" fill="#c97625" fill-rule="nonzero" opacity="1" stroke="#000000" stroke-linecap="butt" stroke-linejoin="round" stroke-width="3.25829" vectornator:layerName="Curve 2555"/>
<path d="M5696.03 3828.33C5696.03 3828.33 5663.74 3631.12 5729.5 3638.65C5729.5 3638.65 5791.1 3610.11 5783.07 3828.46" fill="#c97625" fill-rule="nonzero" opacity="1" stroke="#000000" stroke-linecap="butt" stroke-linejoin="round" stroke-width="3.25829" vectornator:layerName="Curve 2556"/>
<path d="M5825.25 3828.33C5825.25 3828.33 5792.95 3631.12 5858.72 3638.65C5858.72 3638.65 5920.31 3610.11 5912.28 3828.46" fill="#c97625" fill-rule="nonzero" opacity="1" stroke="#000000" stroke-linecap="butt" stroke-linejoin="round" stroke-width="3.25829" vectornator:layerName="Curve 2557"/>
<path d="M5954.15 3828.33C5954.15 3828.33 5919.29 3631.12 5990.29 3638.65C5990.29 3638.65 6056.8 3610.11 6048.13 3828.46" fill="#c97625" fill-rule="nonzero" opacity="1" stroke="#000000" stroke-linecap="butt" stroke-linejoin="round" stroke-width="3.25829" vectornator:layerName="Curve 2558"/>
<path d="M4746.7 3828.33C4746.7 3828.33 4713.04 3631.12 4781.58 3638.65C4781.58 3638.65 4845.77 3610.11 4837.4 3828.46" fill="#c97625" fill-rule="nonzero" opacity="1" stroke="#000000" stroke-linecap="butt" stroke-linejoin="round" stroke-width="3.25829" vectornator:layerName="Curve 2559"/>
<path d="M4981.63 3828.33C4981.63 3828.33 4950.53 3631.12 5013.87 3638.65C5013.87 3638.65 5073.2 3610.11 5065.46 3828.46" fill="#c97625" fill-rule="nonzero" opacity="1" stroke="#000000" stroke-linecap="butt" stroke-linejoin="round" stroke-width="3.25829" vectornator:layerName="Curve 2560"/>
<path d="M5100.93 3828.33C5100.93 3828.33 5067.88 3631.12 5135.18 3638.65C5135.18 3638.65 5198.22 3610.11 5190 3828.46" fill="#c97625" fill-rule="nonzero" opacity="1" stroke="#000000" stroke-linecap="butt" stroke-linejoin="round" stroke-width="3.25829" vectornator:layerName="Curve 2561"/>
<path d="M5225.66 3828.33C5225.66 3828.33 5192.61 3631.12 5259.91 3638.65C5259.91 3638.65 5322.95 3610.11 5314.73 3828.46" fill="#c97625" fill-rule="nonzero" opacity="1" stroke="#000000" stroke-linecap="butt" stroke-linejoin="round" stroke-width="3.25829" vectornator:layerName="Curve 2562"/>
<path d="M5347.81 3828.33C5347.81 3828.33 5314.76 3631.12 5382.07 3638.65C5382.07 3638.65 5445.11 3610.11 5436.88 3828.46" fill="#c97625" fill-rule="nonzero" opacity="1" stroke="#000000" stroke-linecap="butt" stroke-linejoin="round" stroke-width="3.25829" vectornator:layerName="Curve 2563"/>
<path d="M5462.43 3828.33C5462.43 3828.33 5429.38 3631.12 5496.68 3638.65C5496.68 3638.65 5559.72 3610.11 5551.5 3828.46" fill="#c97625" fill-rule="nonzero" opacity="1" stroke="#000000" stroke-linecap="butt" stroke-linejoin="round" stroke-width="3.25829" vectornator:layerName="Curve 2564"/>
<path d="M6661.78 2135.51L7986.46 2133.32L7990.65 2170.12L6660.9 2158.93L6661.78 2135.51Z" fill="#c97625" fill-rule="nonzero" opacity="1" stroke="#000000" stroke-linecap="butt" stroke-linejoin="round" stroke-width="3.25829" vectornator:layerName="Curve 2565"/>
<path d="M6602 2220.96C6602 2220.96 6566.37 2045.9 6638.92 2052.59C6638.92 2052.59 6706.87 2027.25 6698.01 2221.08" fill="#c97625" fill-rule="nonzero" opacity="1" stroke="#000000" stroke-linecap="butt" stroke-linejoin="round" stroke-width="3.25829" vectornator:layerName="Curve 2566"/>
<path d="M6846.63 2220.96C6846.63 2220.96 6814.08 2045.9 6880.37 2052.59C6880.37 2052.59 6942.47 2027.25 6934.37 2221.08" fill="#c97625" fill-rule="nonzero" opacity="1" stroke="#000000" stroke-linecap="butt" stroke-linejoin="round" stroke-width="3.25829" vectornator:layerName="Curve 2567"/>
<path d="M7564.85 2220.96C7564.85 2220.96 7532.3 2045.9 7598.59 2052.59C7598.59 2052.59 7660.69 2027.25 7652.59 2221.08" fill="#c97625" fill-rule="nonzero" opacity="1" stroke="#000000" stroke-linecap="butt" stroke-linejoin="round" stroke-width="3.25829" vectornator:layerName="Curve 2568"/>
<path d="M7686.57 2220.96C7686.57 2220.96 7654.02 2045.9 7720.31 2052.59C7720.31 2052.59 7782.4 2027.25 7774.31 2221.08" fill="#c97625" fill-rule="nonzero" opacity="1" stroke="#000000" stroke-linecap="butt" stroke-linejoin="round" stroke-width="3.25829" vectornator:layerName="Curve 2569"/>
<path d="M7816.83 2220.96C7816.83 2220.96 7784.27 2045.9 7850.56 2052.59C7850.56 2052.59 7912.66 2027.25 7904.56 2221.08" fill="#c97625" fill-rule="nonzero" opacity="1" stroke="#000000" stroke-linecap="butt" stroke-linejoin="round" stroke-width="3.25829" vectornator:layerName="Curve 2570"/>
<path d="M7946.77 2220.96C7946.77 2220.96 7911.62 2045.9 7983.2 2052.59C7983.2 2052.59 8050.24 2027.25 8041.5 2221.08" fill="#c97625" fill-rule="nonzero" opacity="1" stroke="#000000" stroke-linecap="butt" stroke-linejoin="round" stroke-width="3.25829" vectornator:layerName="Curve 2571"/>
<path d="M6729.61 2220.96C6729.61 2220.96 6695.68 2045.9 6764.77 2052.59C6764.77 2052.59 6829.48 2027.25 6821.04 2221.08" fill="#c97625" fill-rule="nonzero" opacity="1" stroke="#000000" stroke-linecap="butt" stroke-linejoin="round" stroke-width="3.25829" vectornator:layerName="Curve 2572"/>
<path d="M6966.43 2220.96C6966.43 2220.96 6935.08 2045.9 6998.93 2052.59C6998.93 2052.59 7058.74 2027.25 7050.94 2221.08" fill="#c97625" fill-rule="nonzero" opacity="1" stroke="#000000" stroke-linecap="butt" stroke-linejoin="round" stroke-width="3.25829" vectornator:layerName="Curve 2573"/>
<path d="M7086.69 2220.96C7086.69 2220.96 7053.37 2045.9 7121.22 2052.59C7121.22 2052.59 7184.76 2027.25 7176.48 2221.08" fill="#c97625" fill-rule="nonzero" opacity="1" stroke="#000000" stroke-linecap="butt" stroke-linejoin="round" stroke-width="3.25829" vectornator:layerName="Curve 2574"/>
<path d="M7212.42 2220.96C7212.42 2220.96 7179.11 2045.9 7246.95 2052.59C7246.95 2052.59 7310.5 2027.25 7302.21 2221.08" fill="#c97625" fill-rule="nonzero" opacity="1" stroke="#000000" stroke-linecap="butt" stroke-linejoin="round" stroke-width="3.25829" vectornator:layerName="Curve 2575"/>
<path d="M7335.55 2220.96C7335.55 2220.96 7302.24 2045.9 7370.08 2052.59C7370.08 2052.59 7433.63 2027.25 7425.34 2221.08" fill="#c97625" fill-rule="nonzero" opacity="1" stroke="#000000" stroke-linecap="butt" stroke-linejoin="round" stroke-width="3.25829" vectornator:layerName="Curve 2576"/>
<path d="M7451.09 2220.96C7451.09 2220.96 7417.78 2045.9 7485.62 2052.59C7485.62 2052.59 7549.17 2027.25 7540.88 2221.08" fill="#c97625" fill-rule="nonzero" opacity="1" stroke="#000000" stroke-linecap="butt" stroke-linejoin="round" stroke-width="3.25829" vectornator:layerName="Curve 2577"/>
<path d="M6688.81 2889.85L8007.82 2887.7L8012 2923.78L6687.93 2912.81L6688.81 2889.85Z" fill="#c97625" fill-rule="nonzero" opacity="1" stroke="#000000" stroke-linecap="butt" stroke-linejoin="round" stroke-width="3.25829" vectornator:layerName="Curve 2578"/>
<path d="M6629.28 2973.63C6629.28 2973.63 6593.81 2801.99 6666.04 2808.55C6666.04 2808.55 6733.71 2783.7 6724.88 2973.75" fill="#c97625" fill-rule="nonzero" opacity="1" stroke="#000000" stroke-linecap="butt" stroke-linejoin="round" stroke-width="3.25829" vectornator:layerName="Curve 2579"/>
<path d="M6872.87 2973.63C6872.87 2973.63 6840.46 2801.99 6906.47 2808.55C6906.47 2808.55 6968.29 2783.7 6960.23 2973.75" fill="#c97625" fill-rule="nonzero" opacity="1" stroke="#000000" stroke-linecap="butt" stroke-linejoin="round" stroke-width="3.25829" vectornator:layerName="Curve 2580"/>
<path d="M7588.02 2973.63C7588.02 2973.63 7555.61 2801.99 7621.62 2808.55C7621.62 2808.55 7683.44 2783.7 7675.38 2973.75" fill="#c97625" fill-rule="nonzero" opacity="1" stroke="#000000" stroke-linecap="butt" stroke-linejoin="round" stroke-width="3.25829" vectornator:layerName="Curve 2581"/>
<path d="M7709.22 2973.63C7709.22 2973.63 7676.81 2801.99 7742.81 2808.55C7742.81 2808.55 7804.64 2783.7 7796.58 2973.75" fill="#c97625" fill-rule="nonzero" opacity="1" stroke="#000000" stroke-linecap="butt" stroke-linejoin="round" stroke-width="3.25829" vectornator:layerName="Curve 2582"/>
<path d="M7838.91 2973.63C7838.91 2973.63 7806.5 2801.99 7872.51 2808.55C7872.51 2808.55 7934.34 2783.7 7926.27 2973.75" fill="#c97625" fill-rule="nonzero" opacity="1" stroke="#000000" stroke-linecap="butt" stroke-linejoin="round" stroke-width="3.25829" vectornator:layerName="Curve 2583"/>
<path d="M7968.3 2973.63C7968.3 2973.63 7933.3 2801.99 8004.58 2808.55C8004.58 2808.55 8071.34 2783.7 8062.63 2973.75" fill="#c97625" fill-rule="nonzero" opacity="1" stroke="#000000" stroke-linecap="butt" stroke-linejoin="round" stroke-width="3.25829" vectornator:layerName="Curve 2584"/>
<path d="M6756.35 2973.63C6756.35 2973.63 6722.56 2801.99 6791.36 2808.55C6791.36 2808.55 6855.79 2783.7 6847.39 2973.75" fill="#c97625" fill-rule="nonzero" opacity="1" stroke="#000000" stroke-linecap="butt" stroke-linejoin="round" stroke-width="3.25829" vectornator:layerName="Curve 2585"/>
<path d="M6992.16 2973.63C6992.16 2973.63 6960.94 2801.99 7024.52 2808.55C7024.52 2808.55 7084.07 2783.7 7076.3 2973.75" fill="#c97625" fill-rule="nonzero" opacity="1" stroke="#000000" stroke-linecap="butt" stroke-linejoin="round" stroke-width="3.25829" vectornator:layerName="Curve 2586"/>
<path d="M7111.9 2973.63C7111.9 2973.63 7078.73 2801.99 7146.28 2808.55C7146.28 2808.55 7209.56 2783.7 7201.3 2973.75" fill="#c97625" fill-rule="nonzero" opacity="1" stroke="#000000" stroke-linecap="butt" stroke-linejoin="round" stroke-width="3.25829" vectornator:layerName="Curve 2587"/>
<path d="M7237.1 2973.63C7237.1 2973.63 7203.92 2801.99 7271.48 2808.55C7271.48 2808.55 7334.75 2783.7 7326.5 2973.75" fill="#c97625" fill-rule="nonzero" opacity="1" stroke="#000000" stroke-linecap="butt" stroke-linejoin="round" stroke-width="3.25829" vectornator:layerName="Curve 2588"/>
<path d="M7359.7 2973.63C7359.7 2973.63 7326.53 2801.99 7394.08 2808.55C7394.08 2808.55 7457.36 2783.7 7449.11 2973.75" fill="#c97625" fill-rule="nonzero" opacity="1" stroke="#000000" stroke-linecap="butt" stroke-linejoin="round" stroke-width="3.25829" vectornator:layerName="Curve 2589"/>
<path d="M7474.74 2973.63C7474.74 2973.63 7441.57 2801.99 7509.13 2808.55C7509.13 2808.55 7572.4 2783.7 7564.15 2973.75" fill="#c97625" fill-rule="nonzero" opacity="1" stroke="#000000" stroke-linecap="butt" stroke-linejoin="round" stroke-width="3.25829" vectornator:layerName="Curve 2590"/>
<path d="M6725.73 3728.72L8039.84 3726.25L8044.01 3767.71L6724.86 3755.1L6725.73 3728.72Z" fill="#c97625" fill-rule="nonzero" opacity="1" stroke="#000000" stroke-linecap="butt" stroke-linejoin="round" stroke-width="3.25829" vectornator:layerName="Curve 2591"/>
<path d="M6666.42 3824.98C6666.42 3824.98 6631.08 3627.77 6703.05 3635.31C6703.05 3635.31 6770.46 3606.76 6761.67 3825.12" fill="#c97625" fill-rule="nonzero" opacity="1" stroke="#000000" stroke-linecap="butt" stroke-linejoin="round" stroke-width="3.25829" vectornator:layerName="Curve 2592"/>
<path d="M6909.11 3824.98C6909.11 3824.98 6876.82 3627.77 6942.58 3635.31C6942.58 3635.31 7004.18 3606.76 6996.14 3825.12" fill="#c97625" fill-rule="nonzero" opacity="1" stroke="#000000" stroke-linecap="butt" stroke-linejoin="round" stroke-width="3.25829" vectornator:layerName="Curve 2593"/>
<path d="M7621.6 3824.98C7621.6 3824.98 7589.31 3627.77 7655.07 3635.31C7655.07 3635.31 7716.67 3606.76 7708.64 3825.12" fill="#c97625" fill-rule="nonzero" opacity="1" stroke="#000000" stroke-linecap="butt" stroke-linejoin="round" stroke-width="3.25829" vectornator:layerName="Curve 2594"/>
<path d="M7742.35 3824.98C7742.35 3824.98 7710.06 3627.77 7775.82 3635.31C7775.82 3635.31 7837.42 3606.76 7829.39 3825.12" fill="#c97625" fill-rule="nonzero" opacity="1" stroke="#000000" stroke-linecap="butt" stroke-linejoin="round" stroke-width="3.25829" vectornator:layerName="Curve 2595"/>
<path d="M7871.57 3824.98C7871.57 3824.98 7839.27 3627.77 7905.04 3635.31C7905.04 3635.31 7966.63 3606.76 7958.6 3825.12" fill="#c97625" fill-rule="nonzero" opacity="1" stroke="#000000" stroke-linecap="butt" stroke-linejoin="round" stroke-width="3.25829" vectornator:layerName="Curve 2596"/>
<path d="M8000.47 3824.98C8000.47 3824.98 7965.61 3627.77 8036.61 3635.31C8036.61 3635.31 8103.12 3606.76 8094.45 3825.12" fill="#c97625" fill-rule="nonzero" opacity="1" stroke="#000000" stroke-linecap="butt" stroke-linejoin="round" stroke-width="3.25829" vectornator:layerName="Curve 2597"/>
<path d="M6793.02 3824.98C6793.02 3824.98 6759.36 3627.77 6827.9 3635.31C6827.9 3635.31 6892.09 3606.76 6883.72 3825.12" fill="#c97625" fill-rule="nonzero" opacity="1" stroke="#000000" stroke-linecap="butt" stroke-linejoin="round" stroke-width="3.25829" vectornator:layerName="Curve 2598"/>
<path d="M7027.95 3824.98C7027.95 3824.98 6996.85 3627.77 7060.19 3635.31C7060.19 3635.31 7119.52 3606.76 7111.78 3825.12" fill="#c97625" fill-rule="nonzero" opacity="1" stroke="#000000" stroke-linecap="butt" stroke-linejoin="round" stroke-width="3.25829" vectornator:layerName="Curve 2599"/>
<path d="M7147.25 3824.98C7147.25 3824.98 7114.2 3627.77 7181.5 3635.31C7181.5 3635.31 7244.54 3606.76 7236.32 3825.12" fill="#c97625" fill-rule="nonzero" opacity="1" stroke="#000000" stroke-linecap="butt" stroke-linejoin="round" stroke-width="3.25829" vectornator:layerName="Curve 2600"/>
<path d="M7271.98 3824.98C7271.98 3824.98 7238.93 3627.77 7306.23 3635.31C7306.23 3635.31 7369.27 3606.76 7361.05 3825.12" fill="#c97625" fill-rule="nonzero" opacity="1" stroke="#000000" stroke-linecap="butt" stroke-linejoin="round" stroke-width="3.25829" vectornator:layerName="Curve 2601"/>
<path d="M7394.13 3824.98C7394.13 3824.98 7361.08 3627.77 7428.39 3635.31C7428.39 3635.31 7491.43 3606.76 7483.2 3825.12" fill="#c97625" fill-rule="nonzero" opacity="1" stroke="#000000" stroke-linecap="butt" stroke-linejoin="round" stroke-width="3.25829" vectornator:layerName="Curve 2602"/>
<path d="M7508.75 3824.98C7508.75 3824.98 7475.7 3627.77 7543 3635.31C7543 3635.31 7606.04 3606.76 7597.82 3825.12" fill="#c97625" fill-rule="nonzero" opacity="1" stroke="#000000" stroke-linecap="butt" stroke-linejoin="round" stroke-width="3.25829" vectornator:layerName="Curve 2603"/>
<path d="M8647.76 2132.54L9972.43 2130.35L9976.63 2167.15L8646.87 2155.95L8647.76 2132.54Z" fill="#c97625" fill-rule="nonzero" opacity="1" stroke="#000000" stroke-linecap="butt" stroke-linejoin="round" stroke-width="3.25829" vectornator:layerName="Curve 2604"/>
<path d="M8587.97 2217.99C8587.97 2217.99 8552.35 2042.93 8624.89 2049.62C8624.89 2049.62 8692.84 2024.28 8683.98 2218.11" fill="#c97625" fill-rule="nonzero" opacity="1" stroke="#000000" stroke-linecap="butt" stroke-linejoin="round" stroke-width="3.25829" vectornator:layerName="Curve 2605"/>
<path d="M8832.61 2217.99C8832.61 2217.99 8800.05 2042.93 8866.35 2049.62C8866.35 2049.62 8928.44 2024.28 8920.34 2218.11" fill="#c97625" fill-rule="nonzero" opacity="1" stroke="#000000" stroke-linecap="butt" stroke-linejoin="round" stroke-width="3.25829" vectornator:layerName="Curve 2606"/>
<path d="M9550.83 2217.99C9550.83 2217.99 9518.27 2042.93 9584.57 2049.62C9584.57 2049.62 9646.66 2024.28 9638.56 2218.11" fill="#c97625" fill-rule="nonzero" opacity="1" stroke="#000000" stroke-linecap="butt" stroke-linejoin="round" stroke-width="3.25829" vectornator:layerName="Curve 2607"/>
<path d="M9672.55 2217.99C9672.55 2217.99 9639.99 2042.93 9706.29 2049.62C9706.29 2049.62 9768.38 2024.28 9760.28 2218.11" fill="#c97625" fill-rule="nonzero" opacity="1" stroke="#000000" stroke-linecap="butt" stroke-linejoin="round" stroke-width="3.25829" vectornator:layerName="Curve 2608"/>
<path d="M9802.8 2217.99C9802.8 2217.99 9770.25 2042.93 9836.54 2049.62C9836.54 2049.62 9898.63 2024.28 9890.53 2218.11" fill="#c97625" fill-rule="nonzero" opacity="1" stroke="#000000" stroke-linecap="butt" stroke-linejoin="round" stroke-width="3.25829" vectornator:layerName="Curve 2609"/>
<path d="M9932.74 2217.99C9932.74 2217.99 9897.59 2042.93 9969.17 2049.62C9969.17 2049.62 10036.2 2024.28 10027.5 2218.11" fill="#c97625" fill-rule="nonzero" opacity="1" stroke="#000000" stroke-linecap="butt" stroke-linejoin="round" stroke-width="3.25829" vectornator:layerName="Curve 2610"/>
<path d="M8715.58 2217.99C8715.58 2217.99 8681.65 2042.93 8750.74 2049.62C8750.74 2049.62 8815.46 2024.28 8807.02 2218.11" fill="#c97625" fill-rule="nonzero" opacity="1" stroke="#000000" stroke-linecap="butt" stroke-linejoin="round" stroke-width="3.25829" vectornator:layerName="Curve 2611"/>
<path d="M8952.41 2217.99C8952.41 2217.99 8921.05 2042.93 8984.9 2049.62C8984.9 2049.62 9044.71 2024.28 9036.91 2218.11" fill="#c97625" fill-rule="nonzero" opacity="1" stroke="#000000" stroke-linecap="butt" stroke-linejoin="round" stroke-width="3.25829" vectornator:layerName="Curve 2612"/>
<path d="M9072.66 2217.99C9072.66 2217.99 9039.35 2042.93 9107.19 2049.62C9107.19 2049.62 9170.74 2024.28 9162.45 2218.11" fill="#c97625" fill-rule="nonzero" opacity="1" stroke="#000000" stroke-linecap="butt" stroke-linejoin="round" stroke-width="3.25829" vectornator:layerName="Curve 2613"/>
<path d="M9198.4 2217.99C9198.4 2217.99 9165.08 2042.93 9232.92 2049.62C9232.92 2049.62 9296.47 2024.28 9288.18 2218.11" fill="#c97625" fill-rule="nonzero" opacity="1" stroke="#000000" stroke-linecap="butt" stroke-linejoin="round" stroke-width="3.25829" vectornator:layerName="Curve 2614"/>
<path d="M9321.53 2217.99C9321.53 2217.99 9288.21 2042.93 9356.06 2049.62C9356.06 2049.62 9419.6 2024.28 9411.31 2218.11" fill="#c97625" fill-rule="nonzero" opacity="1" stroke="#000000" stroke-linecap="butt" stroke-linejoin="round" stroke-width="3.25829" vectornator:layerName="Curve 2615"/>
<path d="M9437.06 2217.99C9437.06 2217.99 9403.75 2042.93 9471.59 2049.62C9471.59 2049.62 9535.14 2024.28 9526.85 2218.11" fill="#c97625" fill-rule="nonzero" opacity="1" stroke="#000000" stroke-linecap="butt" stroke-linejoin="round" stroke-width="3.25829" vectornator:layerName="Curve 2616"/>
<path d="M8666.29 2886.93L9985.3 2884.79L9989.48 2920.87L8665.41 2909.89L8666.29 2886.93Z" fill="#c97625" fill-rule="nonzero" opacity="1" stroke="#000000" stroke-linecap="butt" stroke-linejoin="round" stroke-width="3.25829" vectornator:layerName="Curve 2617"/>
<path d="M8606.76 2970.72C8606.76 2970.72 8571.29 2799.08 8643.53 2805.63C8643.53 2805.63 8711.19 2780.79 8702.36 2970.84" fill="#c97625" fill-rule="nonzero" opacity="1" stroke="#000000" stroke-linecap="butt" stroke-linejoin="round" stroke-width="3.25829" vectornator:layerName="Curve 2618"/>
<path d="M8850.35 2970.72C8850.35 2970.72 8817.94 2799.08 8883.95 2805.63C8883.95 2805.63 8945.78 2780.79 8937.71 2970.84" fill="#c97625" fill-rule="nonzero" opacity="1" stroke="#000000" stroke-linecap="butt" stroke-linejoin="round" stroke-width="3.25829" vectornator:layerName="Curve 2619"/>
<path d="M9565.5 2970.72C9565.5 2970.72 9533.09 2799.08 9599.1 2805.63C9599.1 2805.63 9660.93 2780.79 9652.86 2970.84" fill="#c97625" fill-rule="nonzero" opacity="1" stroke="#000000" stroke-linecap="butt" stroke-linejoin="round" stroke-width="3.25829" vectornator:layerName="Curve 2620"/>
<path d="M9686.7 2970.72C9686.7 2970.72 9654.29 2799.08 9720.3 2805.63C9720.3 2805.63 9782.12 2780.79 9774.06 2970.84" fill="#c97625" fill-rule="nonzero" opacity="1" stroke="#000000" stroke-linecap="butt" stroke-linejoin="round" stroke-width="3.25829" vectornator:layerName="Curve 2621"/>
<path d="M9816.4 2970.72C9816.4 2970.72 9783.98 2799.08 9849.99 2805.63C9849.99 2805.63 9911.82 2780.79 9903.76 2970.84" fill="#c97625" fill-rule="nonzero" opacity="1" stroke="#000000" stroke-linecap="butt" stroke-linejoin="round" stroke-width="3.25829" vectornator:layerName="Curve 2622"/>
<path d="M9945.79 2970.72C9945.79 2970.72 9910.79 2799.08 9982.06 2805.63C9982.06 2805.63 10048.8 2780.79 10040.1 2970.84" fill="#c97625" fill-rule="nonzero" opacity="1" stroke="#000000" stroke-linecap="butt" stroke-linejoin="round" stroke-width="3.25829" vectornator:layerName="Curve 2623"/>
<path d="M8733.83 2970.72C8733.83 2970.72 8700.05 2799.08 8768.84 2805.63C8768.84 2805.63 8833.28 2780.79 8824.87 2970.84" fill="#c97625" fill-rule="nonzero" opacity="1" stroke="#000000" stroke-linecap="butt" stroke-linejoin="round" stroke-width="3.25829" vectornator:layerName="Curve 2624"/>
<path d="M8969.64 2970.72C8969.64 2970.72 8938.42 2799.08 9002 2805.63C9002 2805.63 9061.55 2780.79 9053.78 2970.84" fill="#c97625" fill-rule="nonzero" opacity="1" stroke="#000000" stroke-linecap="butt" stroke-linejoin="round" stroke-width="3.25829" vectornator:layerName="Curve 2625"/>
<path d="M9089.38 2970.72C9089.38 2970.72 9056.21 2799.08 9123.76 2805.63C9123.76 2805.63 9187.04 2780.79 9178.79 2970.84" fill="#c97625" fill-rule="nonzero" opacity="1" stroke="#000000" stroke-linecap="butt" stroke-linejoin="round" stroke-width="3.25829" vectornator:layerName="Curve 2626"/>
<path d="M9214.58 2970.72C9214.58 2970.72 9181.41 2799.08 9248.96 2805.63C9248.96 2805.63 9312.23 2780.79 9303.98 2970.84" fill="#c97625" fill-rule="nonzero" opacity="1" stroke="#000000" stroke-linecap="butt" stroke-linejoin="round" stroke-width="3.25829" vectornator:layerName="Curve 2627"/>
<path d="M9337.18 2970.72C9337.18 2970.72 9304.01 2799.08 9371.57 2805.63C9371.57 2805.63 9434.84 2780.79 9426.59 2970.84" fill="#c97625" fill-rule="nonzero" opacity="1" stroke="#000000" stroke-linecap="butt" stroke-linejoin="round" stroke-width="3.25829" vectornator:layerName="Curve 2628"/>
<path d="M9452.23 2970.72C9452.23 2970.72 9419.06 2799.08 9486.61 2805.63C9486.61 2805.63 9549.88 2780.79 9541.63 2970.84" fill="#c97625" fill-rule="nonzero" opacity="1" stroke="#000000" stroke-linecap="butt" stroke-linejoin="round" stroke-width="3.25829" vectornator:layerName="Curve 2629"/>
<path d="M8695.87 3725.37L10010 3722.9L10014.1 3764.36L8695 3751.75L8695.87 3725.37Z" fill="#c97625" fill-rule="nonzero" opacity="1" stroke="#000000" stroke-linecap="butt" stroke-linejoin="round" stroke-width="3.25829" vectornator:layerName="Curve 2630"/>
<path d="M8636.56 3821.63C8636.56 3821.63 8601.22 3624.43 8673.19 3631.96C8673.19 3631.96 8740.6 3603.41 8731.81 3821.77" fill="#c97625" fill-rule="nonzero" opacity="1" stroke="#000000" stroke-linecap="butt" stroke-linejoin="round" stroke-width="3.25829" vectornator:layerName="Curve 2631"/>
<path d="M8879.25 3821.63C8879.25 3821.63 8846.96 3624.43 8912.72 3631.96C8912.72 3631.96 8974.32 3603.41 8966.29 3821.77" fill="#c97625" fill-rule="nonzero" opacity="1" stroke="#000000" stroke-linecap="butt" stroke-linejoin="round" stroke-width="3.25829" vectornator:layerName="Curve 2632"/>
<path d="M9591.75 3821.63C9591.75 3821.63 9559.45 3624.43 9625.22 3631.96C9625.22 3631.96 9686.81 3603.41 9678.78 3821.77" fill="#c97625" fill-rule="nonzero" opacity="1" stroke="#000000" stroke-linecap="butt" stroke-linejoin="round" stroke-width="3.25829" vectornator:layerName="Curve 2633"/>
<path d="M9712.49 3821.63C9712.49 3821.63 9680.2 3624.43 9745.96 3631.96C9745.96 3631.96 9807.56 3603.41 9799.53 3821.77" fill="#c97625" fill-rule="nonzero" opacity="1" stroke="#000000" stroke-linecap="butt" stroke-linejoin="round" stroke-width="3.25829" vectornator:layerName="Curve 2634"/>
<path d="M9841.71 3821.63C9841.71 3821.63 9809.42 3624.43 9875.18 3631.96C9875.18 3631.96 9936.78 3603.41 9928.74 3821.77" fill="#c97625" fill-rule="nonzero" opacity="1" stroke="#000000" stroke-linecap="butt" stroke-linejoin="round" stroke-width="3.25829" vectornator:layerName="Curve 2635"/>
<path d="M9970.62 3821.63C9970.62 3821.63 9935.75 3624.43 10006.8 3631.96C10006.8 3631.96 10073.3 3603.41 10064.6 3821.77" fill="#c97625" fill-rule="nonzero" opacity="1" stroke="#000000" stroke-linecap="butt" stroke-linejoin="round" stroke-width="3.25829" vectornator:layerName="Curve 2636"/>
<path d="M8763.16 3821.63C8763.16 3821.63 8729.5 3624.43 8798.04 3631.96C8798.04 3631.96 8862.24 3603.41 8853.86 3821.77" fill="#c97625" fill-rule="nonzero" opacity="1" stroke="#000000" stroke-linecap="butt" stroke-linejoin="round" stroke-width="3.25829" vectornator:layerName="Curve 2637"/>
<path d="M8998.09 3821.63C8998.09 3821.63 8966.99 3624.43 9030.33 3631.96C9030.33 3631.96 9089.66 3603.41 9081.93 3821.77" fill="#c97625" fill-rule="nonzero" opacity="1" stroke="#000000" stroke-linecap="butt" stroke-linejoin="round" stroke-width="3.25829" vectornator:layerName="Curve 2638"/>
<path d="M9117.39 3821.63C9117.39 3821.63 9084.34 3624.43 9151.65 3631.96C9151.65 3631.96 9214.68 3603.41 9206.46 3821.77" fill="#c97625" fill-rule="nonzero" opacity="1" stroke="#000000" stroke-linecap="butt" stroke-linejoin="round" stroke-width="3.25829" vectornator:layerName="Curve 2639"/>
<path d="M9242.12 3821.63C9242.12 3821.63 9209.07 3624.43 9276.38 3631.96C9276.38 3631.96 9339.42 3603.41 9331.19 3821.77" fill="#c97625" fill-rule="nonzero" opacity="1" stroke="#000000" stroke-linecap="butt" stroke-linejoin="round" stroke-width="3.25829" vectornator:layerName="Curve 2640"/>
<path d="M9364.27 3821.63C9364.27 3821.63 9331.23 3624.43 9398.53 3631.96C9398.53 3631.96 9461.57 3603.41 9453.35 3821.77" fill="#c97625" fill-rule="nonzero" opacity="1" stroke="#000000" stroke-linecap="butt" stroke-linejoin="round" stroke-width="3.25829" vectornator:layerName="Curve 2641"/>
<path d="M9478.89 3821.63C9478.89 3821.63 9445.84 3624.43 9513.14 3631.96C9513.14 3631.96 9576.18 3603.41 9567.96 3821.77" fill="#c97625" fill-rule="nonzero" opacity="1" stroke="#000000" stroke-linecap="butt" stroke-linejoin="round" stroke-width="3.25829" vectornator:layerName="Curve 2642"/>
<path d="M8052.12 2152.7L8576.57 2146.27L8576.35 2243.07L8145.6 2273.39L8049.76 2243.36L8052.12 2152.7Z" fill="#5f9052" fill-rule="nonzero" opacity="1" stroke="none" vectornator:layerName="Curve 2643"/>
<path d="M7934.34 2174.18L7911.59 2173.92L7911.26 2200.01L7938.29 2203.29" fill="#5f9052" fill-rule="nonzero" opacity="1" stroke="none" vectornator:layerName="Curve 2644"/>
<path d="M7806.02 2180.65L7804.83 2172.36L7780.62 2172.5L7780.69 2176.09" fill="#5f9052" fill-rule="nonzero" opacity="1" stroke="none" vectornator:layerName="Curve 2645"/>
<path d="M8052.38 2152.89L8046.97 2153.39L8047.66 2215.36L8053.77 2218.63" fill="#5f9052" fill-rule="nonzero" opacity="1" stroke="none" vectornator:layerName="Curve 2646"/>
<path d="M2916.73 2017.56C2916.73 2017.56 2873.86 2056.32 2924.74 2117.02L3596.62 2111.36C3596.62 2111.36 3621.97 2047.25 3589.09 2014.84C3589.09 2014.84 3211.37 1979.32 2916.73 2017.56Z" fill="#c97625" fill-rule="nonzero" opacity="1" stroke="#000000" stroke-linecap="butt" stroke-linejoin="round" stroke-width="3.25829" vectornator:layerName="Curve 2854"/>
<path d="M2955.96 2764.5C2955.96 2764.5 2913.26 2802.5 2963.93 2862.02L3632.93 2856.47C3632.93 2856.47 3658.18 2793.61 3625.44 2761.83C3625.44 2761.83 3249.34 2727 2955.96 2764.5Z" fill="#c97625" fill-rule="nonzero" opacity="1" stroke="#000000" stroke-linecap="butt" stroke-linejoin="round" stroke-width="3.25829" vectornator:layerName="Curve 2855"/>
<path d="M3025.99 3620.9C3025.99 3620.9 2983.45 3664.56 3033.93 3732.95L3700.45 3726.57C3700.45 3726.57 3725.6 3654.35 3692.99 3617.84C3692.99 3617.84 3318.28 3577.82 3025.99 3620.9Z" fill="#c97625" fill-rule="nonzero" opacity="1" stroke="#000000" stroke-linecap="butt" stroke-linejoin="round" stroke-width="3.25829" vectornator:layerName="Curve 2856"/>
<path d="M4928.67 2035.96C4928.67 2035.96 4885.79 2074.72 4936.68 2135.42L5608.55 2129.76C5608.55 2129.76 5633.91 2065.65 5601.03 2033.24C5601.03 2033.24 5223.31 1997.72 4928.67 2035.96Z" fill="#c97625" fill-rule="nonzero" opacity="1" stroke="#000000" stroke-linecap="butt" stroke-linejoin="round" stroke-width="3.25829" vectornator:layerName="Curve 2857"/>
<path d="M4959.29 2782.54C4959.29 2782.54 4916.6 2820.54 4967.26 2880.06L5636.27 2874.51C5636.27 2874.51 5661.51 2811.65 5628.78 2779.87C5628.78 2779.87 5252.67 2745.04 4959.29 2782.54Z" fill="#c97625" fill-rule="nonzero" opacity="1" stroke="#000000" stroke-linecap="butt" stroke-linejoin="round" stroke-width="3.25829" vectornator:layerName="Curve 2858"/>
<path d="M5021.88 3641.63C5021.88 3641.63 4979.35 3685.29 5029.83 3753.67L5696.35 3747.3C5696.35 3747.3 5721.5 3675.07 5688.88 3638.56C5688.88 3638.56 5314.17 3598.54 5021.88 3641.63Z" fill="#c97625" fill-rule="nonzero" opacity="1" stroke="#000000" stroke-linecap="butt" stroke-linejoin="round" stroke-width="3.25829" vectornator:layerName="Curve 2859"/>
<path d="M6951.98 2014.95C6951.98 2014.95 6909.11 2053.71 6959.99 2114.41L7631.87 2108.75C7631.87 2108.75 7657.22 2044.64 7624.34 2012.23C7624.34 2012.23 7246.62 1976.7 6951.98 2014.95Z" fill="#c97625" fill-rule="nonzero" opacity="1" stroke="#000000" stroke-linecap="butt" stroke-linejoin="round" stroke-width="3.25829" vectornator:layerName="Curve 2860"/>
<path d="M6973.96 2761.94C6973.96 2761.94 6931.26 2799.94 6981.93 2859.46L7650.93 2853.91C7650.93 2853.91 7676.18 2791.05 7643.44 2759.27C7643.44 2759.27 7267.34 2724.44 6973.96 2761.94Z" fill="#c97625" fill-rule="nonzero" opacity="1" stroke="#000000" stroke-linecap="butt" stroke-linejoin="round" stroke-width="3.25829" vectornator:layerName="Curve 2861"/>
<path d="M7010.46 3576.55C7010.46 3576.55 6967.93 3620.22 7018.4 3688.6L7684.92 3682.22C7684.92 3682.22 7710.07 3610 7677.46 3573.49C7677.46 3573.49 7302.75 3533.47 7010.46 3576.55Z" fill="#c97625" fill-rule="nonzero" opacity="1" stroke="#000000" stroke-linecap="butt" stroke-linejoin="round" stroke-width="3.25829" vectornator:layerName="Curve 2862"/>
<path d="M9050.06 2749.72C9050.06 2749.72 9007.37 2787.72 9058.04 2847.24L9727.04 2841.69C9727.04 2841.69 9752.29 2778.83 9719.55 2747.05C9719.55 2747.05 9343.44 2712.22 9050.06 2749.72Z" fill="#c97625" fill-rule="nonzero" opacity="1" stroke="#000000" stroke-linecap="butt" stroke-linejoin="round" stroke-width="3.25829" vectornator:layerName="Curve 2863"/>
<path d="M9097.47 3603.92C9097.47 3603.92 9054.93 3647.58 9105.41 3715.97L9771.93 3709.59C9771.93 3709.59 9797.08 3637.37 9764.47 3600.85C9764.47 3600.85 9389.76 3560.84 9097.47 3603.92Z" fill="#c97625" fill-rule="nonzero" opacity="1" stroke="#000000" stroke-linecap="butt" stroke-linejoin="round" stroke-width="3.25829" vectornator:layerName="Curve 2864"/>
<path d="M9037.01 2002.49C9037.01 2002.49 8994.13 2041.25 9045.01 2101.95L9716.89 2096.29C9716.89 2096.29 9742.24 2032.18 9709.37 1999.77C9709.37 1999.77 9331.65 1964.24 9037.01 2002.49Z" fill="#c97625" fill-rule="nonzero" opacity="1" stroke="#000000" stroke-linecap="butt" stroke-linejoin="round" stroke-width="3.25829" vectornator:layerName="Curve 2865"/>
<path d="M3153.59 2037.5C3159.61 2038.74 3171.82 2032.84 3176.73 2036.08C3180.61 2038.64 3179.81 2049.94 3179.96 2053.43C3180.43 2064.59 3180.68 2085.65 3171.08 2093.63C3155.62 2106.48 3147.78 2080.81 3149.97 2070.13" fill="none" opacity="1" stroke="#f3f5e4" stroke-linecap="round" stroke-linejoin="round" stroke-width="9.69073" vectornator:layerName="Curve 2866"/>
<path d="M3203.64 2061.4C3196.71 2095.12 3200.7 2048.18 3205.18 2038.85C3205.54 2038.1 3206.34 2037.23 3207.33 2037.44C3218.71 2039.78 3232.93 2079.29 3232.72 2079.12" fill="none" opacity="1" stroke="#f3f5e4" stroke-linecap="round" stroke-linejoin="round" stroke-width="9.69073" vectornator:layerName="Curve 2867"/>
<path d="M3205.53 2056.92C3210 2056.64 3214.31 2057.18 3218.69 2057.99" fill="none" opacity="1" stroke="#f3f5e4" stroke-linecap="round" stroke-linejoin="round" stroke-width="9.69073" vectornator:layerName="Curve 2868"/>
<path d="M3251.5 2038.02C3251.78 2042.65 3251.68 2047.46 3251.63 2052.1C3251.57 2058.15 3251.32 2054.93 3251.69 2061.02C3253.68 2093.15 3251.93 2043.66 3251.56 2037.69C3251.53 2037.28 3251.14 2034.5 3251.51 2034.25C3252.72 2033.42 3253.95 2037.7 3254.48 2038.57C3261.01 2049.4 3273.4 2055.21 3279.57 2065.85C3279.9 2066.42 3281.97 2068.64 3282.9 2068.18C3288.25 2065.53 3284.44 2042.54 3283.34 2038.1C3282.68 2035.47 3282.99 2025.91 3283.13 2028.12" fill="none" opacity="1" stroke="#f3f5e4" stroke-linecap="round" stroke-linejoin="round" stroke-width="9.69073" vectornator:layerName="Curve 2869"/>
<path d="M5165.99 2053.96C5165.87 2053.52 5164.83 2048.5 5165.21 2048.62C5167.15 2049.27 5168.76 2098.75 5169.06 2094.71" fill="none" opacity="1" stroke="#f3f5e4" stroke-linecap="round" stroke-linejoin="round" stroke-width="9.69073" vectornator:layerName="Curve 2870"/>
<path d="M5167.87 2046.96C5172.02 2045.56 5188.57 2040.37 5186.76 2042.2" fill="none" opacity="1" stroke="#f3f5e4" stroke-linecap="round" stroke-linejoin="round" stroke-width="9.69073" vectornator:layerName="Curve 2871"/>
<path d="M5168.92 2069.6C5171.97 2068.95 5175.09 2068.32 5178.19 2068.03C5178.74 2067.98 5183.48 2067.43 5181.72 2067.22" fill="none" opacity="1" stroke="#f3f5e4" stroke-linecap="round" stroke-linejoin="round" stroke-width="9.69073" vectornator:layerName="Curve 2872"/>
<path d="M5208.7 2059.2C5208.44 2059.04 5208.46 2068.66 5208.87 2071.76C5209.94 2079.9 5208.93 2088.85 5208.01 2096.93" fill="none" opacity="1" stroke="#f3f5e4" stroke-linecap="round" stroke-linejoin="round" stroke-width="9.69073" vectornator:layerName="Curve 2873"/>
<path d="M5213.63 2060.17C5217.56 2059.66 5221.62 2058.89 5225.54 2058.51C5226.65 2058.4 5230.66 2058.29 5230.42 2058.26" fill="none" opacity="1" stroke="#f3f5e4" stroke-linecap="round" stroke-linejoin="round" stroke-width="9.69073" vectornator:layerName="Curve 2874"/>
<path d="M5213.5 2078.96C5216.54 2078.56 5229.66 2076.46 5229.31 2076.73" fill="none" opacity="1" stroke="#f3f5e4" stroke-linecap="round" stroke-linejoin="round" stroke-width="9.69073" vectornator:layerName="Curve 2875"/>
<path d="M5208.68 2099.84C5214.5 2099.35 5220.12 2097.86 5225.93 2097.37C5227.94 2097.2 5234.4 2096.86 5233.43 2097.22" fill="none" opacity="1" stroke="#f3f5e4" stroke-linecap="round" stroke-linejoin="round" stroke-width="9.69073" vectornator:layerName="Curve 2876"/>
<path d="M5257.56 2061.18C5257.61 2066.28 5258.51 2071.72 5259.41 2076.75C5260.38 2082.17 5259.93 2088.07 5259.3 2093.52C5259.18 2094.59 5258.94 2096.71 5258.94 2096.71C5258.94 2096.71 5259.31 2088.69 5258.69 2084.76C5257.44 2076.84 5255.83 2069.72 5258.09 2061.84C5260.3 2054.11 5277.76 2051.75 5282.32 2058.36C5290.76 2070.57 5269.77 2076.27 5269.51 2078.52C5269.48 2078.78 5273.08 2077.79 5273.43 2077.76C5276.28 2077.52 5279.06 2077.6 5281.92 2077.72C5287.97 2077.98 5295.87 2083.86 5294.35 2090.87C5291.95 2101.93 5262.66 2104.73 5263.5 2097.44" fill="none" opacity="1" stroke="#f3f5e4" stroke-linecap="round" stroke-linejoin="round" stroke-width="9.69073" vectornator:layerName="Curve 2877"/>
<path d="M7223.58 2036.17C7224.19 2042.47 7224.18 2048.8 7224.37 2055.12C7224.5 2059.49 7224.86 2063.73 7225.28 2068.07C7229.73 2113.63 7218.36 2039.4 7222.99 2033.76C7223.71 2032.89 7225.08 2033.86 7225.53 2034.57C7228.1 2038.67 7235.69 2058.86 7243.2 2053.28C7245.45 2051.62 7250.4 2028.58 7253.2 2029.4C7255.51 2030.07 7255.38 2044.57 7255.53 2046.09C7256.43 2055.33 7257.91 2064.49 7260.32 2073.46C7260.77 2075.14 7263.9 2088.54 7263.5 2084.42" fill="none" opacity="1" stroke="#f3f5e4" stroke-linecap="round" stroke-linejoin="round" stroke-width="9.69073" vectornator:layerName="Curve 2878"/>
<path d="M7308.01 2039.47C7308.47 2035.36 7307.27 2047.74 7307.46 2051.88C7307.85 2060.5 7308.02 2067.68 7307.07 2076.26C7306.76 2079.05 7308.53 2087.54 7307.08 2085.07" fill="none" opacity="1" stroke="#f3f5e4" stroke-linecap="round" stroke-linejoin="round" stroke-width="9.69073" vectornator:layerName="Curve 2879"/>
<path d="M7309.51 2036.48C7309.63 2035.39 7318.22 2046.81 7319.29 2048.54C7322.24 2053.33 7339.93 2088.32 7342.25 2089.83" fill="none" opacity="1" stroke="#f3f5e4" stroke-linecap="round" stroke-linejoin="round" stroke-width="9.69073" vectornator:layerName="Curve 2880"/>
<path d="M7312.12 2063.7C7315.28 2061.84 7320.22 2062.17 7323.77 2062.01C7324.75 2061.96 7328.64 2062.52 7327.45 2061.75" fill="none" opacity="1" stroke="#f3f5e4" stroke-linecap="round" stroke-linejoin="round" stroke-width="9.69073" vectornator:layerName="Curve 2881"/>
<path d="M7386.76 2034.64C7386.16 2033.88 7386.75 2043.95 7387.23 2046.82C7388.65 2055.21 7387.72 2064.09 7389.41 2071.99C7389.93 2074.44 7392.25 2086.58 7390.59 2083.76" fill="none" opacity="1" stroke="#f3f5e4" stroke-linecap="round" stroke-linejoin="round" stroke-width="9.69073" vectornator:layerName="Curve 2882"/>
<path d="M7388.88 2032.05C7401.89 2029.26 7410.45 2045.22 7405.16 2055.8C7402.6 2060.93 7396.48 2058.35 7394.59 2061.27C7394.17 2061.91 7404.8 2067.89 7405.74 2068.5C7412.45 2072.85 7417.78 2078.5 7423.94 2082.49" fill="none" opacity="1" stroke="#f3f5e4" stroke-linecap="round" stroke-linejoin="round" stroke-width="9.69073" vectornator:layerName="Curve 2883"/>
<path d="M9298.77 2020.56C9299.03 2017.5 9295.76 2028.33 9295.32 2030.02C9293.2 2038.13 9292.17 2046.4 9291.77 2054.83C9291.6 2058.29 9290.57 2068.18 9292.37 2065.21C9295.84 2059.51 9290.8 2041.31 9293.27 2033.39C9293.97 2031.13 9299.61 2012.2 9301.7 2020.81C9303.16 2026.83 9304.71 2032.76 9306.99 2038.68C9308.28 2042.04 9309.54 2045.41 9310.87 2048.75C9313.54 2055.45 9316.93 2061.91 9318.62 2068.9" fill="none" opacity="1" stroke="#f3f5e4" stroke-linecap="round" stroke-linejoin="round" stroke-width="9.69073" vectornator:layerName="Curve 2884"/>
<path d="M9292.94 2047.84C9299.28 2049.29 9306.02 2048.34 9312.33 2048.87" fill="none" opacity="1" stroke="#f3f5e4" stroke-linecap="round" stroke-linejoin="round" stroke-width="9.69073" vectornator:layerName="Curve 2885"/>
<path d="M9357.48 2027.86C9357.72 2033.85 9356.32 2039.69 9356.57 2045.8C9356.76 2050.52 9357.05 2054.24 9358.73 2058.68C9370.19 2088.92 9343.49 2015.58 9362.96 2018.86C9380.96 2021.9 9371.24 2044.96 9355.57 2043.64" fill="none" opacity="1" stroke="#f3f5e4" stroke-linecap="round" stroke-linejoin="round" stroke-width="9.69073" vectornator:layerName="Curve 2886"/>
<path d="M9404.76 2023.56C9407.81 2030.12 9408.62 2041.8 9409.1 2049.32C9409.26 2051.84 9409.48 2055.32 9409.26 2057.9C9409.12 2059.57 9408.95 2064.49 9408.55 2062.86C9406.69 2055.17 9402.83 2026.55 9409.41 2020.99C9415.04 2016.23 9426.61 2023.5 9426.03 2030.36C9425.39 2038 9410.96 2041.19 9411.15 2045.95C9411.36 2051.07 9437.93 2055.77 9440.01 2064.32" fill="none" opacity="1" stroke="#f3f5e4" stroke-linecap="round" stroke-linejoin="round" stroke-width="9.69073" vectornator:layerName="Curve 2887"/>
<path d="M3173.69 2783.99C3173.22 2783.1 3177.17 2821.95 3177.51 2820.85" fill="none" opacity="1" stroke="#f3f5e4" stroke-linecap="round" stroke-linejoin="round" stroke-width="9.69073" vectornator:layerName="Curve 2888"/>
<path d="M3173.81 2783.6C3176.16 2785.84 3177.71 2788.64 3180.28 2790.82C3183.55 2793.6 3186.48 2800.01 3189.85 2802.05C3192.34 2803.56 3203.42 2778.14 3205.61 2777.78C3206.45 2777.64 3206.69 2783.37 3206.67 2784.2C3206.52 2791.01 3207.51 2820.14 3215.25 2822.54" fill="none" opacity="1" stroke="#f3f5e4" stroke-linecap="round" stroke-linejoin="round" stroke-width="9.69073" vectornator:layerName="Curve 2889"/>
<path d="M3240.63 2799.51C3240.57 2802.53 3240.54 2805.56 3240.43 2808.58C3239.53 2835.28 3240.29 2795.43 3241.94 2786.86C3242 2786.5 3242.1 2782.37 3243.29 2782.49C3249.14 2783.09 3258.87 2804.24 3260.13 2808.16C3260.62 2809.69 3263.86 2818.24 3263.6 2816.63" fill="none" opacity="1" stroke="#f3f5e4" stroke-linecap="round" stroke-linejoin="round" stroke-width="9.69073" vectornator:layerName="Curve 2890"/>
<path d="M3242.18 2804.34C3240.1 2805.43 3252.23 2800.05 3258.16 2801.89" fill="none" opacity="1" stroke="#f3f5e4" stroke-linecap="round" stroke-linejoin="round" stroke-width="9.69073" vectornator:layerName="Curve 2891"/>
<path d="M3293.1 2777.61C3291.24 2775.94 3295.07 2781.49 3295.76 2782.5C3298.39 2786.39 3302.13 2790.22 3305.64 2793.35" fill="none" opacity="1" stroke="#f3f5e4" stroke-linecap="round" stroke-linejoin="round" stroke-width="9.69073" vectornator:layerName="Curve 2892"/>
<path d="M3315.44 2779.01C3313.06 2783.54 3309.77 2788.17 3306.36 2791.99" fill="none" opacity="1" stroke="#f3f5e4" stroke-linecap="round" stroke-linejoin="round" stroke-width="9.69073" vectornator:layerName="Curve 2893"/>
<path d="M3304.62 2791.43C3304.03 2796.04 3307.42 2802.42 3307.49 2807.47C3307.51 2808.99 3307.93 2817.38 3308.28 2814.65" fill="none" opacity="1" stroke="#f3f5e4" stroke-linecap="round" stroke-linejoin="round" stroke-width="9.69073" vectornator:layerName="Curve 2894"/>
<path d="M5207.36 2798.7C5203.41 2797.98 5214.69 2798.61 5216.7 2798.53C5217.67 2798.49 5226.76 2796.42 5226.88 2796.83C5228.14 2801.13 5227.59 2812.89 5227.92 2817.9C5228.51 2826.95 5224.7 2864.34 5209.87 2849.68C5207.64 2847.48 5205.49 2845.68 5205.21 2842.5" fill="none" opacity="1" stroke="#f3f5e4" stroke-linecap="round" stroke-linejoin="round" stroke-width="9.69073" vectornator:layerName="Curve 2895"/>
<path d="M5266.99 2799.62C5266.65 2808.92 5260.82 2831.07 5273.97 2835.19C5283.49 2838.18 5286.9 2805.58 5282.08 2798.63" fill="none" opacity="1" stroke="#f3f5e4" stroke-linecap="round" stroke-linejoin="round" stroke-width="9.69073" vectornator:layerName="Curve 2896"/>
<path d="M5321.4 2801.65C5320.59 2806.16 5320.24 2810.75 5319.86 2815.35C5319.55 2819.01 5319.63 2822.62 5319.19 2826.23C5317.85 2837.33 5320.75 2805.36 5320.99 2798.78C5321.01 2798.17 5320.82 2797.32 5321.32 2796.97C5322.82 2795.93 5323.81 2799.66 5325.06 2801.01C5329.41 2805.69 5341.84 2827.32 5347.97 2826.79C5353.21 2826.33 5353.3 2795.03 5353.29 2795.31" fill="none" opacity="1" stroke="#f3f5e4" stroke-linecap="round" stroke-linejoin="round" stroke-width="9.69073" vectornator:layerName="Curve 2897"/>
<path d="M7233.27 2786.8C7231.36 2787.9 7250.84 2776.75 7254.44 2779.15C7257.77 2781.37 7254.03 2821.99 7248.34 2828.07C7240.96 2835.95 7227.5 2828.13 7234.37 2817.81" fill="none" opacity="1" stroke="#f3f5e4" stroke-linecap="round" stroke-linejoin="round" stroke-width="9.69073" vectornator:layerName="Curve 2898"/>
<path d="M7298.64 2782.01C7297.96 2782.45 7295.78 2824.94 7307.51 2821.37C7316.99 2818.48 7324.27 2803.81 7324.48 2794.76C7324.55 2791.73 7322.21 2778.38 7321.38 2781.09" fill="none" opacity="1" stroke="#f3f5e4" stroke-linecap="round" stroke-linejoin="round" stroke-width="9.69073" vectornator:layerName="Curve 2899"/>
<path d="M7355.98 2779.28C7355.51 2785.18 7354.7 2791.35 7354.56 2797.32C7354.46 2801.44 7352.12 2818.89 7354.79 2822.01C7354.79 2822.02 7389.66 2815.18 7396.52 2819.32" fill="none" opacity="1" stroke="#f3f5e4" stroke-linecap="round" stroke-linejoin="round" stroke-width="9.69073" vectornator:layerName="Curve 2900"/>
<path d="M9302.63 2767.38C9302.62 2766.59 9303.22 2764.5 9302.59 2764.99C9298.85 2767.9 9304.07 2794.06 9300.1 2802.34C9299.26 2804.1 9300.8 2798.51 9301.08 2796.59C9301.38 2794.56 9301.49 2792.3 9301.45 2790.24C9301.3 2781.18 9299.72 2774.33 9302.72 2765.35C9302.75 2765.26 9303.6 2762.95 9304.11 2763.05C9304.39 2763.11 9328.95 2805.68 9328.98 2807.61" fill="none" opacity="1" stroke="#f3f5e4" stroke-linecap="round" stroke-linejoin="round" stroke-width="9.69073" vectornator:layerName="Curve 2901"/>
<path d="M9304.96 2792.82C9308.62 2791.53 9314.29 2790.63 9318.19 2790.57" fill="none" opacity="1" stroke="#f3f5e4" stroke-linecap="round" stroke-linejoin="round" stroke-width="9.69073" vectornator:layerName="Curve 2902"/>
<path d="M9358.07 2778.26C9356.96 2775.2 9358.39 2783.96 9359.04 2785.52C9361.48 2791.37 9363.55 2799.64 9370.93 2801.25C9377.24 2802.64 9381.27 2788.44 9382.23 2784.21C9382.37 2783.62 9383.89 2775.02 9382.13 2776.42" fill="none" opacity="1" stroke="#f3f5e4" stroke-linecap="round" stroke-linejoin="round" stroke-width="9.69073" vectornator:layerName="Curve 2903"/>
<path d="M9434.27 2764.7C9422.1 2766.59 9413.39 2788.72 9423.41 2796.82C9432.13 2803.86 9451.42 2794.22 9447.1 2782.42C9446.38 2780.46 9443.1 2783.97 9443.51 2784.16C9444.86 2784.79 9447.34 2781.28 9448.43 2780.88C9449.79 2780.38 9449.62 2781.93 9449.74 2782.72C9450.73 2789.09 9449.98 2803.17 9454.01 2808.23" fill="none" opacity="1" stroke="#f3f5e4" stroke-linecap="round" stroke-linejoin="round" stroke-width="9.69073" vectornator:layerName="Curve 2904"/>
<path d="M3236.72 3642.82C3237.67 3629.23 3209.45 3645.97 3217.44 3656.84C3221.79 3662.76 3254.81 3656.3 3248.59 3671.9C3244.92 3681.1 3233.25 3691.06 3223.39 3692.81C3219.04 3693.57 3206.24 3686.16 3214.26 3685.13" fill="none" opacity="1" stroke="#f3f5e4" stroke-linecap="round" stroke-linejoin="round" stroke-width="9.69073" vectornator:layerName="Curve 2905"/>
<path d="M3276.02 3647.31C3275.36 3645.94 3276.23 3655.14 3276.26 3657.14C3276.33 3661.36 3271.85 3686.13 3273.27 3678.94" fill="none" opacity="1" stroke="#f3f5e4" stroke-linecap="round" stroke-linejoin="round" stroke-width="9.69073" vectornator:layerName="Curve 2906"/>
<path d="M3276.02 3647.31C3275.98 3647.27 3300.69 3641.12 3299.84 3642.22" fill="none" opacity="1" stroke="#f3f5e4" stroke-linecap="round" stroke-linejoin="round" stroke-width="9.69073" vectornator:layerName="Curve 2907"/>
<path d="M3277.87 3664.41C3281.42 3662.03 3300.66 3663.41 3300.98 3661.8" fill="none" opacity="1" stroke="#f3f5e4" stroke-linecap="round" stroke-linejoin="round" stroke-width="9.69073" vectornator:layerName="Curve 2908"/>
<path d="M3272.27 3681.79C3271.75 3682.04 3282.01 3680.4 3284.98 3680.17C3288.28 3679.9 3306.33 3683.18 3306.8 3680.78" fill="none" opacity="1" stroke="#f3f5e4" stroke-linecap="round" stroke-linejoin="round" stroke-width="9.69073" vectornator:layerName="Curve 2909"/>
<path d="M3338.26 3642.41C3337.55 3652.41 3337 3660.66 3338.79 3670.56C3338.97 3671.51 3338.32 3682.85 3337.49 3681.61C3330.48 3671.16 3337.45 3622.48 3357.84 3633.44C3362.78 3636.1 3364.51 3648.94 3359.56 3652.27C3355.05 3655.29 3347.03 3655.74 3341.85 3657.25C3340.66 3657.6 3337.1 3658.59 3338.22 3658.06" fill="none" opacity="1" stroke="#f3f5e4" stroke-linecap="round" stroke-linejoin="round" stroke-width="9.69073" vectornator:layerName="Curve 2910"/>
<path d="M5258.38 3666C5259.71 3668.59 5225.02 3707.58 5258.03 3715.53C5284.87 3722 5303.29 3667.9 5280.14 3647.89C5266.65 3636.23 5253.16 3655.81 5258.38 3666Z" fill="none" opacity="1" stroke="#f3f5e4" stroke-linecap="round" stroke-linejoin="round" stroke-width="9.69073" vectornator:layerName="Curve 2911"/>
<path d="M5339.92 3658.02C5335.29 3660.56 5332.33 3666.63 5329.58 3671.09C5299.62 3719.71 5361.25 3713.66 5361.69 3688.75" fill="none" opacity="1" stroke="#f3f5e4" stroke-linecap="round" stroke-linejoin="round" stroke-width="9.69073" vectornator:layerName="Curve 2912"/>
<path d="M5392.22 3657.2C5390.18 3656.13 5445.29 3646.27 5438.43 3646.15" fill="none" opacity="1" stroke="#f3f5e4" stroke-linecap="round" stroke-linejoin="round" stroke-width="9.69073" vectornator:layerName="Curve 2913"/>
<path d="M5413.95 3650.95C5414.02 3647.06 5413.14 3660.09 5413.4 3662.11C5414.92 3673.75 5418.37 3684.97 5419.07 3696.74C5419.22 3699.32 5418.03 3713.9 5420.23 3709.67" fill="none" opacity="1" stroke="#f3f5e4" stroke-linecap="round" stroke-linejoin="round" stroke-width="9.69073" vectornator:layerName="Curve 2914"/>
<path d="M7255.3 3607.95C7255.24 3607.29 7252.5 3596.83 7251.49 3597.74C7250.85 3598.31 7251.35 3599.44 7251.35 3600.3C7251.42 3613.26 7255.43 3625.21 7253.67 3638.65C7253.42 3640.6 7253.1 3644.52 7253.1 3644.52C7253.1 3644.52 7253.11 3639.38 7253.51 3636.85C7254.97 3627.59 7255.74 3619.06 7255.46 3609.75C7255.41 3607.82 7249.67 3596.15 7254.04 3597.88C7261.4 3600.77 7283.46 3643.17 7290.51 3640.1C7292.7 3639.15 7293.7 3595.96 7289.03 3590.76" fill="none" opacity="1" stroke="#f3f5e4" stroke-linecap="round" stroke-linejoin="round" stroke-width="9.69073" vectornator:layerName="Curve 2915"/>
<path d="M7333.36 3600.81C7336.09 3608.74 7321.02 3638.64 7337.72 3639.53C7362.14 3640.83 7357.48 3602.3 7345.11 3591.94C7340.79 3588.32 7331.24 3594.64 7333.36 3600.81Z" fill="none" opacity="1" stroke="#f3f5e4" stroke-linecap="round" stroke-linejoin="round" stroke-width="9.69073" vectornator:layerName="Curve 2916"/>
<path d="M7387.2 3591.1C7394.85 3599.62 7400.45 3615.55 7403.79 3626.37C7404.3 3628.02 7403.6 3631.47 7405.32 3631.32C7408.32 3631.05 7417.24 3598.8 7418.5 3595.59C7419.85 3592.15 7425.06 3578.9 7424.43 3580.51" fill="none" opacity="1" stroke="#f3f5e4" stroke-linecap="round" stroke-linejoin="round" stroke-width="9.69073" vectornator:layerName="Curve 2917"/>
<path d="M9287.16 3636.39C9286.86 3630.17 9286.12 3638.03 9286.09 3640.2C9286.01 3648.76 9286.88 3657.33 9288.33 3665.69C9288.75 3668.05 9289.95 3675.01 9290.18 3672.62" fill="none" opacity="1" stroke="#f3f5e4" stroke-linecap="round" stroke-linejoin="round" stroke-width="9.69073" vectornator:layerName="Curve 2918"/>
<path d="M9286.71 3637.41C9279.01 3637.79 9314.63 3604.89 9326.35 3622.44C9340.01 3642.91 9304.64 3669.91 9287.33 3670.76" fill="none" opacity="1" stroke="#f3f5e4" stroke-linecap="round" stroke-linejoin="round" stroke-width="9.69073" vectornator:layerName="Curve 2919"/>
<path d="M9367.47 3627.72C9367.34 3628.47 9367.17 3629.23 9367.08 3629.99C9366.4 3635.62 9365.67 3641.25 9365.14 3646.9C9364.73 3651.31 9364.26 3673.79 9366.67 3662.88" fill="none" opacity="1" stroke="#f3f5e4" stroke-linecap="round" stroke-linejoin="round" stroke-width="9.69073" vectornator:layerName="Curve 2920"/>
<path d="M9365.02 3644.39C9363.94 3645.29 9370.35 3643.06 9373.2 3642.49C9378.83 3641.37 9385.48 3640.7 9390.82 3638.62" fill="none" opacity="1" stroke="#f3f5e4" stroke-linecap="round" stroke-linejoin="round" stroke-width="9.69073" vectornator:layerName="Curve 2921"/>
<path d="M9369.73 3622.59C9373.46 3621.14 9400.18 3611.32 9392.8 3617.45" fill="none" opacity="1" stroke="#f3f5e4" stroke-linecap="round" stroke-linejoin="round" stroke-width="9.69073" vectornator:layerName="Curve 2922"/>
<path d="M9373.11 3666.33C9376.67 3665.71 9400.38 3657.86 9392.65 3660.87" fill="none" opacity="1" stroke="#f3f5e4" stroke-linecap="round" stroke-linejoin="round" stroke-width="9.69073" vectornator:layerName="Curve 2923"/>
<path d="M9451.03 3617.75C9432.02 3617.57 9422.27 3650.91 9436.73 3661.98C9444.81 3668.16 9454.57 3663.27 9463.53 3661.56C9468.28 3660.66 9473.53 3661.51 9476.15 3656.38" fill="none" opacity="1" stroke="#f3f5e4" stroke-linecap="round" stroke-linejoin="round" stroke-width="9.69073" vectornator:layerName="Curve 2924"/>
</g>
</svg>
