<?xml version="1.0" encoding="UTF-8" standalone="no"?>
<!DOCTYPE svg PUBLIC "-//W3C//DTD SVG 1.1//EN" "http://www.w3.org/Graphics/SVG/1.1/DTD/svg11.dtd">
<!-- Created with Vectornator (http://vectornator.io/) -->
<svg height="100%" stroke-miterlimit="10" style="fill-rule:nonzero;clip-rule:evenodd;stroke-linecap:round;stroke-linejoin:round;" version="1.1" viewBox="5158.32 135.341 2330.52 330.718" width="100%" xml:space="preserve" xmlns="http://www.w3.org/2000/svg" xmlns:vectornator="http://vectornator.io" xmlns:xlink="http://www.w3.org/1999/xlink">
<defs/>
<g id="Layer-1" vectornator:layerName="Layer 1">
<path d="M6014.62 146.017L5841.5 455.036L6005.11 458.361L6034.86 402.139L6210.64 403.147L6238.51 459.873L6407.2 462.089L6237.29 148.939L6014.62 146.017ZM6122.36 222.692L6171.14 319.721L6076.12 319.217L6122.36 222.692Z" fill="#eceede" fill-rule="nonzero" opacity="1" stroke="#010101" stroke-linecap="butt" stroke-linejoin="round" stroke-width="6.76975" vectornator:layerName="Curve 1365"/>
<path d="M6416.83 147.327L6416.38 458.261L6578.44 459.167L6576.56 384.305L6672.35 383.6L6734.08 460.377L6930.98 459.167L6854.32 369.998C6950.75 330.811 6925.34 244.758 6925.34 244.758C6903.15 152.18 6796.25 148.032 6796.25 148.032L6416.83 147.327ZM6747.91 244.758C6768.56 254.769 6764.28 266.622 6764.28 266.622C6763.27 286.715 6742.26 286.37 6742.26 286.37L6581.32 287.076L6579.88 246.471L6747.91 244.758Z" fill="#eceede" fill-rule="nonzero" opacity="1" stroke="#000000" stroke-linecap="butt" stroke-linejoin="round" stroke-width="6.79893" vectornator:layerName="Curve 1366"/>
<path d="M5560.07 138.904L5558 214.8L5706.25 212.983L5690.64 456.865L5772.59 457.536L5780.89 210.005L5930 212.326L5932.31 143.95L5560.07 138.904Z" fill="#eceede" fill-rule="nonzero" opacity="1" stroke="#010101" stroke-linecap="butt" stroke-linejoin="round" stroke-width="6.76975" vectornator:layerName="Curve 1367"/>
<path d="M5548.83 241.324C5548.83 241.324 5558.84 156.927 5441.16 145.289C5441.16 145.289 5211.97 106.864 5183.66 215.961C5183.66 215.961 5150.63 307.537 5282.75 315.802C5282.75 315.802 5401.04 328.206 5426.43 329.516C5426.43 329.516 5481.23 328.779 5475.48 360.756C5475.48 360.756 5481.4 384.64 5428.11 391.876C5428.11 391.876 5230.07 415.371 5247.55 348.198L5162.52 345.738C5162.52 345.738 5144.82 435.995 5274.25 455.113C5274.25 455.113 5512.13 496.08 5554.61 387.29C5554.61 387.29 5582.9 289.57 5491.83 280.615C5491.83 280.615 5394.59 264.879 5305.21 259.683C5305.21 259.683 5252.14 258.188 5260.9 227.06C5260.9 227.06 5260.43 205.087 5306.17 201.812C5306.17 201.812 5482.15 187.696 5471.48 244.631" fill="#eceede" fill-rule="nonzero" opacity="1" stroke="#010101" stroke-linecap="butt" stroke-linejoin="round" stroke-width="6.76975" vectornator:layerName="Curve 1368"/>
<path d="M6928.55 144.653L6930.67 243L7127.05 243.203L7130.79 458.919L7298.73 461.039L7288.29 239.667L7483.21 244.149L7477.11 142.901L6928.55 144.653Z" fill="#eceede" fill-rule="nonzero" opacity="1" stroke="#000000" stroke-linecap="butt" stroke-linejoin="round" stroke-width="6.8035" vectornator:layerName="Curve 1369"/>
<path d="M6315.5 454.657C6315.5 454.657 6356.45 433.408 6367.33 431.587" fill="none" opacity="1" stroke="#010101" stroke-linecap="round" stroke-linejoin="round" stroke-width="4.10066" vectornator:layerName="Curve 1370"/>
<path d="M6254.17 435.485C6254.17 435.485 6326.14 406.425 6376.26 394.335" fill="none" opacity="1" stroke="#010101" stroke-linecap="round" stroke-linejoin="round" stroke-width="4.10066" vectornator:layerName="Curve 1371"/>
<path d="M6220.82 404.58L6333.92 363.918" fill="none" opacity="1" stroke="#010101" stroke-linecap="round" stroke-linejoin="round" stroke-width="4.10066" vectornator:layerName="Curve 1372"/>
<path d="M6153.56 399.436C6153.56 399.436 6221.22 355.261 6321.96 326.141" fill="none" opacity="1" stroke="#010101" stroke-linecap="round" stroke-linejoin="round" stroke-width="4.10066" vectornator:layerName="Curve 1373"/>
<path d="M5910.28 455.379C5910.28 455.379 6187.98 337.795 6250.81 318.681" fill="none" opacity="1" stroke="#010101" stroke-linecap="round" stroke-linejoin="round" stroke-width="4.10066" vectornator:layerName="Curve 1374"/>
<path d="M5890.31 419.239C5890.31 419.239 6062.63 349.32 6162.53 321.688" fill="none" opacity="1" stroke="#010101" stroke-linecap="round" stroke-linejoin="round" stroke-width="4.10066" vectornator:layerName="Curve 1375"/>
<path d="M6207.94 292.336L6286.27 262.903" fill="none" opacity="1" stroke="#010101" stroke-linecap="round" stroke-linejoin="round" stroke-width="4.10066" vectornator:layerName="Curve 1376"/>
<path d="M6181.41 272.62L6272.5 237.423" fill="none" opacity="1" stroke="#010101" stroke-linecap="round" stroke-linejoin="round" stroke-width="4.10066" vectornator:layerName="Curve 1377"/>
<path d="M5919.34 358.235L6076.59 303.351" fill="none" opacity="1" stroke="#010101" stroke-linecap="round" stroke-linejoin="round" stroke-width="4.10066" vectornator:layerName="Curve 1378"/>
<path d="M6160.8 246.349L6242.07 213.625" fill="none" opacity="1" stroke="#010101" stroke-linecap="round" stroke-linejoin="round" stroke-width="4.10066" vectornator:layerName="Curve 1379"/>
<path d="M5942.3 308.291L6097.41 262.408" fill="none" opacity="1" stroke="#010101" stroke-linecap="round" stroke-linejoin="round" stroke-width="4.10066" vectornator:layerName="Curve 1380"/>
<path d="M5958.75 275.409L6242.88 168.208" fill="none" opacity="1" stroke="#010101" stroke-linecap="round" stroke-linejoin="round" stroke-width="4.10066" vectornator:layerName="Curve 1381"/>
<path d="M5970 234.422L6178.19 165.2" fill="none" opacity="1" stroke="#010101" stroke-linecap="round" stroke-linejoin="round" stroke-width="4.10066" vectornator:layerName="Curve 1382"/>
<path d="M7215.56 454.228C7215.56 454.228 7273.62 428.045 7325.39 413.135" fill="none" opacity="1" stroke="#010101" stroke-linecap="round" stroke-linejoin="round" stroke-width="4.10066" vectornator:layerName="Curve 1383"/>
<path d="M7182 428.962C7182 428.962 7250.5 394.739 7310.41 370.467" fill="none" opacity="1" stroke="#010101" stroke-linecap="round" stroke-linejoin="round" stroke-width="4.10066" vectornator:layerName="Curve 1384"/>
<path d="M7158.43 377.48C7158.43 377.48 7228.04 349.344 7286.45 321.234" fill="none" opacity="1" stroke="#010101" stroke-linecap="round" stroke-linejoin="round" stroke-width="4.10066" vectornator:layerName="Curve 1385"/>
<path d="M7147.69 322.913C7147.69 322.913 7243.88 285.446 7278.3 268.359" fill="none" opacity="1" stroke="#010101" stroke-linecap="round" stroke-linejoin="round" stroke-width="4.10066" vectornator:layerName="Curve 1386"/>
<path d="M7292.1 236.235C7292.1 236.235 7393.46 209.405 7486.79 188.599" fill="none" opacity="1" stroke="#010101" stroke-linecap="round" stroke-linejoin="round" stroke-width="4.10066" vectornator:layerName="Curve 1387"/>
<path d="M7150.59 292.859L7294.08 229.594" fill="none" opacity="1" stroke="#010101" stroke-linecap="round" stroke-linejoin="round" stroke-width="4.10066" vectornator:layerName="Curve 1388"/>
<path d="M7142.9 256.569C7142.9 256.569 7294.2 198.167 7450.33 158.397" fill="none" opacity="1" stroke="#010101" stroke-linecap="round" stroke-linejoin="round" stroke-width="4.10066" vectornator:layerName="Curve 1389"/>
<path d="M7084.47 238.906C7084.47 238.906 7226.55 180.514 7380.17 146.498" fill="none" opacity="1" stroke="#010101" stroke-linecap="round" stroke-linejoin="round" stroke-width="4.10066" vectornator:layerName="Curve 1390"/>
<path d="M6988.52 227.162C6988.52 227.162 7160.08 166.855 7246.83 144.427" fill="none" opacity="1" stroke="#010101" stroke-linecap="round" stroke-linejoin="round" stroke-width="4.10066" vectornator:layerName="Curve 1391"/>
<path d="M6965.09 197.024C6965.09 197.024 7060.17 166.265 7121.42 144.723" fill="none" opacity="1" stroke="#010101" stroke-linecap="round" stroke-linejoin="round" stroke-width="4.10066" vectornator:layerName="Curve 1392"/>
<path d="M6812.79 449.075C6812.79 449.075 6857.24 440.402 6886.39 418.796" fill="none" opacity="1" stroke="#010101" stroke-linecap="round" stroke-linejoin="round" stroke-width="4.10066" vectornator:layerName="Curve 1393"/>
<path d="M6751.51 430.521C6751.51 430.521 6808.31 411.405 6869.94 388.89" fill="none" opacity="1" stroke="#010101" stroke-linecap="round" stroke-linejoin="round" stroke-width="4.10066" vectornator:layerName="Curve 1394"/>
<path d="M6717.07 400.989C6717.07 400.989 6795.15 369.748 6876.76 342.388" fill="none" opacity="1" stroke="#010101" stroke-linecap="round" stroke-linejoin="round" stroke-width="4.10066" vectornator:layerName="Curve 1395"/>
<path d="M6677.86 371.435C6677.86 371.435 6864.12 303.483 6925.49 285.608" fill="none" opacity="1" stroke="#010101" stroke-linecap="round" stroke-linejoin="round" stroke-width="4.10066" vectornator:layerName="Curve 1396"/>
<path d="M6796.62 275.439C6796.62 275.439 6859.18 256.558 6890.7 246.708" fill="none" opacity="1" stroke="#010101" stroke-linecap="round" stroke-linejoin="round" stroke-width="4.10066" vectornator:layerName="Curve 1397"/>
<path d="M6439.21 423.695C6439.21 423.695 6644.44 328.866 6785.22 284.966" fill="none" opacity="1" stroke="#010101" stroke-linecap="round" stroke-linejoin="round" stroke-width="4.10066" vectornator:layerName="Curve 1398"/>
<path d="M6454.96 376.64C6454.96 376.64 6519.3 335.123 6600.06 306.113" fill="none" opacity="1" stroke="#010101" stroke-linecap="round" stroke-linejoin="round" stroke-width="4.10066" vectornator:layerName="Curve 1399"/>
<path d="M6741.29 245.725C6741.29 245.725 6793.98 219.199 6872.93 198.54" fill="none" opacity="1" stroke="#010101" stroke-linecap="round" stroke-linejoin="round" stroke-width="4.10066" vectornator:layerName="Curve 1400"/>
<path d="M6624.05 239.663C6624.05 239.663 6735.38 192.52 6821.73 170.81" fill="none" opacity="1" stroke="#010101" stroke-linecap="round" stroke-linejoin="round" stroke-width="4.10066" vectornator:layerName="Curve 1401"/>
<path d="M6445.47 314.489C6445.47 314.489 6510.39 281.333 6582.4 255.004" fill="none" opacity="1" stroke="#010101" stroke-linecap="round" stroke-linejoin="round" stroke-width="4.10066" vectornator:layerName="Curve 1402"/>
<path d="M6437.04 266.761C6437.04 266.761 6621.88 182.075 6749.99 147.568" fill="none" opacity="1" stroke="#010101" stroke-linecap="round" stroke-linejoin="round" stroke-width="4.10066" vectornator:layerName="Curve 1403"/>
<path d="M6450.03 231.652C6450.03 231.652 6576.08 177.996 6659.01 146.662" fill="none" opacity="1" stroke="#010101" stroke-linecap="round" stroke-linejoin="round" stroke-width="4.10066" vectornator:layerName="Curve 1404"/>
<path d="M6441.54 190.322C6441.54 190.322 6486.55 165.228 6541.93 147.226" fill="none" opacity="1" stroke="#010101" stroke-linecap="round" stroke-linejoin="round" stroke-width="4.10066" vectornator:layerName="Curve 1405"/>
<path d="M5465.94 243.712L5555.74 242.691" fill="none" opacity="1" stroke="#010101" stroke-linecap="butt" stroke-linejoin="round" stroke-width="6.76975" vectornator:layerName="Curve 1406"/>
</g>
</svg>
