<?xml version="1.0" encoding="UTF-8" standalone="no"?>
<!DOCTYPE svg PUBLIC "-//W3C//DTD SVG 1.1//EN" "http://www.w3.org/Graphics/SVG/1.1/DTD/svg11.dtd">
<!-- Created with Vectornator (http://vectornator.io/) -->
<svg height="100%" stroke-miterlimit="10" style="fill-rule:nonzero;clip-rule:evenodd;stroke-linecap:round;stroke-linejoin:round;" version="1.1" viewBox="138.195 153.873 241.201 186.72" width="100%" xml:space="preserve" xmlns="http://www.w3.org/2000/svg" xmlns:vectornator="http://vectornator.io" xmlns:xlink="http://www.w3.org/1999/xlink">
<defs>
<filter color-interpolation-filters="sRGB" filterUnits="userSpaceOnUse" height="8.11966" id="Filter" width="7.32769" x="305.324" y="166.448">
<feGaussianBlur in="SourceGraphic" result="Blur" stdDeviation="0.0645605"/>
</filter>
<filter color-interpolation-filters="sRGB" filterUnits="userSpaceOnUse" height="8.45579" id="Filter_2" width="7.57716" x="314.536" y="153.873">
<feGaussianBlur in="SourceGraphic" result="Blur" stdDeviation="0.0645605"/>
</filter>
<filter color-interpolation-filters="sRGB" filterUnits="userSpaceOnUse" height="2.63408" id="Filter_3" width="3.17681" x="202.358" y="265.635">
<feGaussianBlur in="SourceGraphic" result="Blur" stdDeviation="0.0645605"/>
</filter>
<filter color-interpolation-filters="sRGB" filterUnits="userSpaceOnUse" height="6.02897" id="Filter_4" width="2.93713" x="202.485" y="265.81">
<feGaussianBlur in="SourceGraphic" result="Blur" stdDeviation="0.0645605"/>
</filter>
<filter color-interpolation-filters="sRGB" filterUnits="userSpaceOnUse" height="1.78393" id="Filter_5" width="1.94271" x="202.877" y="273.836">
<feGaussianBlur in="SourceGraphic" result="Blur" stdDeviation="0.0645605"/>
</filter>
</defs>
<g id="Layer-2" vectornator:layerName="Layer 2">
<path d="M271.117 229.858C271.117 229.858 271.667 231.656 274.442 231.936C274.442 231.936 275.098 228.964 274.483 227.698C273.868 226.432 272.886 228.298 271.117 229.858Z" fill="#1c2a34" fill-rule="nonzero" opacity="1" stroke="none" vectornator:layerName="Curve 1"/>
<path d="M292.22 205.896C292.22 205.896 290.427 207.663 289.616 208.031C288.806 208.4 289.653 205.54 289.653 205.54" fill="#1c2a34" fill-rule="nonzero" opacity="1" stroke="none" vectornator:layerName="Curve 2"/>
<path d="M248.132 181.064L248.611 178.404C248.611 178.404 249.869 178.411 250.832 180.05C250.832 180.05 248.963 182.87 248.444 182.034C247.926 181.198 248.132 181.064 248.132 181.064Z" fill="#1c2a34" fill-rule="nonzero" opacity="1" stroke="none" vectornator:layerName="Curve 3"/>
<path d="M200.65 331.072L197.107 293.882C197.107 293.882 196.422 305.146 195.23 310.943C195.23 310.943 198.534 315.594 194.371 326.857C194.371 326.857 201.59 327.619 199.42 331.321L148.335 340.593C148.335 340.593 130.241 338.335 142.393 318.59C142.393 318.59 148.046 312.227 155.209 315.241C155.209 315.241 163.362 319.998 155.212 331.026L163.141 329.516C163.141 329.516 155.465 313.123 166.194 294.713C166.194 294.713 181.919 269.752 183.066 268.998C183.066 268.998 182.209 263.136 186.536 254.463L186.77 250.356C186.77 250.356 188.405 244.515 193.291 242.666C193.291 242.666 199.59 241.364 200.355 245.479C200.355 245.479 208.219 242.371 211.274 242.875C211.274 242.875 215.656 244.921 210.977 249.179C210.977 249.179 206.579 251.755 202.241 253.345C202.241 253.345 204.157 302.11 205.796 325.298C205.796 325.298 212.983 323.746 213.949 329.548L200.65 331.072Z" fill="#e8e9e3" fill-rule="nonzero" opacity="1" stroke="none" vectornator:layerName="Curve 1"/>
<path d="M206.44 267.125C206.44 267.125 203.596 268.251 202.641 272.414C202.641 272.414 203.39 275.307 206.306 274.952C206.306 274.952 210.863 274.197 210.786 269.341C210.786 269.341 210.29 266.073 206.44 267.125Z" fill="#e8e9e3" fill-rule="nonzero" opacity="1" stroke="none" vectornator:layerName="Curve 3"/>
<path d="M210.753 330.669C210.753 330.669 211.828 316.053 225.941 314.444C225.941 314.444 234.579 312.705 237.798 300.381C237.798 300.381 240.781 293.844 244.993 295.017C244.993 295.017 248.179 297.21 247.586 302.728C247.586 302.728 248.585 305.379 249.906 307.268C249.906 307.268 258.895 299.651 261.173 296.597C261.173 296.597 266.025 292.718 264.455 300.898C264.455 300.898 263.992 312.155 274.132 307.682C274.132 307.682 276.876 307.076 279.023 304.959L278.207 320.023L210.753 330.669Z" fill="#f6ad00" fill-rule="nonzero" opacity="1" stroke="none" vectornator:layerName="Curve 4"/>
<path d="M259.158 189.783C259.158 189.783 254.504 191.427 254.967 190.381L255.07 189.722C255.07 189.722 253.792 190.139 253.854 189.3C253.854 189.3 252.54 186.087 256.135 185.926C256.135 185.926 254.055 182.642 257.383 181.516C257.383 181.516 261.552 175.567 266.512 182.08C266.512 182.08 266.805 186.845 263.557 187.463" fill="#704332" fill-rule="nonzero" opacity="1" stroke="none" vectornator:layerName="Curve 5"/>
<path d="M334.525 212.206C334.525 212.206 345.305 216.21 349.508 215.758C349.508 215.758 347.047 202.721 348.41 200.31C348.41 200.31 348.443 183.301 333.118 175.245C333.118 175.245 332.765 176.773 330.975 177.342C330.738 177.417 330.459 177.392 330.177 177.422C330.177 177.422 328.84 177.501 327.726 177.328C327.072 177.226 326.344 177.53 326.372 176.924C326.372 176.924 316.628 181.054 312.136 193.825C312.136 193.825 309.173 190.221 302.258 188.333C302.258 188.333 305.033 194.852 289.46 208.162L297.927 209.45C297.927 209.45 299.018 202.121 305.98 200.68C312.941 199.239 306.03 201.015 306.03 201.015C306.03 201.015 311.814 199.703 313.683 200.925C313.683 200.925 314.587 202.303 316.009 203.86C318.884 207.008 323.007 212.089 319.974 216.399C319.974 216.399 332.15 213.515 334.525 212.206Z" fill="#7693d8" fill-rule="nonzero" opacity="1" stroke="none" vectornator:layerName="Curve 1"/>
<path d="M307.685 290.94C307.685 290.94 311.994 274.188 298.675 280.074C298.675 280.074 290.793 289.537 279.45 294.285L278.644 303.412L317.882 312.705L322.422 302.275" fill="#6d9d7d" fill-rule="nonzero" opacity="1" stroke="none" vectornator:layerName="Curve 1"/>
<path d="M336.923 293.143L345.234 292.448C345.234 292.448 343.33 277.314 343.056 272.396C343.056 272.396 343.384 264.922 349.978 269.939L355.218 271.356L364.488 257.929L375.002 268.067L357.538 303.293C357.538 303.293 355.381 302.314 351.279 303.45C351.279 303.45 352.658 297.483 344.973 292.823" fill="#6d9d7d" fill-rule="nonzero" opacity="1" stroke="none" vectornator:layerName="Curve 2"/>
<path d="M379.396 272.127L357.196 316.257L325.892 314.229C325.892 314.229 326.071 298.428 334.061 294.314C334.061 294.314 338.891 292.287 344.436 292.287C344.436 292.287 349.143 294.553 348.681 296.316C348.219 298.079 348.879 296.421 348.879 296.421C348.879 296.421 351.976 300.09 351.328 303.096C351.328 303.096 356.665 303.275 357.421 303.767L363.315 290.05L374.724 267.33L379.396 272.127Z" fill="#ffffff" fill-rule="nonzero" opacity="1" stroke="none" vectornator:layerName="Curve 1"/>
<path d="M317.995 312.735L278.819 303.934L278.821 311.026L314.361 319.578L317.995 312.735Z" fill="#ffffff" fill-rule="nonzero" opacity="1" stroke="none" vectornator:layerName="Curve 2"/>
<path d="M302.291 188.573C302.291 188.573 290.982 180.75 283.266 186.201C283.266 186.201 275.695 188.597 273.84 190.078C273.84 190.078 288.667 194.684 289.173 205.484L292.236 205.932C292.236 205.932 296.319 201.613 299.486 198.058C299.486 198.058 303.82 191.021 302.291 188.573Z" fill="#f5c7ab" fill-rule="nonzero" opacity="1" stroke="none" vectornator:layerName="Curve 1"/>
<path d="M322.878 169.154C322.878 169.154 319.954 175.58 326.629 175.221C326.629 175.221 326.601 175.498 326.724 175.689C326.82 175.839 327.093 175.665 326.984 177.057C326.919 177.893 327.256 177.079 327.318 177.234C327.489 177.667 327.683 177.314 327.683 177.314C327.683 177.314 328.44 177.612 329.948 177.434C330.46 177.373 330.956 177.064 331.676 176.931C332.424 176.793 332.397 176.233 332.507 176.189C332.814 176.067 331.621 176.711 331.621 176.711C331.621 176.711 332.779 175.883 333.137 175.194C333.496 174.504 332.972 175.387 332.972 175.387C332.972 175.387 330.159 172.463 330.793 171.719C330.793 171.719 330.385 170.977 329.894 170.562C329.531 170.256 328.964 170.276 329.304 170.147C329.304 170.147 328.311 169.292 327.456 169.154" fill="#f5c7ab" fill-rule="nonzero" opacity="1" stroke="none" vectornator:layerName="Curve 3"/>
<path d="M313.342 201.299C313.342 201.299 311.154 200.091 308.219 200.292C304.005 200.581 298.581 203.013 298.657 209.664C298.657 209.664 299.004 213.24 300.663 213.19C300.663 213.19 303.362 214.528 304.103 216.357C304.844 218.186 304.216 216.554 304.216 216.554C304.216 216.554 306.135 215.764 307.138 217.587C307.138 217.587 312.372 217.168 311.551 215.981C310.73 214.794 311.419 216.202 311.419 216.202C311.419 216.202 309.42 213.621 311.06 214.023C311.06 214.023 313.263 213.909 314.38 215.528C314.38 215.528 321.147 219.99 320.571 213.563C320.571 213.563 322.604 209.097 313.342 201.299Z" fill="#f5c7ab" fill-rule="nonzero" opacity="1" stroke="none" vectornator:layerName="Curve 2"/>
<path d="M307.734 290.782L325.046 297.502L322.804 302.297C322.804 302.297 307.904 307.341 305.831 295.596" fill="#f5c7ab" fill-rule="nonzero" opacity="1" stroke="none" vectornator:layerName="Curve 4"/>
<path d="M364.242 258.39L355.185 271.479C355.185 271.479 351.047 271.175 348.904 269.146L359.797 253.759L364.242 258.39Z" fill="#f5c7ab" fill-rule="nonzero" opacity="1" stroke="none" vectornator:layerName="Curve 5"/>
<path d="M347.136 216.209C347.136 216.209 349.264 226.258 345.384 238.917L360.187 253.759L349.686 269.673C349.686 269.673 340.759 263.018 343.836 278.63C343.836 278.63 339.015 273.265 336.863 269.775C336.863 269.775 331.089 287.691 325.349 297.43C319.61 307.168 325.321 297.87 325.321 297.87L307.819 290.762C307.819 290.762 311.199 283.846 307.175 280.291C307.175 280.291 306.13 278.36 303.412 278.582C303.412 278.582 320.31 246.257 322.403 242.908C322.403 242.908 312.569 226.971 312.693 213.952C312.693 213.952 316.109 218.106 319.191 217.3L334.237 212.2L347.136 216.209Z" fill="#704332" fill-rule="nonzero" opacity="1" stroke="none" vectornator:layerName="Curve 1"/>
<path d="M249.776 229.401L235.794 304.13C235.794 304.13 244.718 284.035 247.974 303.155C247.974 303.155 249.188 306.192 249.996 307.228C249.996 307.228 269.002 285.78 264.117 302.132C264.117 302.132 265.643 313.853 278.901 305.613L279.541 263.898L279.319 227.131C279.319 227.131 279.593 230.663 274.345 231.671C274.345 231.671 271.998 231.525 271.566 229.594C271.566 229.594 268.022 230.033 265.705 232.178C265.195 232.65 264.92 233.746 264.558 234.329C264.558 234.329 261.56 232.911 259.041 231.005C258.197 230.367 256.086 231.661 255.925 230.279C255.925 230.279 254.871 230.166 255.031 228.548C255.191 226.93 249.91 229.206 249.91 229.206L249.776 229.401Z" fill="#627d91" fill-rule="nonzero" opacity="1" stroke="none" vectornator:layerName="Curve 1"/>
<path d="M248.731 178.386C248.731 178.386 229.08 192.39 228.481 200.562C228.481 200.562 225.296 210.479 241.243 208.27L254.496 207.954L248.635 230.01C248.635 230.01 250.477 228.933 252.3 228.396C253.566 228.023 254.58 227.681 255.107 228.343C256.479 230.069 255.065 228.862 255.065 228.862C255.065 228.862 254.153 223.741 264.238 221.626L266.907 218.046C266.907 218.046 268.685 220.007 270.608 222.341C272.825 225.03 275.163 228.336 274.013 231.702C274.013 231.702 277.383 231.902 278.943 229.005C279.212 228.505 279.232 227.873 279.381 227.175C279.381 227.175 289.223 219.444 289.295 204.946C289.295 204.946 288.725 201.712 286.239 198.23C284.425 195.689 281.489 193.419 277.676 191.675C274.294 190.127 270.263 188.904 265.101 189.605L264.377 189.876C264.377 189.876 265.113 192.283 265.854 192.661C265.854 192.661 262.97 194.618 259.044 192.976C255.117 191.334 243.827 194.65 243.275 195.754L254.131 188.323C254.131 188.323 246.494 183.05 248.731 178.386Z" fill="#d36977" fill-rule="nonzero" opacity="1" stroke="none" vectornator:layerName="Curve 3"/>
<path d="M266.772 218.295C266.62 218.143 266.156 218.952 265.738 219.266C265.223 219.652 264.778 220.46 264.135 220.858C263.333 221.355 262.325 221.443 261.676 221.93C259.582 223.501 256.162 224.321 255.138 227.136C254.535 228.795 255.2 229.96 255.484 230.304C255.979 230.904 256.623 229.782 256.731 229.999C256.982 230.5 255.103 231.747 256.706 232.548C256.876 232.633 257.333 232.806 257.638 232.66C258.201 232.39 258.649 231.657 258.67 231.677C258.908 231.915 258.217 232.513 258.014 233.104C257.845 233.595 258.11 234.065 258.646 234.467C259.52 235.122 260.629 233.799 261.069 234.092C261.707 234.517 260.679 235.081 261.152 235.176C261.262 235.198 261.863 235.102 262.381 235.075C262.841 235.051 263.2 235.136 263.63 234.598C263.912 234.245 264.585 234.014 264.99 233.628C265.45 233.19 265.655 232.602 266.157 232.295C267.877 231.244 269.802 230.752 271.392 229.989C273 229.217 274.009 228.221 274.083 228.036C274.535 226.906 271.616 222.98 270.726 222.268C270.066 221.74 269.994 220.779 269.237 220.401C269.13 220.347 268.398 220.004 268.74 219.833" fill="#eba379" fill-rule="nonzero" opacity="1" stroke="none" vectornator:layerName="Curve 137"/>
<path d="M248.264 181.471C248.257 181.47 249.174 180.793 249.559 180.561C250.409 180.051 251.422 179.597 252.199 179.088C254.771 177.4 260.2 174.976 262.257 178.639C262.876 179.74 257.975 180.15 256.811 181.725C255.215 183.886 256.187 187.286 253.813 188.619C253.193 188.967 251.223 185.86 250.81 185.649" fill="#eba379" fill-rule="nonzero" opacity="1" stroke="none" vectornator:layerName="Curve 138"/>
<path d="M261.329 184.971C261.27 184.862 261.238 184.921 261.149 184.981C260.011 185.742 257.853 184.854 257.687 186.71C257.294 191.12 259.648 189.124 260.941 190.329C261.156 190.529 259.571 192.167 259.197 192.963C259.067 193.24 259.265 192.639 259.487 192.903C260.289 193.862 263.932 193.71 264.858 193.206C264.97 193.144 265.646 193.079 265.587 192.555C265.514 191.907 264.774 191.194 264.444 190.222C263.817 188.377 263.413 186.192 263.054 185.909C262.314 185.327 262.641 187.181 261.983 186.835C261.933 186.809 261.655 184.198 260.807 185.108" fill="#eba379" fill-rule="nonzero" opacity="1" stroke="none" vectornator:layerName="Curve 139"/>
<path d="M218.868 316.876C218.868 316.876 222.85 314.925 224.408 324.73L226.521 324.526C226.521 324.526 228.196 317.254 233.088 316.218C233.088 316.218 234.962 313.596 239.714 322.935L278.569 316.707L278.201 320.385L225.681 328.787L225.387 327.69L210.358 330.528C210.358 330.528 212.215 320.245 218.868 316.876Z" fill="#e8e9e3" fill-rule="nonzero" opacity="1" stroke="none" vectornator:layerName="Curve 1"/>
<path d="M183.175 269.299C183.175 269.299 192.485 274.463 203.12 273.572L203.118 271.049C203.118 271.049 192.89 273.324 182.921 266.773L183.175 269.299Z" fill="#ff1818" fill-rule="nonzero" opacity="1" stroke="#010101" stroke-linecap="butt" stroke-linejoin="round" stroke-width="0.301294" vectornator:layerName="Curve 1"/>
<path d="M326.722 177.064C326.722 177.064 331.321 178.905 333.247 175.101" fill="none" opacity="1" stroke="#010101" stroke-linecap="butt" stroke-linejoin="round" stroke-width="0.301294" vectornator:layerName="Curve 1"/>
<path d="M322.644 169.517C322.644 169.517 320.178 175.445 326.338 175.156" fill="none" opacity="1" stroke="#010101" stroke-linecap="butt" stroke-linejoin="round" stroke-width="0.301294" vectornator:layerName="Curve 2"/>
<path d="M326.138 175.163C326.138 175.163 326.833 174.808 326.896 177.148" fill="none" opacity="1" stroke="#010101" stroke-linecap="butt" stroke-linejoin="round" stroke-width="0.342111" vectornator:layerName="Curve 3"/>
<path d="M330.752 171.661C330.752 171.661 331.933 175.55 333.229 175.229" fill="none" opacity="1" stroke="#010101" stroke-linecap="butt" stroke-linejoin="round" stroke-width="0.301294" vectornator:layerName="Curve 4"/>
<path d="M331.199 165.207C331.199 165.207 327.347 161.608 322.619 165.321C322.619 165.321 319.446 168.824 324.116 169.533C324.116 169.533 325.864 170.117 327.717 169.597C327.717 169.597 327.458 171.736 327.789 172.433C327.789 172.433 328.098 171.203 328.998 170.531C328.998 170.531 330.404 170.579 330.068 171.836L331.633 171.465C331.633 171.465 331.818 169.185 332.902 168.014C332.902 168.014 335.487 169.323 338.068 166.242C338.068 166.242 340.956 166.758 342.345 169.799C342.345 169.799 343.703 171.846 345.359 170.699C345.359 170.699 347.098 171.953 350.2 169.491C350.2 169.491 354.631 167.552 353.252 162.476C353.252 162.476 349.091 155.884 344.949 162.119C344.949 162.119 343.642 165.069 340.745 161.355C340.745 161.355 337.453 158.383 333.15 162.571C333.15 162.571 333.215 164.52 331.199 165.207Z" fill="#303030" fill-rule="nonzero" opacity="1" stroke="none" vectornator:layerName="Curve 5"/>
<path d="M279.286 226.458C279.286 226.458 280.294 278.969 278.151 316.188" fill="none" opacity="1" stroke="#010101" stroke-linecap="butt" stroke-linejoin="round" stroke-width="0.416738" vectornator:layerName="Curve 45"/>
<path d="M332.122 194.151C332.122 194.151 324.673 198.671 312.903 200.889" fill="none" opacity="1" stroke="#010101" stroke-linecap="butt" stroke-linejoin="round" stroke-width="0.602337" vectornator:layerName="Curve 1"/>
<path d="M346.184 203.226C346.184 203.226 339.816 212.551 319.675 216.765" fill="none" opacity="1" stroke="#010101" stroke-linecap="butt" stroke-linejoin="round" stroke-width="0.602337" vectornator:layerName="Curve 2"/>
<path d="M313.159 200.946C313.159 200.946 325.231 211.244 319.454 216.748" fill="none" opacity="1" stroke="#010101" stroke-linecap="butt" stroke-linejoin="round" stroke-width="0.602337" vectornator:layerName="Curve 3"/>
<path d="M319.853 216.629C319.853 216.629 317.739 219.085 312.792 213.825" fill="none" opacity="1" stroke="#010101" stroke-linecap="butt" stroke-linejoin="round" stroke-width="0.602337" vectornator:layerName="Curve 4"/>
<path d="M312.91 214.103C312.91 214.103 308.028 213.173 311.712 215.926C311.712 215.926 312.82 217.241 307.854 217.621C307.854 217.621 306.505 217.179 305.477 215.706" fill="none" opacity="1" stroke="#010101" stroke-linecap="butt" stroke-linejoin="round" stroke-width="0.602337" vectornator:layerName="Curve 5"/>
<path d="M313.362 201.121C313.362 201.121 304.957 197.798 299.641 205.04C299.641 205.04 296.792 209.041 299.3 212.646C299.3 212.646 300.157 213.696 300.77 212.406C300.77 212.406 301.05 211.04 300.81 210.03" fill="none" opacity="1" stroke="#010101" stroke-linecap="butt" stroke-linejoin="round" stroke-width="0.602337" vectornator:layerName="Curve 6"/>
<path d="M300.888 212.107C300.888 212.107 300.761 213.646 302.093 213.968C303.426 214.291 302.026 213.881 302.026 213.881" fill="none" opacity="1" stroke="#010101" stroke-linecap="butt" stroke-linejoin="round" stroke-width="0.602337" vectornator:layerName="Curve 7"/>
<path d="M303.523 211.583C303.523 211.583 301.889 218.059 305.78 215.953" fill="none" opacity="1" stroke="#010101" stroke-linecap="butt" stroke-linejoin="round" stroke-width="0.602337" vectornator:layerName="Curve 8"/>
<path d="M319.01 197.85C319.01 197.85 314.829 195.077 312.069 193.771" fill="none" opacity="1" stroke="#010101" stroke-linecap="butt" stroke-linejoin="round" stroke-width="0.658978" vectornator:layerName="Curve 10"/>
<path d="M306.908 190.3C306.908 190.3 300.185 187.252 298.606 187.117" fill="none" opacity="1" stroke="#010101" stroke-linecap="butt" stroke-linejoin="round" stroke-width="0.658978" vectornator:layerName="Curve 11"/>
<path d="M292.071 190.415C292.071 190.415 286.469 187.401 282.945 188.311C282.945 188.311 282.485 187.895 283.475 186.557" fill="none" opacity="1" stroke="#010101" stroke-linecap="butt" stroke-linejoin="round" stroke-width="0.658978" vectornator:layerName="Curve 12"/>
<path d="M286.955 191.018C286.955 191.018 282.764 190.304 279.156 192.667" fill="none" opacity="1" stroke="#010101" stroke-linecap="butt" stroke-linejoin="round" stroke-width="0.658978" vectornator:layerName="Curve 13"/>
<path d="M285.499 193.42C285.499 193.42 283.36 192.509 280.719 193.638" fill="none" opacity="1" stroke="#010101" stroke-linecap="butt" stroke-linejoin="round" stroke-width="0.658978" vectornator:layerName="Curve 14"/>
<path d="M285.459 195.727C285.459 195.727 284.266 195.911 283.978 195.976" fill="none" opacity="1" stroke="#010101" stroke-linecap="butt" stroke-linejoin="round" stroke-width="0.658978" vectornator:layerName="Curve 16"/>
<path d="M332.901 217.222C332.901 217.222 326.407 234.966 320.91 245.305" fill="none" opacity="1" stroke="#010101" stroke-linecap="butt" stroke-linejoin="round" stroke-width="0.952903" vectornator:layerName="Curve 17"/>
<path d="M318.322 234.526C318.322 234.526 320.656 241.329 322.009 242.968" fill="none" opacity="1" stroke="#010101" stroke-linecap="butt" stroke-linejoin="round" stroke-width="0.952903" vectornator:layerName="Curve 18"/>
<path d="M345.301 239.998C345.301 239.998 338.305 265.81 335.36 272.88" fill="none" opacity="1" stroke="#010101" stroke-linecap="butt" stroke-linejoin="round" stroke-width="0.952903" vectornator:layerName="Curve 19"/>
<path d="M354.915 271.609C354.915 271.609 358.519 266.338 362.537 260.191L362.445 260.429" fill="none" opacity="1" stroke="#010101" stroke-linecap="butt" stroke-linejoin="round" stroke-width="0.952903" vectornator:layerName="Curve 20"/>
<path d="M373.802 270.247L362.202 293.023" fill="none" opacity="1" stroke="#010101" stroke-linecap="butt" stroke-linejoin="round" stroke-width="0.710179" vectornator:layerName="Curve 21"/>
<path d="M368.988 292.949L357.674 314.841" fill="none" opacity="1" stroke="#010101" stroke-linecap="butt" stroke-linejoin="round" stroke-width="0.710179" vectornator:layerName="Curve 22"/>
<path d="M347.82 315.537C348.21 315.544 326.966 314.17 326.966 314.17" fill="none" opacity="1" stroke="#010101" stroke-linecap="butt" stroke-linejoin="round" stroke-width="0.710179" vectornator:layerName="Curve 23"/>
<path d="M328.326 301.613C328.326 301.613 330.149 293.49 337.691 292.894" fill="none" opacity="1" stroke="#010101" stroke-linecap="butt" stroke-linejoin="round" stroke-width="0.710179" vectornator:layerName="Curve 24"/>
<path d="M346.061 293.134C346.061 293.134 351.962 297.053 351.326 303.21C351.326 303.21 354.311 302.772 357.469 303.389" fill="none" opacity="1" stroke="#010101" stroke-linecap="butt" stroke-linejoin="round" stroke-width="0.710179" vectornator:layerName="Curve 25"/>
<path d="M346.123 289.115C346.123 289.115 348.738 288.382 351.105 288.174" fill="none" opacity="1" stroke="#010101" stroke-linecap="butt" stroke-linejoin="round" stroke-width="0.952903" vectornator:layerName="Curve 26"/>
<path d="M345.324 287.348C345.324 287.348 346.033 285.038 352.413 284.696" fill="none" opacity="1" stroke="#010101" stroke-linecap="butt" stroke-linejoin="round" stroke-width="0.952903" vectornator:layerName="Curve 27"/>
<path d="M344.555 282.553C344.555 282.553 347.386 279.463 354.818 277.787L353.405 278.094" fill="none" opacity="1" stroke="#010101" stroke-linecap="butt" stroke-linejoin="round" stroke-width="0.952903" vectornator:layerName="Curve 28"/>
<path d="M346.814 280.562C346.814 280.562 345.091 275.193 349.86 272.696C349.86 272.696 351.356 274.049 347.826 279.977" fill="none" opacity="1" stroke="#010101" stroke-linecap="butt" stroke-linejoin="round" stroke-width="0.952903" vectornator:layerName="Curve 29"/>
<path d="M347.827 280.021C347.827 280.021 342.012 275.167 338.052 275.878C338.052 275.878 339.991 281.191 347.067 279.557" fill="none" opacity="1" stroke="#010101" stroke-linecap="butt" stroke-linejoin="round" stroke-width="0.952903" vectornator:layerName="Curve 30"/>
<path d="M305.696 295.561C305.696 295.561 305.912 303.967 316.885 303.689" fill="none" opacity="1" stroke="#010101" stroke-linecap="butt" stroke-linejoin="round" stroke-width="0.710179" vectornator:layerName="Curve 31"/>
<path d="M318.406 294.413L307.716 290.604" fill="none" opacity="1" stroke="#010101" stroke-linecap="butt" stroke-linejoin="round" stroke-width="0.710179" vectornator:layerName="Curve 32"/>
<path d="M307.252 291.75C307.252 291.75 313.212 280.604 303.519 278.672C303.519 278.672 301.57 278.069 298.815 280.083" fill="none" opacity="1" stroke="#010101" stroke-linecap="butt" stroke-linejoin="round" stroke-width="0.952903" vectornator:layerName="Curve 33"/>
<path d="M289.969 288.714C289.969 288.714 294.222 284.596 297.177 285.445C297.177 285.445 296.608 288.755 290.44 290.574" fill="none" opacity="1" stroke="#010101" stroke-linecap="butt" stroke-linejoin="round" stroke-width="0.952903" vectornator:layerName="Curve 34"/>
<path d="M289.448 289.792C289.448 289.792 290.455 283.782 287.412 282.443C287.412 282.443 285.371 281.996 288.165 289.634" fill="none" opacity="1" stroke="#010101" stroke-linecap="butt" stroke-linejoin="round" stroke-width="0.952903" vectornator:layerName="Curve 35"/>
<path d="M288.32 289.737C288.32 289.737 294.062 291.123 293.753 296.599" fill="none" opacity="1" stroke="#010101" stroke-linecap="butt" stroke-linejoin="round" stroke-width="0.952903" vectornator:layerName="Curve 36"/>
<path d="M286.485 292.184C286.485 292.184 289.223 293.57 289.694 296.769" fill="none" opacity="1" stroke="#010101" stroke-linecap="butt" stroke-linejoin="round" stroke-width="0.952903" vectornator:layerName="Curve 37"/>
<path d="M283.876 293.253L285.612 296.741" fill="none" opacity="1" stroke="#010101" stroke-linecap="butt" stroke-linejoin="round" stroke-width="0.952903" vectornator:layerName="Curve 38"/>
<path d="M310.98 311.463L279.348 303.951" fill="none" opacity="1" stroke="#010101" stroke-linecap="butt" stroke-linejoin="round" stroke-width="0.710179" vectornator:layerName="Curve 39"/>
<path d="M310.345 318.369L294.251 315.056" fill="none" opacity="1" stroke="#010101" stroke-linecap="butt" stroke-linejoin="round" stroke-width="0.710179" vectornator:layerName="Curve 40"/>
<path d="M287.534 312.93L278.803 310.551" fill="none" opacity="1" stroke="#010101" stroke-linecap="butt" stroke-linejoin="round" stroke-width="0.710179" vectornator:layerName="Curve 41"/>
<path d="M322.077 302.342C322.077 302.342 317.144 314.485 315.312 317.854" fill="none" opacity="1" stroke="#010101" stroke-linecap="butt" stroke-linejoin="round" stroke-width="0.952903" vectornator:layerName="Curve 42"/>
<path d="M284.601 220.843C284.601 220.843 283.029 224.736 277.19 228.067" fill="none" opacity="1" stroke="#010101" stroke-linecap="butt" stroke-linejoin="round" stroke-width="0.416738" vectornator:layerName="Curve 43"/>
<path d="M275.797 317.238C275.797 317.238 249.735 321.237 239.57 322.967" fill="none" opacity="1" stroke="#010101" stroke-linecap="butt" stroke-linejoin="round" stroke-width="0.952903" vectornator:layerName="Curve 46"/>
<path d="M210.832 330.268L226.475 327.536" fill="none" opacity="1" stroke="#010101" stroke-linecap="butt" stroke-linejoin="round" stroke-width="0.952903" vectornator:layerName="Curve 48"/>
<path d="M216.252 319.7C216.252 319.7 212.232 321.669 210.137 330.051" fill="none" opacity="1" stroke="#010101" stroke-linecap="butt" stroke-linejoin="round" stroke-width="0.952903" vectornator:layerName="Curve 49"/>
<path d="M230.466 312.215C230.466 312.215 226.458 314.328 221.873 316.139" fill="none" opacity="1" stroke="#010101" stroke-linecap="butt" stroke-linejoin="round" stroke-width="0.952903" vectornator:layerName="Curve 50"/>
<path d="M234.166 309.231C234.166 309.231 238.699 303.134 242.226 304.07C242.226 304.07 243.781 306.948 233.315 311.973" fill="none" opacity="1" stroke="#010101" stroke-linecap="butt" stroke-linejoin="round" stroke-width="0.952903" vectornator:layerName="Curve 51"/>
<path d="M231.466 310.33C231.466 310.33 228.282 304.883 230.282 302.449C230.282 302.449 231.466 300.858 233.663 309.58" fill="none" opacity="1" stroke="#010101" stroke-linecap="butt" stroke-linejoin="round" stroke-width="0.952903" vectornator:layerName="Curve 52"/>
<path d="M233.369 309.378C233.369 309.378 235.177 309.52 237.082 310.811" fill="none" opacity="1" stroke="#010101" stroke-linecap="butt" stroke-linejoin="round" stroke-width="0.952903" vectornator:layerName="Curve 53"/>
<path d="M231.434 311.678C231.434 311.678 232.916 311.599 234.505 313.007" fill="none" opacity="1" stroke="#010101" stroke-linecap="butt" stroke-linejoin="round" stroke-width="0.952903" vectornator:layerName="Curve 54"/>
<path d="M228.647 313.498C228.647 313.498 230.158 314.143 230.85 315.4" fill="none" opacity="1" stroke="#010101" stroke-linecap="butt" stroke-linejoin="round" stroke-width="0.952903" vectornator:layerName="Curve 55"/>
<path d="M220.718 317.248C220.718 317.248 222.941 316.689 224.388 324.785" fill="none" opacity="1" stroke="#010101" stroke-linecap="butt" stroke-linejoin="round" stroke-width="0.952903" vectornator:layerName="Curve 56"/>
<path d="M224.484 324.612L226.534 324.659" fill="none" opacity="1" stroke="#010101" stroke-linecap="butt" stroke-linejoin="round" stroke-width="0.952903" vectornator:layerName="Curve 57"/>
<path d="M226.102 327.471C226.102 327.471 226.236 318.601 233.197 315.993C233.197 315.993 236.658 313.458 240.297 313.844C240.297 313.844 248.379 310.474 256.576 301.028C256.576 301.028 267.259 288.897 264.079 301.143" fill="none" opacity="1" stroke="#010101" stroke-linecap="butt" stroke-linejoin="round" stroke-width="0.952903" vectornator:layerName="Curve 58"/>
<path d="M264.18 302.35C264.18 302.35 265.604 311.802 274.312 308.001" fill="none" opacity="1" stroke="#010101" stroke-linecap="butt" stroke-linejoin="round" stroke-width="0.952903" vectornator:layerName="Curve 59"/>
<path d="M248.559 312.217C248.559 312.217 242.182 309.959 245.454 305.331C245.454 305.331 246.961 303.678 248.267 309.636" fill="none" opacity="1" stroke="#010101" stroke-linecap="butt" stroke-linejoin="round" stroke-width="0.952903" vectornator:layerName="Curve 60"/>
<path d="M249.354 307.678C249.354 307.678 255.638 304.551 254.379 308.361C254.379 308.361 254.099 310.845 248.795 312.966" fill="none" opacity="1" stroke="#010101" stroke-linecap="butt" stroke-linejoin="round" stroke-width="0.952903" vectornator:layerName="Curve 61"/>
<path d="M249.859 307.873C249.859 307.873 253.966 308.184 257.02 314.677" fill="none" opacity="1" stroke="#010101" stroke-linecap="butt" stroke-linejoin="round" stroke-width="0.952903" vectornator:layerName="Curve 62"/>
<path d="M246.486 310.245C246.486 310.245 249.525 310.794 249.935 315.458" fill="none" opacity="1" stroke="#010101" stroke-linecap="butt" stroke-linejoin="round" stroke-width="0.952903" vectornator:layerName="Curve 63"/>
<path d="M244.021 311.822C244.021 311.822 247.045 313.661 246.439 317.807" fill="none" opacity="1" stroke="#010101" stroke-linecap="butt" stroke-linejoin="round" stroke-width="0.952903" vectornator:layerName="Curve 64"/>
<path d="M237.267 314.17C237.267 314.17 238.867 314.563 240.654 317.741" fill="none" opacity="1" stroke="#010101" stroke-linecap="butt" stroke-linejoin="round" stroke-width="0.952903" vectornator:layerName="Curve 65"/>
<path d="M235.456 305.624C235.456 305.624 239.41 293.974 244.261 294.997C244.261 294.997 248.057 295.975 247.665 302.945C247.665 302.945 248.737 305.179 249.229 306.711" fill="none" opacity="1" stroke="#010101" stroke-linecap="butt" stroke-linejoin="round" stroke-width="0.952903" vectornator:layerName="Curve 66"/>
<path d="M253.457 295.907C253.457 295.907 252.98 299.853 252.401 304.335" fill="none" opacity="1" stroke="#010101" stroke-linecap="butt" stroke-linejoin="round" stroke-width="0.416738" vectornator:layerName="Curve 67"/>
<path d="M253.311 292.642L261.265 235.47" fill="none" opacity="1" stroke="#010101" stroke-linecap="butt" stroke-linejoin="round" stroke-width="0.416738" vectornator:layerName="Curve 68"/>
<path d="M241.462 275.387L248.664 235.963" fill="none" opacity="1" stroke="#010101" stroke-linecap="butt" stroke-linejoin="round" stroke-width="0.416738" vectornator:layerName="Curve 69"/>
<path d="M251.534 219.962L248.504 229.801L251.774 228.617" fill="none" opacity="1" stroke="#010101" stroke-linecap="butt" stroke-linejoin="round" stroke-width="0.416738" vectornator:layerName="Curve 70"/>
<path d="M255.248 203.42L253.231 211.905" fill="none" opacity="1" stroke="#010101" stroke-linecap="butt" stroke-linejoin="round" stroke-width="0.416738" vectornator:layerName="Curve 71"/>
<path d="M241.97 208.194C241.457 208.433 254.532 207.834 254.532 207.834" fill="none" opacity="1" stroke="#010101" stroke-linecap="butt" stroke-linejoin="round" stroke-width="0.416738" vectornator:layerName="Curve 72"/>
<path d="M243.38 195.213C243.38 195.213 240.846 197.61 236.874 199.398" fill="none" opacity="1" stroke="#010101" stroke-linecap="butt" stroke-linejoin="round" stroke-width="0.416738" vectornator:layerName="Curve 73"/>
<path d="M272.413 230.129C272.413 230.129 271.274 229.422 265.64 232.503C265.64 232.503 264.2 235.665 260.873 235.021L261.673 233.367C261.673 233.367 260.68 235.279 258.152 234.159C258.152 234.159 257.657 233.592 258.623 231.699C258.623 231.699 257.46 233.377 256.382 232.602C256.382 232.602 255.724 231.236 256.79 229.826C256.79 229.826 255.935 230.88 255.389 230.369C255.389 230.369 254.094 227.591 256.043 225.622C256.043 225.622 258.196 223.181 264.149 220.875L266.746 218.213C266.746 218.213 270.174 220.697 274.032 227.299" fill="none" opacity="1" stroke="#010101" stroke-linecap="butt" stroke-linejoin="round" stroke-width="0.416738" vectornator:layerName="Curve 74"/>
<path d="M280.726 207.408C280.726 207.408 277.816 212.289 266.512 218.09" fill="none" opacity="1" stroke="#010101" stroke-linecap="butt" stroke-linejoin="round" stroke-width="0.416738" vectornator:layerName="Curve 76"/>
<path d="M277.405 211.313C277.405 211.313 277.216 205.538 270.441 202.893" fill="none" opacity="1" stroke="#010101" stroke-linecap="butt" stroke-linejoin="round" stroke-width="0.416738" vectornator:layerName="Curve 77"/>
<path d="M273.326 190.091C273.326 190.091 295.253 195.393 287.739 214.653" fill="none" opacity="1" stroke="#010101" stroke-linecap="butt" stroke-linejoin="round" stroke-width="0.416738" vectornator:layerName="Curve 78"/>
<path d="M264.247 188.357C264.247 188.357 264.196 190.855 265.605 192.487C265.605 192.487 262.729 195.671 259.064 192.79" fill="none" opacity="1" stroke="#010101" stroke-linecap="butt" stroke-linejoin="round" stroke-width="0.416738" vectornator:layerName="Curve 79"/>
<path d="M252.813 187.189C252.813 187.189 246.378 181.962 248.586 178.303C248.586 178.303 249.456 177.866 250.718 179.898" fill="none" opacity="1" stroke="#010101" stroke-linecap="butt" stroke-linejoin="round" stroke-width="0.416738" vectornator:layerName="Curve 80"/>
<path d="M254.221 180.188C254.221 180.188 255.971 179.221 259.203 179.077C259.203 179.077 260.541 178.624 260.005 177.307C260.005 177.307 262.784 177.698 262.023 179.242" fill="none" opacity="1" stroke="#010101" stroke-linecap="butt" stroke-linejoin="round" stroke-width="0.416738" vectornator:layerName="Curve 81"/>
<path d="M260.317 190.264C260.317 190.264 261.925 190.803 262.838 189.564" fill="none" opacity="1" stroke="#010101" stroke-linecap="butt" stroke-linejoin="round" stroke-width="0.416738" vectornator:layerName="Curve 82"/>
<path d="M194.834 250.328C194.834 250.328 194.865 252.666 193.53 256.523C193.53 256.523 192.589 258.967 193.121 260.713C193.121 260.713 191.978 265.36 187.057 268.353C187.057 268.353 185.057 269.546 182.826 266.715" fill="none" opacity="1" stroke="#010101" stroke-linecap="butt" stroke-linejoin="round" stroke-width="0.714186" vectornator:layerName="Curve 83"/>
<path d="M202.803 271.198C202.803 271.198 195.017 273.826 182.913 266.932" fill="none" opacity="1" stroke="#010101" stroke-linecap="butt" stroke-linejoin="round" stroke-width="0.714186" vectornator:layerName="Curve 84"/>
<path d="M202.591 273.673C202.591 273.673 191.285 273.923 183.457 269.427" fill="none" opacity="1" stroke="#010101" stroke-linecap="butt" stroke-linejoin="round" stroke-width="0.714186" vectornator:layerName="Curve 85"/>
<path d="M200.495 245.179C200.495 245.179 199.073 246.29 198.981 248.758" fill="none" opacity="1" stroke="#010101" stroke-linecap="butt" stroke-linejoin="round" stroke-width="0.714186" vectornator:layerName="Curve 86"/>
<path d="M200.647 252.977C200.647 252.977 201.776 253.377 203.184 253.023" fill="none" opacity="1" stroke="#010101" stroke-linecap="butt" stroke-linejoin="round" stroke-width="0.714186" vectornator:layerName="Curve 87"/>
<path d="M209.307 243.534C209.307 243.534 209.951 244.564 210.717 245.219C210.717 245.219 211.705 245.845 212.917 245.007C212.917 245.007 212.008 241.67 209.056 243.643" fill="none" opacity="1" stroke="#010101" stroke-linecap="butt" stroke-linejoin="round" stroke-width="0.714186" vectornator:layerName="Curve 88"/>
<path d="M189.312 299.528C189.312 299.528 196.252 302.335 195.867 312.273" fill="none" opacity="1" stroke="#010101" stroke-linecap="butt" stroke-linejoin="round" stroke-width="0.714186" vectornator:layerName="Curve 89"/>
<path d="M196.407 294.173C196.407 294.173 196.851 297.122 197.009 298.057" fill="none" opacity="1" stroke="#010101" stroke-linecap="butt" stroke-linejoin="round" stroke-width="0.714186" vectornator:layerName="Curve 90"/>
<path d="M186.489 318.725C186.489 318.725 191.372 320.46 192.416 326.809C192.416 326.809 200.863 326.992 199.645 330.964" fill="none" opacity="1" stroke="#010101" stroke-linecap="butt" stroke-linejoin="round" stroke-width="0.714186" vectornator:layerName="Curve 91"/>
<path d="M203.873 325.586C203.873 325.586 208.415 324.212 211.595 326.042" fill="none" opacity="1" stroke="#010101" stroke-linecap="butt" stroke-linejoin="round" stroke-width="0.714186" vectornator:layerName="Curve 92"/>
<path d="M140.399 336.562C140.399 336.562 142.825 341.855 149.256 339.661" fill="none" opacity="1" stroke="#010101" stroke-linecap="butt" stroke-linejoin="round" stroke-width="0.714186" vectornator:layerName="Curve 93"/>
<path d="M154.056 317.519C154.056 317.519 158.549 320.373 155.436 327.217" fill="none" opacity="1" stroke="#010101" stroke-linecap="butt" stroke-linejoin="round" stroke-width="0.714186" vectornator:layerName="Curve 94"/>
<path d="M152.469 324.852C152.469 324.852 153.864 325.719 151.824 328.255" fill="none" opacity="1" stroke="#010101" stroke-linecap="butt" stroke-linejoin="round" stroke-width="0.714186" vectornator:layerName="Curve 95"/>
<path d="M154.566 331.311C154.566 331.311 154.642 332.704 152.961 333.437" fill="none" opacity="1" stroke="#010101" stroke-linecap="butt" stroke-linejoin="round" stroke-width="0.714186" vectornator:layerName="Curve 96"/>
<path d="M200.941 237.232C200.941 237.232 194.762 235.548 197.799 231.874C197.799 231.874 199.846 230.798 200.177 233.409C200.177 233.409 201.242 228.191 203.699 230.103C203.699 230.103 205.918 231.746 203.073 238.091C203.073 238.091 206.103 228.997 201.684 230.098" fill="none" opacity="1" stroke="#010101" stroke-linecap="butt" stroke-linejoin="round" stroke-width="0.714186" vectornator:layerName="Curve 97"/>
<path d="M194.717 265.002L194.201 266.984" fill="none" opacity="1" stroke="#010101" stroke-linecap="butt" stroke-linejoin="round" stroke-width="0.301294" vectornator:layerName="Curve 98"/>
<path d="M197.938 262.574L197.858 264.639" fill="none" opacity="1" stroke="#010101" stroke-linecap="butt" stroke-linejoin="round" stroke-width="0.301294" vectornator:layerName="Curve 99"/>
<path d="M200.987 260.3L200.483 262.753" fill="none" opacity="1" stroke="#010101" stroke-linecap="butt" stroke-linejoin="round" stroke-width="0.301294" vectornator:layerName="Curve 100"/>
<path d="M169.754 292.418C169.754 292.418 165.595 299.188 165.346 303.147" fill="none" opacity="1" stroke="#010101" stroke-linecap="butt" stroke-linejoin="round" stroke-width="0.301294" vectornator:layerName="Curve 101"/>
<path d="M171.211 292.34C171.211 292.34 169.73 295.066 169.021 297.823" fill="none" opacity="1" stroke="#010101" stroke-linecap="butt" stroke-linejoin="round" stroke-width="0.301294" vectornator:layerName="Curve 102"/>
<path d="M173.471 295.517C173.471 295.517 171.486 299.705 171.463 301.398" fill="none" opacity="1" stroke="#010101" stroke-linecap="butt" stroke-linejoin="round" stroke-width="0.301294" vectornator:layerName="Curve 103"/>
<path d="M173.494 306.59C173.494 306.59 172.234 309.418 172.279 310.571" fill="none" opacity="1" stroke="#010101" stroke-linecap="butt" stroke-linejoin="round" stroke-width="0.301294" vectornator:layerName="Curve 104"/>
<path d="M209.288 270.641C209.288 270.641 208.066 271.761 204.969 271.882" fill="none" opacity="1" stroke="#010101" stroke-linecap="butt" stroke-linejoin="round" stroke-width="0.301294" vectornator:layerName="Curve 105"/>
<path d="M312.122 174.235C312.122 174.235 306.323 174.791 305.636 170.19C305.636 170.19 305.993 168.45 308.971 169.838C308.971 169.838 306.721 165.302 310.517 167.244C310.517 167.244 313.089 169.404 312.122 174.235Z" fill="none" filter="url(#Filter)" opacity="1" stroke="#010101" stroke-linecap="butt" stroke-linejoin="round" stroke-width="0.301294" vectornator:blur="0.129121" vectornator:layerName="Curve 106"/>
<path d="M320.06 162.017C320.06 162.017 313.279 159.719 315.187 155.66C315.187 155.66 316.877 154.287 318.744 156.711C318.744 156.711 319.077 152.199 321.43 155.235C321.43 155.235 322.877 158.8 320.06 162.017Z" fill="none" filter="url(#Filter_2)" opacity="1" stroke="#010101" stroke-linecap="butt" stroke-linejoin="round" stroke-width="0.301294" vectornator:blur="0.129121" vectornator:layerName="Curve 107"/>
<path d="M202.67 265.947C202.67 265.947 204.122 266.724 205.222 267.957" fill="none" filter="url(#Filter_3)" opacity="1" stroke="#010101" stroke-linecap="butt" stroke-linejoin="round" stroke-width="0.301294" vectornator:blur="0.129121" vectornator:layerName="Curve 108"/>
<path d="M202.979 265.971L205.26 267.908C205.26 267.908 203.7 268.184 202.968 271.053C202.237 273.922 202.979 265.971 202.979 265.971Z" fill="#3b3a40" fill-rule="nonzero" filter="url(#Filter_4)" opacity="1" stroke="none" vectornator:blur="0.129121" vectornator:layerName="Curve 109"/>
<path d="M203.189 274.148C203.189 274.148 203.16 274.756 204.508 275.308" fill="none" filter="url(#Filter_5)" opacity="1" stroke="#010101" stroke-linecap="butt" stroke-linejoin="round" stroke-width="0.301294" vectornator:blur="0.129121" vectornator:layerName="Curve 110"/>
<path d="M334.761 212.046L344.12 214.966L347.239 215.94" fill="none" opacity="0.997079" stroke="#000000" stroke-linecap="butt" stroke-linejoin="round" stroke-width="0.658978" vectornator:layerName="Curve 111"/>
<path d="M331.872 182.585C331.872 182.585 328.253 190.521 334.585 194.674" fill="none" opacity="1" stroke="#010101" stroke-linecap="butt" stroke-linejoin="round" stroke-width="0.658978" vectornator:layerName="Curve 1"/>
<path d="M334.691 176.365C334.691 176.365 345.785 183.039 346.114 191.303" fill="none" opacity="1" stroke="#010101" stroke-linecap="butt" stroke-linejoin="round" stroke-width="0.297758" vectornator:layerName="Curve 2"/>
<path d="M324.345 178.046C324.345 178.046 314.878 184.413 312.06 194.08" fill="none" opacity="1" stroke="#010101" stroke-linecap="butt" stroke-linejoin="round" stroke-width="0.298377" vectornator:layerName="Curve 3"/>
</g>
</svg>
