<svg xmlns:xlink="http://www.w3.org/1999/xlink" xmlns="http://www.w3.org/2000/svg" xml:space="preserve" viewBox="0 73.4142259414226 378.02009948542025 236.7154811715481" version="1.1" style="max-height: 500px" stroke-miterlimit="10" width="378.02009948542025" height="236.7154811715481">
<defs/>
<g id="Layer-10">
<path stroke="none" opacity="1" fill-rule="nonzero" fill="#f6e9b9" d="M0 73.6254L378 73.6254L378 310L0 310L0 73.6254Z"/>
</g>
<g id="Layer-12">
<path stroke="none" opacity="1" fill-rule="nonzero" fill="#ffffff" d="M0 0L378 0L378 73.6254L0 73.6254L0 0Z"/>
</g>
<g id="Layer-5">
<path stroke="none" opacity="1" fill-rule="nonzero" fill="#de8556" d="M143.515 202.501L162.865 263.642L173.054 269.122L189.465 272.008L202.136 271.781L214.308 270.437L226.755 266.662L237.521 263.255L240.03 259.825L242.364 253.165L249.731 224.33L252.065 214.109L251.882 207.381L251.733 205.015L255.229 201.649L257.783 194.303L259.424 188.076L260.225 182.739L261.288 177.687L260.87 175.689L261.695 169.805L260.957 166.444L259.294 163.222L251.479 159.565L243.756 155.45L234.228 153.187L224.03 151.104L216.995 150.222L209.625 149.43L201.398 149.336L193.328 148.48L185.312 148.904L174.099 149.072L166.05 150.441L159.07 150.839L149.798 153.147L141.284 156.403L134.5 161.281L130.752 168.761L133.139 173.768L130.568 172.91L130.875 179.667L133.209 188.45L135.543 194.96L140.825 200.98L143.515 202.501Z"/>
<path stroke-width="2.4777" stroke-linejoin="round" stroke-linecap="round" stroke="#de8556" opacity="1" fill="none" d="M151.811 227.719C147.27 220.047 153.161 232.696 153.858 234.891C154.263 236.167 154.717 237.368 155.358 238.543C155.643 239.066 156.323 240.693 156.221 240.106C155.846 237.945 154.172 235.624 153.468 233.5C153.099 232.384 151.63 229.274 152.439 230.126C154.704 232.51 155.41 239.642 156.204 242.816C156.41 243.638 157.261 245.128 157.261 245.128C157.261 245.128 156.682 243.947 156.403 243.352C156.024 242.542 153.12 235.8 153.798 235.156C154.085 234.883 154.145 235.868 154.302 236.231C154.895 237.61 155.663 238.957 156.161 240.37C157.142 243.153 158.289 246.178 158.913 249.049C159.164 250.199 159.702 253.481 160.103 252.374C160.487 251.314 158.186 246.876 157.721 245.83C157.38 245.063 155.771 243.548 156.61 243.57C157.922 243.604 159.426 251.834 159.828 252.739C160.289 253.775 160.824 257.012 161.075 255.906C161.13 255.665 160.892 255.16 160.833 254.996C159.461 251.206 157.855 246.907 156.085 243.344C155.84 242.852 156.089 241.803 155.54 241.789C155.384 241.785 156.926 245.871 157.021 246.184C157.74 248.542 158.304 250.689 159.452 252.888C159.978 253.895 161.1 256.989 161.13 255.854C161.185 253.713 154.174 245.781 156.286 243.774C156.35 243.714 157.846 247.488 157.887 247.641C158.604 250.312 159.914 252.808 160.555 255.467C160.88 256.815 162.586 260.558 162.425 259.182C162.334 258.399 161.55 257.313 161.217 256.6C160.783 255.674 159.635 254.066 159.662 253C159.683 252.168 160.369 254.513 160.612 255.309C161.102 256.916 161.487 258.411 162.355 259.87C162.601 260.285 162.825 261.392 163.174 261.06C163.421 260.826 160.482 256.24 160.506 255.307C160.522 254.702 160.863 256.465 161.1 257.022C161.585 258.168 162.161 259.18 162.877 260.203C163.223 260.697 164.186 262.19 164.01 261.613C163.552 260.11 162.147 258.973 161.565 257.512"/>
</g>
<g id="Layer-4">
<path stroke-width="2.4777" stroke-linejoin="round" stroke-linecap="round" stroke="#000000" opacity="1" fill-rule="nonzero" fill="#986c69" d="M139.485 173.69C139.485 169.089 141.921 163.131 150.845 159.946C161.238 156.236 179.365 155.658 196.225 155.658C227.561 155.658 252.964 163.731 252.964 173.69C252.964 183.648 227.561 191.721 196.225 191.721C164.888 191.721 139.485 183.648 139.485 173.69Z"/>
<path stroke-width="2.4777" stroke-linejoin="round" stroke-linecap="round" stroke="#000000" opacity="1" fill="none" d="M131.159 165.517C128.243 172.809 133.833 198.496 141.63 201.381"/>
<path stroke-width="2.4777" stroke-linejoin="round" stroke-linecap="round" stroke="#000000" opacity="1" fill="none" d="M253.491 204.124C256.836 198.66 259.82 191.04 260.36 184.748C260.553 182.506 261.099 174.141 261.15 175.464"/>
<path stroke-width="2.4777" stroke-linejoin="round" stroke-linecap="round" stroke="#000000" opacity="1" fill="none" d="M252.525 204.289C252.839 204.361 244.509 209.284 242.434 210.415C235.396 214.251 227.92 216.266 214.569 216.504C184.139 217.047 164.272 215.401 140.668 200.952"/>
<path stroke-width="2.4777" stroke-linejoin="round" stroke-linecap="round" stroke="#000000" opacity="1" fill="none" d="M162.458 263.219C179.628 273.921 196.27 272.183 215.485 270.541C221.887 269.993 227.579 266.962 233.293 264.257C234.208 263.824 236.586 262.754 238.35 261.866"/>
<path stroke-width="2.4777" stroke-linejoin="round" stroke-linecap="round" stroke="#000000" opacity="1" fill="none" d="M159.871 258.622C159.291 257.101 158.392 255.402 158.186 254.707C156.929 250.472 154.882 246.532 153.536 242.286C149.293 228.899 148.043 215.63 143.515 202.716"/>
<path stroke-width="2.4777" stroke-linejoin="round" stroke-linecap="round" stroke="#000000" opacity="1" fill="none" d="M252.065 205.716C252.006 205.745 250.731 214.448 250.529 215.461C248.57 225.255 246.983 234.114 244.884 243.909C244.122 247.468 242.897 252.247 241.412 255.588C241.02 256.47 240.479 258.449 240.143 259.573"/>
<path stroke-width="2.4777" stroke-linejoin="round" stroke-linecap="round" stroke="#000000" opacity="1" fill="none" d="M159.991 258.957C160.628 259.788 161.111 260.757 161.642 261.656C161.736 261.815 162.578 262.988 162.525 262.97"/>
<path stroke-width="2.4777" stroke-linejoin="round" stroke-linecap="round" stroke="#000000" opacity="1" fill="none" d="M240.145 259.519C239.807 260.2 239.65 260.744 239.08 261.311"/>
</g>
<g id="Layer-19">
<path stroke-width="2.4777" stroke-linejoin="round" stroke-linecap="round" stroke="#000000" opacity="1" fill="none" d="M130.903 168.236C130.903 155.266 155.786 148.556 190.99 148.556C213.696 148.556 240.228 152.889 251.52 159.474C257.736 163.099 262.108 165.42 262.108 170.025C262.108 182.996 229.851 191.721 194.647 191.721C159.442 191.721 130.903 181.207 130.903 168.236Z"/>
</g>
<g id="Layer-11">
<path stroke-width="2.4777" stroke-linejoin="round" stroke-linecap="round" stroke="#de673f" opacity="1" fill="none" d="M225.285 132.761C214.827 137.99 209.617 146.951 204.631 157.375C203.678 159.369 201.266 170.982 201.292 170.964"/>
<path stroke-width="2.4777" stroke-linejoin="round" stroke-linecap="round" stroke="#de673f" opacity="1" fill="none" d="M234.221 135.072C236.069 132.3 225.647 138.855 225.451 139.052C220.371 144.131 215.748 149.361 212.995 156.15C212.744 156.769 208.807 165.437 209.9 165.437"/>
<path stroke-width="2.4777" stroke-linejoin="round" stroke-linecap="round" stroke="#de673f" opacity="1" fill="none" d="M228.399 143.547C223.965 145.764 221.091 155.742 219.702 159.909C219.423 160.748 217.077 168.813 218.376 168.163"/>
<path stroke-width="2.4777" stroke-linejoin="round" stroke-linecap="round" stroke="#de673f" opacity="1" fill="none" d="M234.369 147.38C232.284 149.464 225.275 166.565 227.883 167.869"/>
<path stroke-width="2.4777" stroke-linejoin="round" stroke-linecap="round" stroke="#de673f" opacity="1" fill="none" d="M239.97 147.748C236.896 153.897 234 159.408 234 166.542"/>
</g>
<g id="Layer-3">
<path stroke="none" opacity="1" fill-rule="nonzero" fill="#3b7a34" d="M183.095 128.78C183.095 128.78 146.383 148.256 139.754 121.786C133.125 95.3146 190.229 99.3461 183.095 128.78Z"/>
<path stroke="none" opacity="1" fill-rule="nonzero" fill="#3b7a34" d="M196.891 125.304C196.891 125.304 186.198 125.093 184.975 108.521C184.541 102.638 187.268 95.4684 191.728 92.1009C199.832 85.9825 214.569 96.8325 203.616 116.048"/>
<path stroke="none" opacity="1" fill-rule="nonzero" fill="#3b7a34" d="M194.885 134.829C194.885 134.829 195.67 113.921 210.646 113.239C210.646 113.239 224.197 111.075 217.349 124.504C210.502 137.933 200.366 140.072 195.608 137.265"/>
<path stroke="none" opacity="1" fill-rule="nonzero" fill="#3b7a34" d="M190.756 161.517C190.756 161.517 189.715 166.089 183.723 165.299C177.731 164.509 183.976 165.247 183.976 165.247C183.976 165.247 171.557 163.532 172.009 154.816C172.009 154.816 172.332 148.886 179.511 150.575C186.691 152.263 189.833 156.564 191.483 159.399"/>
<path stroke="none" opacity="1" fill-rule="nonzero" fill="#3b7a34" d="M199.811 161.578C199.811 161.578 199.195 148.33 208.661 148.559C218.127 148.789 215.765 155.024 214.387 156.504C214.387 156.504 210.26 163.065 201.141 162.749"/>
<path stroke="none" opacity="1" fill-rule="nonzero" fill="#3b7a34" d="M119.893 255.421C119.893 255.421 106.899 260.461 101.262 252.328C95.6254 244.194 105.447 238.935 111.831 241.877C111.831 241.877 118.467 244.867 119.893 255.421Z"/>
<path stroke="none" opacity="1" fill-rule="nonzero" fill="#3b7a34" d="M116.47 237.731C116.47 237.731 108.021 240.184 106.595 231.72C106.595 231.72 110.794 227.83 113.893 230.313C114.474 230.779 115.282 231.92 115.282 231.92C115.282 231.92 116.47 237.731 116.47 237.731Z"/>
<path stroke="none" opacity="1" fill-rule="nonzero" fill="#3b7a34" d="M120.503 236.292C120.503 236.292 129.59 231.066 125.14 226.75C125.14 226.75 121.518 224.371 119.133 229.214"/>
<path stroke="none" opacity="1" fill-rule="nonzero" fill="#3b7a34" d="M127.896 246.786C127.896 246.786 134.818 234.805 141.002 236.447C147.185 238.088 146.29 242.468 145.309 243.688C144.328 244.907 138.413 252.474 129.43 249.098"/>
<path stroke="none" opacity="1" fill-rule="nonzero" fill="#3b7a34" d="M118.371 234.821C118.371 234.821 116.624 229.596 118.524 229.017C120.424 228.437 119.873 234.646 119.873 234.646L119.524 236.292"/>
</g>
<g id="Layer-2">
<path stroke-width="2.4777" stroke-linejoin="round" stroke-linecap="round" stroke="#000000" opacity="1" fill="none" d="M196.834 173.553C196.834 173.553 198.044 165.196 196.175 155.96C194.305 146.723 191.573 124.157 197.276 102.031"/>
<path stroke-width="2.4777" stroke-linejoin="round" stroke-linecap="round" stroke="#000000" opacity="1" fill="none" d="M195.113 140.242C194.385 141.9 201.078 128.697 211.731 121.961"/>
<path stroke-width="2.4777" stroke-linejoin="round" stroke-linecap="round" stroke="#000000" opacity="1" fill="none" d="M202.406 129.999C202.406 129.999 201.129 123.389 205.754 119.9"/>
<path stroke-width="2.4777" stroke-linejoin="round" stroke-linecap="round" stroke="#000000" opacity="1" fill="none" d="M200.263 133.745C200.263 133.745 205.212 134.391 208.301 130.18"/>
<path stroke-width="2.4777" stroke-linejoin="round" stroke-linecap="round" stroke="#000000" opacity="1" fill="none" d="M188.645 104.409C188.645 104.409 189.759 112.079 195.26 112.154"/>
<path stroke-width="2.4777" stroke-linejoin="round" stroke-linecap="round" stroke="#000000" opacity="1" fill="none" d="M194.6 117.624C194.6 117.624 200.007 116.086 201.939 109.854"/>
<path stroke-width="2.4777" stroke-linejoin="round" stroke-linecap="round" stroke="#000000" opacity="1" fill="none" d="M193.808 138.696C193.808 138.696 178.897 121.077 155.372 121.066"/>
<path stroke-width="2.4777" stroke-linejoin="round" stroke-linecap="round" stroke="#000000" opacity="1" fill="none" d="M166.493 113.087C166.493 113.087 175.63 117.821 177.502 125.158"/>
<path stroke-width="2.4777" stroke-linejoin="round" stroke-linecap="round" stroke="#000000" opacity="1" fill="none" d="M170.808 123.999C170.808 123.999 166.629 127.508 160.512 127.482"/>
<path stroke-width="2.4777" stroke-linejoin="round" stroke-linecap="round" stroke="#000000" opacity="1" fill="none" d="M179.61 156.72C179.61 156.72 187.536 164.795 196.92 160.001"/>
<path stroke-width="2.4777" stroke-linejoin="round" stroke-linecap="round" stroke="#000000" opacity="1" fill="none" d="M197.628 165.163C197.628 165.163 208.004 159.04 210.538 152.885"/>
<path stroke-width="2.4777" stroke-linejoin="round" stroke-linecap="round" stroke="#000000" opacity="1" fill="none" d="M186.898 159.679C186.898 159.679 186.2 156.05 184.145 154.227"/>
<path stroke-width="2.4777" stroke-linejoin="round" stroke-linecap="round" stroke="#000000" opacity="1" fill="none" d="M179.243 161.959C179.243 161.959 182.375 162.275 183.149 159.959"/>
<path stroke-width="2.4777" stroke-linejoin="round" stroke-linecap="round" stroke="#000000" opacity="1" fill="none" d="M204.389 155.406C204.389 155.406 202.317 157.816 203.87 160.404"/>
<path stroke-width="2.4777" stroke-linejoin="round" stroke-linecap="round" stroke="#000000" opacity="1" fill="none" d="M207.338 159.133C207.338 159.133 208.79 160.457 211.025 157.888"/>
<path stroke-width="2.4777" stroke-linejoin="round" stroke-linecap="round" stroke="#000000" opacity="1" fill="none" d="M128.339 278.223C128.339 278.223 129.296 264.127 124.874 251.29C124.407 249.935 123.88 248.594 123.286 247.285C122.732 246.064 121.441 243.72 121.441 243.72C121.441 243.72 119.427 240.596 118.216 239.198C116.522 237.244 114.55 235.528 112.257 234.16"/>
<path stroke-width="2.4777" stroke-linejoin="round" stroke-linecap="round" stroke="#000000" opacity="1" fill="none" d="M126.366 255.588C126.366 255.588 130.438 244.606 140.531 242.428"/>
<path stroke-width="2.4777" stroke-linejoin="round" stroke-linecap="round" stroke="#000000" opacity="1" fill="none" d="M127.468 260.559C127.468 260.559 117.564 250.49 106.595 247.733"/>
<path stroke-width="2.4777" stroke-linejoin="round" stroke-linecap="round" stroke="#000000" opacity="1" fill="none" d="M110.53 244.543C110.53 244.543 114.091 247.521 112.138 249.959"/>
<path stroke-width="2.4777" stroke-linejoin="round" stroke-linecap="round" stroke="#000000" opacity="1" fill="none" d="M109.737 254.616C109.737 254.616 115.017 254.487 115.131 251.548"/>
<path stroke-width="2.4777" stroke-linejoin="round" stroke-linecap="round" stroke="#000000" opacity="1" fill="none" d="M133.343 245.64C133.343 245.64 132.313 243.201 135.266 240.814C135.954 240.259 136.857 239.706 138.04 239.188"/>
<path stroke-width="2.4777" stroke-linejoin="round" stroke-linecap="round" stroke="#000000" opacity="1" fill="none" d="M130.903 248.002C130.903 248.002 135.792 247.86 138.327 246.265"/>
<path stroke-width="2.4777" stroke-linejoin="round" stroke-linecap="round" stroke="#000000" opacity="1" fill="none" d="M118.439 236.972C118.439 236.972 123.094 233.228 122.904 230.574"/>
<path stroke-width="2.4777" stroke-linejoin="round" stroke-linecap="round" stroke="#000000" opacity="1" fill="none" d="M162.594 178.723C162.714 177.645 162.923 176.769 163.351 175.77C163.704 174.947 164.096 174.088 164.714 173.423C169.088 168.713 170.523 179.451 171.149 179.555C172.537 179.787 173.235 174.777 176.07 174.559C178.363 174.382 180.143 180.875 181.521 178.117"/>
<path stroke-width="2.4777" stroke-linejoin="round" stroke-linecap="round" stroke="#000000" opacity="1" fill="none" d="M208.18 172.528C205.968 172.886 212.463 167.858 214.561 167.518C215.534 167.36 215.876 170.545 216.801 170.858C216.843 170.872 221.172 168.862 222.213 168.858C223.867 168.851 224.406 171.431 226.797 170.179"/>
</g>
<g id="Layer-6">
<path stroke-width="2.4777" stroke-linejoin="round" stroke-linecap="round" stroke="#eab9b5" opacity="1" fill-rule="nonzero" fill="#eab9b5" d="M258.562 156.094C259.169 158.28 259.994 160.369 260.969 160.562C261.688 160.705 262.36 160.552 263.031 160.344C263.044 159.915 262.976 159.531 263 159.094C262.891 158.984 262.763 158.893 262.656 158.781C262.141 158.239 261.747 157.638 261.312 157.062C260.373 156.868 259.466 156.477 258.562 156.094Z"/>
<path stroke-width="2.4777" stroke-linejoin="round" stroke-linecap="round" stroke="#eab9b5" opacity="1" fill-rule="nonzero" fill="#eab9b5" d="M271.527 111.176C269.026 113.261 263.808 113.705 260.746 114.211C249.721 116.036 241.939 117.085 233.301 123.465C231.386 124.879 225.375 129.489 226.383 132.587C228.176 138.102 244.598 127.449 243.67 130.166C241.108 137.668 227.972 136.434 226.576 140.855C225.659 143.762 231.049 143.797 232.124 144.888C239.482 152.355 253.062 144.74 261.413 146.661C262.171 146.835 261.011 148.147 260.862 148.44C260.112 149.913 258.18 153.56 259.225 155.421C260.884 158.375 263.408 159.008 266.769 157.487C269.065 156.448 266.514 153.521 267.25 153.753C270.232 154.695 281.858 166.672 284.52 165.177C286.524 164.051 283.979 154.729 283.821 152.46C283.433 146.875 284.43 138.115 285.803 133.223C286.469 130.85 285.091 129.042 284.974 126.62C284.924 125.582 286.107 122.673 286.1 123.712C286.086 125.613 282.734 119.636 282.565 119.355C277.993 111.749 271.887 110.918 264.972 113.167C263.69 113.584 262.734 111.843 262.228 112.835"/>
<path stroke-width="2.4777" stroke-linejoin="round" stroke-linecap="round" stroke="#eab9b5" opacity="1" fill-rule="nonzero" fill="#eab9b5" d="M257.772 148.428C257.772 150.305 260.123 160.381 261.308 159.788"/>
<path stroke-width="2.4777" stroke-linejoin="round" stroke-linecap="round" stroke="#eab9b5" opacity="1" fill-rule="nonzero" fill="#eab9b5" d="M257.077 147.848C257.077 150.352 257.854 158.722 260.96 159.498C261.937 159.743 261.274 159.233 260.844 158.803"/>
<path stroke-width="2.4777" stroke-linejoin="round" stroke-linecap="round" stroke="#eab9b5" opacity="1" fill-rule="nonzero" fill="#eab9b5" d="M257.308 148.428C257.308 151.253 257.438 155.919 259.569 158.049C261.604 160.084 266.698 159.416 266.698 156.021"/>
<path stroke-width="2.4777" stroke-linejoin="round" stroke-linecap="round" stroke="#eab9b5" opacity="1" fill-rule="nonzero" fill="#eab9b5" d="M251.594 149.438C251.232 149.995 250.874 150.55 250.469 151.062C250.43 151.318 250.4 151.568 250.344 151.938C251.007 151.446 251.674 150.99 252.344 150.531C252.132 150.164 251.766 149.808 251.594 149.438Z"/>
<path stroke-width="2.4777" stroke-linejoin="round" stroke-linecap="round" stroke="#eab9b5" opacity="1" fill="none" d="M286.762 123.79C286.419 123.734 286.532 128.125 286.532 129.734C286.532 133.573 286.302 137.39 286.302 141.24C286.302 143.539 284.244 164.741 284.921 165.248C284.982 165.294 285.082 165.282 285.151 165.248C287.427 164.11 287.395 154.349 287.682 152.055C288.139 148.397 289.382 124.213 286.762 123.79Z"/>
<path stroke-width="2.4777" stroke-linejoin="round" stroke-linecap="round" stroke="#eab9b5" opacity="1" fill="none" d="M276.773 112.493C276.75 112.446 279.51 114.671 280.24 115.572C281.711 117.388 283.715 119.081 284.889 121.101C285.019 121.325 287.192 124.694 287.253 124.664C287.343 124.621 284.235 119.898 283.955 119.473C282.455 117.195 274.999 107.056 271.582 111.483"/>
<path stroke-width="2.4777" stroke-linejoin="round" stroke-linecap="round" stroke="#eab9b5" opacity="1" fill="none" d="M276.475 111.398C278.13 111.767 275.68 110.335 274.864 110.374C272.344 110.492 270.071 110.689 267.53 111.323C262.155 112.663 251.332 114.477 247.247 118.388"/>
<path stroke-width="2.4777" stroke-linejoin="round" stroke-linecap="round" stroke="#eab9b5" opacity="1" fill="none" d="M260 144.469C259.634 144.326 259.347 144.9 259.125 145.656C258.8 145.732 258.688 145.996 258.969 146.438C258.627 148.232 258.599 150.644 259.094 151.125C259.437 151.459 259.933 150.349 260.312 149.094C260.985 147.89 260.894 144.819 260 144.469Z"/>
<path stroke-width="2.4777" stroke-linejoin="round" stroke-linecap="round" stroke="#eab9b5" opacity="1" fill="none" d="M242.614 149.224C242.851 148.765 241.503 149.868 241.305 150.031C240.571 150.635 239.648 152.402 240.414 153.015C244.067 155.939 249.709 151.119 252.383 149.171"/>
<path stroke-width="2.4777" stroke-linejoin="round" stroke-linecap="round" stroke="#eab9b5" opacity="1" fill="none" d="M245.083 149.848C240.3 151.368 244.422 152.233 246.83 149.801C247.066 149.563 247.604 149.214 247.384 148.96C246.727 148.199 242.382 150.686 242.989 151.14C243.54 151.553 248.434 148.814 248.334 148.501C248.193 148.056 244.17 150.724 244.564 151.54C244.786 151.999 246.048 151.185 246.269 151.115C247.785 150.633 253.993 149.046 254.79 147.506C254.865 147.36 253.214 148.048 253.106 148.119C252.012 148.837 251.184 149.824 250.122 150.555C249.598 150.917 247.943 151.835 248.55 151.642C250.254 151.1 251.656 149.698 253.236 148.9C253.875 148.577 254.783 146.992 255 147.674C255.148 148.14 252.132 150.171 251.8 150.413C251.348 150.742 249.886 151.531 250.418 151.362C251.527 151.009 253.17 149.75 254.154 149.078C254.247 149.014 255.614 147.514 255.706 147.802C255.768 147.997 255.348 148.004 255.182 148.125C252.775 149.878 250.871 151.993 248.149 153.336C247.736 153.539 246.984 154.228 246.845 153.789C246.705 153.351 249.973 152.107 249.935 152.181C248.938 154.106 242.887 154.197 242.946 154.207"/>
<path stroke-width="2.4777" stroke-linejoin="round" stroke-linecap="round" stroke="#eab9b5" opacity="1" fill="none" d="M240.6 153.23C240.55 156.776 254.449 150.795 256.043 148.986"/>
<path stroke-width="2.4777" stroke-linejoin="round" stroke-linecap="round" stroke="#eab9b5" opacity="1" fill="none" d="M242.222 151.769C242.838 154.485 244.558 151.892 243.244 151.537C241.822 151.153 242.072 153.951 243.522 152.763C244.84 151.683 243.717 149.889 243.369 150.95C241.701 156.025 247.593 151.095 247.041 150.848C246.553 150.63 246.062 152.467 246.152 152.425C247.067 151.992 248.54 150.659 249.387 150.016C249.946 149.591 250.629 147.569 250.56 148.268C250.5 148.868 249.886 150.408 249.671 149.844C249.202 148.616 252.053 145.296 251.923 146.605C251.857 147.267 250.554 148.26 250.112 148.756C249.838 149.063 249.248 150.082 249.288 149.673C249.406 148.491 251.648 146.066 252.733 145.82"/>
</g>
<g id="Layer-7">
<path stroke-width="2.4777" stroke-linejoin="round" stroke-linecap="round" stroke="#dba19c" opacity="1" fill="none" d="M240.672 131.918C240.503 132.026 242.878 129.516 243.562 128.758C244.72 127.476 254.645 122.91 255.375 123.757"/>
<path stroke-width="2.4777" stroke-linejoin="round" stroke-linecap="round" stroke="#dba19c" opacity="1" fill="none" d="M264.95 118.857C265.041 118.955 263.086 120.848 262.689 121.423C261.032 123.822 258.983 125.803 259.865 128.86"/>
<path stroke-width="2.4777" stroke-linejoin="round" stroke-linecap="round" stroke="#dba19c" opacity="1" fill="none" d="M250.533 147.243C242.524 147.564 234.696 148.97 228.579 143.937"/>
<path stroke-width="2.4777" stroke-linejoin="round" stroke-linecap="round" stroke="#dba19c" opacity="1" fill="none" d="M259.416 145.928C257.611 146.109 250.974 148.346 250.539 150.272"/>
<path stroke-width="2.4777" stroke-linejoin="round" stroke-linecap="round" stroke="#dba19c" opacity="1" fill="none" d="M268.223 158.305C267.533 158.466 265.918 153.715 265.719 153.049C265.626 152.734 264.747 150.532 264.761 150.533C265.134 150.547 267.359 153.851 267.895 154.323C271.675 157.652 278.044 164.545 283.371 164.083"/>
</g>
<g id="Layer-9">
<path stroke-width="2.4777" stroke-linejoin="round" stroke-linecap="round" stroke="#000000" opacity="1" fill="none" d="M77.0837 10.5463C77.6888 8.40144 74.4048 11.4376 73.9412 11.7425C71.4487 13.3818 67.3251 20.4166 72.2502 21.8058C77.9219 23.4057 82.3812 11.1906 77.1877 9.72564"/>
<path stroke-width="2.4777" stroke-linejoin="round" stroke-linecap="round" stroke="#000000" opacity="1" fill="none" d="M84.9203 10.0367C85.155 9.2045 83.6933 13.0556 83.5665 13.48C82.9284 15.6159 81.2722 18.9221 81.716 21.2458"/>
<path stroke-width="2.4777" stroke-linejoin="round" stroke-linecap="round" stroke="#000000" opacity="1" fill="none" d="M85.3942 9.85928C85.1741 8.76943 85.6573 12.5164 85.7016 12.9538C85.9097 15.0115 86.5459 16.8921 87.2169 18.7929C87.2704 18.9444 88.5831 21.4584 88.6561 20.3701"/>
<path stroke-width="2.4777" stroke-linejoin="round" stroke-linecap="round" stroke="#000000" opacity="1" fill="none" d="M91.692 9.78294C91.5113 8.88814 90.7178 13.0179 90.6073 13.4761C90.1993 15.168 89.6422 16.8472 89.3565 18.5663C89.2453 19.235 89.516 20.1704 89.3641 20.7314"/>
<path stroke-width="2.4777" stroke-linejoin="round" stroke-linecap="round" stroke="#000000" opacity="1" fill="none" d="M95.6131 10.9711C95.6905 10.9005 95.8454 10.6943 95.7957 10.5824C95.7856 10.5594 95.531 11.0206 95.523 11.0347C95.3897 11.2671 95.2261 11.4857 95.094 11.722C94.6818 12.459 94.4392 13.2921 94.0661 14.0477C92.9691 16.2693 92.6465 19.6001 94.26 21.3702"/>
<path stroke-width="2.4777" stroke-linejoin="round" stroke-linecap="round" stroke="#000000" opacity="1" fill="none" d="M94.8885 21.1862C96.0658 21.197 97.553 20.9114 98.7181 20.695C99.111 20.6221 100.481 20.4434 100.454 20.446"/>
<path stroke-width="2.4777" stroke-linejoin="round" stroke-linecap="round" stroke="#000000" opacity="1" fill="none" d="M93.834 17.0076C92.9204 17.1766 95.3062 16.5839 95.4659 16.5364C96.7956 16.1406 98.1924 16.0659 99.5371 15.7713C99.9279 15.6857 100.984 15.0965 100.572 15.5436"/>
<path stroke-width="2.4777" stroke-linejoin="round" stroke-linecap="round" stroke="#000000" opacity="1" fill="none" d="M97.0383 10.5075C98.1269 10.3062 99.4922 10.2401 100.535 9.90926C100.804 9.82391 102.131 9.37165 101.735 9.59049"/>
<path stroke-width="2.4777" stroke-linejoin="round" stroke-linecap="round" stroke="#000000" opacity="1" fill="none" d="M114.879 12.0296C116.282 11.1083 118.238 10.508 119.868 10.1719C120.31 10.0807 123.039 9.94322 122.361 10.0641"/>
<path stroke-width="2.4777" stroke-linejoin="round" stroke-linecap="round" stroke="#000000" opacity="1" fill="none" d="M119.445 10.9571C119.377 10.8498 119.408 10.5089 119.318 10.5983C118.784 11.1276 117.475 17.0346 117.299 18.0179C117.234 18.3814 116.882 20.6663 116.992 20.1802"/>
<path stroke-width="2.4777" stroke-linejoin="round" stroke-linecap="round" stroke="#000000" opacity="1" fill="none" d="M126.94 11.4285C126.246 13.3482 125.381 15.7102 125.197 17.7459C125.148 18.2913 125.147 21.229 125.336 20.674"/>
<path stroke-width="2.4777" stroke-linejoin="round" stroke-linecap="round" stroke="#000000" opacity="1" fill="none" d="M125.814 16.036C127.346 15.6712 128.953 15.8294 130.5 15.7338C131.137 15.6945 132.464 15.2686 133.086 15.5704"/>
<path stroke-width="2.4777" stroke-linejoin="round" stroke-linecap="round" stroke="#000000" opacity="1" fill="none" d="M134.991 10.1357C134.859 9.16789 133.968 12.1373 133.914 12.3551C133.427 14.3014 132.856 16.1357 132.774 18.1613C132.756 18.6065 132.998 20.4741 133.038 20.3936"/>
<path stroke-width="2.4777" stroke-linejoin="round" stroke-linecap="round" stroke="#000000" opacity="1" fill="none" d="M139.217 10.3906C138.28 12.7331 137.597 15.3422 137.212 17.8335C137.107 18.5129 136.911 19.1866 136.817 19.8642C136.765 20.2403 136.999 21.7385 137.14 20.6594"/>
<path stroke-width="2.4777" stroke-linejoin="round" stroke-linecap="round" stroke="#000000" opacity="1" fill="none" d="M144.982 10.4091C143.404 12.4183 142.433 15.4771 141.935 17.9342C141.838 18.4115 140.959 22.0135 141.809 20.6752"/>
<path stroke-width="2.4777" stroke-linejoin="round" stroke-linecap="round" stroke="#000000" opacity="1" fill="none" d="M145.042 10.0762C144.533 10.1599 145.382 12.7838 145.441 13.0463C145.939 15.2578 146.813 17.9626 148.105 19.8404C148.4 20.2679 149.037 21.4431 149.719 21.331"/>
<path stroke-width="2.4777" stroke-linejoin="round" stroke-linecap="round" stroke="#000000" opacity="1" fill="none" d="M151.126 9.79044C150.622 9.87325 150.589 12.319 150.555 12.6522C150.258 15.5089 150.413 18.5279 149.961 21.3509"/>
<path stroke-width="2.4777" stroke-linejoin="round" stroke-linecap="round" stroke="#000000" opacity="1" fill="none" d="M162.197 9.60748C162.075 8.86369 161.942 11.7636 162.345 12.3211"/>
<path stroke-width="2.4777" stroke-linejoin="round" stroke-linecap="round" stroke="#000000" opacity="1" fill="none" d="M162.104 9.55414C162.134 9.51398 159.578 11.3617 158.92 11.9307C157.101 13.5034 154.446 16.3054 154.679 19.0008C154.707 19.3315 154.429 19.7507 154.623 20.0576C156.711 23.3496 161.095 20.6969 163.412 19.3291C163.903 19.039 167.087 16.2398 165.767 16.4239"/>
<path stroke-width="2.4777" stroke-linejoin="round" stroke-linecap="round" stroke="#000000" opacity="1" fill="none" d="M165.429 15.7164C164.001 15.9155 162.622 16.3769 161.183 16.5477C160.665 16.6093 159.085 16.5257 159.317 16.624"/>
<path stroke-width="2.4777" stroke-linejoin="round" stroke-linecap="round" stroke="#000000" opacity="1" fill="none" d="M176.023 11.7796C175.461 11.3868 176.917 10.5271 177.232 10.3724C178.539 9.73052 180.199 9.19068 181.67 9.23288C181.82 9.23721 183.756 9.25464 183.469 9.66521"/>
<path stroke-width="2.4777" stroke-linejoin="round" stroke-linecap="round" stroke="#000000" opacity="1" fill="none" d="M180.321 9.79494C180.314 9.77694 180.086 9.31959 180.245 9.34408C180.31 9.35425 179.778 10.7446 179.753 10.8191C179.44 11.7447 179.482 11.5092 179.18 12.9108C178.835 14.5077 178.622 16.1202 178.303 17.7212C178.247 18.0009 178.128 19.9941 178.174 19.9695"/>
<path stroke-width="2.4777" stroke-linejoin="round" stroke-linecap="round" stroke="#000000" opacity="1" fill="none" d="M175.32 20.9175C176.53 20.9531 178.102 20.1191 179.385 19.996C179.796 19.9565 181.821 20.2417 181.148 20.1375"/>
<path stroke-width="2.4777" stroke-linejoin="round" stroke-linecap="round" stroke="#000000" opacity="1" fill="none" d="M193.441 10.4735C193.426 9.98681 193.361 12.5836 193.389 13.1235C193.425 13.8242 192.962 19.0977 193.41 19.3755C193.949 19.7097 194.889 17.6948 195.039 17.4536C195.681 16.4184 199.59 11.6319 199.512 10.745C199.485 10.4411 199.14 11.2914 199.172 11.5948C199.248 12.3107 199.366 12.8734 199.283 13.6288C199.09 15.3934 198.704 17.3923 199.481 18.9923C199.578 19.1927 199.755 20.3589 200.107 20.3474C200.486 20.335 201.403 17.953 201.542 17.6815C202.635 15.5482 203.547 13.3369 204.625 11.2025C204.802 10.8511 206.651 7.83539 205.865 9.10202"/>
<path stroke-width="2.4777" stroke-linejoin="round" stroke-linecap="round" stroke="#000000" opacity="1" fill="none" d="M210.467 9.75906C210.662 9.48913 210.06 10.7777 209.953 11.2122C209.716 12.171 209.472 13.1289 209.221 14.0843C208.618 16.3777 208.345 19.5071 207.492 21.6428"/>
<path stroke-width="2.4777" stroke-linejoin="round" stroke-linecap="round" stroke="#000000" opacity="1" fill="none" d="M214.342 9.45745C214.377 8.86052 213.987 10.2987 213.948 10.4407C213.692 11.3641 213.527 12.2796 213.39 13.2277C213.011 15.8336 212.141 18.9112 212.36 21.5553C212.365 21.6114 212.887 21.2774 212.963 21.2627C213.329 21.1921 213.582 21.1143 213.917 20.941C214.849 20.459 216.057 20.2973 217.065 19.9926C217.611 19.8273 219.076 19.907 218.94 19.9182"/>
<path stroke-width="2.4777" stroke-linejoin="round" stroke-linecap="round" stroke="#000000" opacity="1" fill="none" d="M225.101 9.93177C224.467 12.823 224.195 15.6735 223.703 18.5731C223.65 18.8888 222.869 20.6275 223.137 20.8955C223.304 21.0628 227.497 19.8796 228.038 19.7514C228.567 19.6261 229.905 19.0951 230.47 19.4388C230.563 19.4953 230.198 19.6212 230.118 19.5893"/>
<path stroke-width="2.4777" stroke-linejoin="round" stroke-linecap="round" stroke="#000000" opacity="1" fill="none" d="M250.321 11.8613C250.469 7.03269 242.487 12.2499 242.072 14.6322C241.614 17.2641 249.071 16.1919 249.781 16.2657C249.803 16.2679 250.441 16.3572 250.474 16.4673C250.489 16.5179 248.976 18.0009 248.937 18.0444C248.108 18.9806 243.583 23.2174 242.193 21.7408"/>
<path stroke-width="2.4777" stroke-linejoin="round" stroke-linecap="round" stroke="#000000" opacity="1" fill="none" d="M254.194 11.6876C256.742 10.6876 259.764 9.76038 262.538 9.91046"/>
<path stroke-width="2.4777" stroke-linejoin="round" stroke-linecap="round" stroke="#000000" opacity="1" fill="none" d="M258.389 10.4291C258.245 10.3704 258.24 10.4428 258.228 10.5752C258.115 11.8492 257.692 13.0874 257.389 14.3283C257.155 15.2897 255.752 20.494 256.31 21.4251"/>
<path stroke-width="2.4777" stroke-linejoin="round" stroke-linecap="round" stroke="#000000" opacity="1" fill="none" d="M267.747 11.6748C266.399 13.5288 265 15.4396 263.927 17.4701C263.603 18.0838 263.309 18.7122 262.969 19.3176C262.915 19.4135 262.453 20.1783 262.608 20.1591"/>
<path stroke-width="2.4777" stroke-linejoin="round" stroke-linecap="round" stroke="#000000" opacity="1" fill="none" d="M268.654 10.8683C268.382 10.898 269.037 11.2964 269.089 11.5652C269.2 12.1405 269.37 12.7102 269.503 13.282C269.957 15.238 270.79 17.2542 270.93 19.2605C270.971 19.8554 271.73 22.0104 271.326 21.5069"/>
<path stroke-width="2.4777" stroke-linejoin="round" stroke-linecap="round" stroke="#000000" opacity="1" fill="none" d="M262.995 18.913C262.73 18.9419 264.267 18.9302 264.512 18.9166C265.527 18.8603 269.039 18.1583 269.882 18.4705C269.989 18.5102 269.675 18.5748 269.591 18.6531"/>
<path stroke-width="2.4777" stroke-linejoin="round" stroke-linecap="round" stroke="#000000" opacity="1" fill="none" d="M276.802 10.5799C276.343 13.1784 275.997 15.7432 275.79 18.3801C275.774 18.5828 275.66 22.7568 275.819 21.3169"/>
<path stroke-width="2.4777" stroke-linejoin="round" stroke-linecap="round" stroke="#000000" opacity="1" fill="none" d="M276.634 10.8527C278.479 9.92113 281.551 9.32112 283.588 9.8093C284.273 9.97353 285.691 10.9967 285.555 11.8557C285.126 14.557 281.093 15.4384 278.975 16.2317C278.194 16.5243 277.371 16.817 276.554 16.9207C276.206 16.9649 275.171 17.1568 275.52 17.1186"/>
<path stroke-width="2.4777" stroke-linejoin="round" stroke-linecap="round" stroke="#000000" opacity="1" fill="none" d="M277.686 17.5412C279.176 18.093 280.59 18.9628 281.905 19.8407C282.059 19.9436 282.974 20.8004 283.007 20.7849"/>
<path stroke-width="2.4777" stroke-linejoin="round" stroke-linecap="round" stroke="#000000" opacity="1" fill="none" d="M288.923 11.8783C290.86 11.0701 293.166 10.6821 295.244 10.3754C295.884 10.2808 296.751 10.1313 297.397 10.1872C297.554 10.2008 298.114 10.2576 298.094 10.2715"/>
<path stroke-width="2.4777" stroke-linejoin="round" stroke-linecap="round" stroke="#000000" opacity="1" fill="none" d="M293.87 10.9309C292.9 13.3824 292.276 16.3791 291.844 18.9749C291.776 19.3818 291.473 22.9143 291.693 22.0724"/>
<path stroke-width="2.4777" stroke-linejoin="round" stroke-linecap="round" stroke="#000000" opacity="1" fill="none" d="M297.672 19.7285C296.366 19.7242 298.555 20.7892 298.512 19.7131C298.482 18.9484 297.159 19.4149 297.132 20.1167C297.112 20.6685 299.412 19.7342 297.672 19.7285Z"/>
<path stroke-width="2.4777" stroke-linejoin="round" stroke-linecap="round" stroke="#000000" opacity="1" fill="none" d="M303.236 19.119C302.072 20.0319 303.685 20.5092 304.26 19.7988C305.084 18.7819 303.022 18.4128 303.044 19.5785C303.069 20.9744 304.962 18.8063 303.854 19.1304"/>
<path stroke-width="2.4777" stroke-linejoin="round" stroke-linecap="round" stroke="#000000" opacity="1" fill="none" d="M309.927 18.9482C307.519 20.3572 309.978 20.6353 310.205 19.6351C310.381 18.8552 308.974 18.8368 309.031 19.4981C309.171 21.1012 310.691 18.0066 309.092 19.1154"/>
</g>
<g id="Layer-8">
<path stroke="none" opacity="1" fill-rule="nonzero" fill="#9a695c" d="M105.485 264.175C103.08 264.51 98.5442 269.215 101.435 271.806C105.315 275.284 116.949 272.649 118.093 267.326C118.799 264.044 115.599 261.665 112.587 262.155C110.813 262.444 108.931 262.982 107.171 263.435C106.657 263.567 106.128 264.086 105.485 264.175Z"/>
<path stroke="none" opacity="1" fill-rule="nonzero" fill="#9a695c" d="M141.346 277.08C142.008 275.545 137.42 273.412 136.425 272.964C131.944 270.948 124.604 271.743 120.501 274.264C116.224 276.891 115.91 281.173 120.612 283.37C123.635 284.782 131.443 284.646 134.794 284.455C137.506 284.3 141.046 281.785 141.918 279.187C142.024 278.869 141.239 276.163 141.35 276.119"/>
<path stroke="none" opacity="1" fill-rule="nonzero" fill="#9a695c" d="M165.906 277.879C166.311 276.972 162.294 274.919 161.783 274.583C159.79 273.275 145.486 266.439 144.26 271.863C143.9 273.456 146.632 275.465 147.501 276.321C150.957 279.729 157.042 283.168 162.062 283.083C165.047 283.032 167.324 279.999 165.609 277.283"/>
<path stroke="none" opacity="1" fill-rule="nonzero" fill="#9a695c" d="M157.59 266.962C157.183 265.231 157.572 262.881 156.734 261.157C153.788 255.095 145.014 252.705 138.929 253.301C136.647 253.524 130.929 254.274 129.923 257.072C129.248 258.949 132.94 261.927 134.23 262.593C135.706 263.354 136.693 264.876 138.365 265.498C142.645 267.089 147.091 267.39 151.504 267.8C152.502 267.893 157.741 267.607 157.59 266.962Z"/>
<path stroke="none" opacity="1" fill-rule="nonzero" fill="#9a695c" d="M186.732 275.008L186.851 275.249"/>
<path stroke="none" opacity="1" fill-rule="nonzero" fill="#9a695c" d="M186.786 278.564C187.887 271.204 176.311 264.511 170.085 266.076C159.98 268.617 168.2 274.659 173.624 276.045C176.154 276.691 183.305 276.874 185.078 278.119"/>
<path stroke-width="2.4777" stroke-linejoin="round" stroke-linecap="round" stroke="#000000" opacity="1" fill="none" d="M169.363 272.524C174.445 275.829 179.839 277.738 185.832 277.905"/>
<path stroke-width="2.4777" stroke-linejoin="round" stroke-linecap="round" stroke="#000000" opacity="1" fill="none" d="M145.345 272.738C148.366 276.088 158.619 286.059 163.724 281.456"/>
<path stroke-width="2.4777" stroke-linejoin="round" stroke-linecap="round" stroke="#000000" opacity="1" fill="none" d="M141.361 279.612C140.847 285.709 121.204 285.802 119.221 280.831"/>
<path stroke-width="2.4777" stroke-linejoin="round" stroke-linecap="round" stroke="#000000" opacity="1" fill="none" d="M101.283 270.365C103.159 275.067 117.146 273.998 117.633 268.223"/>
<path stroke-width="2.4777" stroke-linejoin="round" stroke-linecap="round" stroke="#000000" opacity="1" fill="none" d="M129.844 257.532C135.804 266.934 147.136 267.955 156.699 266.984"/>
</g>
<g id="Layer-16"/>
<g id="Layer-17"/>
<g id="Layer-18"/>
<g visibility="hidden" id="Layer-15"/>
<g id="Layer-14"/>
</svg>