<svg width="204" height="91" viewBox="0 0 204 91" fill="none" xmlns="http://www.w3.org/2000/svg">
<path d="M19.2129 0.552734C20.8568 0.552734 22.346 0.796875 23.6807 1.28516C25.0153 1.77344 26.1465 2.44076 27.0742 3.28711C28.0182 4.13346 28.7425 5.1263 29.2471 6.26562C29.7516 7.38867 30.0039 8.58496 30.0039 9.85449V24.6982C30.0039 25.9678 29.7516 27.1722 29.2471 28.3115C28.7425 29.4346 28.0182 30.4193 27.0742 31.2656C26.1465 32.112 25.0153 32.7793 23.6807 33.2676C22.346 33.7559 20.8568 34 19.2129 34H11.6934C10.0495 34 8.56022 33.7559 7.22559 33.2676C5.89095 32.7793 4.75163 32.112 3.80762 31.2656C2.87988 30.4193 2.16374 29.4346 1.65918 28.3115C1.15462 27.1722 0.902344 25.9678 0.902344 24.6982V9.85449C0.902344 8.58496 1.15462 7.38867 1.65918 6.26562C2.16374 5.1263 2.87988 4.13346 3.80762 3.28711C4.75163 2.44076 5.89095 1.77344 7.22559 1.28516C8.56022 0.796875 10.0495 0.552734 11.6934 0.552734H19.2129ZM23.8027 15.2988L23.4609 13.1992L21.8984 11.6611L19.3594 11.3926H13.8906L12.4014 11.0996C12.32 10.8229 12.263 10.5788 12.2305 10.3672C12.1979 10.1393 12.141 9.90332 12.0596 9.65918V7.0957L12.4014 5.65527L14.0127 5.33789H20.2139L22.5088 5.80176L23.0947 3.14062L20.2627 2.75H13.8418L11.4004 3.0918L9.81348 4.6543L9.49609 6.70508V10.0498L9.81348 12.1006L11.4004 13.6387L13.8418 13.9561H19.3594L20.8486 14.2002C20.8975 14.4443 20.9544 14.6722 21.0195 14.8838C21.0846 15.0954 21.1416 15.3151 21.1904 15.543V18.7412C21.1579 18.9528 21.1009 19.1807 21.0195 19.4248C20.9544 19.6689 20.8975 19.8968 20.8486 20.1084L19.2617 20.3525H13.207L10.8145 19.9619L10.2041 22.5986L13.0605 22.9404H19.4082L21.8984 22.6475L23.4609 21.1094L23.8027 19.0098V15.2988ZM52.7578 2.75H38.6465V5.33789H44.4082V22.9404H47.0205V5.33789H52.7578V2.75ZM48.1191 0.552734C49.763 0.552734 51.2523 0.796875 52.5869 1.28516C53.9215 1.77344 55.0527 2.44076 55.9805 3.28711C56.9245 4.13346 57.6488 5.1263 58.1533 6.26562C58.6579 7.38867 58.9102 8.58496 58.9102 9.85449V24.6982C58.9102 25.9678 58.6579 27.1722 58.1533 28.3115C57.6488 29.4346 56.9245 30.4193 55.9805 31.2656C55.0527 32.112 53.9215 32.7793 52.5869 33.2676C51.2523 33.7559 49.763 34 48.1191 34H40.5996C38.9557 34 37.4665 33.7559 36.1318 33.2676C34.7972 32.7793 33.6579 32.112 32.7139 31.2656C31.7861 30.4193 31.07 29.4346 30.5654 28.3115C30.0609 27.1722 29.8086 25.9678 29.8086 24.6982V9.85449C29.8086 8.58496 30.0609 7.38867 30.5654 6.26562C31.07 5.1263 31.7861 4.13346 32.7139 3.28711C33.6579 2.44076 34.7972 1.77344 36.1318 1.28516C37.4665 0.796875 38.9557 0.552734 40.5996 0.552734H48.1191ZM19.2129 57.5527C20.8568 57.5527 22.346 57.7969 23.6807 58.2852C25.0153 58.7734 26.1465 59.4408 27.0742 60.2871C28.0182 61.1335 28.7425 62.1263 29.2471 63.2656C29.7516 64.3887 30.0039 65.585 30.0039 66.8545V81.6982C30.0039 82.9678 29.7516 84.1722 29.2471 85.3115C28.7425 86.4346 28.0182 87.4193 27.0742 88.2656C26.1465 89.112 25.0153 89.7793 23.6807 90.2676C22.346 90.7559 20.8568 91 19.2129 91H11.6934C10.0495 91 8.56022 90.7559 7.22559 90.2676C5.89095 89.7793 4.75163 89.112 3.80762 88.2656C2.87988 87.4193 2.16374 86.4346 1.65918 85.3115C1.15462 84.1722 0.902344 82.9678 0.902344 81.6982V66.8545C0.902344 65.585 1.15462 64.3887 1.65918 63.2656C2.16374 62.1263 2.87988 61.1335 3.80762 60.2871C4.75163 59.4408 5.89095 58.7734 7.22559 58.2852C8.56022 57.7969 10.0495 57.5527 11.6934 57.5527H19.2129ZM17.6504 59.75V75.5947L17.3086 77.0596L15.6973 77.3525H12.0596V79.9404H15.8438L18.3096 79.5986L20.2139 78.1094V59.75H17.6504ZM48.1191 57.5527C49.763 57.5527 51.2523 57.7969 52.5869 58.2852C53.9215 58.7734 55.0527 59.4408 55.9805 60.2871C56.9245 61.1335 57.6488 62.1263 58.1533 63.2656C58.6579 64.3887 58.9102 65.585 58.9102 66.8545V81.6982C58.9102 82.9678 58.6579 84.1722 58.1533 85.3115C57.6488 86.4346 56.9245 87.4193 55.9805 88.2656C55.0527 89.112 53.9215 89.7793 52.5869 90.2676C51.2523 90.7559 49.763 91 48.1191 91H40.5996C38.9557 91 37.4665 90.7559 36.1318 90.2676C34.7972 89.7793 33.6579 89.112 32.7139 88.2656C31.7861 87.4193 31.07 86.4346 30.5654 85.3115C30.0609 84.1722 29.8086 82.9678 29.8086 81.6982V66.8545C29.8086 65.585 30.0609 64.3887 30.5654 63.2656C31.07 62.1263 31.7861 61.1335 32.7139 60.2871C33.6579 59.4408 34.7972 58.7734 36.1318 58.2852C37.4665 57.7969 38.9557 57.5527 40.5996 57.5527H48.1191ZM53.1484 63.7051L52.8066 61.6543L51.2686 60.0918L48.7539 59.75H42.2109L39.7207 60.0918L38.1582 61.6543L37.8652 63.7051V76.0098L38.1582 78.1094L39.7695 79.6475L42.2109 79.9404H48.7539L51.2686 79.6475L52.8066 78.1094L53.1484 76.0098V63.7051ZM50.2188 77.1084L48.6074 77.3525H42.3574L40.7705 77.1084L40.4043 75.6436V63.9492L40.6484 62.6064L42.3574 62.3379H48.6074L50.3164 62.6064L50.5605 64.0469V75.7412L50.2188 77.1084ZM77.0254 57.5527C78.6693 57.5527 80.1585 57.7969 81.4932 58.2852C82.8278 58.7734 83.959 59.4408 84.8867 60.2871C85.8307 61.1335 86.555 62.1263 87.0596 63.2656C87.5641 64.3887 87.8164 65.585 87.8164 66.8545V81.6982C87.8164 82.9678 87.5641 84.1722 87.0596 85.3115C86.555 86.4346 85.8307 87.4193 84.8867 88.2656C83.959 89.112 82.8278 89.7793 81.4932 90.2676C80.1585 90.7559 78.6693 91 77.0254 91H69.5059C67.862 91 66.3727 90.7559 65.0381 90.2676C63.7035 89.7793 62.5641 89.112 61.6201 88.2656C60.6924 87.4193 59.9762 86.4346 59.4717 85.3115C58.9671 84.1722 58.7148 82.9678 58.7148 81.6982V66.8545C58.7148 65.585 58.9671 64.3887 59.4717 63.2656C59.9762 62.1263 60.6924 61.1335 61.6201 60.2871C62.5641 59.4408 63.7035 58.7734 65.0381 58.2852C66.3727 57.7969 67.862 57.5527 69.5059 57.5527H77.0254ZM81.9082 59.75H79.3203V75.7412C79.2878 75.9528 79.2308 76.1807 79.1494 76.4248C79.0843 76.6689 79.0192 76.8968 78.9541 77.1084L77.3672 77.3525H71.1172L69.5059 77.1084L69.1641 75.6436V59.75H66.625V76.0098L66.918 78.1094L68.5049 79.6475L70.9707 79.9404H77.5137L80.0039 79.6475L81.5664 78.1094L81.9082 76.0098V59.75ZM105.932 57.5527C107.576 57.5527 109.065 57.7969 110.399 58.2852C111.734 58.7734 112.865 59.4408 113.793 60.2871C114.737 61.1335 115.461 62.1263 115.966 63.2656C116.47 64.3887 116.723 65.585 116.723 66.8545V81.6982C116.723 82.9678 116.47 84.1722 115.966 85.3115C115.461 86.4346 114.737 87.4193 113.793 88.2656C112.865 89.112 111.734 89.7793 110.399 90.2676C109.065 90.7559 107.576 91 105.932 91H98.4121C96.7682 91 95.279 90.7559 93.9443 90.2676C92.6097 89.7793 91.4704 89.112 90.5264 88.2656C89.5986 87.4193 88.8825 86.4346 88.3779 85.3115C87.8734 84.1722 87.6211 82.9678 87.6211 81.6982V66.8545C87.6211 65.585 87.8734 64.3887 88.3779 63.2656C88.8825 62.1263 89.5986 61.1335 90.5264 60.2871C91.4704 59.4408 92.6097 58.7734 93.9443 58.2852C95.279 57.7969 96.7682 57.5527 98.4121 57.5527H105.932ZM107.177 73.9102V79.9404H109.765V73.6416L108.91 71.3955L106.127 70.3945L108.812 69.1006L109.569 66.9033V64.1934L109.276 62.1426L107.665 60.0918L105.224 59.75H96.1172V79.9404H98.7295V71.8105H105.077L106.811 72.5918L107.177 73.9102ZM105.077 62.3379L106.811 63.0947L106.981 64.5107V67.0986L106.615 68.4414L105.077 69.1982H98.7295V62.3379H105.077ZM139.379 63.6562L139.037 61.6055L137.475 60.043L134.984 59.75H128.881L124.486 60.3604V79.9404H127.074V62.6064L128.979 62.2891H134.838L136.522 62.5576L136.767 63.998V79.9404H139.379V63.6562ZM134.838 57.5527C136.482 57.5527 137.971 57.7969 139.306 58.2852C140.64 58.7734 141.771 59.4408 142.699 60.2871C143.643 61.1335 144.368 62.1263 144.872 63.2656C145.377 64.3887 145.629 65.585 145.629 66.8545V81.6982C145.629 82.9678 145.377 84.1722 144.872 85.3115C144.368 86.4346 143.643 87.4193 142.699 88.2656C141.771 89.112 140.64 89.7793 139.306 90.2676C137.971 90.7559 136.482 91 134.838 91H127.318C125.674 91 124.185 90.7559 122.851 90.2676C121.516 89.7793 120.377 89.112 119.433 88.2656C118.505 87.4193 117.789 86.4346 117.284 85.3115C116.78 84.1722 116.527 82.9678 116.527 81.6982V66.8545C116.527 65.585 116.78 64.3887 117.284 63.2656C117.789 62.1263 118.505 61.1335 119.433 60.2871C120.377 59.4408 121.516 58.7734 122.851 58.2852C124.185 57.7969 125.674 57.5527 127.318 57.5527H134.838ZM163.744 57.5527C165.388 57.5527 166.877 57.7969 168.212 58.2852C169.547 58.7734 170.678 59.4408 171.605 60.2871C172.549 61.1335 173.274 62.1263 173.778 63.2656C174.283 64.3887 174.535 65.585 174.535 66.8545V81.6982C174.535 82.9678 174.283 84.1722 173.778 85.3115C173.274 86.4346 172.549 87.4193 171.605 88.2656C170.678 89.112 169.547 89.7793 168.212 90.2676C166.877 90.7559 165.388 91 163.744 91H156.225C154.581 91 153.091 90.7559 151.757 90.2676C150.422 89.7793 149.283 89.112 148.339 88.2656C147.411 87.4193 146.695 86.4346 146.19 85.3115C145.686 84.1722 145.434 82.9678 145.434 81.6982V66.8545C145.434 65.585 145.686 64.3887 146.19 63.2656C146.695 62.1263 147.411 61.1335 148.339 60.2871C149.283 59.4408 150.422 58.7734 151.757 58.2852C153.091 57.7969 154.581 57.5527 156.225 57.5527H163.744ZM166.942 63.6562L166.576 61.6055L165.038 60.043L162.572 59.75H157.274L154.833 60.043L153.295 61.6055L152.929 63.6562V75.2529L153.295 77.3037L154.833 78.8418L157.274 79.1592H163.427L166.283 78.793L165.673 76.1562L163.378 76.5469H157.445L155.883 76.3027L155.541 74.8379V69.8086H166.942V63.6562ZM155.541 67.2451V63.9492L155.736 62.5576L157.445 62.2891H162.426L164.086 62.5576L164.33 63.998V67.2451H155.541ZM185.644 59.75H182.592L188.695 74.252V79.9404H191.283V74.3008L197.484 59.75H194.433L189.989 70.7119L185.644 59.75ZM192.65 57.5527C194.294 57.5527 195.784 57.7969 197.118 58.2852C198.453 58.7734 199.584 59.4408 200.512 60.2871C201.456 61.1335 202.18 62.1263 202.685 63.2656C203.189 64.3887 203.441 65.585 203.441 66.8545V81.6982C203.441 82.9678 203.189 84.1722 202.685 85.3115C202.18 86.4346 201.456 87.4193 200.512 88.2656C199.584 89.112 198.453 89.7793 197.118 90.2676C195.784 90.7559 194.294 91 192.65 91H185.131C183.487 91 181.998 90.7559 180.663 90.2676C179.328 89.7793 178.189 89.112 177.245 88.2656C176.317 87.4193 175.601 86.4346 175.097 85.3115C174.592 84.1722 174.34 82.9678 174.34 81.6982V66.8545C174.34 65.585 174.592 64.3887 175.097 63.2656C175.601 62.1263 176.317 61.1335 177.245 60.2871C178.189 59.4408 179.328 58.7734 180.663 58.2852C181.998 57.7969 183.487 57.5527 185.131 57.5527H192.65Z" fill="#5A5782"/>
<path d="M77.0254 0.552734C78.6693 0.552734 80.1585 0.796875 81.4932 1.28516C82.8278 1.77344 83.959 2.44076 84.8867 3.28711C85.8307 4.13346 86.555 5.1263 87.0596 6.26562C87.5641 7.38867 87.8164 8.58496 87.8164 9.85449V24.6982C87.8164 25.9678 87.5641 27.1722 87.0596 28.3115C86.555 29.4346 85.8307 30.4193 84.8867 31.2656C83.959 32.112 82.8278 32.7793 81.4932 33.2676C80.1585 33.7559 78.6693 34 77.0254 34H69.5059C67.862 34 66.3727 33.7559 65.0381 33.2676C63.7035 32.7793 62.5641 32.112 61.6201 31.2656C60.6924 30.4193 59.9762 29.4346 59.4717 28.3115C58.9671 27.1722 58.7148 25.9678 58.7148 24.6982V9.85449C58.7148 8.58496 58.9671 7.38867 59.4717 6.26562C59.9762 5.1263 60.6924 4.13346 61.6201 3.28711C62.5641 2.44076 63.7035 1.77344 65.0381 1.28516C66.3727 0.796875 67.862 0.552734 69.5059 0.552734H77.0254ZM79.2715 22.9404H82.0547L80.126 4.75195L78.6123 3.23828L75.3652 2.75H72.7529L69.5059 3.23828L68.0166 4.75195L66.0146 22.9404H68.9199L69.3105 17.7402L69.5547 15.4941H78.5635L78.8076 17.7402L79.2715 22.9404ZM77.5625 5.7041C77.6764 7.02246 77.8066 8.26758 77.9531 9.43945C78.0996 10.6113 78.238 11.8483 78.3682 13.1504H69.7744L70.5068 5.7041C70.9626 5.65527 71.3532 5.59831 71.6787 5.5332C72.0205 5.4681 72.4193 5.40299 72.875 5.33789H75.2676L77.5625 5.7041ZM105.932 0.552734C107.576 0.552734 109.065 0.796875 110.399 1.28516C111.734 1.77344 112.865 2.44076 113.793 3.28711C114.737 4.13346 115.461 5.1263 115.966 6.26562C116.47 7.38867 116.723 8.58496 116.723 9.85449V24.6982C116.723 25.9678 116.47 27.1722 115.966 28.3115C115.461 29.4346 114.737 30.4193 113.793 31.2656C112.865 32.112 111.734 32.7793 110.399 33.2676C109.065 33.7559 107.576 34 105.932 34H98.4121C96.7682 34 95.279 33.7559 93.9443 33.2676C92.6097 32.7793 91.4704 32.112 90.5264 31.2656C89.5986 30.4193 88.8825 29.4346 88.3779 28.3115C87.8734 27.1722 87.6211 25.9678 87.6211 24.6982V9.85449C87.6211 8.58496 87.8734 7.38867 88.3779 6.26562C88.8825 5.1263 89.5986 4.13346 90.5264 3.28711C91.4704 2.44076 92.6097 1.77344 93.9443 1.28516C95.279 0.796875 96.7682 0.552734 98.4121 0.552734H105.932ZM107.177 16.9102V22.9404H109.765V16.6416L108.91 14.3955L106.127 13.3945L108.812 12.1006L109.569 9.90332V7.19336L109.276 5.14258L107.665 3.0918L105.224 2.75H96.1172V22.9404H98.7295V14.8105H105.077L106.811 15.5918L107.177 16.9102ZM105.077 5.33789L106.811 6.09473L106.981 7.51074V10.0986L106.615 11.4414L105.077 12.1982H98.7295V5.33789H105.077ZM139.477 2.75H125.365V5.33789H131.127V22.9404H133.739V5.33789H139.477V2.75ZM134.838 0.552734C136.482 0.552734 137.971 0.796875 139.306 1.28516C140.64 1.77344 141.771 2.44076 142.699 3.28711C143.643 4.13346 144.368 5.1263 144.872 6.26562C145.377 7.38867 145.629 8.58496 145.629 9.85449V24.6982C145.629 25.9678 145.377 27.1722 144.872 28.3115C144.368 29.4346 143.643 30.4193 142.699 31.2656C141.771 32.112 140.64 32.7793 139.306 33.2676C137.971 33.7559 136.482 34 134.838 34H127.318C125.674 34 124.185 33.7559 122.851 33.2676C121.516 32.7793 120.377 32.112 119.433 31.2656C118.505 30.4193 117.789 29.4346 117.284 28.3115C116.78 27.1722 116.527 25.9678 116.527 24.6982V9.85449C116.527 8.58496 116.78 7.38867 117.284 6.26562C117.789 5.1263 118.505 4.13346 119.433 3.28711C120.377 2.44076 121.516 1.77344 122.851 1.28516C124.185 0.796875 125.674 0.552734 127.318 0.552734H134.838Z" fill="#C15759"/>
</svg>
