<?xml version="1.0" encoding="UTF-8" standalone="no"?>
<!DOCTYPE svg PUBLIC "-//W3C//DTD SVG 1.1//EN" "http://www.w3.org/Graphics/SVG/1.1/DTD/svg11.dtd">
<!-- Created with Vectornator (http://vectornator.io/) -->
<svg height="100%" stroke-miterlimit="10" style="fill-rule:nonzero;clip-rule:evenodd;stroke-linecap:round;stroke-linejoin:round;" version="1.1" viewBox="631.201 209.078 233.564 307.108" width="100%" xml:space="preserve" xmlns="http://www.w3.org/2000/svg" xmlns:vectornator="http://vectornator.io" xmlns:xlink="http://www.w3.org/1999/xlink">
<defs/>
<g id="Layer-5-copy-copy-copy-copy-copy-copy-copy-copy" vectornator:layerName="Layer 5 copy copy copy copy copy copy copy copy">
<path d="M750.69 372.218C748.508 371.935 752.361 375.602 752.926 377.862C754.06 382.401 755.819 387.093 756.972 391.704C760.168 404.489 766.274 416.772 769.537 429.824C773.648 446.272 775.461 463.319 779.546 479.657C781.496 487.458 777.689 485.983 778.907 489.028C783.086 499.474 772.251 517.448 788.703 514.157C789.483 514.001 789.621 512.83 789.768 512.241C792.576 501.009 787.425 486.648 787.425 474.972C787.425 453.858 778.321 431.528 773.37 411.723C772.225 407.142 771.688 399.258 768.898 395.537C766.496 392.335 758.437 369.343 755.481 369.343C754.735 369.343 755.141 370.915 755.055 371.26C754.629 372.963 751.684 372.347 750.69 372.218Z" fill="#377235" fill-rule="nonzero" opacity="1" stroke="none" vectornator:layerName="Curve 15"/>
<path d="M757.024 457.305C758.909 457.267 758.63 449.74 758.423 447.879C757.587 440.36 751.09 429.057 745.903 423.87C743.985 421.953 740.435 419.88 738.097 418.126C736.735 417.105 732.303 414.566 733.825 415.328C737.015 416.922 741.217 423.281 744.283 423.281C745.231 423.281 738.806 416.546 736.918 415.917C729.679 413.504 723.982 409.686 716.298 408.405C712.214 407.724 678.871 408.877 677.855 410.909C675.611 415.396 696.62 427.474 700.832 428.878C703.25 429.684 704.161 432.688 706.871 433.592C707.933 433.946 709.522 436.773 709.522 435.654C709.522 434.069 700.65 426.955 700.243 428.584C699.348 432.166 711.735 435.877 713.794 437.421C719.719 441.865 726.903 443.681 733.531 446.995C740.057 450.258 746.442 456.704 753.562 458.484C754.681 458.763 756.269 457.321 757.024 457.305Z" fill="#377235" fill-rule="nonzero" opacity="1" stroke="none" vectornator:layerName="Curve 16"/>
<path d="M735.887 447.953C736.712 446.65 728.669 442.971 727.934 444.197C726.098 447.257 734.728 449.783 735.887 447.953Z" fill="#377235" fill-rule="nonzero" opacity="1" stroke="none" vectornator:layerName="Curve 17"/>
<path d="M701.863 426.964C700.517 426.964 699.003 426.208 697.592 426.08C692.057 425.577 709.729 434.682 705.987 430.94" fill="#377235" fill-rule="nonzero" opacity="1" stroke="none" vectornator:layerName="Curve 18"/>
<path d="M738.244 447.584C734.135 444.186 731.268 447.534 737.655 449.499C738.555 449.776 739.829 449.772 738.98 448.615C738.545 448.021 738.404 447.717 738.244 447.584Z" fill="#377235" fill-rule="nonzero" opacity="1" stroke="none" vectornator:layerName="Curve 19"/>
<path d="M780.941 487.876C781.531 485.072 781.939 480.32 779.654 478.105C779.158 477.624 778.401 476.893 777.847 477.665C776.496 479.548 779.803 493.279 780.941 487.876Z" fill="#377235" fill-rule="nonzero" opacity="1" stroke="none" vectornator:layerName="Curve 20"/>
<path d="M782.874 513.455C783.195 509.225 778.985 509.599 778.694 514.816C778.557 517.272 782.666 516.186 782.874 513.455Z" fill="#377235" fill-rule="nonzero" opacity="1" stroke="none" vectornator:layerName="Curve 21"/>
<path d="M780.686 510.721C776.761 504.694 778.507 515.112 780.614 513.227" fill="#377235" fill-rule="nonzero" opacity="1" stroke="none" vectornator:layerName="Curve 22"/>
<path d="M794.047 458.116C808.79 442.773 823.618 426.073 833.848 407.314C840.764 394.631 845.814 380.089 851.089 366.684C855.718 354.921 855.622 341.359 860.212 329.693C861.632 326.084 861.764 321.701 862.448 317.89C862.771 316.091 861.502 312.151 863.301 312.474C865.157 312.807 859.544 312.846 857.659 312.883C857.177 312.893 847.783 317.044 847.363 317.435C836.526 327.527 821.119 332.977 812.466 346.841C799.501 367.612 789.789 391.349 789.474 416.891C789.369 425.365 790.003 433.952 790.577 442.445C790.739 444.832 793.446 448.25 793.048 450.472" fill="#377235" fill-rule="nonzero" opacity="1" stroke="none" vectornator:layerName="Curve 23"/>
<path d="M793.433 450.304C793.795 450.024 794.901 446.42 793.81 446.224C793.064 446.09 791.489 451.806 793.433 450.304Z" fill="#377235" fill-rule="nonzero" opacity="1" stroke="none" vectornator:layerName="Curve 24"/>
<path d="M794.015 451.356C795.264 451.41 795.357 444.881 793.651 445.129C790.294 445.617 792.123 451.275 794.015 451.356Z" fill="#377235" fill-rule="nonzero" opacity="1" stroke="none" vectornator:layerName="Curve 25"/>
<path d="M793.448 452.202L793.416 451.723L793.716 450.71L793.819 450.136L793.922 449.562L793.984 449.218L793.816 448.832L793.607 448.676L793.033 448.573L792.877 448.782L792.606 448.971L792.409 449.409L792.368 449.639L792.13 450.307L791.912 450.86L791.829 451.319L791.841 451.914L791.894 452.279L792.062 452.665L792.271 452.821L792.501 452.862L792.73 452.903L792.98 452.829L793.022 452.6L793.104 452.141" fill="#377235" fill-rule="nonzero" opacity="1" stroke="none" vectornator:layerName="Curve 26"/>
<path d="M854.69 354.533C855.925 347.649 859.335 341.045 858.856 333.952C858.824 333.479 858.719 331.22 858.005 331.43C852.472 333.058 850.094 344.595 854.675 348.013" fill="#377235" fill-rule="nonzero" opacity="1" stroke="none" vectornator:layerName="Curve 27"/>
<path d="M858.145 337.913C860.108 337.378 859.615 333.022 859.945 331.185C859.97 331.044 860.677 328.741 859.991 328.942C855.392 330.296 852.224 339.526 858.145 337.913Z" fill="#377235" fill-rule="nonzero" opacity="1" stroke="none" vectornator:layerName="Curve 28"/>
<path d="M860.943 318.686C863.263 316.129 864.69 307.996 860.143 313.566C858.757 315.264 858.147 321.767 860.943 318.686Z" fill="#377235" fill-rule="nonzero" opacity="1" stroke="none" vectornator:layerName="Curve 29"/>
<path d="M830.228 332.372C829.721 333.563 832.04 330.365 833.268 329.955C834.21 329.641 844.905 324.045 842.251 321.495C841.465 320.739 839.737 323.243 839.272 323.567C834.009 327.23 832.492 327.051 830.228 332.372Z" fill="#377235" fill-rule="nonzero" opacity="1" stroke="none" vectornator:layerName="Curve 30"/>
<path d="M760.76 309.203C760.76 309.203 781.905 276.629 812.764 294.345C812.764 294.345 786.477 250.913 745.045 266.057C745.045 266.057 765.046 235.198 791.62 239.198C791.62 239.198 756.188 212.053 722.186 254.628C722.186 254.628 700.414 208.763 688.322 210.083C682.147 210.758 677.651 222.465 681.611 261.485C681.611 261.485 642.465 246.627 632.179 287.773C632.179 287.773 666.181 269.772 683.611 292.059C683.611 292.059 633.893 281.773 638.751 338.634C638.751 338.634 655.71 299.649 706.689 342.19C706.689 342.19 693.912 328.924 706.174 323.909C706.174 323.909 707.039 323.755 709.653 325.051C712.205 326.316 714.222 330.3 720.823 330.386L719.934 317.913C719.934 317.913 724.585 311.619 731.812 310.932C731.812 310.932 734.92 310.932 739.881 313.224C744.843 315.515 746.553 318.192 746.553 318.192C746.553 318.192 753.364 304.831 760.76 309.203Z" fill="#343f74" fill-rule="nonzero" opacity="1" stroke="#000000" stroke-linecap="butt" stroke-linejoin="round" stroke-width="1.95464" vectornator:layerName="Curve 31"/>
<path d="M737.926 312.624C737.926 312.624 678.809 244.948 686.655 212.452" fill="none" opacity="1" stroke="#000000" stroke-linecap="butt" stroke-linejoin="round" stroke-width="1.95464" vectornator:layerName="Curve 33"/>
<path d="M747.203 316.795C747.203 316.795 709.381 227.012 786.647 236.795" fill="none" opacity="1" stroke="#000000" stroke-linecap="butt" stroke-linejoin="round" stroke-width="1.95464" vectornator:layerName="Curve 34"/>
<path d="M746.937 315.689C746.937 315.689 749.538 251.325 807.868 289.178" fill="none" opacity="1" stroke="#000000" stroke-linecap="butt" stroke-linejoin="round" stroke-width="1.95464" vectornator:layerName="Curve 35"/>
<path d="M719.934 322.229C719.934 322.229 695.214 232.886 632.997 288.367" fill="none" opacity="1" stroke="#000000" stroke-linecap="butt" stroke-linejoin="round" stroke-width="1.95464" vectornator:layerName="Curve 36"/>
<path d="M719.934 323.151C719.934 323.151 675.664 272.356 638.254 332.672" fill="none" opacity="1" stroke="#000000" stroke-linecap="butt" stroke-linejoin="round" stroke-width="1.95464" vectornator:layerName="Curve 37"/>
<path d="M706.118 341.766C706.118 341.766 726.649 376.671 754.761 372.032C754.761 372.032 768.998 342.536 761.075 308.971C761.075 308.971 754.009 304.248 746.626 318.813C746.626 318.813 735.174 307.442 728.381 312.157C728.381 312.157 720.305 315.774 720.12 321.368C720.12 321.368 721.539 328.895 720.029 330.829C720.029 330.829 712.69 328.838 706.977 323.796C706.977 323.796 699.328 324.489 701.656 334.616L706.118 341.766Z" fill="#11055c" fill-rule="nonzero" opacity="1" stroke="#000000" stroke-linecap="butt" stroke-linejoin="round" stroke-width="1.95464" vectornator:layerName="Curve 39"/>
<path d="M749.565 371.969C749.565 371.969 786.226 457.572 778.162 515.204L790.111 514.428C790.111 514.428 787.766 420.283 756.094 369.311" fill="none" opacity="1" stroke="#000000" stroke-linecap="butt" stroke-linejoin="round" stroke-width="1.95464" vectornator:layerName="Curve 40"/>
<path d="M789.052 498.155L793.047 457.918C793.047 457.918 768.066 343.15 863.788 310.932C863.788 310.932 856.745 400.772 792.485 459.319" fill="none" opacity="1" stroke="#000000" stroke-linecap="butt" stroke-linejoin="round" stroke-width="1.95464" vectornator:layerName="Curve 41"/>
<path d="M792.894 457.226C792.894 457.226 809.204 351.865 855.622 319.263" fill="none" opacity="1" stroke="#000000" stroke-linecap="butt" stroke-linejoin="round" stroke-width="1.95464" vectornator:layerName="Curve 42"/>
<path d="M758.212 459.592C758.212 459.592 694.254 432.963 676.113 411.103C676.113 411.103 756.768 389.138 758.212 459.592Z" fill="none" opacity="1" stroke="#000000" stroke-linecap="butt" stroke-linejoin="round" stroke-width="1.95464" vectornator:layerName="Curve 43"/>
<path d="M677.55 411.224C677.55 411.224 734.771 416.122 759.215 460.902L779.07 488.738" fill="none" opacity="1" stroke="#000000" stroke-linecap="butt" stroke-linejoin="round" stroke-width="1.95464" vectornator:layerName="Curve 44"/>
</g>
</svg>
