<?xml version="1.0" encoding="UTF-8" standalone="no"?>
<!DOCTYPE svg PUBLIC "-//W3C//DTD SVG 1.1//EN" "http://www.w3.org/Graphics/SVG/1.1/DTD/svg11.dtd">
<!-- Created with Vectornator (http://vectornator.io/) -->
<svg height="100%" stroke-miterlimit="10" style="fill-rule:nonzero;clip-rule:evenodd;stroke-linecap:round;stroke-linejoin:round;" version="1.1" viewBox="387.845 549.646 160.615 330.907" width="100%" xml:space="preserve" xmlns="http://www.w3.org/2000/svg" xmlns:vectornator="http://vectornator.io" xmlns:xlink="http://www.w3.org/1999/xlink">
<defs/>
<g id="Layer-8-copy-copy-copy-copy-copy-copy-copy" vectornator:layerName="Layer 8 copy copy copy copy copy copy copy">
<path d="M451.806 550.355C448.608 552.737 444.656 553.793 441.151 555.791C439.321 556.835 439.672 559.37 437.401 560.231C435.823 560.83 430.114 566.439 432.138 565.131" fill="#377235" fill-rule="nonzero" opacity="1" stroke="none" vectornator:layerName="Curve 57"/>
<path d="M446.347 553.39C446.201 550.628 424.5 566.832 428.001 571.372C429.957 573.909 441.62 560.545 443.211 559.941C446.563 558.67 448.458 556.704 452.13 556.298C454.5 556.037 457.83 559.086 460.074 558.508C460.724 558.341 461.82 556.57 462.038 555.946C463.184 552.665 454.158 550.985 452.045 551.286C450.138 551.557 446.465 555.614 446.347 553.39Z" fill="#377235" fill-rule="nonzero" opacity="1" stroke="none" vectornator:layerName="Curve 58"/>
<path d="M451.536 551.098C450.228 549.606 444.959 553.867 445.905 554.426C448.573 556.002 453.637 553.492 451.536 551.098Z" fill="#377235" fill-rule="nonzero" opacity="1" stroke="none" vectornator:layerName="Curve 59"/>
<path d="M480.92 642.521C480.457 635.736 481.629 629.362 481.686 622.805C481.826 606.624 478.005 589.993 474.007 574.558C472.893 570.258 467.741 555.192 462.71 553.887C456.565 552.294 464.44 564.405 465.116 565.555C465.431 566.089 466.059 567.157 466.059 567.157C466.059 567.157 463.207 554.955 461.315 557.871C460.373 559.324 465.456 566.133 466.185 567.371C471.394 576.226 473.908 586.191 476.477 596.109C477.458 599.896 479.931 608.974 478.946 612.771C477.286 619.175 473.859 631.251 477.521 637.476" fill="#377235" fill-rule="nonzero" opacity="1" stroke="none" vectornator:layerName="Curve 60"/>
<path d="M478.042 619.054C476.075 615.711 477.306 611.092 476.527 607.437C474.505 597.949 472.726 588.126 469.527 578.919C467.777 573.879 466.665 569.41 463.891 564.694C463.32 563.724 458.695 557.831 459.769 557.199C462.185 555.778 469.084 568.808 469.458 569.758C472.449 577.354 484.941 607.094 479.82 614.989" fill="#377235" fill-rule="nonzero" opacity="1" stroke="none" vectornator:layerName="Curve 61"/>
<path d="M481.392 641.659C482.254 638.424 489.02 637.123 490.973 634.156C496.245 626.143 501.477 618.438 505.172 609.308C506.559 605.879 508.015 602.787 508.981 599.16C509.014 599.034 509.231 597.693 509.203 597.686C507.444 597.217 503.221 603.978 501.563 604.939C495.361 608.533 482.659 632.739 480.781 639.793" fill="#377235" fill-rule="nonzero" opacity="1" stroke="none" vectornator:layerName="Curve 62"/>
<path d="M463.534 732.656C464.789 732.656 466.92 719.371 468.547 716.658C472.351 710.319 472.127 701.21 473.56 694.048C476.015 681.77 479.105 669.146 479.105 656.4C479.105 653.158 483.404 636.015 477.612 634.857C474.1 634.154 474.185 644.97 473.773 647.441C471.576 660.62 468.284 673.335 466.094 686.476C464.093 698.481 459.949 710.122 457.988 721.884C457.794 723.048 457.537 733.083 456.175 733.083C454.528 733.083 456.389 731.29 456.815 730.949C458.72 729.425 458.742 726.659 459.375 724.444C459.559 723.8 459.5 721.208 459.375 721.458" fill="#377235" fill-rule="nonzero" opacity="1" stroke="none" vectornator:layerName="Curve 63"/>
<path d="M462.734 734.149C461.917 737.304 453.118 734.609 453.936 730.523C454.47 727.854 461.128 714.21 462.041 720.604C462.262 722.153 462.959 724.4 462.574 725.937C461.761 729.189 463.418 731.511 462.734 734.149Z" fill="#377235" fill-rule="nonzero" opacity="1" stroke="none" vectornator:layerName="Curve 64"/>
<path d="M458.522 717.725C458.522 717.363 457.785 717.036 457.455 716.872C454.431 715.359 450.846 712.258 449.35 708.766C447.397 704.209 443.706 701.564 441.244 697.461C437.8 691.721 437.986 685.709 436.338 679.117C435.134 674.302 438.087 659.984 441.777 656.293C441.866 656.205 442.282 655.62 442.417 655.654C446.878 656.769 449.459 667.61 450.416 671.438C453.895 685.353 459.908 698.204 459.908 713.032" fill="#377235" fill-rule="nonzero" opacity="1" stroke="none" vectornator:layerName="Curve 65"/>
<path d="M469.012 737.585C474.862 725.877 483.331 716.595 490.893 706.192C491.95 704.738 500.94 698.096 500.94 697.448C500.94 696.838 497.553 696.1 496.947 695.797C492.185 693.418 486.066 700.352 483.596 703.923C480.321 708.655 476.382 712.317 472.793 716.934C468.489 722.47 466.965 732.236 461.303 736.486" fill="#377235" fill-rule="nonzero" opacity="1" stroke="none" vectornator:layerName="Curve 66"/>
<path d="M453.706 729.566C450.773 753.426 446.385 776.377 446.435 800.771C446.458 812.051 453.814 823.648 454.286 834.657C454.649 843.118 466.032 866.961 471.226 873.612C472.568 875.33 479.65 882.756 480.452 876.228C480.74 873.89 464.103 848.029 462.388 842.402C456.224 822.183 450.745 795.016 456.512 773.696C459.078 764.211 462.74 754.687 465.107 745.288C465.899 742.143 466.611 737.208 468.408 734.5" fill="#377235" fill-rule="nonzero" opacity="1" stroke="none" vectornator:layerName="Curve 67"/>
<path d="M466.909 734.645C465.053 735.976 464.778 739.93 464.513 742.087C464.432 742.745 464.023 744.403 464.598 744.073C466.65 742.895 471.875 731.085 466.909 734.645Z" fill="#377235" fill-rule="nonzero" opacity="1" stroke="none" vectornator:layerName="Curve 68"/>
<path d="M449.239 753.974C445.929 763.569 445.766 775.992 445.221 786.107C445.097 788.396 445.395 795.332 448.632 795.546C451.474 795.734 451.248 787.1 451.336 785.608C451.956 775.026 454.575 764.838 454.685 754.258C454.717 751.2 453.581 748.831 453.211 746.031C452.954 744.089 452.244 745.395 452.569 745.266" fill="#377235" fill-rule="nonzero" opacity="1" stroke="none" vectornator:layerName="Curve 69"/>
<path d="M449.021 817.524C451.008 823.871 450.316 830.876 453.622 836.914C459.851 848.293 457.005 828.683 456.168 825.742C455.414 823.091 453.648 821.084 452.965 818.903" fill="#377235" fill-rule="nonzero" opacity="1" stroke="none" vectornator:layerName="Curve 70"/>
<path d="M456.917 842.742C423.466 835.818 411.592 830.847 395.39 800.516C394.154 798.202 387.771 779.202 388.451 778.029C388.579 777.809 390.158 778.281 390.324 778.315C396.979 779.693 402.822 783.641 408.764 786.505C424.008 793.851 431.048 808.797 443.88 818.281C447.75 821.142 449.88 827.132 452.15 831.383C452.619 832.26 456.443 837.624 455.997 837.365" fill="#377235" fill-rule="nonzero" opacity="1" stroke="none" vectornator:layerName="Curve 71"/>
<path d="M454.093 841.649C446.069 843.779 435.498 838.401 428.531 835.443C425.78 834.274 421.156 832.005 419.981 829.097C419.909 828.919 419.093 826.982 419.097 826.981C420.896 826.504 423.919 830.387 425.69 830.99C431.68 833.031 438.015 834.626 444.13 836.231C446.242 836.785 448.039 837.415 449.698 838.807C449.841 838.927 452.809 840.827 452.731 840.859C452.484 840.958 451.096 840.52 450.878 840.475" fill="#377235" fill-rule="nonzero" opacity="1" stroke="none" vectornator:layerName="Curve 72"/>
<path d="M472.199 874.823C469.768 875.52 475.097 879.366 476.576 879.079C477.055 878.986 476.845 878.451 476.803 878.189C476.182 874.33 475.119 873.985 472.199 874.823Z" fill="#377235" fill-rule="nonzero" opacity="1" stroke="none" vectornator:layerName="Curve 73"/>
<path d="M461.194 837.545C461.98 835.973 461.215 833.415 461.56 831.691C463.789 820.546 465.455 808.923 467.688 797.758C469.547 788.462 481.27 775.797 491.835 777.91C495.084 778.56 500.359 781.736 502.902 783.855C504.618 785.285 504.196 788.029 506.652 788.52C506.833 788.556 508.353 790.537 507.968 790.922C507.909 790.981 507.628 788.997 506.618 787.9C505.601 786.796 504.551 785.641 504.365 785.501C503.436 784.805 502.627 788.52 502.627 788.52C502.627 788.52 502.533 786.202 503.841 786.493C504.791 786.704 506.816 790.056 507.465 790.922C511.405 796.175 509.938 817.059 503.542 819.618C500.32 820.907 491.876 817.722 489.091 816.051C485.48 813.884 485.482 805.475 486.621 802.056C486.924 801.147 488.912 796.566 488.908 796.569C483.784 799.984 489.983 818.96 499.792 816.508C516.47 812.339 505.65 785.246 493.664 782.849C490.886 782.293 487.303 783.948 484.792 784.953C467.144 792.012 468.798 813.539 467.322 829.77C466.823 835.264 467.139 841.038 467.139 846.508C467.139 847.059 467.882 856.135 466.682 853.734" fill="#377235" fill-rule="nonzero" opacity="1" stroke="none" vectornator:layerName="Curve 74"/>
<path d="M466.09 801.682C466.09 800.652 465.556 803.681 465.442 804.705C465.287 806.097 465.156 807.45 464.795 808.807C464.094 811.435 461.078 825.64 463.553 826.347C465.303 826.847 465.958 821.059 466.144 820.249C467.404 814.749 467.763 806.648 467.763 802.384" fill="#377235" fill-rule="nonzero" opacity="1" stroke="none" vectornator:layerName="Curve 75"/>
<path d="M506.006 787.47C505.304 786.553 501.494 782.251 500.453 784.218C498.999 786.966 504.63 790.99 507.093 790.458C508.145 790.231 506.713 787.912 505.926 787.834" fill="#377235" fill-rule="nonzero" opacity="1" stroke="none" vectornator:layerName="Curve 76"/>
<path d="M505.789 815.013C508.846 811.795 512.656 802.563 510.714 798.243C510.351 797.436 510.857 794.438 509.842 794.029C508.969 793.677 508.453 797.23 508.398 797.589C507.875 801.006 507.957 805.555 506.798 808.79C506.403 809.895 503.516 815.744 504.116 815.156" fill="#377235" fill-rule="nonzero" opacity="1" stroke="none" vectornator:layerName="Curve 77"/>
<path d="M515.114 735.886C514.7 736.586 508.952 736.532 507.33 736.455C501.12 736.162 494.763 738.754 489.196 741.435C484.586 743.655 479.855 744.928 475.188 746.945C471.857 748.385 469.115 751.224 465.817 752.741C465.505 752.884 458.599 755.62 459.295 756.698C459.581 757.141 469.335 756.025 470.469 756.042C481.38 756.204 495.326 757.985 505.362 751.508C509.426 748.885 512.566 745.557 516.153 742.443C518.037 740.807 516.742 736.976 517.069 737.482" fill="#377235" fill-rule="nonzero" opacity="1" stroke="none" vectornator:layerName="Curve 78"/>
<path d="M446.075 765.51C444.501 762.952 436.984 762.072 434.71 759.848C423.109 748.503 414.262 738.665 411.814 722.094C411.524 720.129 409.152 709.062 411.481 708.2C414.627 707.037 430.386 724.854 432.378 728.091C433.741 730.307 434.928 732.597 436.279 734.794C436.975 735.924 439.297 739.157 438.602 738.027C437.272 735.867 427.774 726.336 432.867 728.345C433.793 728.711 435.031 730.698 435.691 731.492C440.838 737.685 443.606 747.075 445.952 754.485C446.822 757.234 447.408 759.931 447.667 762.866C447.733 763.612 448.812 767.193 448.162 766.557" fill="#377235" fill-rule="nonzero" opacity="1" stroke="none" vectornator:layerName="Curve 79"/>
<path d="M433.75 758.107C428.99 754.119 413.454 742.533 416.378 734.383C418.768 727.721 438.787 732.782 440.812 741.44" fill="#377235" fill-rule="nonzero" opacity="1" stroke="none" vectornator:layerName="Curve 80"/>
<path d="M423.376 748.283C424.438 750.009 430.657 760.831 433.973 757.748C437.742 754.244 423.885 744.635 425.525 749.07" fill="#377235" fill-rule="nonzero" opacity="1" stroke="none" vectornator:layerName="Curve 81"/>
<path d="M482.287 781.003C481.93 780.936 482.515 779.657 482.676 779.983C482.762 780.157 481.658 780.766 481.546 780.825C479.114 782.11 477.05 783.591 474.975 785.38C462.992 795.715 461.661 803.121 461.367 818.401C461.339 819.858 461.406 832.706 463.002 833.386C463.153 833.451 463.325 833.393 463.465 833.353C464.073 833.179 463.982 831.662 464.034 831.155C464.622 825.366 465.048 819.748 465.937 814.029C466.898 807.843 468.161 800.399 471.595 794.98C472.428 793.666 478.334 786.276 478.119 785.351C477.178 781.295 472.576 786.596 471.795 787.628" fill="#377235" fill-rule="nonzero" opacity="1" stroke="none" vectornator:layerName="Curve 82"/>
<path d="M473.329 786.325C473.068 786.521 467.663 791.818 467.871 791.942C470.96 793.783 477.977 784.44 474.705 785.231C474.461 785.29 474.351 785.386 474.258 785.604" fill="#377235" fill-rule="nonzero" opacity="1" stroke="none" vectornator:layerName="Curve 83"/>
<path d="M413.35 591.464C413.35 591.464 377.466 612.419 395.408 628.47C395.408 628.47 403.952 636.05 415.914 623.12C415.914 623.12 424.885 652.547 437.273 645.859C449.662 639.171 456.872 630.709 442.768 595.696C442.768 595.696 421.385 595.111 413.35 591.464Z" fill="#343f74" fill-rule="nonzero" opacity="1" stroke="#000000" stroke-linecap="butt" stroke-linejoin="round" stroke-width="1.95464" vectornator:layerName="Curve 84"/>
<path d="M413.183 591.029C413.183 591.029 411.576 575.671 428.665 570.508C428.665 570.508 450.253 578.434 442.73 595.633C442.565 596.01 439.987 595.247 439.796 595.633" fill="#11055c" fill-rule="nonzero" opacity="1" stroke="#000000" stroke-linecap="butt" stroke-linejoin="round" stroke-width="1.95464" vectornator:layerName="Curve 86"/>
<path d="M427.811 570.026C427.811 570.026 454.206 528.744 471.243 566.611C471.243 566.611 485.202 600.334 479.962 641.873C479.962 641.873 497.476 601.882 509.599 597.073C509.599 597.073 500.52 630.812 480.651 641.59C480.651 641.59 477.166 700.347 463.283 734.062C463.283 734.062 462.54 725.706 462.871 734.073C462.871 734.073 480.616 703.547 494.444 695.552C494.444 695.552 492.83 666.802 494.206 659.255C494.206 659.255 494.86 633.055 516.21 665.727C516.21 665.727 542.779 655.564 535.761 680.958C535.761 680.958 521.789 702.693 493.261 696.1L494.166 677.991" fill="none" opacity="0.976744" stroke="#000000" stroke-linecap="butt" stroke-linejoin="round" stroke-width="1.95464" vectornator:layerName="Curve 88"/>
<path d="M494.206 678.404L514.086 696.497" fill="none" opacity="1" stroke="#000000" stroke-linecap="butt" stroke-linejoin="round" stroke-width="1.95464" vectornator:layerName="Curve 89"/>
<path d="M506.006 651.931C506.006 651.931 528.831 636.931 529.964 662.879C529.964 662.879 527.336 662.288 517.432 664.97C517.432 664.97 510.41 656.365 506.006 651.931Z" fill="#343f74" fill-rule="nonzero" opacity="1" stroke="#000000" stroke-linecap="butt" stroke-linejoin="round" stroke-width="1.95464" vectornator:layerName="Curve 90"/>
<path d="M530.105 663.547C530.105 663.547 545.288 659.347 547.482 672.004C547.482 672.004 547.576 687.45 532.068 686C532.068 686 544.239 669.611 530.105 663.547Z" fill="#343f74" fill-rule="nonzero" opacity="1" stroke="#000000" stroke-linecap="butt" stroke-linejoin="round" stroke-width="1.95464" vectornator:layerName="Curve 91"/>
<path d="M499.456 698.067C499.456 698.067 467.137 729.785 462.452 753.814C462.452 753.814 500.216 730.507 518.575 737.162C518.575 737.162 505.33 765.404 461.628 754.784C461.628 754.784 437.848 811.078 480.936 877.734L475.043 879.576C475.043 879.576 462.522 864.108 457.919 842.749C457.919 842.749 402.296 847.263 388.822 777.799C388.822 777.799 426.016 785.051 455.344 837.815C455.344 837.815 440.571 804.829 447.843 766.132C447.843 766.132 409.085 757.569 410.867 707.268C410.867 707.268 445.967 727.539 447.791 766.297C447.791 766.297 450.711 735.247 458.487 718.093C458.487 718.093 422.819 688.542 442.621 655.145C442.621 655.145 462.741 693.055 458.976 717.909C458.976 717.909 479.366 639.328 476.816 610.066C476.816 610.066 469.112 522.104 431.138 571.816" fill="none" opacity="1" stroke="#000000" stroke-linecap="butt" stroke-linejoin="round" stroke-width="1.95464" vectornator:layerName="Curve 92"/>
<path d="M461.665 835.33C461.665 835.33 452.633 779.433 492.382 778.424C492.382 778.424 524.365 790.506 503.841 819.962C503.841 819.962 475.542 822.763 490.225 795.106C490.225 795.106 480.781 815.197 501.354 817.213C501.354 817.213 515.255 804.955 502.428 790.274C502.428 790.274 494.303 774.299 475.469 791.619C475.469 791.619 461.079 814.825 469.088 856.618" fill="none" opacity="1" stroke="#000000" stroke-linecap="butt" stroke-linejoin="round" stroke-width="1.95464" vectornator:layerName="Curve 93"/>
<path d="M420.443 633.392C404.421 664.402 394.771 628.354 394.771 628.354C394.771 628.354 404.451 636.913 416.117 622.888C416.117 622.888 415.987 630.383 420.443 633.392" fill="#343f74" fill-rule="nonzero" opacity="1" stroke="#000000" stroke-linecap="butt" stroke-linejoin="round" stroke-width="1.95464" vectornator:layerName="Curve 94"/>
<path d="M442.73 595.633C442.73 595.633 454.965 606.327 458.68 615.947C461.01 621.98 459.99 627.59 450.502 629.877C450.502 629.877 451.468 613.197 442.73 595.633Z" fill="#343f74" fill-rule="nonzero" opacity="1" stroke="#000000" stroke-linecap="butt" stroke-linejoin="round" stroke-width="1.95464" vectornator:layerName="Curve 95"/>
<path d="M463.428 731.909C463.321 731.838 463.214 731.767 463.108 731.696" fill="#377235" fill-rule="nonzero" opacity="1" stroke="none" vectornator:layerName="Curve 96"/>
<path d="M494.644 678.431L514.222 695.87C514.222 695.87 522.655 696.23 535.614 682.253C535.614 682.253 546.391 657.288 516.217 664.97C516.217 664.97 490.333 623.877 494.644 678.431Z" fill="#343f74" fill-rule="nonzero" opacity="0.976744" stroke="#000000" stroke-linecap="butt" stroke-linejoin="round" stroke-width="1.95464" vectornator:layerName="Curve 100"/>
<path d="M494.202 678.025L494.069 694.804C494.069 694.804 506.312 700.365 513.828 694.545C513.828 694.545 501.345 685.755 494.202 678.025Z" fill="#11055c" fill-rule="nonzero" opacity="0.976744" stroke="#000000" stroke-linecap="butt" stroke-linejoin="round" stroke-width="1.95464" vectornator:layerName="Curve 101"/>
</g>
</svg>
