<?xml version="1.0" encoding="UTF-8" standalone="no"?>
<!DOCTYPE svg PUBLIC "-//W3C//DTD SVG 1.1//EN" "http://www.w3.org/Graphics/SVG/1.1/DTD/svg11.dtd">
<!-- Created with Vectornator (http://vectornator.io/) -->
<svg height="100%" stroke-miterlimit="10" style="fill-rule:nonzero;clip-rule:evenodd;stroke-linecap:round;stroke-linejoin:round;" version="1.1" viewBox="1160.46 202.414 167.92 312.863" width="100%" xml:space="preserve" xmlns="http://www.w3.org/2000/svg" xmlns:vectornator="http://vectornator.io" xmlns:xlink="http://www.w3.org/1999/xlink">
<defs/>
<g id="Layer-7-copy-copy" vectornator:layerName="Layer 7 copy copy">
<path d="M1168.54 320.275C1167.48 322.517 1173.82 349.039 1174.86 354.164C1177.41 366.706 1175.5 381.118 1175.3 393.781C1175.01 411.833 1179.21 429.753 1188.63 445.467C1196.36 458.351 1205.24 469.463 1215.29 480.845C1216.3 481.994 1228.37 488.97 1228.6 487.153" fill="#377235" fill-rule="nonzero" opacity="1" stroke="none" vectornator:layerName="Curve 46"/>
<path d="M1185.47 440.322C1188.86 449.802 1194.85 459.427 1202 466.277C1204.48 468.658 1207.75 470.215 1210.29 472.396C1211.38 473.333 1214.63 476.174 1213.59 475.178" fill="#377235" fill-rule="nonzero" opacity="1" stroke="none" vectornator:layerName="Curve 47"/>
<path d="M1191.96 454.345C1196.88 459.056 1200.56 464.63 1205.17 469.603C1206.73 471.288 1211.47 472.008 1211.57 472.27" fill="#377235" fill-rule="nonzero" opacity="1" stroke="none" vectornator:layerName="Curve 48"/>
<path d="M1202.57 467.888C1211.13 482.161 1214 469.043 1208.49 466.435" fill="#377235" fill-rule="nonzero" opacity="1" stroke="none" vectornator:layerName="Curve 49"/>
<path d="M1162.21 311.313C1171.22 319.953 1174.31 335.873 1180.75 346.616C1184.66 353.143 1188 359.83 1191.93 366.39C1194.91 371.349 1194.89 378.375 1198.09 383.173C1207.54 397.366 1219.46 427.918 1221.95 444.962C1222.76 450.471 1221.2 455.996 1221.95 461.137C1223.07 468.778 1227.93 478.206 1227 485.908" fill="#377235" fill-rule="nonzero" opacity="1" stroke="none" vectornator:layerName="Curve 50"/>
<path d="M1173.2 349.971C1172.34 353.388 1175.23 390.242 1182.78 382.365C1184.05 381.037 1181.76 369.239 1182.34 366.346" fill="#377235" fill-rule="nonzero" opacity="1" stroke="none" vectornator:layerName="Curve 51"/>
<path d="M1237.18 320.002C1227.17 340.022 1225.71 362.411 1223.28 384.278C1221.28 402.284 1219.11 420.853 1221.4 439.145C1222.49 447.873 1224.89 456.413 1225.45 465.347C1225.88 472.199 1225.34 479.604 1226.46 486.338C1227.26 491.149 1229.65 495.604 1229.65 500.525C1229.65 503.775 1230.84 512.947 1234.42 513.844C1236.8 514.438 1241.83 512.458 1243.69 511.528C1244.77 510.987 1239.4 500.461 1239.06 499.078C1237.38 492.351 1238.1 485.198 1235.87 478.521C1231.08 464.154 1233.58 449.968 1230.66 435.381C1225.58 409.953 1231.47 383.649 1235.58 358.944C1236.17 355.437 1243.26 321.953 1243.69 321.739" fill="#377235" fill-rule="nonzero" opacity="1" stroke="none" vectornator:layerName="Curve 52"/>
<path d="M1220.82 443.053C1220.82 451.334 1217.64 465.942 1221.54 473.744C1223.55 477.76 1227.35 483.794 1228.63 487.641C1228.98 488.665 1229.21 490.826 1229.21 490.826C1229.21 490.826 1227.05 483.721 1225.88 485.47C1224.98 486.827 1231.44 510.357 1232.54 513.12C1232.6 513.27 1232.68 513.914 1232.83 513.989C1233.49 514.319 1234.53 512.936 1234.86 512.541C1239.13 507.413 1233.16 495.252 1232.4 489.378C1230.61 475.541 1231.15 454.897 1224.87 442.33" fill="#377235" fill-rule="nonzero" opacity="1" stroke="none" vectornator:layerName="Curve 53"/>
<path d="M1293.08 359.11C1291.53 364.936 1288.4 370.392 1286.32 376.081C1282.22 387.286 1280.84 400.046 1275.01 410.612C1273.48 413.374 1273.65 417.307 1272.22 420.207C1265.62 433.629 1262.53 447.712 1254.84 460.608C1250.65 467.618 1232.77 489.224 1237.32 497.054C1239.55 500.9 1246.68 498.449 1249.48 497.316C1260.13 493.016 1269.58 485.056 1274.17 473.228C1284.78 445.914 1290.21 416.728 1291.99 388.277C1292.47 380.484 1295.17 369.199 1293.71 362.126" fill="#377235" fill-rule="nonzero" opacity="1" stroke="none" vectornator:layerName="Curve 54"/>
<path d="M1253.31 492.276C1252.54 492.959 1244.55 498.089 1247.39 499.374C1249.54 500.346 1257.21 495.651 1258.28 493.713C1258.8 492.772 1260.04 488.537 1259.66 488.972" fill="#377235" fill-rule="nonzero" opacity="1" stroke="none" vectornator:layerName="Curve 55"/>
<path d="M1246.63 253.797L1246.05 214.946C1246.05 214.946 1258.81 184.794 1270.4 221.905L1268.37 253.507L1295.05 229.443C1295.05 229.443 1322.35 218.587 1310.73 245.898L1280.85 267.352L1320.03 268.423C1320.03 268.423 1339.19 280.727 1315.72 287.629L1281.76 286.064L1303.41 308.121C1303.41 308.121 1310.24 332.675 1290.72 321.876L1265.82 293.084L1265.14 331.327C1265.14 331.327 1257.99 348.02 1247.33 330.12L1250.14 291.392L1229.84 326.083C1229.84 326.083 1208.64 340.041 1215.07 314.175L1233.08 286.665L1205.2 292.117L1195.43 294.029C1195.43 294.029 1181.47 288.029 1203.88 276.162L1236.11 268.962L1204.61 246.525C1204.61 246.525 1185.12 220.162 1219.81 231.139L1246.63 253.797Z" fill="#ffc7e7" fill-rule="nonzero" opacity="1" stroke="#000000" stroke-linecap="butt" stroke-linejoin="round" stroke-width="1.95464" vectornator:layerName="Curve 56"/>
<path d="M1218.35 230.602C1218.35 230.602 1224.18 200.131 1246.19 219.385L1246.95 254.079L1218.35 230.602Z" fill="#ffafdf" fill-rule="nonzero" opacity="1" stroke="#000000" stroke-linecap="butt" stroke-linejoin="round" stroke-width="1.95464" vectornator:layerName="Curve 57"/>
<path d="M1295.45 230.078C1298.93 192.622 1270.68 221.385 1270.68 221.385L1268.51 254.028L1271.01 251.229L1272.85 249.309L1273.02 249.25L1295.45 229.071" fill="#ffafdf" fill-rule="nonzero" opacity="1" stroke="#000000" stroke-linecap="butt" stroke-linejoin="round" stroke-width="1.95464" vectornator:layerName="Curve 58"/>
<path d="M1311.17 245.334C1311.17 245.334 1338.7 248.996 1315.57 267.743L1282.05 266.446L1311.17 245.334Z" fill="#ffafdf" fill-rule="nonzero" opacity="1" stroke="#000000" stroke-linecap="butt" stroke-linejoin="round" stroke-width="1.95464" vectornator:layerName="Curve 59"/>
<path d="M1315.04 288.2C1315.04 288.2 1326.49 306.243 1301.65 307.48L1282.56 286.261L1315.04 288.2Z" fill="#ffafdf" fill-rule="nonzero" opacity="1" stroke="#000000" stroke-linecap="butt" stroke-linejoin="round" stroke-width="1.95464" vectornator:layerName="Curve 60"/>
<path d="M1285.51 316.355C1285.51 316.355 1282.6 341.172 1265.65 323.739L1266.02 294.021L1285.51 316.355Z" fill="#ffafdf" fill-rule="nonzero" opacity="1" stroke="#000000" stroke-linecap="butt" stroke-linejoin="round" stroke-width="1.95464" vectornator:layerName="Curve 61"/>
<path d="M1218.15 308.891C1218.15 308.891 1190.44 317.538 1205.25 291.94L1232.98 287.148L1218.5 309.138" fill="#ffafdf" fill-rule="nonzero" opacity="1" stroke="#000000" stroke-linecap="butt" stroke-linejoin="round" stroke-width="1.95464" vectornator:layerName="Curve 62"/>
<path d="M1202.46 275.642C1202.46 275.642 1177.24 262.533 1211.31 251.012L1235.94 269.03L1202.54 276.388" fill="#ffafdf" fill-rule="nonzero" opacity="1" stroke="#000000" stroke-linecap="butt" stroke-linejoin="round" stroke-width="1.95464" vectornator:layerName="Curve 63"/>
<path d="M1248.61 321.353C1248.61 321.353 1238.64 323.558 1235.08 316.795L1250.05 292.858L1247.86 321.614" fill="#ffafdf" fill-rule="nonzero" opacity="1" stroke="#000000" stroke-linecap="butt" stroke-linejoin="round" stroke-width="1.95464" vectornator:layerName="Curve 64"/>
<path d="M1242.55 271.281C1242.55 262.107 1249.8 254.67 1258.74 254.67C1267.69 254.67 1274.94 262.107 1274.94 271.281C1274.94 280.455 1267.69 287.892 1258.74 287.892C1249.8 287.892 1242.55 280.455 1242.55 271.281Z" fill="#e0f7fd" fill-rule="nonzero" opacity="1" stroke="#000000" stroke-linecap="butt" stroke-linejoin="round" stroke-width="1.95464" vectornator:layerName="Oval 2"/>
<path d="M1237.59 319.503C1237.59 319.503 1203.77 385.366 1231.47 513.955C1231.47 513.955 1239.75 515.473 1243.84 512.131C1243.84 512.131 1211.53 420.647 1243.09 321.892" fill="none" opacity="1" stroke="#000000" stroke-linecap="butt" stroke-linejoin="round" stroke-width="1.95464" vectornator:layerName="Curve 65"/>
<path d="M1236.69 488.924C1236.69 488.924 1253.22 465.419 1264.26 439.768L1294.3 355.912C1294.3 355.912 1290.87 502.026 1241 499.711" fill="none" opacity="1" stroke="#000000" stroke-linecap="butt" stroke-linejoin="round" stroke-width="1.95464" vectornator:layerName="Curve 67"/>
<path d="M1224.61 487.343C1224.61 487.343 1172.63 457.354 1175.47 386.547C1175.47 386.547 1175.14 325.882 1161.44 308.971C1161.44 308.971 1216.69 406.173 1221.6 452.556" fill="none" opacity="1" stroke="#000000" stroke-linecap="butt" stroke-linejoin="round" stroke-width="1.95464" vectornator:layerName="Curve 68"/>
<path d="M1184.32 367.603C1184.32 367.603 1178.6 440.312 1229.02 487.414" fill="none" opacity="1" stroke="#000000" stroke-linecap="butt" stroke-linejoin="round" stroke-width="1.95464" vectornator:layerName="Curve 69"/>
<path d="M1270.68 454.543C1270.68 454.543 1257.04 486.264 1241.38 500.311" fill="none" opacity="1" stroke="#000000" stroke-linecap="butt" stroke-linejoin="round" stroke-width="1.95464" vectornator:layerName="Curve 70"/>
<path d="M1164.89 297.599C1163.4 293.591 1162.34 289.131 1160.46 285.284" fill="#377235" fill-rule="nonzero" opacity="1" stroke="none" vectornator:layerName="Curve 71"/>
</g>
</svg>
