<?xml version="1.0" encoding="UTF-8" standalone="no"?>
<!DOCTYPE svg PUBLIC "-//W3C//DTD SVG 1.1//EN" "http://www.w3.org/Graphics/SVG/1.1/DTD/svg11.dtd">
<!-- Created with Vectornator (http://vectornator.io/) -->
<svg height="100%" stroke-miterlimit="10" style="fill-rule:nonzero;clip-rule:evenodd;stroke-linecap:round;stroke-linejoin:round;" version="1.1" viewBox="336.044 209.106 225.246 326.132" width="100%" xml:space="preserve" xmlns="http://www.w3.org/2000/svg" xmlns:vectornator="http://vectornator.io" xmlns:xlink="http://www.w3.org/1999/xlink">
<defs/>
<g id="Layer-4-copy-copy-copy-copy-copy-copy-copy-copy-copy-copy" vectornator:layerName="Layer 4 copy copy copy copy copy copy copy copy copy copy">
<path d="M448.179 354.661C439.257 385.154 435.746 414.223 433.023 445.343C432.554 450.702 433.465 480.898 431.252 483.281C430.706 483.869 429.632 481.286 429.437 480.929C425.906 474.477 427.726 465.579 424.057 458.876C416.185 444.49 415.411 421.288 398.702 412.545C388.605 407.263 383.357 426.874 379.257 432.341C379.15 432.485 378.541 433.952 378.347 433.896C377.512 433.651 381.876 429.664 382.186 429.33C384.678 426.646 394.437 419.549 392.026 415.143C391.845 414.812 391.373 414.656 391.039 414.627C390.243 414.557 369.961 436.373 368.445 438.963C368.288 439.231 350.202 454.809 348.872 455.308C345.886 456.428 338.112 458.171 337.022 460.032C336.408 461.081 344.946 463.261 345.79 463.508C353.524 465.771 363.744 464.611 370.819 461.957C373.878 460.81 355.499 462.481 361.714 464.299C362.67 464.579 364.417 462.702 365.446 462.433C375.648 459.765 390.142 448.913 401.165 454.68C410.463 459.545 394.683 449.136 395.112 453.592C395.204 454.553 406.797 461.642 408.46 463.186C410.029 464.643 422.083 485.819 422.73 488.297C424.857 496.429 431.061 504.171 432.057 512.415C432.776 518.369 428.692 525.888 431.578 531.162C433.905 535.413 440.272 533.728 443.709 534.029C445.345 534.172 441.875 528.157 441.925 526.908C442.148 521.287 440.447 515.121 441.136 509.383C443.501 489.687 450.51 460.476 470.624 452.932C491.842 444.973 505.64 492.09 518.805 499.797C522.824 502.15 543.992 512.486 546.223 504.861C548.033 498.673 534.486 485.248 531.017 480.615C520.348 466.365 488.566 427.309 467.888 435.065C457.57 438.935 450.896 450.61 446.848 460.31C446.092 462.121 441.738 478.612 440.045 478.117C436.872 477.189 441.305 449.748 441.331 445.726C441.474 423.223 447.997 402.56 450.656 380.416C452.247 367.166 454.229 352.651 457.932 339.993" fill="#377235" fill-rule="nonzero" opacity="1" stroke="none" vectornator:layerName="Curve 1"/>
<path d="M455.859 342.417C455.176 347.585 452.725 353.224 452.779 358.373C452.781 358.588 452.4 360.819 452.863 360.88C457.483 361.491 457.705 342.086 457.991 339.926" fill="#377235" fill-rule="nonzero" opacity="1" stroke="none" vectornator:layerName="Curve 2"/>
<path d="M447.415 354.89C439.658 366.348 442.078 383.803 437.758 396.463C437.316 397.756 436.122 410.099 438.707 409.207C440.611 408.551 446.172 395.136 445.414 394.147C445.058 393.683 441.929 399.146 441.658 399.475C439.823 401.698 438.314 398.15 437.364 401.542C437.052 402.653 433.199 413.61 436.133 413.998C440.033 414.513 439.958 403.06 440.316 401.239C442.701 389.092 447.104 377.164 448.743 364.773" fill="#377235" fill-rule="nonzero" opacity="1" stroke="none" vectornator:layerName="Curve 3"/>
<path d="M493.257 466.238C493.668 466.303 486.945 459.808 484.464 458.521C482.471 457.487 479.521 454.974 477.087 454.995C475.256 455.01 464.702 456.037 463.497 454.927C463.296 454.742 463.517 452.62 463.613 452.395C467.783 442.576 497.513 451.25 495.188 465.976" fill="#377235" fill-rule="nonzero" opacity="1" stroke="none" vectornator:layerName="Curve 4"/>
<path d="M515.03 459.948C510.673 456.836 490.649 434.904 484.95 439.896C484.08 440.658 490.61 446.641 491.226 447.405C492.969 449.566 515.706 471.217 516.728 464.75" fill="#377235" fill-rule="nonzero" opacity="1" stroke="none" vectornator:layerName="Curve 5"/>
<path d="M447.078 463.915C445.085 464.191 442.855 467.987 443.647 468.437C446.798 470.229 449.988 463.512 447.078 463.915Z" fill="#377235" fill-rule="nonzero" opacity="1" stroke="none" vectornator:layerName="Curve 6"/>
<path d="M446.033 463.757C445.601 464.454 445.187 465.163 444.749 465.855C443.621 467.638 443.877 467.681 445.697 466.659C448.191 465.26 450.375 458.518 447.066 460.96" fill="#377235" fill-rule="nonzero" opacity="1" stroke="none" vectornator:layerName="Curve 7"/>
<path d="M428.266 500.681C427.339 502.928 429.616 505.925 430.358 507.709C431.699 510.933 430.007 515.269 431.123 518.667C431.331 519.3 431.7 520.282 432.465 520.395C437.245 521.099 433.402 505.349 430.198 502.579" fill="#377235" fill-rule="nonzero" opacity="1" stroke="none" vectornator:layerName="Curve 8"/>
<path d="M440.969 525.223C440.839 526.105 441.592 532.897 443.785 531.742C445.459 530.86 441.191 522.985 440.783 521.403" fill="#377235" fill-rule="nonzero" opacity="1" stroke="none" vectornator:layerName="Curve 9"/>
<path d="M432.965 459.391C430.501 465.364 431.045 470.902 431.302 477.127C431.332 477.863 432.142 482.593 433.059 482.475C435.138 482.208 436.51 464.803 434.75 462.182" fill="#377235" fill-rule="nonzero" opacity="1" stroke="none" vectornator:layerName="Curve 10"/>
<path d="M438.781 466.377C437.66 469.603 437.391 474.004 438.52 477.241C438.6 477.472 438.774 477.987 439.033 477.6C440.736 475.048 440.376 461.785 438.781 466.377Z" fill="#377235" fill-rule="nonzero" opacity="1" stroke="none" vectornator:layerName="Curve 11"/>
<path d="M447.051 479.512C446.986 479.67 444.134 486.884 444.918 486.999C448.937 487.591 450.726 469.968 450.569 472.229" fill="#377235" fill-rule="nonzero" opacity="1" stroke="none" vectornator:layerName="Curve 12"/>
<path d="M393.099 412.114C389.233 411.199 374.102 431.924 370.475 435.595C369.418 436.665 363.837 442.264 364.68 443.168C367.604 446.306 386.201 431.933 382.905 429.177" fill="#377235" fill-rule="nonzero" opacity="1" stroke="none" vectornator:layerName="Curve 13"/>
<path d="M395.99 451.302C394.284 450.817 390.412 454.112 392.983 454.515C395.549 454.919 399.587 452.325 395.99 451.302Z" fill="#377235" fill-rule="nonzero" opacity="1" stroke="none" vectornator:layerName="Curve 14"/>
<path d="M458.974 327.627C458.713 327.627 459.233 326.011 459.345 325.747C459.745 324.795 464.621 311.655 467.149 314.183C469.783 316.817 467.103 328.163 464.642 330.931C464.103 331.537 459.288 335.078 459.288 332.611" fill="#de834e" fill-rule="nonzero" opacity="1" stroke="none" vectornator:layerName="Curve 29"/>
<path d="M449.751 291.94C449.751 291.94 352.093 262.05 416.049 216.367C416.049 216.367 478.019 179.423 473.649 284.693" fill="#de834e" fill-rule="nonzero" opacity="1" stroke="#000000" stroke-linecap="butt" stroke-linejoin="round" stroke-width="1.95464" vectornator:layerName="Curve 15"/>
<path d="M473.87 284.078C473.87 284.078 494.742 177.25 546.711 253.766C546.711 253.766 604.768 326.821 480.989 306.621" fill="#de834e" fill-rule="nonzero" opacity="1" stroke="#000000" stroke-linecap="butt" stroke-linejoin="round" stroke-width="1.95464" vectornator:layerName="Curve 16"/>
<path d="M482.972 307.015C482.972 307.015 499.129 309.525 513.293 318.069C538.366 333.194 562.604 361.389 518.526 386.369C518.526 386.369 467.981 424.032 460.38 333.367" fill="#de834e" fill-rule="nonzero" opacity="1" stroke="#000000" stroke-linecap="butt" stroke-linejoin="round" stroke-width="1.95464" vectornator:layerName="Curve 17"/>
<path d="M460.681 334.398C460.681 334.398 457.124 341.661 451.213 349.806C437.593 368.573 411.471 392.022 387.561 342.074C387.561 342.074 371.675 316.108 380.712 299.326C386.896 287.844 417.926 284.72 453.699 293.004" fill="#de834e" fill-rule="nonzero" opacity="1" stroke="#000000" stroke-linecap="butt" stroke-linejoin="round" stroke-width="1.95464" vectornator:layerName="Curve 18"/>
<path d="M473.933 284.703C473.933 284.703 486.671 224.787 517.137 274.211C517.137 274.211 544.4 314.355 481.956 305.537" fill="#ed6d48" fill-rule="nonzero" opacity="1" stroke="#000000" stroke-linecap="butt" stroke-linejoin="round" stroke-width="1.95464" vectornator:layerName="Curve 19"/>
<path d="M464.791 314.163C464.791 314.163 438.588 376.037 420.678 325.103C420.678 325.103 396.81 285.617 454.686 294.164" fill="#ed6d48" fill-rule="nonzero" opacity="1" stroke="#000000" stroke-linecap="butt" stroke-linejoin="round" stroke-width="1.95464" vectornator:layerName="Curve 21"/>
<path d="M455.047 293.004C455.047 293.004 395.941 268.867 436.425 245.749C436.425 245.749 466.697 224.746 471.035 284.078" fill="#ed6d48" fill-rule="nonzero" opacity="1" stroke="#000000" stroke-linecap="butt" stroke-linejoin="round" stroke-width="1.95464" vectornator:layerName="Curve 22"/>
<path d="M460.38 333.516C460.38 333.516 427.802 456.91 444.665 533.522C444.665 533.522 433.048 536.021 430.956 531.825C430.956 531.825 427.576 388.703 450.502 350.533" fill="none" opacity="1" stroke="#000000" stroke-linecap="butt" stroke-linejoin="round" stroke-width="1.95464" vectornator:layerName="Curve 23"/>
<path d="M429.968 509.373C429.968 509.373 409.765 437.156 379.159 457.115C379.159 457.115 353.183 474.494 337.022 458.931C337.022 458.931 348.694 463.499 389.274 413.364C389.274 413.364 409.007 392.681 429.455 480.458" fill="none" opacity="1" stroke="#000000" stroke-linecap="butt" stroke-linejoin="round" stroke-width="1.95464" vectornator:layerName="Curve 24"/>
<path d="M442.043 505.513C442.043 505.513 459.797 397.164 512.608 494.652C512.608 494.652 530.345 509.478 547.131 506.235C547.131 506.235 472.287 366.247 439.796 478.17" fill="none" opacity="1" stroke="#000000" stroke-linecap="butt" stroke-linejoin="round" stroke-width="1.95464" vectornator:layerName="Curve 25"/>
<path d="M401.457 433.591C401.457 433.591 418.737 456.157 430.325 485.838" fill="none" opacity="1" stroke="#000000" stroke-linecap="butt" stroke-linejoin="round" stroke-width="1.95464" vectornator:layerName="Curve 27"/>
<path d="M440.49 479.536C440.49 479.536 450.452 444.162 475.661 441.519" fill="none" opacity="1" stroke="#000000" stroke-linecap="butt" stroke-linejoin="round" stroke-width="1.95464" vectornator:layerName="Curve 28"/>
<path d="M480.781 306.803C480.781 306.803 490.572 310.768 499.86 316.875C514.309 326.376 527.544 341.062 500.82 354.074C500.82 354.074 465.373 377.946 467.763 314.525" fill="#ed6d48" fill-rule="nonzero" opacity="1" stroke="#000000" stroke-linecap="butt" stroke-linejoin="round" stroke-width="1.95464" vectornator:layerName="Curve 20"/>
<path d="M454.206 299.127C454.206 290.816 460.645 284.078 468.589 284.078C476.533 284.078 482.972 290.816 482.972 299.127C482.972 307.438 476.533 314.175 468.589 314.175C460.645 314.175 454.206 307.438 454.206 299.127Z" fill="#ef9f46" fill-rule="nonzero" opacity="1" stroke="#000000" stroke-linecap="butt" stroke-linejoin="round" stroke-width="1.95464" vectornator:layerName="Oval 1"/>
</g>
</svg>
