<?xml version="1.0" encoding="UTF-8" standalone="no"?>
<!DOCTYPE svg PUBLIC "-//W3C//DTD SVG 1.1//EN" "http://www.w3.org/Graphics/SVG/1.1/DTD/svg11.dtd">
<!-- Created with Vectornator (http://vectornator.io/) -->
<svg height="100%" stroke-miterlimit="10" style="fill-rule:nonzero;clip-rule:evenodd;stroke-linecap:round;stroke-linejoin:round;" version="1.1" viewBox="1164.27 551.552 144.405 325.351" width="100%" xml:space="preserve" xmlns="http://www.w3.org/2000/svg" xmlns:vectornator="http://vectornator.io" xmlns:xlink="http://www.w3.org/1999/xlink">
<defs/>
<g id="Layer-11-copy-copy-copy-copy-copy" vectornator:layerName="Layer 11 copy copy copy copy copy">
<path d="M1213.32 870.47C1214.69 878.93 1213.3 857.059 1214.59 853.244C1219.23 839.528 1217.73 820.977 1219.37 805.889C1220.24 797.878 1221.72 787.486 1220.82 779.848C1220.35 775.852 1218.53 772.229 1218.82 768.028C1219.91 752.551 1222.93 737.699 1220.43 722.306C1218.95 713.162 1220.33 703.525 1219.26 694.451C1218.97 691.947 1218.84 685.243 1219.97 683.071C1220.3 682.444 1220.19 680.958 1220.19 680.958C1220.19 680.958 1226.06 685.643 1228.42 683.937" fill="#377235" fill-rule="nonzero" opacity="1" stroke="none" vectornator:layerName="Curve 119"/>
<path d="M1218.75 791.4C1216.15 799.103 1219.9 810.245 1218.88 818.072C1217.28 830.504 1216 843.977 1216.17 856.953C1216.23 861.603 1211.87 871.026 1213.7 875.211C1214.59 877.26 1223.53 874.877 1223.56 874.754C1227.32 861.199 1224.74 846.87 1226.5 833.248C1231.21 796.789 1226.06 758.968 1230.77 722.451C1232.19 711.497 1229.33 699.679 1230.77 688.527C1230.89 687.593 1227.72 682.083 1226.48 682.434C1214.58 685.811 1224.38 696.939 1221.02 706.883" fill="#377235" fill-rule="nonzero" opacity="1" stroke="none" vectornator:layerName="Curve 120"/>
<path d="M1227.61 742.466C1227.13 746.222 1227.43 751.176 1225.93 754.595C1224.52 757.804 1223.98 778.659 1229.02 769.622C1231.55 765.086 1229.32 755.192 1230.6 750.583C1231.02 749.091 1230.38 733.95 1228.67 735.265" fill="#377235" fill-rule="nonzero" opacity="1" stroke="none" vectornator:layerName="Curve 121"/>
<path d="M1174.35 708.144C1174.84 706.808 1174.52 711.132 1173.84 712.385C1173.28 713.435 1174.19 720.063 1174.58 721.385C1176.51 727.834 1179.3 745.05 1178.03 747.406" fill="#377235" fill-rule="nonzero" opacity="1" stroke="none" vectornator:layerName="Curve 122"/>
<path d="M1174.97 708.811C1176.17 710.086 1174.69 718.008 1174.61 720.461C1174.36 728.639 1177 740.751 1178.63 748.998C1183.12 771.635 1195.45 811.194 1215.5 825.475C1216.17 825.955 1219.76 828.162 1220.25 827.473C1220.68 826.874 1220.06 825.913 1219.95 825.242C1219.41 822.036 1212.23 800.798 1210.76 799.229C1210.26 798.696 1212.91 811.096 1213.34 808.657C1214.54 801.75 1210.08 794.505 1207.49 788.3C1203.19 778.015 1201.48 765.855 1197.49 755.691C1195.61 750.911 1192.55 745.223 1191.49 740.327C1190.73 736.851 1189.55 731.575 1187.03 728.898" fill="#377235" fill-rule="nonzero" opacity="1" stroke="none" vectornator:layerName="Curve 123"/>
<path d="M1200.49 778.365C1200.62 779.536 1205.95 790.592 1206.5 787.436C1207.21 783.378 1202.47 771.178 1202.36 774.814" fill="#377235" fill-rule="nonzero" opacity="1" stroke="none" vectornator:layerName="Curve 124"/>
<path d="M1204.47 784.134C1204.06 786.159 1207.98 790.232 1208.03 788.687C1208.16 784.639 1205.74 777.979 1204.47 784.134Z" fill="#377235" fill-rule="nonzero" opacity="1" stroke="none" vectornator:layerName="Curve 125"/>
<path d="M1226.56 817.964C1233.13 813.618 1233.2 807.856 1237.1 801.539C1244.76 789.111 1259.03 766.741 1271.31 759.669C1272.69 758.878 1286.91 746.499 1286.94 746.509C1290.94 747.842 1279.86 765.108 1279.39 766.218C1279.28 766.491 1279.04 766.702 1278.94 766.983C1274.5 780.316 1262.35 801.076 1247.98 806.147C1242.72 808.004 1239.59 813.3 1234.22 815.197C1232.37 815.852 1224.11 819.582 1226.56 817.964Z" fill="#377235" fill-rule="nonzero" opacity="1" stroke="none" vectornator:layerName="Curve 126"/>
<path d="M1234.31 807.54C1232.47 808.867 1227.92 817.475 1228.78 816.875C1230.95 815.375 1237.97 804.905 1234.31 807.54Z" fill="#377235" fill-rule="nonzero" opacity="1" stroke="none" vectornator:layerName="Curve 127"/>
<path d="M1280.69 760.08C1277.9 760.918 1272.52 773.251 1274.34 776.887C1274.38 776.984 1278.28 771.613 1278.34 771.552C1280.71 769.116 1286.34 758.379 1280.69 760.08Z" fill="#377235" fill-rule="nonzero" opacity="1" stroke="none" vectornator:layerName="Curve 128"/>
<path d="M1300.24 670.273C1283.98 681.114 1273.53 696.427 1261.76 711.148C1256.67 717.509 1246.64 725.364 1244.19 732.724C1243.22 735.643 1230.15 748.811 1230.64 750.288C1230.76 750.641 1236.84 748.854 1237.79 748.445C1243.98 745.795 1252.84 742.833 1257.63 738.037C1274.45 721.225 1291.3 705.902 1301.65 683.953C1305.23 676.357 1304.22 673.275 1306.86 667.996" fill="#377235" fill-rule="nonzero" opacity="1" stroke="none" vectornator:layerName="Curve 129"/>
<path d="M1268.59 701.824C1265.33 702.91 1258.1 710.915 1257.42 713.859C1257.19 714.861 1255.44 716.536 1256.44 716.786C1258.04 717.185 1270.49 705.722 1271.51 703.667C1271.65 703.393 1273.33 698.167 1271.4 700.089" fill="#377235" fill-rule="nonzero" opacity="1" stroke="none" vectornator:layerName="Curve 130"/>
<path d="M1193.54 640.96C1193.54 640.96 1194.49 682.865 1227.51 683.153C1227.51 683.153 1258.68 685.606 1266.68 641.427" fill="#ed6d48" fill-rule="nonzero" opacity="1" stroke="#000000" stroke-linecap="butt" stroke-linejoin="round" stroke-width="1.95464" vectornator:layerName="Curve 138"/>
<path d="M1290.08 624.895C1290.08 624.895 1285.69 596.677 1232.1 594.717C1232.1 594.717 1172.52 588.826 1165.29 619.766C1165.29 619.766 1161.52 642.734 1227.87 644.777C1227.87 644.777 1288.35 649.259 1289.7 623.378" fill="#ed6d48" fill-rule="nonzero" opacity="1" stroke="#000000" stroke-linecap="butt" stroke-linejoin="round" stroke-width="1.95464" vectornator:layerName="Curve 131"/>
<path d="M1249.31 619.212C1249.31 619.212 1242.85 608.996 1224.54 608.651C1224.54 608.651 1206.03 608.842 1203.9 620.521C1203.9 620.521 1203.95 627.989 1226.61 629.686C1226.61 629.686 1248.43 631.148 1249.31 619.212Z" fill="none" opacity="1" stroke="#000000" stroke-linecap="butt" stroke-linejoin="round" stroke-width="1.95464" vectornator:layerName="Curve 132"/>
<path d="M1241.78 627.535L1266.22 594.434" fill="none" opacity="1" stroke="#000000" stroke-linecap="butt" stroke-linejoin="round" stroke-width="1.95464" vectornator:layerName="Curve 133"/>
<path d="M1235.46 628.742L1251.3 581.79" fill="none" opacity="1" stroke="#000000" stroke-linecap="butt" stroke-linejoin="round" stroke-width="1.95464" vectornator:layerName="Curve 134"/>
<path d="M1226.96 629.471L1226.54 571.994" fill="none" opacity="1" stroke="#000000" stroke-linecap="butt" stroke-linejoin="round" stroke-width="1.95464" vectornator:layerName="Curve 135"/>
<path d="M1220.64 628.354L1204 572.176" fill="none" opacity="1" stroke="#000000" stroke-linecap="butt" stroke-linejoin="round" stroke-width="1.95464" vectornator:layerName="Curve 136"/>
<path d="M1216.16 628.37L1191.87 590.821" fill="none" opacity="1" stroke="#000000" stroke-linecap="butt" stroke-linejoin="round" stroke-width="1.95464" vectornator:layerName="Curve 137"/>
<path d="M1220.32 682.94C1220.32 682.94 1221.44 841.799 1212.65 875.666C1212.65 875.666 1220.7 876.602 1224.06 874.918C1224.06 874.918 1233.98 730.467 1229.3 684.063" fill="none" opacity="1" stroke="#000000" stroke-linecap="butt" stroke-linejoin="round" stroke-width="1.95464" vectornator:layerName="Curve 139"/>
<path d="M1230.34 751.124C1230.34 751.124 1279.18 678.334 1307.7 667.109C1307.7 667.109 1282.57 736.562 1230.34 751.124Z" fill="none" opacity="1" stroke="#000000" stroke-linecap="butt" stroke-linejoin="round" stroke-width="1.95464" vectornator:layerName="Curve 140"/>
<path d="M1226.55 818.18C1226.55 818.18 1253.62 770.45 1287.47 746.31C1287.47 746.31 1280.96 795.895 1226.55 818.18Z" fill="none" opacity="1" stroke="#000000" stroke-linecap="butt" stroke-linejoin="round" stroke-width="1.95464" vectornator:layerName="Curve 141"/>
<path d="M1217.97 818.922C1217.97 818.922 1197.21 744.388 1174.65 706.248C1174.65 706.248 1171.92 788.821 1218.15 827.605" fill="none" opacity="1" stroke="#000000" stroke-linecap="butt" stroke-linejoin="round" stroke-width="1.95464" vectornator:layerName="Curve 142"/>
<path d="M1181.71 584.377C1181.71 580.269 1185.24 576.938 1189.6 576.938C1193.96 576.938 1197.5 580.269 1197.5 584.377C1197.5 588.486 1193.96 591.817 1189.6 591.817C1185.24 591.817 1181.71 588.486 1181.71 584.377Z" fill="#ef9f46" fill-rule="nonzero" opacity="1" stroke="#000000" stroke-linecap="butt" stroke-linejoin="round" stroke-width="1.95464" vectornator:layerName="Oval 5"/>
<path d="M1193.02 563.25C1193.02 558.321 1197.14 554.324 1202.22 554.324C1207.29 554.324 1211.41 558.321 1211.41 563.25C1211.41 568.18 1207.29 572.176 1202.22 572.176C1197.14 572.176 1193.02 568.18 1193.02 563.25Z" fill="#ef9f46" fill-rule="nonzero" opacity="1" stroke="#000000" stroke-linecap="butt" stroke-linejoin="round" stroke-width="1.95464" vectornator:layerName="Oval 6"/>
<path d="M1216.16 562.352C1216.16 556.927 1220.75 552.529 1226.42 552.529C1232.09 552.529 1236.69 556.927 1236.69 562.352C1236.69 567.778 1232.09 572.176 1226.42 572.176C1220.75 572.176 1216.16 567.778 1216.16 562.352Z" fill="#ef9f46" fill-rule="nonzero" opacity="1" stroke="#000000" stroke-linecap="butt" stroke-linejoin="round" stroke-width="1.95464" vectornator:layerName="Oval 7"/>
<path d="M1246.19 573.594C1246.19 567.881 1250.54 563.25 1255.92 563.25C1261.3 563.25 1265.65 567.881 1265.65 573.594C1265.65 579.306 1261.3 583.937 1255.92 583.937C1250.54 583.937 1246.19 579.306 1246.19 573.594Z" fill="#ef9f46" fill-rule="nonzero" opacity="1" stroke="#000000" stroke-linecap="butt" stroke-linejoin="round" stroke-width="1.95464" vectornator:layerName="Oval 8"/>
<path d="M1263.17 589.567C1263.17 585.272 1266.53 581.79 1270.68 581.79C1274.83 581.79 1278.19 585.272 1278.19 589.567C1278.19 593.862 1274.83 597.344 1270.68 597.344C1266.53 597.344 1263.17 593.862 1263.17 589.567Z" fill="#ef9f46" fill-rule="nonzero" opacity="1" stroke="#000000" stroke-linecap="butt" stroke-linejoin="round" stroke-width="1.95464" vectornator:layerName="Oval 9"/>
</g>
</svg>
